<?xml version="1.0" encoding="utf-8"?>
<!-- Generator: Adobe Illustrator 18.0.0, SVG Export Plug-In . SVG Version: 6.00 Build 0)  -->
<!DOCTYPE svg PUBLIC "-//W3C//DTD SVG 1.1//EN" "http://www.w3.org/Graphics/SVG/1.1/DTD/svg11.dtd">
<svg version="1.1" id="Camada_1" xmlns="http://www.w3.org/2000/svg" xmlns:xlink="http://www.w3.org/1999/xlink" x="0px" y="0px"
	 viewBox="0 0 1600 900" enable-background="new 0 0 1600 900" xml:space="preserve">
<g>
	<g>
		<path fill="#E30613" d="M153.7,99.4c10.8,4.3,19.2-11.6,21.7-19.8c1.2-3.9,1-8,1-12c0-4.5,0-8.6-2.6-12.5
			c-6.4-9.7-20.6-3.8-27.4,1.9c-9.1,7.7-14.2,19.9-15.4,31.5c-0.8,8.2-1,18,1.8,25.7c4.3,11.8,16.9,11.4,25.5,4.7
			c8.4-6.6,11.4-17.9,11.5-28.1c0.1-10.3-0.2-19.8-5.5-28.9c0.5,0.9-0.1,4-0.1,5c0,1.6-0.1,3.4,0.1,5c2.5,26.4,9,52.1,13.5,78.1
			c2.3,13.1,4.6,27,4,40.3c-0.4,9.6-0.6,29.3-14.1,29.2c-10.3-0.1-17.4-10.7-20.9-19c-2-4.7-3-9.9-3.6-15c-0.2-4.1-0.3-3.9-0.2,0.4
			c0.1-2,0.3-4,0.5-6c0.4-3,1-6,1.7-9c4.9-21.3,18.4-40.3,36.3-52.7c1.6-1.1-1.5-9,0-10c-21,14.6-35.1,37.8-38.1,63.3
			c-2.2,19.1-1,51.5,21.9,57.7c14.9,4,15.8-17.8,16.5-27.3c0.9-11.8,0.5-23.9-0.5-35.7c-2.6-31.4-11.5-61.8-15.7-93
			c-0.5-3.7-0.9-7.5-1.3-11.2c0,3.3,0,6.7,0,10c1.8,3.1,3.2,6.3,4.2,9.8c0.4,1.5,0.7,3,0.9,4.5c0.3,2.7,0.4,2,0.4-2.2
			c-0.1,1.5-0.2,2.9-0.5,4.4c-1,6.9-4.1,13.5-8.8,18.6c-4.4,4.7-10.8,7.7-17.2,6.8c-6.7-1-10.2-7.6-11.7-13.5
			c-0.4-1.7-0.6-3.6-0.7-5.3c0.7,10.5,0.2,1.8,0.7-1.1c0.6-3.6,1.8-7.1,3.2-10.5c2.7-6.6,7.2-12.7,12.6-17.3
			c9.4-7.9,27.6-9.3,28.9,6.5c0-1.7,0-3.3-0.1-5c0-2.6-0.9,2-0.9,2c-0.4,1.5-1,2.8-1.6,4.2c-1.2,2.8-2.8,5.3-4.5,7.8
			c-3.5,5-9.3,10.3-15.7,7.8C154.7,89.8,152.5,98.9,153.7,99.4L153.7,99.4z"/>
	</g>
</g>
<g>
	<g>
		<path fill="#E30613" d="M217.6,80.5c-2.2-6.4-9.2-7.9-14.9-5.4c-6.4,2.7-9.9,10.4-11.2,16.7c-0.9,4.7-0.4,9.9-0.3,14.6
			c0.2,6.5,4.5,11.5,10.6,13.3c14.5,4.1,14.3-16.9,14.2-25.5c-0.1-6-0.8-11.6-4.9-16.3c-3.9-4.4-11.6-4.5-15.3,0
			c-0.6,0.7-0.1,4.2-0.1,5c0,0.8,0.6,4.4,0.1,5c2.9-3.4,7-3.9,11.1-2.6c4.6,1.4,7,5.9,8.3,10.2c0.2,0.9,0.4,1.9,0.6,2.9
			c-0.5-3-0.3,0.6-0.5,1.5c-0.5,2.3-1.6,4.4-2.9,6.3c-2.7,3.8-7.5,4.4-11.6,3.2c-4.6-1.3-7.5-5.3-8.9-9.6c-0.5-2.7-0.6-2.1-0.3,2
			c0.2-1.6,0.8-3.2,1.3-4.7c0.8-2.4,2.1-4.5,3.6-6.6c5-7,17.7-10.2,21.2,0C216.6,87.5,218.7,83.5,217.6,80.5L217.6,80.5z"/>
	</g>
</g>
<g>
	<g>
		<path fill="#E30613" d="M248.7,76.6c-3.9-8-14.1-6.1-19.4-0.7c-5.4,5.5-7.3,14.3-7.3,21.8c0,6-1.3,16.3,7.2,16.6
			c4.6,0.2,7.8-5.8,9.3-9.3c2.1-5,2.5-10.9,2.7-16.2c0.1-3-0.8-7,0-9.8c-1.7,6.2-1.5,13.7-0.6,19.9c0.7,4.8,3.3,9.1,6.7,12.4
			c1.9,1.8,7,2.9,7.5-0.7c0.4-3.3-0.4-6.7,0-10c-0.6,4.6-6.6,1.5-8.5-0.3c-3.8-3.7-5.6-9.1-6-14.3c0,0.5,0,1,0,1.5
			c0.1,8,0.3,3.6,0.9,1.4c0-3.3,0-6.5,0-9.8c-0.3,8.3-1.4,18.5-8.5,23.9c-2.5,1.9-5.6,1.5-8-0.3c-1.2-0.9-1.8-2.5-2.2-3.9
			c-0.5-2.8-0.6-1.5-0.3,3.7c0.1-0.9,0.3-1.7,0.4-2.5c1.4-6.8,4.8-14,11-17.5c5.1-2.9,12.5-1.2,15.1,4.1
			C247.4,83.9,250.1,79.3,248.7,76.6L248.7,76.6z"/>
	</g>
</g>
<g>
	<g>
		<path fill="#E30613" d="M262.9,44.9c2.3,0.8,1.4-9.1,1.3-11c0-0.1,0-0.1,0-0.2c-3.7-1.8-2.7,6.5-2.6,8.2c0,5.6,1.2,11.1,1.9,16.6
			c2.2,16.7,3,33.5,2,50.3c-0.2,3,0.2,7.3,0,9.6c0.7-12.3,0.8-24.6,0.5-36.8c-0.4-15.5-2.7-30.6-4.3-46.1c0,3.3,0,6.7,0,10
			c0.1-0.7,2.5-4.1,2.6-1.2c0-3.3,0-6.5,0-9.8c-0.3,0.6-0.8,0.7-1.3,0.3C263.9,35.2,261.8,44.5,262.9,44.9L262.9,44.9z"/>
	</g>
</g>
<g>
	<g>
		<path fill="#E30613" d="M325.4,93.6c9.8-3.4,17.6-10.1,22.4-19.3c3.5-6.5,3.3-14.4,2.9-21.6c-0.5-9.8-7.7-15.4-17.4-12.5
			c-10.3,3.1-15.2,16.4-18.4,25.5c-3.5,9.8-4.9,20.2-5,30.6c0,7.5-0.6,15.6,3.7,22.2c6.6,10,18.9,2.6,25.3-3.1
			c8.9-7.8,17.3-16.9,23.9-26.7c0.6-0.9,0.1-4,0.1-5c0-0.5-0.5-4.7-0.1-5c-3.9,3.1-7.5,6.4-9.5,11.1c-1.2,2.8-0.9,6.4-0.9,9.4
			c0,7.3,0.9,14.9,10.1,14.7c8.3-0.1,10.7-8.8,10.7-15.5c0-5.1,1-18.6-7.8-16.7c-0.8,0.2,0.6,9.9,0,10c3.7-0.8,5.9,2,7.2,5.2
			c0.6,2.7,0.7,1.6,0.3-3.3c-0.2,0.9-0.4,1.8-0.7,2.6c-0.6,1.7-1.7,3.2-2.9,4.6c-6.1,6.9-16.6,2-16.9-6.5c0,3.3,0,6.5,0,9.8
			c0.5-6.9,5.2-11.4,10.3-15.5c0-3.3,0-6.7,0-10c-5.5,8.1-12.1,15.1-19,21.9c-5.9,5.8-12.5,12.7-21.3,12.8
			c-7.8,0.1-11.3-8-12.3-14.4c-0.2-2.2-0.3-1.7-0.2,1.5c0.1-1.8,0.2-3.5,0.4-5.3c0.3-2.4,0.7-4.8,1.1-7.2c0.9-4.8,2.3-9.5,3.9-14
			c2.9-8.1,6.8-16.6,13.9-21.8c6.2-4.5,15.3-3.6,19.4,3c0.9,1.4,1.3,3.1,1.6,4.8c0.3-5.2,0.2-6.3-0.1-3.4c-0.1,0.9-0.3,1.8-0.6,2.6
			c-0.9,3.7-3,7.2-5.2,10.3c-4.6,6.7-11.7,11.5-19.3,14.1C324.3,84,326.4,93.3,325.4,93.6L325.4,93.6z"/>
	</g>
</g>
<g>
	<g>
		<path fill="#E30613" d="M374.2,84.7c0,1.5,0,2.9,0,4.4c0,0.8,0,1.7,0,2.5c0.4-5.2,4.2-11.5,10.2-8.2c2.4,1.3,3.5,5.3,4.4,7.6
			c1.4,3.7,2.2,7.6,2.7,11.5c0-3.3,0-6.7,0-10c-0.4-2.9-0.4-1.8-0.2,3.1c0.1-0.9,0.3-1.8,0.5-2.7c0.4-1.8,1.2-3.5,2-5.1
			c1.6-3.3,4.2-6.1,7.2-8.3c2.4-1.8,2.6-1.2,4.5,0.9c1.4,1.6,2.4,3.4,3.4,5.2c1,1.8,1.7,3.8,2.4,5.8c0.3,1,0.6,2,0.8,3
			c0.4,1.6-0.2,5.4,0.3,0.9c-0.4,3.3,0.4,6.7,0,10c0.6-5.3,0.7-10.9,0.3-16.2c-0.3-4.2-1.4-8.2-3.1-12.1c-0.8-1.9-2-3.7-3.2-5.4
			c-1.2-1.7-2.3-4-4.3-2.9c-11.5,6.5-12.5,22-10.6,33.7c-0.5-3.2,0.4-6.7,0-10c-0.8-6.3-4.3-25.4-14.2-18.5
			c-5.1,3.5-3.4,15.1-3.1,20.4C374.1,91.9,374.4,87.7,374.2,84.7L374.2,84.7z"/>
	</g>
</g>
<g>
	<g>
		<path fill="#E30613" d="M436,27.6c-2.7,1.9-2.5,5.2-2.6,8.2c-0.1,5.7-0.3,11.4-0.4,17.1c-0.2,9-0.5,18.1-0.5,27.1
			c0,8.9,0.3,17.7,2.1,26.4c0.7,3.5,2.6,5.7,6.4,4.8c4.2-1,4.9-6.5,5.3-10c0.4-3.3-0.4-6.7,0-10c-0.6,4.8-2.4,11.6-8.7,10
			c-2.6-0.6-3-4.7-3.4-6.7c-0.9-4.3-1.2-8.7-1.5-13c-0.5-8.2,0.2-16.5,0.4-24.6c0.1-3.8,0.2-7.6,0.3-11.4c0.1-3-0.1-6,2.5-7.8
			C437.6,36.5,434.5,28.6,436,27.6L436,27.6z"/>
	</g>
</g>
<g>
	<g>
		<path fill="#E30613" d="M418.4,67.3c7.3,0.3,14.4-0.2,21.6-1.5c0.7-0.1-0.5-9.9,0-10c-7.1,1.4-14.3,1.9-21.6,1.5
			C418.5,57.4,418.2,67.3,418.4,67.3L418.4,67.3z"/>
	</g>
</g>
<g>
	<g>
		<path fill="#E30613" d="M450.2,106.3c2.4-7.5,4.2-15.1,5.4-22.8c0.2-1.6,0.1-3.4,0.1-5c0-1-0.6-4.1-0.1-5
			c-2.9,5.1-2.4,10.8-2.4,16.5c0,6.2,1.6,11.7,6.7,15.7c-0.4-0.3,0.1-4.5,0.1-5c0-0.6,0.5-4.6-0.1-5c-1.9-1.5-3.3-3.2-4.6-5.3
			c-1.6-2.8-1.9-10.5-2-0.6c0,0.5,0,1,0,1.5c0.2-2.8,0.9-5.3,2.4-7.8c0-3.3,0-6.7,0-10c-1.2,7.8-3,15.4-5.4,22.8
			C449.2,99.3,451.2,103.3,450.2,106.3L450.2,106.3z"/>
	</g>
</g>
<g>
	<g>
		<path fill="#E30613" d="M461.7,59.8c-0.9-0.5-1.8-1-2.7-1.4c0,0,0,1.6,0,1.5c0,1.2,0,2.4,0,3.5c0,1.2,0,2.4,0,3.5
			c0,0-0.1,1.4,0,1.5c0.9,0.5,1.8,1,2.7,1.4c0,0,0-1.6,0-1.5c0-1.2,0-2.4,0-3.5s0-2.4,0-3.5C461.8,61.4,461.8,59.9,461.7,59.8
			L461.7,59.8z"/>
	</g>
</g>
<g>
	<g>
		<path fill="#E30613" d="M477.5,91.2c-0.2-2.2-0.4-4.4-0.5-6.5c0,3.3,0,6.7,0,10c2-4.8,7.7-4,10.7-0.7c4.2,4.6,2.5,12.4,3.6,18.1
			c0-3.3,0-6.7,0-10c-0.3-1.2-0.6-2.3-0.8-3.5c-1.1-5.6-0.8,4.9,0.1-0.7c0.4-2.7,1.3-5.5,2.8-7.8c3.1-5,8.7,1,10.2,3.9
			c2.2,4.5,3.5,9.1,6.6,13.2c2.7,3.6,8.2,7.2,10.5,1.5c3.1-7.6,2.5-17.4,2-25.5c-0.1-0.9-0.3-7.5-1.2-4.1c-0.4,1.5-0.4,3.2-0.4,4.7
			c-0.1,3.5-0.1,7,0.1,10.5c0.2,4.2,2,8.1,4.4,11.4c1.3,1.8,3.1,3.3,5,4.6c0.8,0.5,1.6,0.9,2.4,1.3c0.1,0,1.9-4.6,2-5
			c3.2-8.6,3.1-17.8,3-26.8c0-2-0.1-4-0.3-6c0.1,1.4-0.6,3.2-0.6,4.7c-0.1,3.5-0.2,7,0,10.5c0.6,9.3,6,17.4,14.8,20.6
			c-1-0.4,1.1-9.6,0-10c-6.1-2.2-10.5-6.7-13.1-12.6c-0.5-1.2-0.9-2.5-1.2-3.8c-0.4-2.4-0.4-1.7-0.2,2c0.2-1.6,0.3-1.8,0.3-0.6
			c-0.4,4.2-1.4,8.2-2.7,12.2c-0.6,1.7-1.3,3.3-2,5c-0.1,0.3-4.2-2.7-4.6-2.9c-2.5-2-4.2-4.8-5.5-7.6c-0.6-1.2-0.9-2.6-1.3-3.9
			c-0.4-2.8-0.6-1.8-0.3,3.3c0.1-0.9,0.3-1.8,0.5-2.7c0-0.1,0.5,6,0.8,2.3c-0.2,2.4-0.7,4.7-1.4,6.9c-2.6,9.7-10.5,1.6-13.5-3.5
			c-3-5.2-3.7-14.4-11-15.2c-9.6-1-6.8,28.4-5.4,33.7c-0.8-3.1,0.6-6.8,0-10c-1.2-6.5,0.5-23.4-11.2-20.4c-3.8,1-3.1,5.2-3.1,8.1
			c0,3.9,0.3,7.7,0.6,11.5C477.2,97.9,477.8,94.5,477.5,91.2L477.5,91.2z"/>
	</g>
</g>
<g>
	<g>
		<path fill="#E30613" d="M576.7,73.7c-7.9-1.6-15.3,1.9-19,9c-2.5,4.8-1.7,11.5-1.5,16.7c0.2,5.6,4.6,16.5,11.8,11.3
			c3-2.2,4.5-8.2,5.6-11.5c1.7-5,2.6-10.3,3-15.6C576.9,80.3,576.2,76.8,576.7,73.7c-1,5.8-1.1,12.4-0.5,18.3
			c0.4,4.3,1.4,8.4,3.6,12.2c1.8,3.3,6.5,4.7,8.5,0.9c1.4-2.6-1.4-7.4,0-10c-2.2,4.1-6.4,2-8.5-0.9c-1.2-1.6-1.7-3.8-2.3-5.6
			c-0.3-1.1-0.6-2.2-0.8-3.3c-1-4.7-0.7,3,0-1.7C576.7,80.3,576.7,76.9,576.7,73.7c-0.6,7-5.8,37.9-17.7,25.2c-0.9-1-1.5-2.4-2-3.6
			c-1.1-2.9,0.3-5.3-0.6,1.6c0.4-2.9,1.8-5.4,3.5-7.7c3.8-5,10.8-6.6,16.7-5.4C576.2,83.5,577.4,73.8,576.7,73.7L576.7,73.7z"/>
	</g>
</g>
<g>
	<g>
		<path fill="#E30613" d="M607.4,40.3c0.6-3.2,0.3-6.5,0.2-9.7c0-1.4-0.1-2.4-0.8-3.7c-1.5-2.5-1.6,2.3-1.8,2.9
			c-0.4,1.8-0.7,3.6-0.9,5.5c-1.4,9.8-1.2,20.3-0.5,30.2c0.8,13.2,3.9,26.2,7.4,38.9c1,3.9,2.6,11.5,8.1,10.4
			c2.2-0.4,3.3-4.1,4.1-5.8c1.5-3.5,3.1-7,4.6-10.5c1.2-2.8-1.2-7.2,0-10c-1.8,4.1-3.6,8.2-5.4,12.3c-1.3,2.9-3.2,5.2-6.4,3.7
			c-2.7-1.3-3.7-5.6-4.4-8.2c-1.2-4.2-2.3-8.5-3.3-12.8c-2.1-8.5-3.6-17.2-4.4-25.9c-0.5-5.1-0.1-8.6,0.7-14
			c0.3-1.8,0.7-3.7,1.1-5.5c0.8-3.5,1.9-0.5,2.2,1.1c0-3.3,0-6.7,0-10c-0.1,0.4-0.1,0.8-0.2,1.2C606.9,33.5,608,37,607.4,40.3
			L607.4,40.3z"/>
	</g>
</g>
<g>
	<g>
		<path fill="#E30613" d="M594.8,72.4c6.9,3.7,14.7,4,21.9,0.9c1.3-0.6-1.1-9.5,0-10c-7.2,3.1-15,2.8-21.9-0.9
			C596.1,63.2,593.4,71.7,594.8,72.4L594.8,72.4z"/>
	</g>
</g>
<g>
	<g>
		<path fill="#E30613" d="M633.8,102.7c8,8,11.2-10.7,11.4-15.1c0.2-3,0.1-6.1,0-9.2c0-1.4,0-2.8-0.1-4.1c0-0.7-0.1-1.3-0.2-2
			c-0.3-3.9-0.9-0.4-1.3,0.8c-2.2,5.9-1.5,12.9-1.4,19.1c0.1,7.5,3.3,14.5,8.7,19.6c-0.5-0.4,0.1-4.4,0.1-5c0-0.7,0.5-4.5-0.1-5
			c-3.2-3-5.4-6.5-7-10.6c-0.7-1.8-1.1-3.7-1.4-5.5c-0.2,3.4-0.2,3.9,0.1,1.5c0.2-1.4,0.6-2.8,1-4.1c0.3-0.9,0.7-1.8,1.1-2.6
			c0.3,2.1,0.3,2.4,0.2,1.1c-0.3,2.8-1,5.6-2,8.2c-1.5,3.8-5.9,6.2-9.1,3c0.5,0.5-0.1,4.3-0.1,5C633.7,98.5,633.2,102.2,633.8,102.7
			L633.8,102.7z"/>
	</g>
</g>
<g>
	<g>
		<path fill="#E30613" d="M653.5,64.1c-0.5,0-0.9,0-1.4,0c-0.1,0-0.1,10,0,10c0.5,0,0.9,0,1.4,0C653.6,74.1,653.6,64.1,653.5,64.1
			L653.5,64.1z"/>
	</g>
</g>
<g>
	<g>
		<path fill="#E30613" d="M684.8,75.1c-1.1-4.2-5.1-5.6-9.1-5.2c-5.8,0.5-8.4,7-9.5,11.8c-1,4.6-0.9,9.4-0.9,14.1
			c0,5-0.1,9.9,2.7,14.3c3.4,5.4,10.3,5.3,14,0.6c2.9-3.7,3.1-9,3.2-13.5c0.1-10.5-0.5-20-8.6-27.7c0.5,0.4-0.1,4.4-0.1,5
			c0,0.7-0.5,4.5,0.1,5c2.5,2.4,4.4,5,6,8c0.9,1.7,1.4,3.6,1.9,5.4c0.2,0.9,0.4,1.9,0.5,2.8c0.1-3.3,0-3.8-0.4-1.4
			c-1.5,8.2-8.8,13-15.6,6.7c-1.5-1.4-2.3-3.4-2.9-5.3c-0.4-2.7-0.6-2.1-0.6,1.8c0.1-1.5,0.2-3,0.5-4.4c0.5-4,2-7.7,4.7-10.7
			c3.9-4.4,12.6-3.5,14.2,2.6C684,82,685.6,78.2,684.8,75.1L684.8,75.1z"/>
	</g>
</g>
<g>
	<g>
		<path fill="#E30613" d="M692.5,79.6c3,6.9,4.8,14.1,5.5,21.6c0-3.3,0-6.7,0-10c-0.6-5.2-0.6,3.5,0-1.7c0.3-2.2,0.8-4.4,1.4-6.6
			c1.1-4.2,3-8.4,5.6-11.8c2.1-2.8,5.4-4.2,8.5-2.1c2.8,1.9,2.6,7.7,2.9,10.6c0.8,7.4,0.1,17.3,4.2,23.8c2.2,3.5,6.4,2.9,9.5,1.2
			c3.8-2.2,4.9-7.5,5.8-11.3c0.7-3.2-0.7-6.9,0-10c-1.2,4.9-2.5,9.4-7,12.1c-4.6,2.6-8.4-1.2-9.8-5.2c-1.6-4.5-1.5-10-2-14.7
			c-0.5-5-0.2-11.1-2.8-15.6c-2.7-4.8-8.2-0.2-10.2,2.5c-3.3,4.2-4.8,10.3-5.8,15.5c-1.4,7.4-1.1,15.9-0.3,23.4
			c-0.4-3.3,0.3-6.7,0-10c-0.7-7.5-2.5-14.7-5.5-21.6C693.7,72.4,691.3,76.8,692.5,79.6L692.5,79.6z"/>
	</g>
</g>
<g>
	<g>
		<path fill="#E30613" d="M303.9,15.1c-10.4,27.1-23.7,54.7-23.8,84.3c0,11.1,0.7,21.6,4.8,32.1c4.3,11,12.3,20.4,22.9,25.6
			c-1.2-0.6,1.4-9.3,0-10c-8.6-4.2-15.1-10.9-19.9-19.1c-2.4-4.2-4.1-8.7-5.4-13.3c-0.7-2.3-1.1-4.7-1.5-7.1
			c-0.2-1.4-0.4-2.9-0.6-4.3c-0.9-8.6-0.5,5.1-0.2-1.5c0.6-13.6,4.9-26.9,9.4-39.7c4.5-12.5,9.4-24.8,14.1-37.1
			C305.1,22.2,302.8,18,303.9,15.1L303.9,15.1z"/>
	</g>
</g>
<g>
	<g>
		<path fill="#E30613" d="M768.3,22.3c-0.4-1.6-2.1-1-2.1,0.6c-0.1,1.6,0,3.2,0,4.8c0,4.6,0.4,8.6,1.6,13.1
			c3.2,12.5,9.6,24,11.3,36.9c0.3,3.7,0.4,4.3,0.2,1.9c-0.1,1.7-0.4,3.4-0.7,5c-0.4,2.8-1.2,5.6-2,8.3c-1.7,6.1-4.4,11.9-7.4,17.5
			c-3,5.6-6.6,10.8-10.5,15.9c-1.7,2.2-3.5,4.3-5.4,6.4c-1.8,2-5.4,3.9-6.1,6.5c-0.3,1.3-0.9,9.3,0,10c0.6,0.5,1.2,0.8,1.4-0.2
			c0.7-3.2-0.7-6.8,0-10c-0.2,1-0.8,0.7-1.4,0.2c0,3.3,0,6.7,0,10c0.6-2.3,3.3-3.7,4.9-5.3c2-1.9,3.8-4.1,5.5-6.2
			c4-4.9,7.5-10.2,10.6-15.7c6-10.3,10.5-22.2,11-34.2c0.4-9,0.5-18.1-1.6-26.9c-2.9-12.7-10.9-24.8-11.6-38c0,3.3,0,6.5,0,9.8
			c0.5-1.1,1.7-2.1,2.1-0.4C767.5,29.2,769,25.5,768.3,22.3L768.3,22.3z"/>
	</g>
</g>
<g>
	<g>
		<path fill="#E30613" d="M240,263.1c15.8-1.6,31.7-1.8,47.5-0.3c-0.5,0,0.7-9.2,0-10c-4.8-5.9-10.7-10.2-17.8-12.9
			c1.2,0.4-1.3,9.3,0,10c6.6,3.6,12,8.5,16.4,14.6c0-3.3,0-6.7,0-10c-4.1,5.9-8.3,11.7-12.4,17.6c-1.6,2.3,1.5,7.8,0,10
			c4.1-5.9,8.3-11.7,12.4-17.6c0.7-0.9,0.7-9.1,0-10c-4.3-6.1-9.8-11-16.4-14.6c0,3.3,0,6.7,0,10c7.1,2.7,13.1,7,17.8,12.9
			c0-3.3,0-6.7,0-10c-15.8-1.4-31.7-1.3-47.5,0.3C239.6,253.2,240.3,263.1,240,263.1L240,263.1z"/>
	</g>
</g>
<g>
	<g>
		<path fill="#E30613" d="M213.1,690.6c26.2,2.4,52.4,4.9,78.7,7.3c-0.6-0.1,0.8-9.3,0-10c-7.4-6.9-15.6-12.6-24.7-17.1
			c1.3,0.7-1.4,9.2,0,10c4,2.3,11.2,5.5,13,10.1c0-3.3,0-6.7,0-10c-0.4,4.2-5.3,8.1-7.8,11.2c-3.7,4.5-7.5,8.9-11.2,13.4
			c-0.6,0.7-0.1,4.2-0.1,5c0,0.8,0.6,4.4,0.1,5c4.1-5,8.3-9.9,12.4-14.9c2.9-3.5,6.6-6.4,6.6-11.1c0-3,0.7-6.7-0.4-9.6
			c-0.7-1.9-4-3.5-5.6-4.7c-2.2-1.6-4.6-3-7-4.4c0,3.3,0,6.7,0,10c9,4.6,17.2,10.3,24.7,17.1c0-3.3,0-6.7,0-10
			c-26.2-2.4-52.4-4.9-78.7-7.3C213.3,680.7,212.7,690.6,213.1,690.6L213.1,690.6z"/>
	</g>
</g>
<g>
	<g>
		<path fill="#E30613" d="M1139.6,578c0.1,0,0.1-10,0-10C1139.5,568,1139.5,578,1139.6,578L1139.6,578z"/>
	</g>
</g>
<g>
	<g>
		<path fill="#E30613" d="M347,200.1c1.9,29,4.4,57.9,7.4,86.7c-0.3-3.3,0.3-6.7,0-10c-3-28.7-5.4-57.5-7.3-86.4
			C347.2,192.8,346.8,197.1,347,200.1L347,200.1z"/>
	</g>
</g>
<g>
	<g>
		<path fill="#E30613" d="M329.5,242.2c13.5,0,27,0,40.5,0c0.1,0,0.1-10,0-10c-13.5,0-27,0-40.5,0
			C329.4,232.2,329.4,242.2,329.5,242.2L329.5,242.2z"/>
	</g>
</g>
<g>
	<g>
		<path fill="#E30613" d="M365,275.3c13.9-9.3,18.4-25.4,18.4-41.4c0-8.5-0.4-16.6-2.4-24.9c-2.6-10.8-7.1-21-11.6-31.1
			c1.2,2.7-0.6,7.1,0,10c3,15.5,6.5,30.9,10.5,46.1c2,7.3,4.1,14.6,6.3,21.8c1.1,3.6,2.3,7.2,3.4,10.8c0.6,1.8,1.2,3.6,1.8,5.4
			c0.4,1.2,0.8,2.4,1.2,3.6c0.4-1.2,0.8-2.5,1.2-3.7c2.2-6.7,3.8-14.1,7.1-20.3c4.3-8,10.8,2,13.1,5.8c1.8,2.9,3.3,6.1,4.7,9.2
			c0.7,1.6,1.3,3.2,1.9,4.8c1.1,2.9,1.1,0.7,1.7-0.9c1.3-3.6,0.3-8.8,0.2-12.6c0.1,2.4-0.1,6.6,0,9.6c0,0.5,0,0.9,0,1.4
			c0-3.3,0-6.5,0-9.8c-0.1,1-0.3,1.9-0.7,2.7c-1.1,3.1-1.5-1.1-1.8-2c-1.2-3.2-2.7-6.4-4.3-9.4c-2.2-4.3-5.4-11.5-11-11.7
			c-5-0.2-6.9,10.8-7.9,14c-1,3.1-2,6.2-3.1,9.2c-0.5,1.6-0.6,5.6-1.8,1.9c-0.6-1.8-1.2-3.6-1.8-5.4c-8.7-26.4-15.6-53.3-20.8-80.6
			c0,3.3,0,6.7,0,10c3.2,7.3,6.4,14.7,9,22.3c1.4,4.1,2.5,8.2,3.4,12.4c0.4,1.8,0.7,3.6,0.9,5.4c0.2,1.8,0.4,3.5,0.5,5.3
			c0.1-4.7,0.1-5.1-0.1-1.1c-1.1,13-7.1,25.7-18.1,33C363.5,266.4,366.5,274.3,365,275.3L365,275.3z"/>
	</g>
</g>
<g>
	<g>
		<path fill="#E30613" d="M439.4,259.3c2.8-5.9,4.6-12,5.3-18.5c0.1-1.2,0.8-9.6,0-10c-11.7-6.5-10.7,20-10.6,25.8
			c0.1,5.9,2.7,11.3,8,14.1c5.3,2.8,11.8-1.2,12.4-6.9c0.3-3.3-0.3-6.7,0-10c-0.4,4.2-3.3,6.6-7.2,7.6c-4.2,1-8.1-2.1-10.4-5.2
			c-1.2-1.6-1.8-3.6-2.3-5.5c-0.4-2.7-0.5-2.3-0.2,1.3c0.2-1.7,0.6-3.3,0.9-4.9c1-4.3,4.7-8.9,9.4-6.3c0-3.3,0-6.7,0-10
			c-0.7,6.5-2.4,12.6-5.3,18.5C438.1,252.1,440.7,256.6,439.4,259.3L439.4,259.3z"/>
	</g>
</g>
<g>
	<g>
		<path fill="#E30613" d="M541.4,246.1c4-4.6,6.3-8.5,6.4-14.7c0-4.9,0.9-10.6-3.4-14c-4.9-3.8-13.3,3.1-16.8,6.1
			c-4.6,3.9-8.8,9.9-9,16.1c-0.4,9.9-1,22,9.7,26.9c5.8,2.6,12.1-0.8,16.1-4.8c5.3-5.4,6.7-13.7,8-20.8c0.3-1.6,0-3.4,0-5
			c0-1-0.6-4.1,0-5c-2.6,4.6-2,12-1.3,17.1c1.4,9.7,13.1,10.8,20.4,7.9c1.2-0.5-1.1-9.6,0-10c-8.6,3.4-20.3,0.9-20.6-10.1
			c0,3.3,0,6.5,0,9.8c0.2-1.8,0.6-3.1,1.5-4.6c0-3.3,0-6.7,0-10c-1.7,9.3-3.9,18.9-12.4,24.4c-7.6,4.9-16,0.6-19.7-6.8
			c-0.8-1.6-1.2-3.3-1.5-5.1c-0.3,5.2-0.2,6.3,0.3,3.3c0.3-1.4,0.9-2.7,1.4-4.1c1.7-4,4.9-7.3,8.2-10.1c5.8-4.9,17.8-10.4,19,1.4
			c0-3.3,0-6.5,0-9.8c-0.1,4.9-3.2,8.5-6.3,12c-0.6,0.7,0,4.2,0,5C541.3,241.8,541.9,245.5,541.4,246.1L541.4,246.1z"/>
	</g>
</g>
<g>
	<g>
		<path fill="#E30613" d="M575.8,182.8c4.5,49.6,10.3,99.2,17.4,148.5c-0.5-3.3,0.5-6.7,0-10c-7-49.4-12.8-98.9-17.4-148.5
			C576.1,176.1,575.5,179.5,575.8,182.8L575.8,182.8z"/>
	</g>
</g>
<g>
	<g>
		<path fill="#E30613" d="M591.6,235.4c-0.4-0.7-0.6-1.4-0.6-2.2c0,3.3,0,6.7,0,10c0.3-3.9,3.2-6.6,7.1-6.8c4.2-0.3,7.3,4.1,8.6,7.5
			c0.5,2.4,0.6,1.7,0.2-2c-0.2,1.1-0.5,2.2-0.8,3.3c-0.7,2.4-1.6,4.8-2.8,7c-1.9,3.4-6.8,4.1-8.4,0.1c0,3.3,0,6.5,0,9.8
			c0-0.4,0-0.7,0.1-1.1c0.2-3-0.2-7.3,0-9.6c-0.2,4.2-1.8,17.6,6.6,12.7c3.5-2,4.7-8.7,5.4-12.2c0.8-3.5,0.4-7.3,0.4-10.9
			c0-3.5-0.1-6.5-1.8-9.7c-2.1-4.1-6.8-6.1-11-4.1c-3.3,1.6-3.6,5.2-3.6,8.4c0,3.1-0.6,6.8,0.7,9.8
			C590.5,242.6,592.8,238.2,591.6,235.4L591.6,235.4z"/>
	</g>
</g>
<g>
	<g>
		<path fill="#E30613" d="M613.2,191.6c-1-0.9-2-1.8-2.9-2.7c0.5,0.4,0,4.4,0,5c0,1.6-0.2,3.4,0,5c6.2,34.6,12.4,69.2,18.6,103.9
			c-0.6-3.2,0.6-6.8,0-10c-6.2-34.6-12.4-69.2-18.6-103.9c0,3.3,0,6.7,0,10c1,0.9,2,1.8,2.9,2.7c-0.5-0.4,0-4.4,0-5
			C613.3,195.9,613.8,192.1,613.2,191.6L613.2,191.6z"/>
	</g>
</g>
<g>
	<g>
		<path fill="#E30613" d="M622.5,246.1c0.2-5.3,5.2-7.8,10-7.7c2.5,0,4.5,1.4,6.1,3.1c2.7,2.6,3.3,11.4,3.4,2.2c0-0.5,0-1,0-1.5
			c-0.3,3.8-0.9,8.3-5.2,9.3c-5,1.2-7.4-5.8-8.4-9.2c0,3.3,0,6.7,0,10c12.4-1.6,22-8.4,26.6-20.1c3.3-8.4,2.7-18.1,2.5-26.9
			c-0.1-6.2-1.5-12.3-3-18.3c-0.7-3-1.6-5.9-2.4-8.9c0.2,0.8-1.1,3.7-1.3,4.6c-0.4,1.5-0.7,3.1-1,4.7c-1.6,8.8-1.6,18.6-0.8,27.4
			c1,11.8,4.7,22.9,11,32.9c3.1,4.9,6.8,7.7,10.4,1.5c2.9-5,4-11,4.4-16.7c0.3-4.2,0.1-8.4,0-12.6c0-0.5,0.1-6.4-0.5-2.8
			c-0.3,1.6-0.1,3.4-0.1,5c0,9.8,1,18.9,10.7,23.9c-1.3-0.6,1.4-9.3,0-10c-6.3-3.2-10.1-9.1-10.7-16.2c0,0.8,0,1.7,0,2.5
			c0.1,11.3,1.4-6.9,0.2,3.8c-0.2,1.7-0.6,3.4-1,5.1c-0.8,3.2-2.1,6.4-3.8,9.2c-4.2,7.2-9.2-1.8-11.4-5.4
			c-3.3-5.5-5.6-11.5-7.2-17.6c-0.8-3.1-1.4-6.2-1.8-9.4c-0.1-1.1-0.2-7.6-0.4-2.9c0.1-2.6,0.5-5.2,0.9-7.7c0.5-3.1,1.3-6.2,2.3-9.3
			c-0.3,1,1.2,4.3,1.5,5.3c0.5,1.8,0.9,3.6,1.4,5.4c0.9,3.6,1.6,7.2,2.1,10.8c0.4,2.8,0,10.6,0.4,0.6c-0.1,2.5-0.6,5.1-1.1,7.5
			c-3,13.9-14.1,22.7-27.9,24.5c-0.1,0-0.3,9.1,0,10c1.1,3.6,2.2,7,5.7,8.8c3.3,1.7,5.8-0.9,6.9-3.8c1.8-4.7,1-10.8,1-15.8
			c-0.1-5.7-2.6-11.5-8.5-13c-5.3-1.4-10.9,2.5-11.1,7.9C622.3,239.4,622.6,243.7,622.5,246.1L622.5,246.1z"/>
	</g>
</g>
<g>
	<g>
		<path fill="#E30613" d="M682.2,213.8c0.1,0,0.1-10,0-10S682.1,213.8,682.2,213.8L682.2,213.8z"/>
	</g>
</g>
<g>
	<g>
		<path fill="#E30613" d="M691.7,247.4c5.3-7.3,8-15.7,8.1-24.7c0-3.3,0.1-6.7,0-10c-0.1-2.4,0.2-4.7-2.7-2.5
			c-1.5,1.1-2.3,4-2.8,5.7c-1.5,5.2-0.9,11.9-0.5,17.3c0.7,7.8,6.1,14.9,13.4,17.5c-1-0.4,1.1-9.6,0-10c-4-1.4-7-3.9-9.5-7.3
			c-1.2-1.7-2.1-3.6-2.8-5.5c-0.4-1.2-0.7-2.4-0.9-3.6c-1-4.9-0.7,7.6,0,2.7c0.3-2,1.2-3.9,2.1-5.7c0.8-1.5,1.8-2.1,3.4-2.2
			c0-0.6,0-1.1,0-1.7c-0.1,1.1-0.3,2.2-0.5,3.3c-1,6-3.8,11.7-7.4,16.6C690.1,239.6,693.2,245.2,691.7,247.4L691.7,247.4z"/>
	</g>
</g>
<g>
	<g>
		<path fill="#E30613" d="M741.8,207.6c-10.4-5.6-18.2,9-19.1,17.5c-0.7,6.3-1.7,16.9,6.3,18.4c11.5,2.3,15.3-17.6,16.5-25
			c1.4-8.4,1.1-17.5,0.4-26c-0.2-3-0.8-5.9-1.4-8.8c-0.3-1.2-0.6-2.3-0.9-3.4c-0.4-1.4-0.6-5.4-1.5-1.7c-1.5,5.7-2.1,11.6-2.3,17.4
			c-0.3,9.1-0.1,18.2,1.6,27.2c1.7,8.9,5.4,23,16,24.7c11.6,1.9,13.2-14.5,13.4-22.2c0-2.3,0-4.6,0-6.8c0-0.3,0-3.6-0.1-1.8
			c-0.2,7.2-0.9,14.4-7,19.1c-4.8,3.7-10.5,1.1-14.1-2.8c-4.2-4.5-6-11.1-7.5-16.9c-0.9-3.4-1.4-6.8-1.9-10.3
			c-0.2-1.7-0.2-8.9-0.4-2.4c0.1-2.3,0.3-4.5,0.6-6.8c0.4-3.5,1.2-6.9,2.1-10.3c-0.2,0.9,1.3,4.2,1.6,5.1c0.5,1.7,0.8,3.5,1.1,5.2
			c0.3,1.8,0.5,3.5,0.7,5.3c1.2,11,0.9-8.6,0,2.5c-0.3,3.6-1,7.1-1.8,10.5c-1.4,5.8-3.6,12.2-8.4,16.1c-5.2,4.4-12.3,1.2-13-5.2
			c0,2.8,0,5.7,0,8.5c0-0.4,0-0.9,0-1.3c0,0.5,0,1,0,1.5c0.9-8.5,8.7-23.1,19.1-17.5C740.5,216.9,743.3,208.4,741.8,207.6
			L741.8,207.6z"/>
	</g>
</g>
<g>
	<g>
		<path fill="#E30613" d="M871.8,161.2c-10.5,0.1-19.5,6-24.7,15c-4,6.9-3.8,16.4-3.1,24.1c1.2,13.6,8,26.8,12.5,39.6
			c2.4,6.8,4.6,13.6,6.9,20.4c2.1,6.4,5,13.1,6,19.8c0-3.3,0-6.7,0-10c-0.1,1.4-0.2,2.7-1.9,2.6c0.1,0-0.2,10,0,10
			c2.9,0.1,1.9-7.2,1.9-8.9c0-5-1.6-9.3-3.1-14.1c-4.3-13.7-8.9-27.3-13.8-40.8c-2.4-6.5-5-12.9-7-19.6c-0.3-1.2-0.6-2.3-0.9-3.5
			c-0.5-2.1,0-6.8-0.6-0.4c0.3-2.7,1.2-5.4,2.3-7.9c4.4-9.7,14.7-16.2,25.3-16.2C871.9,171.2,871.8,161.2,871.8,161.2L871.8,161.2z"
			/>
	</g>
</g>
<g>
	<g>
		<path fill="#E30613" d="M837.5,241.9c11.4-2.9,22.2-7.5,32.2-13.7c1.5-1-1.4-9.1,0-10c-10,6.2-20.8,10.8-32.2,13.7
			C836.6,232.1,838.2,241.7,837.5,241.9L837.5,241.9z"/>
	</g>
</g>
<g>
	<g>
		<path fill="#E30613" d="M899.8,200.9c-4.2-1.2-8.1,0-11.3,2.9c-3.1,2.7-3.2,6.4-3.2,10.2c0,3.4-0.3,6.9,0.6,10.2
			c1.4,4.8,6.5,7.6,11.2,7.6c9.8,0,10.5-11.6,10.5-18.5c0-9.1-3.8-16.1-13.2-18.4c0.7,0.2-0.9,9.8,0,10c4.5,1.1,8.2,3.5,10.9,7.3
			c0.5,0.7,0.9,1.5,1.2,2.3c1.5,3.2-0.5,4.9,0.7-2.4c-0.3,2.1-1.5,4-2.7,5.6c-6,8.2-17.9,2.8-19.2-6.1c0,1.2,0,2.4,0,3.7
			c0-0.4,0-0.9,0-1.3c0,2.1,0,4.2,0,6.3c1-6.9,7.8-11.3,14.5-9.4C899,210.6,900.8,201.2,899.8,200.9L899.8,200.9z"/>
	</g>
</g>
<g>
	<g>
		<path fill="#E30613" d="M928.1,217.8c2-0.1,3.5,0.5,4.7-1.2c1-1.4,1.5-3.1,1.8-4.8c0.6-2.4,0.3-5.1,0.3-7.6
			c0-6.2-0.1-11.9-5.2-16.4c0,3.3,0,6.7,0,10c4.4-1.3,8.7-2.3,13.2-1.2c5.6,1.3,7.1,7.4,7.5,12.3c0.3,3.9,0,7.6,0.9,11.4
			c0.5,2.2,1.6,4,3,5.6c2.3,2.4,4.1,0.2,6.3-1.2c1.5-1-1.4-9.1,0-10c-1.7,1.1-3.4,3-5.3,2c-1.9-1-2.9-3.2-3.6-5.1
			c-1.7-4.3-1-9.3-1.3-13.8c-0.8-12.1-11-12.8-20.6-10c-0.1,0-0.5,9.5,0,10c2.7,2.4,4.2,5.3,4.9,8.8c0.3-5.2,0.2-6.4-0.3-3.6
			c-0.2,0.8-0.5,1.6-0.9,2.4c-1.2,2.7-2.6,2.2-5.3,2.3C927.9,207.8,928.1,217.8,928.1,217.8L928.1,217.8z"/>
	</g>
</g>
<g>
	<g>
		<path fill="#E30613" d="M992,179.8c-8.8-3.3-16,3-20,10.3c-3.9,7.1-4,14.1-3.9,21.9c0.1,7.2,3.7,13.8,11.7,13.4
			c8.2-0.4,15-8.5,17.7-15.5c1.1-2.9-1.1-7.1,0-10c-3.7,9.7-18.7,23-27.3,10.7c-0.8-1.2-1.2-2.6-1.6-3.9c0,1.1,0,2.1-0.1,3.2
			c0.2-1.2,0.5-2.4,0.9-3.5c1.1-3.6,3-7.1,5.1-10.2c4-5.7,10.9-8.8,17.5-6.3C991,189.5,993.2,180.3,992,179.8L992,179.8z"/>
	</g>
</g>
<g>
	<g>
		<path fill="#E30613" d="M1024.8,202.3c-1.7,0.8-2.5-0.2-2.9-1.8c0,3.3,0,6.7,0,10c0.7-2.4,2.9-3.7,4.5-5.6
			c2.1-2.4,3.3-5.4,4.1-8.3c1.3-4.6,0.7-10,0.6-14.6c0-2.5-0.4-4.9-1.1-7.3c-0.4-1.3-1-2.5-1.7-3.6c0.2,0.4-2,5.4-2.2,6.2
			c-1.4,5.3-1,11.2-1,16.7c0.1,6.1,1,12.2,5,17c5,6.1,12.3,2.2,16.2-2.7c6.9-8.9,6.1-24.8,4.6-35.4c0,3.3,0,6.7,0,10
			c3.2,4.8,6.7,9.2,10.7,13.3c3.3,3.5,6.7,7,7.2,12c0-3.3,0-6.5,0-9.8c-0.2,4.4-3.1,8.7-7.9,8c0.4,0.1-0.6,9.9,0,10
			c9.4,1.4,8-11.9,7.9-17.5c-0.1-4.7-3.2-8.3-6.2-11.6c-4.3-4.6-8.2-9.2-11.7-14.4c0.5,0.8-0.1,4.1-0.1,5c0,1.6-0.2,3.4,0.1,5
			c0.2,2.7,0.4,2.3,0.4-1.2c-0.1,2.3-0.5,4.5-0.9,6.7c-0.5,2.6-1.4,5-2.6,7.4c-2.1,4.2-5.8,7.7-10.6,8.4c-4.9,0.7-8.4-4-10.1-7.9
			c-1.1-2.3-1.5-5-1.8-7.5c0,2.3,0.1,2.4,0.4,0.2c0.3-1.6,0.8-3.2,1.3-4.8c0.4-1,0.8-2.1,1.3-3c-0.1,0.2,1.6,3.3,1.7,3.6
			c0.3,0.8,0.5,1.7,0.7,2.6c1.2,5,0.8-7.1,0.1-2c-0.7,4.5-3,8.5-6.2,11.6c-2.9,2.9-2.7,4.7-2.7,8.6c0,1.8-0.8,8.7,2.9,6.8
			C1026.2,211.6,1023.5,203,1024.8,202.3L1024.8,202.3z"/>
	</g>
</g>
<g>
	<g>
		<path fill="#E30613" d="M1123.8,185.2c0.6,11.9,2,23.7,4.5,35.3c0.4,1.8,4.2-2.5,4.3-2.7c1.3-2.1,1.8-5,2.6-7.4
			c0.9-2.9,1.8-5.7,2.7-8.6c0.7-2.3,0.9-1.9,3.1-1.5c1.2,0.3,2.3,1.2,3.3,2c3.5,2.8,4.8,7.8,7,11.5c1.1,1.9,2.7,3.3,4.6,4.4
			c0.2,0.1,3.8-7.2,4.1-7.8c4.8-10.4,6.9-21.8,7.1-33.3c0-2.3,0-4.6,0-6.8c0-0.3,0-3.6-0.1-1.8c-0.2,12.3-3.2,24.1-8.5,35.1
			c-0.9,1.7-1.6,5.2-3.7,4c-1.9-1-3.1-3.1-4.2-4.9c-2.4-4-3.6-8.1-7.3-11.1c-1.4-1.1-3-1.4-4.7-1.4c-0.4,0-2.5,7.8-2.7,8.6
			c-1.2,3.8-2,10.6-6.4,12c-1.8,0.6-1.9-4.4-2.2-5.6c-0.6-3.1-1.1-6.1-1.5-9.2c-1-6.7-1.5-13.5-1.9-20.3
			C1124,177.9,1123.7,182.2,1123.8,185.2L1123.8,185.2z"/>
	</g>
</g>
<g>
	<g>
		<path fill="#E30613" d="M1178,213.7c2.8-4.1,4.3-8.6,4.6-13.6c0.1-1.6,0-3.2,0-4.8c0-1.4-0.5-3.6-0.1-5c-1.3,4.5-0.9,9.6-0.7,14.2
			c0.1,4.7,2,8.9,5.6,12c-0.4-0.4,0-4.4,0-5c0-0.6,0.5-4.6,0-5c-1.9-1.6-3.3-3.4-4.3-5.7c-0.5-1.1-0.8-2.3-1-3.4
			c-0.4-3-0.4-1.2-0.1,5.5c0.1-0.9,0.3-1.8,0.6-2.6c0-3.3,0-6.5,0-9.8c-0.3,4.8-1.8,9.2-4.6,13.2c-0.6,0.8-0.1,4-0.1,5
			C1178,209.6,1178.5,213,1178,213.7L1178,213.7z"/>
	</g>
</g>
<g>
	<g>
		<path fill="#E30613" d="M1200.5,161.8c-1.5,14.5-0.9,29.8,3.4,43.8c-0.9-3,1-6.9,0-10c-1.3-4-2.2-8.1-2.9-12.3
			c-0.3-1.8-0.5-3.6-0.7-5.4c-0.2-4.2-0.3-4.6-0.2-1c0.1-1.7,0.2-3.5,0.4-5.2C1200.9,168.5,1200.2,165.1,1200.5,161.8L1200.5,161.8z
			"/>
	</g>
</g>
<g>
	<g>
		<path fill="#E30613" d="M1216.4,144.5c-1.1,22.7-0.2,45.5,3.7,67.9c-0.6-3.2,0.6-6.8,0-10c-2.8-15.9-4.4-32.1-3.7-48.3
			C1216.6,151.1,1216.3,146.8,1216.4,144.5L1216.4,144.5z"/>
	</g>
</g>
<g>
	<g>
		<path fill="#E30613" d="M1296.4,178.9c0-4,0.7-8.1-1.7-11.6c-2.7-4-8.5-4.9-12.8-3.5c-11,3.6-11.1,18.2-11,27.5
			c0,4.3,0.3,8.4,3,12c4,5.4,11.2,2.9,15.3-0.8c7.3-6.7,5.1-21.9,4.7-30.8c0,3.3,0,6.5,0,9.8c9.9,32.3,16.1,66.8,15.8,100.6
			c0-0.5,0-1,0-1.5c-5.7,4.1-11.7-2.3-15.1-6.5c-4.7-5.8-7.4-13-8.6-20.3c-0.7-4.3,2.4-12,5-17c3.4-6.3,8.6-11.5,14.5-15.4
			c1.6-1-1.5-9,0-10c-7.4,4.9-12.9,11.5-16.6,19.5c-3.3,7.3-3.5,15-3.5,22.9c0,7.8,1,15,4.2,22.2c2.8,6.3,10.4,18.7,19,15.5
			c2.3-0.9,1.1-6.3,1.1-8.2c0-4.4,0-8.9-0.1-13.3c-0.2-10.4-0.9-20.8-2-31.2c-2.4-22.8-7.1-45.3-13.8-67.2c0.8,2.8-0.1,6.9,0,9.8
			c0.2,5.2,0.4-3.5-0.3,1.7c-0.3,2.2-1.1,4.2-2,6.1c-1.6,3.4-4.9,5.8-8.4,6.9c-3.1,1-6.1,0-8.5-1.9c-1.3-1-2-2.6-2.7-4.1
			c-1.2-2.8-0.3-7.7-1,1c0.6-7.1,4.3-14.3,10.9-17.3c5.7-2.7,13.5,1.5,14.4,7.6c0-2.1,0-4.2,0-6.3c0,0.4,0,0.8,0,1.2
			c0,2,0,4.1,0,6.2C1296.4,182.2,1296.4,179.7,1296.4,178.9L1296.4,178.9z"/>
	</g>
</g>
<g>
	<g>
		<path fill="#E30613" d="M1317.6,211.4c6.7-8.2,7-17.4,6.8-27.4c0-1.8-0.1-3.5-0.4-5.2c0.1,0.5-1.4,2.8-1.6,3.4
			c-0.4,1.2-0.6,2.4-0.8,3.6c-0.5,3.8-0.2,8-0.1,11.8c0.1,4.1,1.4,7.8,3.6,11.2c1.4,2.1,3.4,3.6,5.6,4.9c1.2,0.7,6-4.6,6.7-5.4
			c6-6.9,5.6-17.6,4.8-26.1c0,0.1,0,0.1,0,0.2c-0.5,7.9-1,16.8,3.6,23.6c3,4.3,7.5,3.3,9.6-1c2.4-5,2.7-11.7,3.8-17
			c0.6-2.9-1.2-7.4,0-10c-1.9,4-1.5,8.4-1.5,12.8c0,4.7,0.5,8.7,4,12.3c-0.5-0.5,0.1-4.3,0.1-5c0-0.7,0.5-4.4-0.1-5
			c-2.4-2.4-3.6-5.1-4-8.5c0,0.5,0,1,0,1.5c0-0.5,0-0.9,0-1.4c0,2.8,0,5.7,0,8.5c0.2-1.9,0.6-3.5,1.4-5.2c0-3.3,0-6.7,0-10
			c-1,5-2.1,25.3-11.5,19.9c-1.6-0.9-2.6-2.9-3.5-4.4c-0.5-1-0.9-2-1.2-3c-0.1-0.2-0.6-4.9-0.9-2.4c-0.5,4.3-2.8,8.3-5.6,11.5
			c-1.3,1.5-2.9,2.6-4.5,3.6c-2,1.3-3.8-0.9-5.3-2.3c-2.8-2.6-4.2-6.3-5-9.9c-0.3,4.2-0.2,5,0.3,2.6c0.2-0.8,0.5-1.6,0.8-2.4
			c0.3-0.8,0.7-1.5,1.2-2.2c0.1,0.5,0.1,1,0.2,1.5c0.1-4.4,0.1-5.3-0.3-2.4c-0.7,5-3.2,9.7-6.4,13.6c-0.6,0.7-0.1,4.1-0.1,5
			C1317.6,207.1,1318.1,210.7,1317.6,211.4L1317.6,211.4z"/>
	</g>
</g>
<g>
	<g>
		<path fill="#E30613" d="M1361.9,165.9c-0.5-0.9-0.9-1.8-1.4-2.7c0.1,0.2,0,1.3,0,1.5c0,1.2,0,2.4,0,3.5c0,1.2,0,2.4,0,3.5
			c0,0.2-0.1,1.2,0,1.5c0.5,0.9,0.9,1.8,1.4,2.7c-0.1-0.2,0-1.3,0-1.5c0-1.2,0-2.4,0-3.5c0-1.2,0-2.4,0-3.5
			C1361.9,167.2,1362,166.2,1361.9,165.9L1361.9,165.9z"/>
	</g>
</g>
<g>
	<g>
		<path fill="#E30613" d="M1405.4,173.6c-8.1-4.3-17.6,1.6-17.8,10.7c-0.1,8-1.4,18.2,7.2,22.4c10.4,5,14.7-19.2,15.7-24.8
			c1.6-9,1.4-18.5,1-27.5c-0.1-2.4-0.4-4.8-0.7-7.3c-0.2-1.2-0.4-2.3-0.6-3.5c-0.7-3.7-0.8-0.2-1.2,1c-1.1,3.7-1.3,7.6-1.4,11.5
			c-0.1,8.8,0,17.2,3.1,25.5c2,5.5,12.2,24.2,19.7,17.9c4-3.3,6.1-10,7.3-14.8c1.1-4.3,0.9-8.9,0.9-13.4c0-1.1-0.6-4,0-5
			c-2.2,4-2,8-2,12.4c0,4.4,0,8.4,1.9,12.5c5,10.6,19.9,9.3,25.8,0.6c1.6-2.3-1.5-7.7,0-10c-4.1,6-11.3,8.4-18.2,6.2
			c-3.4-1.1-5.8-3.8-7.5-6.8c-0.9-1.5-1.3-3.2-1.6-4.9c-0.3,5.2-0.2,6.4,0.3,3.6c0.3-1.3,0.9-2.4,1.5-3.6c0-1.7,0-3.3-0.1-5
			c0,5-3.3,11.4-6.1,15.7c-4.4,6.8-9.1,2.6-13.3-1.9c-4-4.2-6.8-9.4-8.8-14.8c-1-2.7-1.6-5.6-2.1-8.4c-0.5-2.9-0.1-9.4-0.4,1.2
			c0.1-1.9,0.3-3.7,0.7-5.6c0.2-0.9,0.4-1.9,0.6-2.8c0.3-1.3,0.5-4.6,1.2-1c0.4,1.7,0.6,3.5,0.8,5.3c0.2,1.6,0.4,9,0.5,2.6
			c-0.2,7.7-1.7,15.2-4.1,22.5c-1.7,5.2-3.9,12-9.9,13.1c-6.2,1.2-9.6-7.4-10-12c0,3.1,0,6.2,0,9.3c0.1-9.2,9.6-15.1,17.8-10.8
			C1404,182.9,1406.8,174.4,1405.4,173.6L1405.4,173.6z"/>
	</g>
</g>
<g>
	<g>
		<path fill="#E30613" d="M260,355.7c1.6,13.5,3.1,27,4.7,40.5c-0.4-3.3,0.4-6.7,0-10c-1.6-13.5-3.1-27-4.7-40.5
			C260.4,349,259.7,352.4,260,355.7L260,355.7z"/>
	</g>
</g>
<g>
	<g>
		<path fill="#E30613" d="M242.7,385.1c0,0.2,0,0.4,0.1,0.6c0-3.3,0-6.7,0-10c-1,0.7-2.1,0.3-2.3-0.9c0,3.3,0,6.7,0,10
			c1.1-2.1,3.2-2.1,5.4-2.4c3.2-0.4,6.4-1.2,9.5-2.2c5.7-1.7,11-4.4,15.9-7.7c10-6.6,16.9-16.9,19.9-28.4c2-7.9,2-17.9,0.6-25.9
			c-0.9-5.3-5.7-10.1-11.2-7.3c-4.5,2.4-4.5,13.4-5,17.7c-2.1,21,0.5,42.8,10.1,61.7c1.3,2.5,2.7,4.9,4.2,7.2
			c-0.2-0.3,4.9-7.8,5.3-8.7c1.3-2.5,2.4-5.1,3.4-7.8c0.6-1.6,1.1-3.2,1.6-4.8c0.5-1.6,0-3.5,2-3c9.6,2.3,3.5,20.7,14.9,21.3
			c-0.1,0,0.3-10,0-10c-9.5-0.6-7.6-14.9-13-20.2c-0.6-0.5-1.2-0.9-1.9-1.1c-1.9-0.9-1.6,1.7-2,3c-0.9,3.3-2.2,6.4-3.5,9.6
			c-1.1,2.6-2.5,5.1-4,7.5c-0.9,1.5-1.8,2.8-2.8,4.2c0.1-0.2-2.4-3.9-2.6-4.3c-6.1-10.6-9.8-22.6-11.4-34.7
			c-0.1-1.1-0.3-2.2-0.4-3.3c-0.1-0.7-0.1-9.5-0.3-1.9c0.1-3.8,0.6-7.6,1.2-11.4c0.8-5,1.5-12,7.9-11.9c2.5,0,4.4,2,5.7,3.8
			c0.9,1.3,1.3,2.9,1.7,4.4c1.4,5.4,1.2-7.8,0.2,1.2c-0.6,5.9-2.8,11.5-5.6,16.7c-5.7,10.5-15.7,18-26.6,22.5
			c-5.4,2.2-11.1,3.2-16.8,4.2c-4,0.7-2.6,6.6-2.6,9.5c0,1.1,0,2.1,0.2,3.1c0.2,1.1,2.2,0.8,2.2-0.4c0.1-3.2,0.3-6.6-0.1-9.9
			C243.1,378.3,242.3,381.8,242.7,385.1L242.7,385.1z"/>
	</g>
</g>
<g>
	<g>
		<path fill="#E30613" d="M326.7,389c10.5-2.8,11.8-12.5,11.8-21.8c0-1.6,0.1-3.3-0.1-4.9c-0.4-3.2-0.9-4.2-4.3-3.4
			c-4.8,1.2-7.2,8.4-7.4,12.7c-0.5,8.4-1.2,18.5,4,25.6c8.7,11.9,21.8-1.7,25.4-10.5c1.2-2.9-1.1-7.2,0-10
			c-2.8,6.8-7.8,13.7-15.5,14.9c-8.1,1.2-12.5-7.1-13.7-13.7c-0.3-2.5-0.3-1.7-0.1,2.2c0.1-0.9,0.3-1.7,0.6-2.6
			c0.5-1.7,1.3-3.3,2.2-4.8c1.2-2,7-6.7,8.3-2.8c0.6,2.9,0.7,1.6,0.3-3.9c-0.1,0.8-0.3,1.6-0.6,2.4c-0.4,1.6-1.3,3-2.2,4.4
			c-2,3.2-5.3,5.2-8.8,6.2C325.7,379.2,327.4,388.8,326.7,389L326.7,389z"/>
	</g>
</g>
<g>
	<g>
		<path fill="#E30613" d="M410.6,364.6c-1.8-1.6-3-3.2-4-5.4c0,0.1,0,0.1,0,0.2c-0.8,12.3-0.6,24.9,2.2,36.9c0-0.2,0-0.5,0-0.7
			c0.1-7.3,0.3-14.5,0.4-21.8c0.1-3.3,0.1-6.6,0.2-9.9c0-2.3-1.3-10,2.6-8.2c4.5,2.1,7.3,7.3,9.9,11.2c3,4.5,6.8,8.2,12.3,9.3
			c5.4,1.1,8.2-3.6,9.3-8.1c0.7-2.9,1.2-5.9,1.8-8.9c0.4-1.9,0.7-3.8,1.1-5.6c0.2-1.1,0.4-6.5,1-1.8c0.9,7.2,1.9,14.3,2.8,21.5
			c0.4,3.2,0.6,6.4,1.7,9.4c0.4,1.1,1.2,1.8,2.2,2.4c1.5,0.9,2.9-1.6,3.8-2.4c0.6-0.5,0-4.3,0-5c0-0.6-0.5-4.5,0-5
			c-1.7,1.7-2.4,3.3-4.7,1.8c-1.3-0.8-1.7-2.9-2-4.3c-1.4-5.4-1.5-11.3-2.2-16.8c-0.3-2.6-0.7-5.2-1-7.8c-0.2-1.3-0.3-2.6-0.5-3.9
			c-0.6-4.7-0.8,0.7-1,1.8c-1,5.3-1.9,10.6-3.2,15.9c-2.2,9.3-11.3,7.4-17,2.6c-6.4-5.3-8-14.5-16.6-17.4c0,0.2,0,0.5,0,0.7
			c-0.2,11.2-0.4,22.4-0.6,33.7c0,1.3,0,2.6-0.1,4c0.4,2,0.3,2.5-0.5,1.5c-0.7-2.9-1.1-5.9-1.5-9c-0.2-1.7-0.3-3.5-0.4-5.3
			c-0.1,3-0.1,3.2,0,0.6c0.7-0.7,1.2-0.5,1.4,0.8c0.7,1.2,1.7,2.1,2.8,3c-0.4-0.4,0-4.4,0-5C410.6,368.9,411.1,365,410.6,364.6
			L410.6,364.6z"/>
	</g>
</g>
<g>
	<g>
		<path fill="#E30613" d="M473.9,348.3c-6.2,6.9-6.9,14.7-6.9,23.5c0,6.2,2.4,18.2,11.3,14.3c7.1-3.1,5.9-16,5.9-22.1
			c0-4-0.6-7.6-3.4-10.6c-2.9-3.2-7.8-3.7-11.4-1.5c-1.6,1,1.5,9.1,0,10c4.7-2.9,10-0.8,13,3.5c0.8,1.2,1.2,2.8,1.5,4.2
			c0-1.3,0-2.6,0-4c-0.2,1-0.4,2-0.7,3c-0.7,2.6-2,4.9-3.9,6.8c-4.4,4.3-9.4-0.9-11.2-4.8c-1.2-2.5-0.2-5.4-0.8,1.8
			c0.1-1.6,0.6-3.1,1-4.6c1-3.6,3.2-6.7,5.6-9.4c0.6-0.6,0-4.2,0-5C473.9,352.6,473.4,348.8,473.9,348.3L473.9,348.3z"/>
	</g>
</g>
<g>
	<g>
		<path fill="#E30613" d="M491.8,374.2c1.1-4.7,5.3-13.5,11.2-8.1c2.1,1.9,2,6.3,2.3,8.8c0.4,3.2,1,6.1,2.9,8.7
			c3.4,4.8,8.9,2.8,11.3-1.6c2.3-4.3,2-9.9,2-14.6c0-4.4,0.2-8.9-0.4-13.3c-0.1-1-1.7-7.6-3.2-5.2c-0.5,0.9,0,3.5,0,4.5
			c0,4.5-1.1,8.4,4.4,9.3c7.2,1.2,12.6-6.4,16.1-11.4c1.6-2.3-1.5-7.8,0-10c-2.9,4.1-5.8,8-10.4,10.3c-3.1,1.5-8.9,2.1-10.1-1.9
			c0,2.1,0,4.2,0,6.3c0-0.3,0-0.5,0-0.8c0,1.2,0,2.4,0,3.7c1.5-2.4,3,4.2,3.2,5.2c1.1,5.4,0.5-5.8,0.2-0.3c-0.1,1.6-0.3,3.1-0.7,4.7
			c-1.1,5.2-5,9.8-10.5,6.8c-6.1-3.3-4.2-12.9-6.4-18.3c-1.2-2.9-4.2-2.9-6.7-2c-3.5,1.3-4.5,6-5.2,9.1
			C491.1,367.4,492.6,371.1,491.8,374.2L491.8,374.2z"/>
	</g>
</g>
<g>
	<g>
		<path fill="#E30613" d="M536.4,387.3c9.9-3,12.3-11.7,12.3-20.9c0-1.6,0-3.2,0-4.8c0-1.2-0.1-1.6-0.2-2.9c0.2,1.3-1,4-1.3,5.3
			c-1,4.8-0.8,9.8-0.8,14.6c0,4.1,0.6,7.7,5.3,8.2c6.3,0.7,9-6.4,10.5-11.1c1.7-5.1,3.7-10.4,9.5-11.7c1.4-0.3,5,6.8,5.6,7.8
			c1.7,3.3,2.4,7.1,2.6,10.7c0,0.1,0,0.1,0,0.2c0.8-5.4,0.2-15.5,5.1-18.9c2.1-1.5,5.2,0,7,1.3c1.2,0.8,1.8,2.2,2.4,3.4
			c0.4,1,0.6,2,0.8,3.1c0.2-5.4,0.2-6.5,0-3.3c-0.2,3.2,0.5,6.7,0,9.8c0.7-5.2,1.7-18.5,9-18.2c7.9,0.3,7.1,13.7,11.3,18
			c7.9,8.3,11.2-8.4,11.7-12.9c0.7-6,0.5-12.5,0.1-18.5c0-0.1,0-0.1,0-0.2c-1.7,4.7-1.4,9.6-1.4,14.4c0,5.3,1,10,4.4,14.3
			c1.3,1.6,1.7,2.8,2.7,0.4c0.7-1.6,1.5-3.1,2.3-4.6c1.8-3.2,4-6.5,6.9-8.8c7.4-6.1,8.1,9.5,8.9,13.4c0.3,1.8,0.7,3.6,1,5.4
			c0.8,4.1,0.6-0.3,0.8-1.4c0.6-3.7,2-7.3,3.5-10.7c1.6-3.4,3.8-6.5,6.2-9.4c1.4-1.7,1.7-3.3,3-0.8c1,2.1,1.9,4.2,2.8,6.4
			c1.3,3.2,2.2,6.6,3.1,10c0.4,1.7,0.7,3.4,1,5.1c0.2,1.1,0.4,2.3,0.5,3.4c0.7-0.9,1.3-1.8,1.9-2.7c3.6-5.5,4.3-11.9,4.4-18.3
			c0-2.3,0-4.6,0-6.8c0-1.8-0.1,1.5-0.1,1.8c0,4.7-2,9.4-4.3,13.3c-0.6,0.9-1.2,1.8-1.9,2.7c-0.1-1.2-0.3-2.3-0.5-3.4
			c-0.4-2.3-0.9-4.6-1.5-6.8c-1.1-4.5-2.8-8.9-4.7-13.1c-0.5-1.1-1-2.1-1.5-3.1c-0.8,0.8-1.5,1.5-2.2,2.4c-1.8,2-3.3,4.3-4.7,6.6
			c-2.2,3.7-3.7,7.8-4.7,12c-0.3,1.3-0.3,7.2-1.2,3c-0.6-3-1.2-6-1.7-9c-0.6-3.3-0.5-8.8-3.6-10.9c-3.5-2.3-8.2,5.1-9.6,7.1
			c-1.3,1.9-2.4,3.9-3.4,6c-1.4,2.8-1,3.8-3.4,1.1c-1.3-1.4-2.1-3.1-2.9-4.9c-1.3-3-0.4-7.5-1.2,0.2c0.1-0.9,0.4-1.9,0.6-2.8
			c1.3,0.7,1.4-0.2,0.4-2.6c-0.2,2.3-0.7,4.6-1.2,6.9c-0.9,3.8-2.5,7.9-7,7.8c-4-0.1-6-5.1-6.9-8.1c-1.3-4.3-1.7-8.3-5.7-10.9
			c-8.4-5.5-10.6,13-11.2,17.4c0,3.3,0,6.5,0,9.8c0.4-6.7,2.1-17.8-3.1-22.9c-3.7-3.6-8.4-1.5-9.8,2.8c-0.8,2.4-0.9,5.3-1.2,7.8
			c-0.2,1.1-0.7,8.4-1.3,3.7c-0.6-5.4-3.3-10.3-6.8-14.4c-3.5-4.1-8.5,4.8-9.6,7.5c-1.9,4.7-2.5,10-7,13c-4.5,3-9.3,0.5-9.8-4.6
			c0,3.3,0,6.5,0,9.8c0.1-3.6,0.7-7,1.5-10.5c0.8-2.1,0.9-4.2,0.4-6.4c-0.2,1.3-0.7,2.6-1.2,3.8c-1.9,4.6-6.1,8-10.8,9.4
			C535.4,377.6,537.2,387.1,536.4,387.3L536.4,387.3z"/>
	</g>
</g>
<g>
	<g>
		<path fill="#E30613" d="M672.7,320c-1.4,1.8-2.7,3.6-4.1,5.4c-0.1,0.2,0,1.4,0,1.5c0,1.2,0,2.4,0,3.5c0,1.2,0,2.4,0,3.5
			c0,0,0.1,1.4,0,1.5c1.4-1.8,2.7-3.6,4.1-5.4c0.1-0.2,0-1.4,0-1.5c0-1.2,0-2.4,0-3.5s0-2.4,0-3.5
			C672.7,321.4,672.6,320.1,672.7,320L672.7,320z"/>
	</g>
</g>
<g>
	<g>
		<path fill="#E30613" d="M664.6,345c12.9-0.6,25.5-2.9,37.9-6.8c1-0.3-0.9-9.7,0-10c-12.3,3.9-25,6.2-37.9,6.8
			C664.4,335,664.7,345,664.6,345L664.6,345z"/>
	</g>
</g>
<g>
	<g>
		<path fill="#E30613" d="M233.5,531.4c17.3-0.9,34.3-4.2,50.7-9.9c0.2-0.1,0.5-9.5,0-10c-5.1-5.4-11.1-9.3-18.1-11.8
			c1.2,0.4-1.3,9.2,0,10c3.6,2.2,7.2,4.5,10.9,6.7c3.4,2.1,8.8,4.1,9.9,8.3c0-0.8,0-1.7,0-2.5c0,0.5,0,0.9,0,1.4c0-2.5,0-5,0-7.5
			c-1.5,8.9-6.1,17.7-10.6,25.4c-1.5,2.5,1.4,7.6,0,10c5.4-9.2,10.7-19.5,10.7-30.4c0-4.8,0.6-7.9-3.8-10.8
			c-5.6-3.7-11.4-7-17.1-10.5c0,3.3,0,6.7,0,10c7,2.5,13,6.5,18.1,11.8c0-3.3,0-6.7,0-10c-16.4,5.7-33.3,9.1-50.7,9.9
			C233.3,521.4,233.6,531.4,233.5,531.4L233.5,531.4z"/>
	</g>
</g>
<g>
	<g>
		<path fill="#E30613" d="M353,464.7c3.2,21.2,6.5,42.5,9.7,63.7c-0.5-3.2,0.5-6.7,0-10c-3.2-21.2-6.5-42.5-9.7-63.7
			C353.5,458,352.5,461.4,353,464.7L353,464.7z"/>
	</g>
</g>
<g>
	<g>
		<path fill="#E30613" d="M332.1,499.7c-0.2,0.9-0.7,0.5-1.2,0c0,3.3,0,6.7,0,10c1.8-2.6,8.3-2.7,11.3-3.3c5-1,10.1-2.1,15.1-3.1
			c0.7-0.2-0.6-9.9,0-10c-4.4,0.9-8.8,1.8-13.2,2.8c-3.3,0.7-11.2,0.8-13.2,3.7c-0.6,0.9-0.7,9.2,0,10c0.4,0.5,1,0.9,1.2,0
			C332.7,506.5,331.5,502.9,332.1,499.7L332.1,499.7z"/>
	</g>
</g>
<g>
	<g>
		<path fill="#E30613" d="M391.9,514.7c3.2-9.3,3.5-19.7,2.7-29.5c-0.5-6.2-2-12-4.5-17.6c-2.1-4.7-6.4-13.3-12.3-13.4
			c-7-0.2-3.8,22.1-3.3,25.8c1.7,15,6.2,29.6,12.7,43.1c1.2,2.6,2.8,5.8,5.9,3.4c2.2-1.7,3.3-6.3,4.4-8.7c1.3-2.7,2.2-5.6,4.7-7.4
			c2.8-1.9,6,1.6,7.3,3.6c2.8,4.5,1.9,12.3,9.1,12.5c4.4,0.2,7.1-9.3,7.2-12.5c0.1-3.6,0.4-7.5,0-11c-0.2-1.4-2.2-7-2.7-3.1
			c-0.3,2.3-0.2,4.7-0.2,7c0,10.7,1,25.2,12.1,30.5c3.6,1.7,7.9-0.5,8.8-4.2c0.7-3.2-0.7-6.9,0-10c-0.8,3.6-4,5-7.4,4.6
			c-3.8-0.4-6.6-4.4-8.5-7.3c-2.4-3.7-3.7-8-4.5-12.3c-0.3-2.8-0.4-2.2-0.2,1.8c-0.2-1.8,0.1-2.1,1.1-0.9c1.2,0.9,1.4,2.6,1.6,4
			c0-2.5,0-5,0-7.5c0,0.4,0,0.8,0,1.2c0-0.8,0-1.7,0-2.5c-0.5,4.7-3.4,13.9-9.6,11.9c-7.1-2.2-3.8-13.7-11.6-16.1
			c-5.7-1.7-9.2,13.2-11.6,16.4c-2.9,3.9-5.8-3.3-6.6-5.1c-2.1-4.3-3.8-8.8-5.4-13.4c-2.8-8-4.7-16.2-6-24.5
			c-0.3-1.8-0.5-3.6-0.7-5.4c-0.2-1.7-0.3-3.5-0.5-5.2c-0.3,6.5-0.2,8.2,0.4,4.9c0.9-3.9,4.3-4.5,7.3-2.6
			c5.8,3.7,9.3,13.1,11.3,19.3c0.4,1.5,0.8,3,1.1,4.4c0.2,1.2,0.6,7.7,0.8,2.3c-0.2,4.5-1.3,9-2.7,13.2
			C390.8,507.7,392.9,511.7,391.9,514.7L391.9,514.7z"/>
	</g>
</g>
<g>
	<g>
		<path fill="#E30613" d="M493.9,530.9c9.8-6,12.7-15.7,12.7-26.6c0-2.1,0-4.2-0.1-6.3c-0.1-4.1-1.5,2.8-1.6,3.9
			c-0.3,3.7-0.1,7.6,0,11.3c0.3,11,15.5,14.4,21.3,5.8c2.3-3.4,1.8-7.9,1.8-11.8c0-4.2,0.2-7.9-2.4-11.5c0.4,0.5,0,3.1,0,3.7
			c0,2-0.1,4.1,0,6.2c0.3,5.2,2.2,9.5,5.8,13.3c3.7,3.9,8.9,5.5,12.2,0.5c2.2-3.4,2-8.2,2-12.1c0-5,0.1-9.7-1.3-14.6
			c0,3.3,0,6.7,0,10c3.1-3.7,7.8-3.6,11.9-1.6c5.5,2.6,7.3,10,8.7,15.3c0-3.3,0-6.7,0-10c-4.3,1.5-8.3,1.2-12.4-1
			c1.4,0.8-1.4,8.7,0,10c4.8,4.5,9.9-3,11.7-6.9c2-4.5,1.9-9.5,1.9-14.4c0-2.1,0-4.3-0.1-6.4c0-1.1-0.3-2.2-0.5-3.3
			c0.2,0.9-0.6,2.9-0.7,3.8c-0.4,4-0.2,8.3,0,12.4c0.3,4.9,2.9,9.3,6.3,12.6c1.9,1.8,4.3,2.9,6.7,3.7c0.5,0.1,4.3-8.5,4.7-9.3
			c1.4-3.2,2.7-6.4,3.8-9.7c-0.1,0.3,6.8,6.2,7.5,6.8c2.4,2.4,4.6,5,6.7,7.6c1.2,1.6,1.2,3.1,3.3,2.1c1.7-0.9,2.7-2.6,3.5-4.2
			c1.3-2.7-1.3-7.3,0-10c-0.9,1.8-1.9,3-3.5,4.2c-1.9,1.4-3.2-2-4.3-3.4c-3.2-4-6.8-7.6-10.5-11c-0.8-0.7-1.7-1.5-2.6-2.2
			c-0.4,1.1-0.8,2.2-1.2,3.3c-0.8,2.2-1.7,4.3-2.6,6.4c-0.9,2.1-2,4.2-3,6.3c-0.5,1-1.1,2-1.6,3.1c-0.2,0.3-3.3-1.3-3.6-1.4
			c-3.1-1.5-5.4-4.4-7.2-7.3c-0.9-1.5-1.4-3.2-1.9-4.8c-0.5-2.9-0.6-1.7-0.3,3.6c0.1-1,0.2-4.4,0.9-1c0.2-4.1,0.2-4.8-0.2-2
			c-0.2,1-0.5,2.1-0.8,3.1c-0.6,2-1.7,3.9-2.8,5.7c-1.9,3.1-6.4,5.5-9.4,2.7c0,3.3,0,6.7,0,10c4,2.2,8,2.5,12.4,1
			c0.5-0.2,0.3-9,0-10c-1.9-7-4.4-14.7-12.2-16.6c-3.2-0.8-6.4,0.4-8.4,2.9c-0.9,1.1-0.1,6.2,0,7.5c0,0.7-0.2,1.8,0,2.5
			c0.3,1.1,0.6,2.1,0.8,3.2c0.4,2.8,0.4,2.2,0.1-1.7c-0.4,3.4-1.9,6.7-5,8.3c-3.4,1.7-7.8-2.5-9.8-4.7c-3-3.2-4.5-7.6-4.8-11.9
			c0,3.3,0,6.5,0,9.8c1,1.3,1.6,2.6,2,4.2c0.5-5.7,0.4-7.1-0.1-4.2c-0.2,0.8-0.5,1.5-0.8,2.2c-1.3,3-4,5-7.1,5.9
			c-7.5,2.2-14.6-4.6-14.8-11.7c0,3.3,0,6.5,0,9.8c0-1,0.2-1.9,0.4-2.9c0.2-0.5,0.3-0.9,0.5-1.4c1-1.7,1.2-3.5,0.5-5.5
			c-0.3,2.4-1.1,4.7-2,7c-2,5-5.9,9-10.4,11.7C492.4,521.9,495.4,530,493.9,530.9L493.9,530.9z"/>
	</g>
</g>
<g>
	<g>
		<path fill="#E30613" d="M634,504.1c0.1,0,0.1-10,0-10S633.9,504.1,634,504.1L634,504.1z"/>
	</g>
</g>
<g>
	<g>
		<path fill="#E30613" d="M645.5,491.2c0.4,9.5,1.7,18.8,3.8,28.1c-0.7-3,0.1-6.8,0-9.8c-0.3-6.7-0.6-13.5-0.9-20.2
			c0,3.3,0,6.5,0,9.8c5.9,4.7,11.8,9.5,17.7,14.2c1.5,1.2,2.9,2.4,4.4,3.6c2.2,1.8,1.9,0.6,3-1.5c1.4-2.7,1.9-5.9,2.3-8.9
			c1.1-10.2-0.2-20.7-2.4-30.6c0.7,3.2-0.7,6.8,0,10c2.1,9,3.6,14.2-1.3,22.3c0.3-0.5-21.6-17.4-23.6-19c0.9,0.8-0.1,8.3,0,9.8
			c0.3,6.7,0.6,13.5,0.9,20.2c0-3.3,0-6.5,0-9.8c-2.2-9.1-3.4-18.3-3.8-27.7C645.6,483.9,645.4,488.2,645.5,491.2L645.5,491.2z"/>
	</g>
</g>
<g>
	<g>
		<path fill="#E30613" d="M690.4,510.7c-0.6-1-1.1-2-1.5-3c-1.3-3.2,0.2-6.8-0.8,2.2c0.1-1.1,0.5-2.2,0.8-3.3
			c0.4-1.1,1.3-4.5,1.8-1.7c1.1,6.6,4,12.7,7.9,18.1c-0.5-0.7,0-4.1,0-5c0-1,0.5-4.2,0-5c-2.9-4-5.1-8.3-6.6-12.9
			c-0.7-2.1-1.1-4.3-1.5-6.5c0.1,0.4-1.4,2.6-1.5,3c-0.4,1-0.6,2.2-0.8,3.3c-0.6,3.5-0.2,7.3-0.2,10.8c0,3.6,0.6,6.8,2.5,10
			c-0.5-0.9,0-4,0-5C690.5,514.7,691,511.7,690.4,510.7L690.4,510.7z"/>
	</g>
</g>
<g>
	<g>
		<path fill="#E30613" d="M711.7,470.9c-0.5-1.4-1.4-0.5-1.8,0.4c-0.4,0.9,0,2.8,0,3.7c0,3.1,0,6.2,0.2,9.3
			c1.1,12.5,2.6,25,4.3,37.4c-0.5-3.3,0.5-6.7,0-10c-1.8-13.1-3.3-26.2-4.5-39.4c0,1.2,0,2.4,0,3.7c0-0.3,0-0.7,0-1
			c0,2.1,0,4.2,0,6.3c0.4-0.9,1.3-1.8,1.8-0.4C710.7,477.9,712.8,473.8,711.7,470.9L711.7,470.9z"/>
	</g>
</g>
<g>
	<g>
		<path fill="#E30613" d="M717.8,480.4c-0.2-3.9-0.4-7.8-0.7-11.8c0,3.3,0,6.5,0,9.8c2.8,16.8,5.8,33.6,9.1,50.3
			c-0.6-3.2,0.6-6.8,0-10c-3.3-16.7-6.3-33.5-9.1-50.3c0.5,3.1-0.2,6.6,0,9.8c0.2,3.9,0.4,7.8,0.7,11.8
			C717.6,487.6,718,483.4,717.8,480.4L717.8,480.4z"/>
	</g>
</g>
<g>
	<g>
		<path fill="#E30613" d="M761.5,492.9c-0.4,1.9-0.8,3.8-1.2,5.8c-0.2,0.9-0.2,10,0,10c7.7,1.2,14.6-2.7,17.3-10
			c1.6-4.4,1.2-11.2,0.7-15.8c-0.2-1.5-0.5-2.8-0.9-4.3c-1-3.2-1.4-2.6-2,0.3c-0.6,2.6-0.4,5.4-0.4,8.1c0,6.8,0.2,12.9,3.9,19
			c1.4,2.2,4.2,6.2,7,4.1c1.5-1.2,2.7-4.2,3.7-5.8c1.3-2.2,2.7-4.4,4-6.6c1.3-2.2,2.7-4.4,4-6.6c0.1-0.1,3.8,4.1,4.1,4.4
			c2.5,3.2,4,7.1,4.9,11c-0.8-3.5,1.7-9.1,3-12.2c0.8-1.9,1.9-3.8,3-5.5c1-1.7,2.4-5.2,3.4-2.1c2.4,8,6.4,16.7,15.6,18
			c-0.4-0.1,0.5-9.9,0-10c-6-0.9-9.9-4.9-12.7-10c-1.6-3-2.5-6.3-3.5-9.5c0.2,0.5-4.7,6.8-5.2,7.9c-1.5,2.8-2.4,5.9-3,8.9
			c-0.3,1.5-0.5,3.1-0.6,4.7c0.1-1.3-0.9-3.2-1.3-4.4c-1-2.9-2.7-5.4-4.6-7.8c-0.9-1.2-2.1-2.2-3.2-3.2c0.1,0.1-2.8,4.6-3,4.9
			c-2,3.3-4,6.6-6.1,9.9c-1.5,2.4-2.5,5.9-5.8,4.4c-2.4-1.1-4.1-4.7-5.3-6.9c-0.7-1.3-1.1-2.8-1.6-4.2c-0.7-2.5-0.1-6.1-0.7,1.2
			c0.1-1.5,0.5-2.9,1-4.3c-0.1,0.3,1.6,3.5,1.7,4c1.5,4.8,1.1-6.2-0.2-1.3c-0.4,1.4-1.1,2.7-1.9,3.9c-3.2,5.1-9.8,7-15.4,6.1
			c0,3.3,0,6.7,0,10c0.4-1.9,0.8-3.8,1.2-5.8C762.2,499.7,760.9,496.1,761.5,492.9L761.5,492.9z"/>
	</g>
</g>
<g>
	<g>
		<path fill="#E30613" d="M856.1,436.5c-22.3,2.1-21.1,31.2-19.8,47.6c1,12.6,4.7,24.8,8.1,36.9c1.8,6.4,3.5,12.8,5,19.3
			c0.7,2.9,1.2,5.9,1.7,8.9c0.1,0.6,0.2,1.2,0.3,1.8c0.4,3.4,0.4,2.4,0.1-2.9c-0.3,1.2-1.1,1.6-2.1,2c-1.1,0.4,1,9.7,0,10
			c3.2-1.1,2.5-5.3,2.5-8c0-3.7-0.1-7.3-0.5-11.1c-1.6-12.5-5.5-24.7-8.9-36.9c-1.6-5.8-3.1-11.6-4.3-17.5c-0.6-2.9-1.1-5.9-1.4-8.8
			c-0.3-2.3-0.5-4.6-0.6-7c0.4,6.3,0.2-0.8,0.4-2.5c1.4-10.5,8.4-20.6,19.6-21.6C856.5,446.4,855.9,436.5,856.1,436.5L856.1,436.5z"
			/>
	</g>
</g>
<g>
	<g>
		<path fill="#E30613" d="M828.1,512.2c5.5-2.7,11.4-3.4,17.4-2c-0.7-0.2,0.8-9.8,0-10c-6-1.4-11.9-0.7-17.4,2c-0.4,0.2,0,4.6,0,5
			C828.1,507.6,828.4,512.1,828.1,512.2L828.1,512.2z"/>
	</g>
</g>
<g>
	<g>
		<path fill="#E30613" d="M867.5,487.3c-2.6-3.2-6.8-3.1-9.9-0.6c-2.7,2.2-2.7,6.1-2.7,9.3c0,7.6-0.4,17.3,9.2,19.1
			c4.8,0.9,8.8-3.7,10.4-7.6c1.2-3.1,0.6-7.3,0.6-10.5c0-3.7-0.2-7-2-10.4c-2.6-4.7-8.5-6.4-13.5-5.6c-0.6,0.1,0.4,9.9,0,10
			c8.2-1.3,14.9,4.1,15.5,12.3c0-3.3,0-6.5,0-9.8c-0.3,9.7-10.8,15.8-17.7,7.5c-1.2-1.4-1.7-3.2-2.2-4.9c-0.4,5.3-0.3,6.5,0.4,3.7
			c0.4-1.2,1.2-2.2,2-3.1c2.7-3,7.6-2.2,9.9,0.6c-0.5-0.6,0-4.2,0-5C867.5,491.4,868,488,867.5,487.3L867.5,487.3z"/>
	</g>
</g>
<g>
	<g>
		<path fill="#E30613" d="M882.8,497.9c2.5-2.3,4.6-4.6,5.3-8c0.4-2.4,0.1-5.2,0.1-7.6c0-2.1,0.1-4-0.7-6c-1.2-3-5.4-2.6-6.9-0.3
			c-0.7,1,0.7,9.9,0,10c4.3-0.9,8.6-1.8,12.9-2.6c3.5-0.7,6.5-1.4,8.6,2c2,3.3,1.3,8.7,1.5,12.5c0.2,4.4,0.5,8.7,0.7,13.1
			c0,0.1,0,0.1,0,0.2c3-1.2,4.9-3.1,6.2-6.1c1.2-2.8-1.2-7.2,0-10c-0.7,1.7-1.6,2.9-2.9,4.2c-3.3,3.2-3.5-0.9-3.6-3.5
			c-0.3-5.1-0.5-10.1-0.9-15.2c-0.3-4.2-1.4-8.1-6.4-7.9c-5.3,0.3-10.9,2.2-16.1,3.3c0,3.3,0,6.7,0,10c2.6-3.9,6.9-1.1,7.5,2.6
			c0-3.1,0-6.2,0-9.3c-0.1,3.7-2.8,6.2-5.3,8.6c-0.5,0.5,0,4.3,0,5C882.8,493.6,883.3,497.5,882.8,497.9L882.8,497.9z"/>
	</g>
</g>
<g>
	<g>
		<path fill="#E30613" d="M914.7,486.8c-0.5-0.6-0.7-1.3-0.7-2c0,3.3,0,6.7,0,10c1.1-4.4,5.2-4.8,8.5-2.3c3.9,3,5.1,9.6,5.6,14.1
			c0-3.3,0-6.7,0-10c-0.5-1.9-0.9-3.7-1.1-5.6c0.7,4.7-0.1,2.9,0.9,0.5c1-2.3,2.9-3.7,5.4-3.1c2.6,0.7,3.7,6.1,4.4,8.2
			c1.3,3.9,1.8,8.1,1.9,12.2c0-3.3,0-6.5,0-9.8c-0.7-1.8-1.1-3.7-1.4-5.6c-0.2,4.7-0.1,5.6,0.3,2.8c0.2-0.9,0.4-1.9,0.7-2.8
			c1-3.7,3.2-7,5.9-9.8c0.2-0.2,5.9,11,6.3,12c1.8,4.8,2.7,10.1,2.8,15.2c0,1.7,0.1,1.7,0.1,0c0-2.4,0-4.7,0-7.1
			c-0.1-6.3-0.9-12.2-2.9-18.2c-1.1-3.2-2.7-6.3-4.4-9.2c-1-1.7-1.2-3.6-2.9-1.8c-1.3,1.4-2.3,3.1-3.3,4.7
			c-2.5,4.6-2.8,9.7-2.8,14.8c0,5.1-0.1,9.9,1.6,14.8c-0.9-2.6,0.1-7,0-9.8c-0.1-5.5-1.1-10.7-3.1-15.9c-1.8-4.9-5.6-7-8.6-1.7
			c-1.7,3-1.2,7.3-1.2,10.7c0,4.9,0.1,9.6,1.4,14.4c-0.8-3,0.3-6.8,0-10c-0.6-5.2-4.4-20-12.4-14.7c-2.1,1.4-1.7,4.4-1.7,6.6
			c0,2.6-0.6,6,0.7,8.3C913.3,494.3,916.1,489.4,914.7,486.8L914.7,486.8z"/>
	</g>
</g>
<g>
	<g>
		<path fill="#E30613" d="M1000.4,441.2c0.5,22.6,1.9,45.1,4.1,67.5c-0.3-3.3,0.3-6.7,0-10c-2.2-22.3-3.5-44.7-4.1-67.2
			C1000.4,433.9,1000.3,438.2,1000.4,441.2L1000.4,441.2z"/>
	</g>
</g>
<g>
	<g>
		<path fill="#E30613" d="M985.1,468.8c-3-0.5-6.1-1-9.1-1.4c0.7,0.1-0.8,9.1,0,10c8.2,9.2,22.4,4.3,32.3,0.9
			c11.2-3.8,22.2-8.9,30.7-17.2c8.8-8.6,10.9-19.7,10.9-31.6c0-11.2-0.6-22.9-5.9-33.1c-2.2-4.3-5.7-7.8-10.4-9.1
			c-8.5-2.2-8.9,7.1-9.8,13c-1.9,12-1.7,24.4-1.4,36.6c0.4,15.6,3.1,31,6,46.3c0.7,3.8,1.5,7.6,2.3,11.4c0.4,1.7-0.1,5.8,1.6,1.9
			c0.8-1.8,1.5-3.7,2.3-5.5c1.5-3.7,3.1-7.4,4.6-11c1.2-2.8,2.2-7.8,6.1-6.1c3.9,1.7,4,11.5,4.5,14.9c0.7,4.9,2.9,9.1,7.3,11.5
			c10.3,5.8,13.8-16.5,14.2-22.3c0.1-1.6,0-3.2,0-4.8c0-1-0.6-4.1-0.1-5c-2.4,4.1-1.9,8.7-1.9,13.2c0,4.7,0.4,8.8,3.3,12.7
			c7.5,10.1,22.3,2.1,23.1-8.7c0.2-3-0.2-7.3,0-9.6c-0.6,8-8.1,13.7-15.9,12.7c-3.7-0.5-6.6-3.3-8.5-6.4c-0.9-1.4-1.3-3-1.7-4.6
			c-0.4,5.5-0.4,6.9,0.2,4c0.3-1.2,0.9-2.3,1.5-3.3c0-3.3,0-6.5,0-9.8c-0.5,7.1-2.2,15.4-7,21c-4.8,5.5-11.5-1.8-13.4-6.1
			c-2.6-5.8-1.3-12.5-4.6-18.2c-4.1-7-9.9,11.8-10.9,14.2c-0.8,1.8-1.5,3.7-2.3,5.5c-0.6,1.5-1.1,5.8-1.9,1.8
			c-0.8-3.8-1.6-7.6-2.3-11.4c-1.6-8.3-3.1-16.6-4.3-24.9c-2.3-16.1-3.8-34.1,1.4-49.8c1.8-5.6,9.6-2.9,12.9-0.6
			c4.4,3.2,6.7,8.9,8.3,13.9c0.9,2.8,1.4,5.7,1.8,8.6c0.3,1.8,0.5,3.6,0.7,5.4c1.1,10.4,0.6-3.6-0.1,2.7c-0.8,6.5-3.7,12.5-7.7,17.7
			c-7.3,9.3-18.7,14.7-29.4,18.8c-9.9,3.8-23.4,9.2-33.5,3.2c-1.1-0.7-2-1.7-2.9-2.7c0,3.3,0,6.7,0,10c3,0.5,6.1,1,9.1,1.4
			C984.7,478.8,985.7,468.9,985.1,468.8L985.1,468.8z"/>
	</g>
</g>
<g>
	<g>
		<path fill="#E30613" d="M1139.3,494.7c2.9-8.1,9.3-16.6,18.1-18.7c4.5-1.1,7.4,3.8,8.9,7.2c2.7,6.3,2.2,8.6,0.5,14.7
			c-0.5-2.7-0.7-2.4-0.6,1c0.1-1.2,0.3-2.4,0.6-3.6c0.6-3.1,1.7-6,2.8-9c1.3-3.7,2.9-7.5,6.4-9.8c8.6-5.5,13.2,16.1,13.8,20.7
			c0-0.1,0-0.1,0-0.2c0.3-9.5,3.6-18.2,9.4-25.6c2.5-3.1,6.6-7.8,8.8-2c0.9,2.3,1.3,4.8,1.8,7.1c0.2,1.2,0.4,2.4,0.6,3.6
			c0.1,0.6,0.1,7.4,0.3,4.7c-0.3,3.3,0.3,6.7,0,10c0.6-7.5,0.6-15.3-0.1-22.9c-0.4-4.2-0.9-13.2-4.9-15.6c-2.9-1.8-9,8.2-10.1,10
			c-2.7,4.4-4.4,9.4-5.3,14.5c-0.2,1-0.3,2-0.4,3.1c-0.1,0.5-0.2,2.5-0.4,1.4c-0.4-2.8-1.2-5.5-2.1-8.2c-1.4-4.2-3.6-9.7-8.2-11.2
			c-4.2-1.4-7.3,4.4-8.6,7.3c-4,8.7-4.8,17.4-4.7,26.7c0,1.4,0,2.9,0.2,4.3c0.1,1.2,0.4,2.4,0.7,3.6c-0.2-1,1-4.2,1.3-5.3
			c0.7-4,0.6-8.2,0.6-12.3c0-7.8,0.2-20.3-8.3-24c-4.5-2-10.3,3.2-13.2,6c-3.6,3.4-6.1,7.8-7.7,12.4
			C1138.2,487.7,1140.3,491.7,1139.3,494.7L1139.3,494.7z"/>
	</g>
</g>
<g>
	<g>
		<path fill="#E30613" d="M1238.2,455.8c-4.1-8.1-13.5,6.9-15.3,10.1c-3.1,5.6-3.1,10.6-3,16.8c0,5.2,2,11.7,8.4,7.2
			c6.2-4.4,8.1-15.4,8.3-22.4c0.1-1.6,0-3.2,0-4.8c0-1.2-0.6-3.9-0.1-5c-2.5,5.2-1.8,11.8-1.5,17.4c0.2,3.6,2,6.9,4.5,9.4
			c4.2,4.2,7.3,0.9,9.3-3.2c2.1-4.4,3.7-9,5-13.7c0.6-2.3,1.1-4.7,1.5-7.1c0.2-1.2,0.4-2.4,0.5-3.6c-0.1,0.7,2.6,3.8,3.1,4.5
			c6.1,9,11.5,18.3,16.5,28c0-3.3,0-6.7,0-10c-4.7,2.2-9.5,3.5-14.7,3.9c-0.3,0,0.2,10,0,10c5.2-0.4,10-1.7,14.7-3.9
			c0.5-0.2,0.4-9.2,0-10c-3.6-7-7.4-13.8-11.6-20.4c-2.2-3.6-4.6-7.1-7-10.5c-2-3-1.3,0.4-1.5,2.1c-0.4,2.4-0.9,4.8-1.5,7.1
			c-1,4.1-2.5,8.1-4.2,12c-1.3,3.1-2.6,6.8-6.4,6.9c-2.9,0.1-5.6-4-6.7-6.2c-0.6-1.2-0.9-2.5-1.2-3.7c-0.4,5.2-0.3,6.3,0.3,3.5
			c0.2-0.8,0.6-1.6,1-2.4c0-3.3,0-6.5,0-9.8c-0.2,6.8-2.1,12.9-5.5,18.8c-2.3,3.9-7.9,7.3-10.6,1.9c-0.7-2.8-0.8-1.3-0.3,4.3
			c0.2-1.3,0.8-2.6,1.3-3.8c1.3-3.2,3.1-6.1,5.1-8.8c2.2-2.9,8.5-10.4,11.6-4.4C1236.9,463.2,1239.6,458.5,1238.2,455.8
			L1238.2,455.8z"/>
	</g>
</g>
<g>
	<g>
		<path fill="#E30613" d="M1276.4,489.8c3.6-8.3,7.2-16.6,10.9-24.8c1.3-3,1.8-0.9,3.6,0.8c1.9,1.7,3.8,3.4,5.6,5.1
			c3.3,3,6.6,5.9,9.9,8.9c0-3.3,0-6.7,0-10c-2.3,2.5-5,3.8-8.4,4c-0.3,0,0.1,10,0,10c3.4-0.2,6.1-1.4,8.4-4c0.5-0.6,0.5-9.5,0-10
			c-3.3-3-6.6-5.9-9.9-8.9c-1.4-1.3-2.8-2.5-4.2-3.8c-0.9-0.8-1.9-1.7-2.8-2.5c-1.2-1.9-1.9-1.7-2.2,0.5
			c-3.6,8.3-7.2,16.6-10.9,24.8C1275.2,482.6,1277.6,487,1276.4,489.8L1276.4,489.8z"/>
	</g>
</g>
<g>
	<g>
		<path fill="#E30613" d="M1375.3,458.2c2.9-7.7,6.1-28.8-7.5-26.8c-7,1-15.5,8-19.3,13.8c-3,4.6-2.2,11.1-2.1,16.3
			c0.3,15.9,22.5,14.1,27.7,2.2c1.8-4.3,1.1-10.4,0.9-14.9c-0.2-6.4-3.2-11.9-9-14.8c1.3,0.6-1.4,9.3,0,10c3.7,1.8,6.1,4.6,7.8,8.3
			c1.5,3.3,0,6.9,1-1.1c-0.3,2.2-1.3,4.1-2.6,5.9c-5,7.2-15.7,7.9-22.2,2.8c-1.6-1.2-2.5-3-3.2-4.9c-0.4,4.7-0.3,5.6,0.4,2.8
			c0.4-1.4,1.3-2.7,2.1-3.9c2.9-4.4,8.2-7.6,12.7-10.2c3.9-2.3,8.5-3.7,12.6-1c3.4,2.2,1.5,8.2,2.6-0.9c-0.3,2.2-1.1,4.4-1.8,6.4
			C1374.2,451.1,1376.3,455.3,1375.3,458.2L1375.3,458.2z"/>
	</g>
</g>
<g>
	<g>
		<path fill="#E30613" d="M1404.6,435.2c2.3-2.1,1.8-5.1,1.8-8c0-3.3,0.6-6.8-1.7-9.4c-2.9-3.4-8.6-1-11.3,1.2
			c-3.4,2.7-4.7,7.6-5.1,11.7c-0.6,7.1-0.2,14.5,2.1,21.3c3.8,10.9,9.9,21,11,32.7c0-0.5,0-1,0-1.5c0,0.6,0,1.1,0,1.7
			c0-2.8,0-5.7,0-8.5c-0.5,5.2-3.6,10.2-9.4,9.6c0.2,0-0.4,10,0,10c17.1,1.5,7.2-31.8,4.7-38.9c-1.7-4.6-3.8-9-5.7-13.5
			c-0.9-2.2-1.6-4.5-2.2-6.8c-0.5-3.1-0.6-2.3-0.5,2.5c0.1-1.3,0.5-2.6,0.9-3.9c1.1-3.8,3.8-6.8,7.3-8.5c4-1.9,8.7-0.2,9.7,4.1
			c0-0.8,0-1.7,0-2.5c0,0.4,0,0.8,0,1.2c0-2.5,0-5,0-7.5c-0.3,1.4-0.7,2-1.7,3c-0.5,0.5-0.1,4.3-0.1,5
			C1404.6,430.8,1405.1,434.8,1404.6,435.2L1404.6,435.2z"/>
	</g>
</g>
<g>
	<g>
		<path fill="#E30613" d="M1384,465.8c4.5-2.1,9.1-3.6,13.9-4.7c0.8-0.2-0.6-9.9,0-10c-4.8,1-9.5,2.6-13.9,4.7
			c-0.4,0.2-0.1,4.6-0.1,5C1383.9,461.2,1384.3,465.7,1384,465.8L1384,465.8z"/>
	</g>
</g>
<g>
	<g>
		<path fill="#E30613" d="M1441,438.3c-4.3-2.8-8.1,3.7-9.9,6.8c-2,3.4-1.9,6.8-1.9,10.6c0,3.4-0.4,6.9,1.5,9.9
			c2.3,3.5,7.5,4,11.2,3.5c4.4-0.6,8.2-3.5,10.5-7.3c1.7-2.9,1.3-6.6,1.3-9.8c0-3.4,0.2-6.6-1.1-9.8c-0.7-1.9-2.2-3.4-3.9-4.5
			c-2.5-1.9-4.3-0.8-6.9,0.4c-1.3,0.6,1.2,9.5,0,10c1.6-0.7,2.9-1.7,4.7-1.3c2,0.4,3.5,2,4.8,3.4c0.5,0.7,0.9,1.4,1.2,2.1
			c1.6,3.2-0.7,4.4,0.7-2.8c-0.4,2.1-1.9,4-3.3,5.5c-5.6,6.1-20.5,6.5-20.8-4.1c0,3.3,0,6.5,0,9.8c0.6-4.1,6-16,11.7-12.3
			C1439.5,447.4,1442.6,439.4,1441,438.3L1441,438.3z"/>
	</g>
</g>
<g>
	<g>
		<path fill="#E30613" d="M1460.9,410.3c-1-2.8-2.4-4.8-4.6-6.7c0.4,0.4-0.1,4.4-0.1,5c0,1.5-0.3,3.5,0.1,5
			c3.3,14.3,4.9,28.6,3.3,43.3c0,3.3,0,6.5,0,9.8c0.4-5.4,1.8-10.4,4.2-15.2c1.4-2.8,6.1-11.5,9.8-8.1c1.7,1.5,2.4,4.6,3.1,6.7
			c0.3,1,0.5,2,0.6,3.1c-1-5.9,0.1-3.6-0.7-0.7c-0.9,3.6-6,10.1-8.9,4.4c0,3.3,0,6.7,0,10c0.6-1.9,0.3-3.4,2.5-3.6
			c1.3-0.1,2.6-0.5,3.9-0.9c2.5-0.8,4.8-2.4,6.7-4.1c4.3-3.7,6.9-9,8.7-14.3c1.5-4.4,1.3-8.7,1.3-13.2c0-2,0.1-3.7-0.6-5.6
			c-0.6-1.7-4-2-4,0.1c-0.2,13,1.5,25.9,2.6,38.8c0.7,7.9,1.4,15.7,2.1,23.6c0.4,4.6,0.7-1.4-0.6,2.7c-0.4,1.3-1.4,2.4-2.3,3.4
			c-2.4,2.6-5.9,2.5-8.7,0.8c-2.4-1.5-3.6-4.9-4.3-7.5c-1.4-5-0.9,6.4,0.1,1.3c0.3-1.5,0.8-2.9,1.4-4.4c2.2-6.1,6.7-10.9,11.2-15.5
			c4.7-4.8,9.6-9.4,13.4-15c2.1-3.1,1-8.8,0.9-12.2c-0.2-4.6-2.5,0.6-3.3,2.1c-1.3,2.4-2.1,5.2-2.2,8c-0.1,4.1-0.3,8.4,0.2,12.5
			c0.3,2.7,1.8,4.9,3.7,6.7c2.8,2.5,5.1-1.1,7.2-3.1c5.2-4.9,9.3-10.9,12.5-17.3c0.6-1.2-0.9-9.7,0-10c-8.6,3.1-8.2,13.8-7.5,21.4
			c1,10.9,15.8,12.4,20.4,3.1c1.3-2.7-1.3-7.3,0-10c-4.6,9.4-19.4,7.9-20.4-3.1c0,2.5,0,5,0,7.5c0-0.4,0-0.8,0-1.1
			c0,0.8,0,1.7,0,2.5c0.5-4.7,2.9-8.7,7.5-10.3c0-3.3,0-6.7,0-10c-3.2,6.5-7.3,12.2-12.5,17.3c-1.2,1.2-2.4,2.2-3.7,3.3
			c-1.7,1.4-1.9,0.9-3.5-0.2c-2.6-1.7-3.5-5.1-3.9-8c0,0.5,0,1,0,1.5c0-0.4,0-0.9,0-1.3c0,2.8,0,5.7,0,8.5c0.3-2.8,1-5.2,2.2-7.8
			c0.7-1.5,2.8-6.6,3.2-2.3c0-3.3,0-6.7,0-10c-1.6,6.4-8.6,11.8-13.1,16.3c-5.4,5.4-10.2,10.9-12.9,18.1c-1.8,4.7-1.4,9.9-1.4,14.8
			c0,5.7,0.7,11.7,6,15c6.5,4,10.4-5.8,10.8-10.4c0.4-5,0.1-10.3-0.3-15.3c-1.5-18.4-3.2-36.7-4.8-55.1c0,3.3,0,6.7,0,10
			c2.4-2,4.5,0.4,4.5,3c0-3.1,0-6.2,0-9.3c-1.6,10.7-8,22.2-19.3,24.8c-2.2,0.5-2.4-0.5-3.2,2c-0.5,1.5-0.6,1.4-0.6,2.4
			c0,2.3,0,4.6,0,6.8c0,5.7,5.2,5.6,7.9,1c2.4-4.1,2-9.5,2-14.1c0-4.9-0.1-9.5-1.9-14.2c-1-2.5-2.2-5.2-5.2-4.3
			c-2.3,0.7-4.7,5.5-5.9,7.4c-3.2,5.1-4.6,11-5,16.9c-0.2,3.2,0.4,6.6,0,9.8c2.2-21,1.5-42.7-3.3-63.3c0,3.3,0,6.7,0,10
			c2.3,1.9,3.7,3.9,4.6,6.7C1459.9,417.4,1462,413.3,1460.9,410.3L1460.9,410.3z"/>
	</g>
</g>
<g>
	<g>
		<path fill="#E30613" d="M1530.5,413.9c-0.4,1.9-0.8,3.9-1.2,5.8c-0.1,0.4,0,1,0,1.5c0,1.2,0,2.4,0,3.5c0,1.2,0,2.4,0,3.5
			c0,0.4,0.1,1.1,0,1.5c0.4-1.9,0.8-3.9,1.2-5.8c0.1-0.4,0-1,0-1.5c0-1.2,0-2.4,0-3.5s0-2.4,0-3.5
			C1530.5,415,1530.4,414.3,1530.5,413.9L1530.5,413.9z"/>
	</g>
</g>
<g>
	<g>
		<path fill="#E30613" d="M1527,437.8c9.7-2.7,19.4-5.4,29.1-8.1c0.9-0.3-0.8-9.8,0-10c-9.7,2.7-19.4,5.4-29.1,8.1
			C1526,428.1,1527.8,437.6,1527,437.8L1527,437.8z"/>
	</g>
</g>
<g>
	<g>
		<path fill="#E30613" d="M351.6,693.8c3.7-6.6,5.6-12.9,5.6-20.4c0-6.2,0.2-11.9-3.5-17.3c-4.3-6.3-12.2-6.5-18-2.4
			c-5.6,3.9-6.6,10.6-6.6,16.9c-0.1,11.1,2.3,33.9,18.3,31.8c7.2-1,7.8-11.3,7.9-16.8c0.1-6.6,0.2-13-1.7-19.3c0,0.1,0,0.1,0,0.2
			c-0.5,7-0.8,14.6,1.6,21.3c2.5,7,12.5,15.7,18.7,7.4c1.6-2.2-1.6-7.9,0-10c-3.2,4.3-8.4,3.9-12.5,1.2c-2.5-1.6-4.2-4.4-5.6-7
			c-0.8-1.5-1.3-3.1-1.7-4.7c-1.5-5.1,0,3.6,0.4,5.2c0.9,4,0.8-1.3,0.1,2.7c-0.3,1.6-0.7,3.1-1.3,4.6c-1,2.8-3.2,4.5-6,5.3
			c-6,1.7-11-3.7-13.7-8.2c-1.7-2.8-2.8-6.1-3.7-9.2c-0.6-2.2,0-6.3-0.7-0.2c0.2-1.6,0.7-3.1,1.3-4.6c2-5.2,7.1-8.8,12.5-9.4
			c5.9-0.7,10.4,4.2,12.6,9c0.6,1.3,0.9,2.7,1.1,4.1c-1.1-5.5-0.2-2.7-0.9,0.1c-0.9,3.5-2.7,6.7-4.4,9.8
			C350.2,686.3,353,691.3,351.6,693.8L351.6,693.8z"/>
	</g>
</g>
<g>
	<g>
		<path fill="#E30613" d="M371.2,639.7c-0.5,18.5,0.7,36.4,7,54c-1-2.9,1.1-7,0-10c-3.7-10.6-7.2-23.9-6.9-34.4
			C371.3,646.3,371.1,642,371.2,639.7L371.2,639.7z"/>
	</g>
</g>
<g>
	<g>
		<path fill="#E30613" d="M374.7,624.4c-0.5-1.1-1.1-2.2-1.6-3.4c1.3,2.6-0.7,7.1,0,10c6.1,24.3,9.6,49.1,10.7,74.2
			c-0.1-2.4,0.2-6.6,0-9.6c-1-25.2-4.6-50.1-10.7-74.5c0,3.3,0,6.7,0,10c0.5,1.1,1.1,2.2,1.6,3.4C373.4,631.7,376,627.1,374.7,624.4
			L374.7,624.4z"/>
	</g>
</g>
<g>
	<g>
		<path fill="#E30613" d="M465.6,682.7c5-3.9,9-7.9,9-14.5c0-4.9,1.1-10.7-3.1-14.3c-4.2-3.6-10.8-2.2-14.7,0.9
			c-5.4,4.3-7.3,12.9-7.8,19.3c-0.3,4-0.6,8.8,0.4,12.7c0.7,2.8,4.2,3.9,6.7,4c4,0.3,7.8-3.1,10.6-5.6c4.9-4.4,8.9-10.8,9-17.5
			c0.1-5.3,0.8-11.2-1.6-16.1c1.3,2.7-1.1,7.1,0,10c6.8,18.1,13.7,36.1,20.1,54.4c3.1,8.8,6,17.7,8.5,26.7c1.4,4.8,2.6,9.6,3.7,14.5
			c0.9,4,2.7,9.2,2.7,13.2c0-1.7,0-3.3,0-5c-0.7,9.1-8.8,17.3-17.1,9.8c-6.1-5.4-9.6-15.1-11.8-22.7c-1.1-3.9-1.8-7.8-2.3-11.8
			c-0.2-1.4-0.3-2.9-0.3-4.3c-0.1,4.5,0,4.8,0.2,0.8c0.2-2.5,0.6-5,1-7.5c1.5-8.4,4.9-16.4,9.5-23.6c1.5-2.4-1.5-7.7,0-10
			c-10,15.6-11.6,33.4-10.7,51.5c0.5,9.6,3.2,19,7.5,27.6c2.3,4.5,5.1,9.1,9.2,12c4.5,3.2,9.7,0,12.5-3.8c2.4-3.3,2.3-7.7,2.3-11.6
			c0-3.9,0.1-7.9-0.4-11.8c-1.4-12.2-5.2-24.5-8.8-36.2c-7.5-24.4-17.1-48.2-26-72.1c0,3.3,0,6.7,0,10c0.8,1.8,1.3,3.5,1.5,5.4
			c0-0.8,0-1.7,0-2.5c0,0.5,0,0.9,0,1.4c0-2.5,0-5,0-7.5c-0.6,7.2-4.9,13.1-10.1,17.8c-4.7,4.2-16.1,8-16.6-1.9c0,3.3,0,6.5,0,9.8
			c0.6-7.6,3.1-16.5,9.9-20.8c5.9-3.8,14.7-0.8,15.7,6.3c0-3.3,0-6.5,0-9.8c-0.2,5.8-4.8,9.6-9,12.9
			C463.9,674,467.2,681.5,465.6,682.7L465.6,682.7z"/>
	</g>
</g>
<g>
	<g>
		<path fill="#E30613" d="M512.7,694.7c3.9-8.5,4.6-17.1,4.6-26.3c0-6.1-0.2-22.9-10.7-18.3c-0.5,0.2-0.3,9.1,0,10
			c1.9,4.9,6.5,6.5,11.5,6.3c2.9-0.1,5.8-1.4,8.5-2.5c1.3-1.2,2.1-1,2.5,0.7c0.8,1.3,1.2,2.9,1.6,4.4c2.4,8.6-0.1,21.3,10.4,25.3
			c-1-0.4,1.2-9.6,0-10c-10.1-3.8-8.6-16.7-10.4-25.3c-0.2-1-0.6-2-1-3c-0.8-2.2-0.9-3-3.1-2.1c-2.8,1.2-5.5,2.1-8.5,2.5
			c-4.8,0.7-9.7-1.8-11.5-6.3c0,3.3,0,6.7,0,10c5.9-2.6,9.2,3.1,10.2,8.1c1,5.2-2,11.9-4.1,16.5C511.4,687.5,514,692,512.7,694.7
			L512.7,694.7z"/>
	</g>
</g>
<g>
	<g>
		<path fill="#E30613" d="M570,652.3c-6.8-7.9-16.6,6.1-19.3,11.2c-3,5.6-4.3,14.3-2.9,20.7c2.5,11.4,15.8,3.7,19.9-2.1
			c4.3-6.2,3.6-15.3,3.1-22.5c0.1,1.5-0.1,5.2-0.1,7.3c0,5.4,0.8,9.8,4.6,14c5,5.5,13.5,5.3,19.4,1.6c1.6-1-1.4-9.1,0-10
			c-10.2,6.4-22.7,0.3-24-11.7c0,0.8,0,1.7,0,2.5c0,0.2,0,0.4,0,0.5c0-0.5,0-1,0-1.5c-0.6,6.7-3.9,12.2-9.5,15.9
			c-5.4,3.5-13.4,2-13.6-5.4c0,3.3,0,6.5,0,9.8c0.7-6.5,4.3-12.4,8.5-17.2c3.1-3.7,9.8-7.8,13.8-3.1c-0.5-0.6,0-4.2,0-5
			C570.1,656.5,570.6,653,570,652.3L570,652.3z"/>
	</g>
</g>
<g>
	<g>
		<path fill="#E30613" d="M599.9,616.3c-5.2,0.4-3.3,12.2-3.2,15.7c0.2,4.4,2.4,9.1,3.6,13.3c1.7,6.2,3.4,12.4,4.9,18.6
			c6,23.6,10.6,47.5,13.2,71.7c0-3.3,0-6.7,0-10c-4.8,0.2-7.4-17.3-8.2-21.1c-2-9.6-2.3-17.3-1.3-26.2c0.8-6.9,2.7-14.1,11.1-12.2
			c6.1,1.3,10.5,10.6,10.6,16.2c0-2.1,0-4.2,0-6.3c-0.3,3.5-1.4,6.1-5,6.9c-3.6,0.8-7-3.8-8.7-6.2c1.6,2.2-1.6,7.8,0,10
			c3,4.2,9.5,9.9,13.1,2.9c1.8-3.6,0.8-9.6,0.7-13.4c-0.1-5.3-1.5-10.7-4.3-15.3c-3-4.9-9.9-7-14.4-3c-2.2,2-2.5,5.9-2.9,8.7
			c-0.5,3.7-0.8,7.4-1,11c-0.3,5.5-0.2,11-0.1,16.4c0.1,6.9,0.9,13.8,2.2,20.6c0.7,3.8,3.5,21.3,8.2,21.1c0.1,0,0.1-9,0-10
			c-2.1-19.1-5.4-38-9.6-56.8c-2.1-9.4-4.5-18.7-7-28c-1.3-5-2.7-9.9-4.2-14.8c-0.3-0.9-0.6-1.9-0.8-2.8c-0.6,6-0.5,7.6,0.3,4.8
			c0.4-1.3,1.5-1.7,2.7-1.8C600.2,626.2,599.7,616.3,599.9,616.3L599.9,616.3z"/>
	</g>
</g>
<g>
	<g>
		<path fill="#E30613" d="M630.3,624.4c-2.2-3.6-2.1,4.5-2.1,5c0,5.1,1.1,9.6,2.1,14.7c3,14.2,5.9,28.4,8.7,42.6
			c0.6,3.2,1.3,6.5,1.9,9.7c-0.5-2.5,1.2-6.7,1.7-9.2c1.4-6.2,3.2-12.8,6.3-18.5c3.4-6.3,8.4-1.1,10.2,3.1
			c2.8,6.5,5.2,13.2,7.8,19.8c-1.1-2.9,1.1-7.1,0-10c-1.9-4.8-3.8-9.6-5.7-14.4c-1.6-4-2.8-9.5-7.1-11.4c-7.2-3.1-11.5,21.1-12.3,25
			c-0.3,1.4-0.4,8.3-1.3,3.6c-0.5-2.6-1-5.2-1.5-7.8c-1.1-5.8-2.3-11.6-3.5-17.4c-2.4-11.6-4.8-23.2-7.4-34.8c0,3.3,0,6.7,0,10
			c0.6-1,1.5-1,2.1,0C628.9,632,631.9,626.8,630.3,624.4L630.3,624.4z"/>
	</g>
</g>
<g>
	<g>
		<path fill="#E30613" d="M679.5,686.8c4.6-7.9,4.2-16.1,4.1-24.9c0-0.2,0-0.5,0-0.7c-1.9,5.4-1.6,11.1-1.5,16.7
			c0.1,6.8,2.1,12.8,6.8,17.7c-0.5-0.5,0-4.3,0-5c0-0.8,0.5-4.4,0-5c-3.7-3.8-5.8-8.3-6.6-13.5c1,6.5-0.2,4.9,0.4,1.7
			c0.5-2.2,1.3-11.6,0.3-6.2c-0.5,3.2-1.9,6.2-3.6,9.1C678.1,679.3,681,684.3,679.5,686.8L679.5,686.8z"/>
	</g>
</g>
<g>
	<g>
		<path fill="#E30613" d="M689.8,643c-0.4-0.4-0.8-0.8-1.2-1.2c0.1,0.1,0,1.5,0,1.5c0,1.2,0,2.4,0,3.5c0,1.2,0,2.4,0,3.5
			c0,0-0.1,1.3,0,1.5c0.4,0.4,0.8,0.8,1.2,1.2c-0.1-0.1,0-1.5,0-1.5c0-1.2,0-2.4,0-3.5s0-2.4,0-3.5
			C689.8,644.4,689.9,643.1,689.8,643L689.8,643z"/>
	</g>
</g>
<g>
	<g>
		<path fill="#E30613" d="M724.6,656.9c-2.8-7-10.6-2.5-12.6,2.5c-1.9,4.8-1,11.5-0.9,16.5c0.1,6.2,1.9,12.1,6.6,16.4
			c4.8,4.3,13,3.6,16.8-1.5c1.6-2.2-1.6-7.9,0-10c-6.7,8.9-18.1,2.7-21.7-5.5c-0.4-0.9-0.6-1.8-0.9-2.8c-0.5-1.9,0.1-5.3-0.5-0.2
			c0.3-2.4,1.3-4.6,2.7-6.5c2.7-3.6,8.8-2.9,10.5,1.2C723.4,664.1,725.7,659.8,724.6,656.9L724.6,656.9z"/>
	</g>
</g>
<g>
	<g>
		<path fill="#E30613" d="M757.8,658.2c-3.2-8.1-12.5-5.3-17.2-0.5c-5.6,5.7-6.2,12.3-6.2,19.8c0,6.2,1.8,13.7,9.7,12.3
			c8.5-1.5,11.8-14.8,13.1-21.7c0.3-1.6,0-3.4,0-5c0-0.7-0.5-4.5,0-5c-0.8,0.8-1.5,1.5-2.3,2.3c-0.7,0.7-0.5,8.9,0,10
			c2.9,6.2,7.3,13.9,15.2,13.3c0.3,0-0.2-10,0-10c-7.9,0.6-12.3-7.1-15.2-13.3c0,3.3,0,6.7,0,10c0.8-0.8,1.5-1.5,2.3-2.3
			c0-3.3,0-6.7,0-10c-1.3,7.2-3.7,14.8-9.4,19.8c-6,5.3-12.8,0.2-13.4-6.7c0,3.3,0,6.5,0,9.8c0.3-6.4,4.3-12.4,9.3-16.1
			c4.6-3.4,11.8-2.4,14,3.2C756.7,665.3,759,661.1,757.8,658.2L757.8,658.2z"/>
	</g>
</g>
<g>
	<g>
		<path fill="#E30613" d="M778.9,627.8c0-2.5,0-5,0-7.5c0-0.2,0.2-2.3,0-2.5c-0.9-0.6-1.9-0.5-1.9,0.9c-0.2,6.3,0.1,12.5,0.7,18.8
			c2,20.7,4.1,41.3,6.5,61.9c-0.4-3.3,0.4-6.7,0-10c-2.6-23.2-5-46.4-7.2-69.7c0,2.1,0,4.2,0,6.3c0-0.4,0-0.8,0-1.2
			c0,1.2,0,2.4,0,3.7C777.6,627.4,777.8,627.1,778.9,627.8c0-3.1,0-6.2,0-9.3c0,0.2,0,0.4,0,0.6c0,2.3,0,4.6,0,6.8
			C778.8,626.3,778.9,629.6,778.9,627.8L778.9,627.8z"/>
	</g>
</g>
<g>
	<g>
		<path fill="#E30613" d="M833.6,695.7c1.9-4.5,4.1-9.4,4.2-14.4c0.1-3.7,0.1-7.3,0.1-11c-0.1-7.9-6.8-17.2-15.6-13.4
			c-1.2,0.5,1,9.7,0,10c4.3-1.4,8.3-3.2,12.2-5.4c1.9-1.1,3.8-2.4,5.6-3.7c0.9-0.7,1.8-1.4,2.6-2.1c1.3-1.7,1.8-1.4,1.5,0.9
			c0.6,5.3,1.2,10.6,1.8,15.9c0.5,4.7,0.7,9.6,2.2,14.1c1.2,3.7,5,5.7,8.6,4.2c3.4-1.4,5.3-7.4,6.5-10.4c2.9-7.2,3-14.7,3-22.2
			c0-1.6-0.3-3.4,0-5c-0.9,5.8-0.8,12.3-0.1,18.1c0.9,6.9,7.2,17.7,15.6,14.1c1.3-0.5-1.1-9.5,0-10c-4,1.7-7.5-0.1-10.5-3
			c-1.8-1.7-2.9-4.2-3.9-6.5c-0.4-1-0.7-2.1-0.9-3.1c-1.4-5.2-1,5.7-0.2,0.3c0-1.7,0-3.3-0.1-5c0,6.9-3.5,15.4-7.5,20.9
			c-2.1,2.9-5.4,2.8-8.1,1c-3-2-3.3-6.5-3.7-9.6c-0.5-4.6-1-9.2-1.6-13.9c-0.2-2-0.4-4-0.7-5.9c-0.1-1.3-0.3-2.6-0.4-4
			c0.3-2.3-0.2-2.6-1.5-0.9c-5.9,5.1-13,8.7-20.4,11.1c0,3.3,0,6.7,0,10c5.1-2.2,9.8,0.3,13,4.4c0.8,1,1.3,2.2,1.8,3.4
			c1.5,3.7,1.1-4.9,0.2,0.3c-0.7,3.7-2.2,7.2-3.7,10.6C832.4,688.6,834.8,692.9,833.6,695.7L833.6,695.7z"/>
	</g>
</g>
<g>
	<g>
		<path fill="#E30613" d="M902.3,663c3.1-2.4,4.3-5.6,4.4-9.5c0.1-3.4,0.5-7.2-0.1-10.6c-0.1-0.8-0.3-1.7-0.6-2.5
			c-0.7-2.1-2.1-0.4-3.5,0.3c-2.4,1.3-4.7,2.8-6.8,4.4c-3.6,2.7-3.1,5.9-3.1,10c0,4-0.3,6.7,3.4,9.3c2.1,1.5,5.4,1.5,7.9,2.1
			c2.9,0.7,4.9,2.7,6.4,5.1c0.5,0.8,0.8,1.6,1.1,2.5c1.7,4.5,1.2-6.5-0.2-1.6c-0.8,2.9-2.8,5.4-4.8,7.5c-3.4,3.6-10.1,5.2-11.7-0.9
			c0,3.3,0,6.5,0,9.8c0.2-0.7,0.4-1.4,0.6-2c1.3-2.8-1.3-7.3,0-10c-1,2.2-0.6,4.9-0.6,7.2c0,2.6-0.3,4.9,1,7.2
			c2.2,3.8,7.2,1.5,9.7-0.3c3.6-2.7,5.8-7.1,6.6-11.4c0.8-4.6,0.7-10.9-0.5-15.5c-1-3.8-4-6.3-7.5-7.5c-4.4-1.6-9.6-0.9-11.2-6.4
			c0,3.3,0,6.5,0,9.8c0.3-5,7.5-8,11.3-10c1.1-1.2,1.8-1,2,0.4c2,4.2,1.4-7,0.1-2.5c-0.6,2.1-2.1,3.7-3.8,5
			C900.6,654.3,903.9,661.8,902.3,663L902.3,663z"/>
	</g>
</g>
<g>
	<g>
		<path fill="#E30613" d="M934.9,659.9c1.1-3.1,0.5-7.4,0.3-10.7c-0.2-6.6-8.9,1.8-10.1,3.6c-2.6,3.8-3,8.3-3.1,12.7
			c0,4.3-0.3,8.7,0.9,12.8c1.5,5.5,6.7,9.7,12.5,8c5.6-1.6,7.9-9.3,8.8-14.2c0.7-4,0.3-8.5,0.2-12.6c-0.1-5.4-2.7-10.1-8.1-11.5
			c0.7,0.2-0.9,9.8,0,10c5.2,1.3,7.7,5.7,8.1,10.8c0-2.8,0-5.7,0-8.5c0,0.5,0,1.1,0,1.6c0-0.5,0-1,0-1.5c-0.6,5.5-2.4,10.8-6.6,14.5
			c-4.4,3.9-9.9,1-12.9-2.9c-1.4-1.8-2-4.2-2.4-6.4c1.2,6.1-0.3,5.5,0.6,2c0.3-1.3,0.9-2.5,1.6-3.7c1.3-2.5,9.2-11.3,10.8-4.9
			c0-3.3,0-6.7,0-10c-0.1,0.3-0.2,0.6-0.3,0.9C933.9,652.8,936,657,934.9,659.9L934.9,659.9z"/>
	</g>
</g>
<g>
	<g>
		<path fill="#E30613" d="M955.9,646.2c-3.9,3.3-2.6,11.9-2.1,16.5c0.7,7,7.7,17,15.2,11.6c6.1-4.4,5.6-14.3,5.7-20.9
			c0-4.3,1.1-22.4-5.9-20.8c-0.8,0.2,0.7,9.8,0,10c5.4-1.3,5.6,9.4,5.8,12.5c-0.4-6.2-0.8,0.9-1.4,2.8c-0.7,2.1-1.9,4-3.3,5.6
			c-7.6,8.9-15.6-5.5-16.3-12.1c0,3.1,0,6.2,0,9.3c0-2,0.7-3.2,2.2-4.5C957.5,654.8,954.3,647.6,955.9,646.2L955.9,646.2z"/>
	</g>
</g>
<g>
	<g>
		<path fill="#E30613" d="M988.8,632.7c-0.5,12.9-0.3,25.8,1.8,38.6c0-3.3,0-6.7,0-10c-1.5-2-2.6-4-3.5-6.3
			c-0.3-0.9-0.6-1.8-0.8-2.8c-0.6-2.1,0.2-5.1-0.4,0c0.6-5.2,3.3-10.7,7.6-13.6c2.3-1.6,4.6-0.4,6.2,1.4c2.7,3.1,0.7,8.9,1.9,0
			c-0.6,4.8-3.9,8.8-8.1,11c-0.4,0.2-0.3,9.9,0,10c8.1,3.5,11.8,17.6,22,15.9c6.9-1.1,6.2-12.5,4.9-17.4c0.8,3.1-0.8,6.9,0,10
			c0.1,0.4,0.2,0.8,0.3,1.2c0-3.3,0-6.5,0-9.8c-0.3,8.1-9.7,6.5-13.9,3c-4.9-4.1-7.1-10.2-13.2-12.9c0,3.3,0,6.7,0,10
			c6.9-3.6,8.4-10.1,8.4-17.2c0-5.2,0.5-18.9-8.4-15.2c-7,2.9-7.9,14-8,20.4c0,8.1,0.1,15.5,5.1,22.3c-0.5-0.7,0-4.1,0-5
			c0-1.6,0.2-3.4,0-5c-1-6.2-2-12.7-1.8-18.9C989,639.3,988.7,635,988.8,632.7L988.8,632.7z"/>
	</g>
</g>
<g>
	<g>
		<path fill="#E30613" d="M1037.1,650.8c3.2-2.2,2.1-7,2.1-10.4c0-1.7,0.1-3.2-0.5-4.8c-1.1-3-5-1.5-6.4,0.1c-3.7,4-5.4,12-6.6,17.2
			c-1.2,4.9-1.4,9.8-1.4,14.9c0,4.2-0.4,8.3,2.5,11.7c3.6,4.2,10.5,3.5,14.9,1.4c10-4.5,9.4-15.2,9.3-24.4c0-1.8-0.1,1.5-0.1,1.8
			c0,2.3,0,4.6,0,6.8c0,0.4,0,0.9,0,1.3c0-3.1,0-6.2,0-9.3c-0.9,11.1-14.5,20.6-24.2,12.3c-1.1-0.9-1.6-2.3-2.1-3.6
			c-0.1,1.2-0.1,2.4-0.2,3.7c0.1-1.1,0.3-2.2,0.5-3.4c0.6-3.9,1.8-7.7,3.1-11.5c1.1-3.1,2.5-6.2,4.2-9.1c1.8-3.1,5.8-1.8,6.8,1.1
			c0-1.7,0-3.3,0-5c0,0.4,0,0.8,0,1.2c0-1.7,0-3.3,0.1-5c-0.5,1.4-0.9,2-2.1,2.9C1035.5,641.9,1038.6,649.8,1037.1,650.8
			L1037.1,650.8z"/>
	</g>
</g>
<g>
	<g>
		<path fill="#E30613" d="M1064.3,648.2c0-2.8,0.5-6,0-8.8c-0.3-1.9-0.9-3.1-2.2-4.5c0.3,0.4-0.4,5.1-0.4,5.9
			c-0.1,8.4-0.2,16.7,2.1,24.9c1.9,6.8,9.1,17.4,17,10.6c2.3-2,1.7-6.4,1.7-9.1c0-3.9,0-7.3-0.9-11.1c0.8,3.1-0.8,6.8,0,10
			c0.4,1.6,0.7,3.1,0.9,4.8c0-3.1,0-6.2,0-9.3c-0.1,4.3-2.9,6.5-6.9,6.8c-3.8,0.2-6.7-2.7-8.7-5.5c-2.4-3.5-3.4-8.1-4.3-12.2
			c-0.2-1.1-0.4-2.3-0.5-3.5c-0.3-4.3-0.4-4.4-0.1-0.5c0.3-4.2,2.2,1.5,2.4,2.8c0-2.5,0-5,0-7.5c0,0.4,0,0.9,0,1.3
			c0,2.3,0,4.6,0,6.8C1064.2,651.8,1064.3,648.4,1064.3,648.2L1064.3,648.2z"/>
	</g>
</g>
<g>
	<g>
		<path fill="#E30613" d="M1060.7,642.4c7.4-2.6,14.8-5.2,22.2-7.8c1.1-0.4-1-9.7,0-10c-7.4,2.6-14.8,5.2-22.2,7.8
			C1059.6,632.7,1061.6,642,1060.7,642.4L1060.7,642.4z"/>
	</g>
</g>
<g>
	<g>
		<path fill="#E30613" d="M1067.3,660.7c4.3-3.5,9.1-6,14.4-7.5c0.9-0.3-0.8-9.8,0-10c-5.3,1.5-10.1,4-14.4,7.5
			c-0.5,0.4-0.1,4.4-0.1,5C1067.3,656.2,1067.7,660.3,1067.3,660.7L1067.3,660.7z"/>
	</g>
</g>
<g>
	<g>
		<path fill="#E30613" d="M1119.9,630.2c-3.5-8.8-13.3-0.8-17.6,2.6c-2.2,1.8-7.6,4.7-7.8,8c-0.1,2.9-0.1,5.8,0,8.7
			c0,6.3,6.4,8.9,11.5,10.9c6.4,2.5,13.3,4,17.5,9.8c0-3.3,0-6.7,0-10c-5.3,6.7-12.5,10.9-21,12c-0.5,0.1,0.4,10,0,10
			c8.5-1.1,15.7-5.2,21-12c0.6-0.8,0.6-9.2,0-10c-3.4-4.6-8.5-6.6-13.8-8.5c-5.4-1.9-12.8-4-15.2-9.8c0,2.5,0,5,0,7.5
			c0-0.5,0-0.9,0-1.4c0,0.8,0,1.7,0,2.5c1.9-5,8.8-8.7,13-11.8c3.9-2.9,10.2-4,12.4,1.4C1118.8,637.4,1121.1,633.1,1119.9,630.2
			L1119.9,630.2z"/>
	</g>
</g>
<g>
	<g>
		<path fill="#E30613" d="M1184.7,639.7c-0.2-2.8-0.8-5.4-1.9-8.1c-1.5-3.6-1.2,1.3-1.4,2.4c-0.3,1.9-0.6,3.9-0.9,5.8
			c-1.2,8.4-2.1,16.8-2.8,25.3c-0.3,3.3,0.5,6.8,0,10c0.8-5.1,1.5-10.2,2.3-15.3c0.4-2.5,0.8-5.1,1.1-7.6c0.2-1.3,0.4-2.5,0.6-3.8
			c0.1-1,3.4,0.6,3.6,0.8c3.6,2,6.2,7.7,8.6,10.9c3.4,4.7,6.9,9.5,10.3,14.2c0.9,2.2,1.5,2.1,1.7-0.1c0.4-1.1,0.8-2.3,1.1-3.4
			c0.7-2.3,1.3-4.7,1.9-7c1.3-5.3,2-10.7,2.4-16.1c0.5-6.9,0.4-13.8,0.2-20.7c0.1,2.4-0.1,6.6,0,9.6c-0.2-6.9-0.3,2.9-0.3,2.9
			c-0.1,1.8-0.4,3.6-0.6,5.4c-0.5,4.2-1.5,8.3-2.5,12.4c-0.4,1.8-1,3.5-1.5,5.2c-0.7,2.1-0.3,4.6-2.3,1.9c-2.7-3.7-5.3-7.4-8-11.1
			c-2.3-3.2-4.6-6.3-6.9-9.5c-1.9-2.7-3.9-5.8-7.6-5.4c-0.6,0.1-1.8,12.1-2,13.4c-0.7,4.5-1.3,8.9-2,13.4c0,3.3,0,6.7,0,10
			c0.6-7.1,1.3-14.3,2.2-21.4c0.5-3.9,1.1-7.7,1.7-11.6c0.6-3.9,1-0.5,1.7,1c0.8,1.9,1.1,4.1,1.2,6.2
			C1184.5,647,1184.9,642.7,1184.7,639.7L1184.7,639.7z"/>
	</g>
</g>
<g>
	<g>
		<path fill="#E30613" d="M1219.9,673.9c0.6-7.2,2.3-14.1,4.9-20.9c0-3.3,0-6.7,0-10c-1.3,11.4-1,23.7,3,34.6c-1.1-2.9,1.1-7,0-10
			c-1-2.8-1.9-5.6-2.5-8.6c-0.2-1.2-0.4-2.3-0.6-3.5c-1.4-10-0.6,3.6,0-2.5c0.3-2.9-1-7.3,0-10c-2.7,6.8-4.3,13.7-4.9,20.9
			C1219.6,667.2,1220.2,670.6,1219.9,673.9L1219.9,673.9z"/>
	</g>
</g>
<g>
	<g>
		<path fill="#E30613" d="M1248.9,629.2c-0.3-2.8-2.4-0.1-2.7,1.3c-0.5,2.5-0.6,5.3-0.8,7.8c-0.4,5.3-0.5,10.5-0.6,15.8
			c0,4.4,0,8.8,0.1,13.1c0.1,2.6,0.3,5.3,0.5,7.9c-0.3-3.6,0.8-7.7,1.2-11.2c0.8-6.2,1.9-12.4,3.1-18.5c0.6-3.1,1.3-6.1,2.1-9.2
			c0.4-1.8,0.9-3.6,1.4-5.5c-0.4,1.5,0.4,4.3,0.6,5.8c1.3,13.6,2.7,27.3,4,40.9c-0.3-3.3,0.3-6.7,0-10c-1-10.4-2-20.8-3-31.2
			c-0.5-5.2-1-10.4-1.5-15.6c0.2,2-1.4,5.3-1.9,7.3c-0.6,2.4-1.1,4.9-1.6,7.3c-2.1,9.8-3.4,19.8-4.3,29.8c0.3-3-0.5-6.3-0.5-9.4
			c0.1-3.2,0.3-6.3,0.6-9.4c0.2-2.4,0.4-4.8,0.9-7.1c0.4-1.7,2.3-1.4,2.4,0.1C1248.5,635.9,1249.2,632.5,1248.9,629.2L1248.9,629.2z
			"/>
	</g>
</g>
<g>
	<g>
		<path fill="#E30613" d="M1291.9,636.6c0.7-2.8,0.4-6,0.4-8.9c0-3.2,0.1-5.7-2.5-8c1,0.9-0.1,8.2,0,9.8c0.3,7.1,0.2,14.1-0.3,21.2
			c-0.2,3.8-0.6,7.6-1.1,11.3c-0.1,1.3-0.3,2.6-0.5,3.8c-0.5,4-1,0.5-1.3-0.8c0,0.5,0,1,0,1.5c0-0.5,0-1,0-1.5c0,2.8,0,5.7,0,8.5
			c1-6.6,5.8-14.4,11.7-17.7c3-1.7,6.4-1.4,9.2,0.3c1.7,1,2.7,3.1,3.6,4.8c1.1,2.2,1.5,8.6,1.6,0.1c0-0.5,0-1,0-1.5
			c-0.4,4.3-2,8-5.9,10.2c-3.6,2.1-8.3,1.3-11.1-1.7c0,3.3,0,6.7,0,10c6-2.4,11.9-5.1,17.6-8.2c5.6-3,11.9-6.2,16.1-11.1
			c3-3.5,2.4-8.2,2.4-12.4c0-4.1,0.3-8.2-3.7-10.6c-1.3-0.8-5.1,3.5-5.7,4.3c-1.5,1.9-2.2,4.4-2.6,6.8c-0.5,3.5-0.2,7.5-0.1,11
			c0.4,10.4,12.3,15.6,20.5,9.4c1.6-1.2-1.6-8.8,0-10c-6.5,4.9-16,2.8-19.6-4.5c-0.3-0.7-0.5-1.5-0.7-2.3c1.4,5.8-0.5,6.6,0.7,2.8
			c0.6-1.9,1.9-3.6,3.3-5c1.3-1.4,3.4-2.9,5.1-1.9c2,1.2,2.6,4,2.7,6.1c0-3.3,0-6.5,0-9.8c-0.7,7.4-8.1,11.2-13.9,14.6
			c-7.1,4.2-14.6,7.7-22.3,10.8c-0.3,0.1-0.5,9.5,0,10c4.3,4.8,11.3,3.1,14.8-1.7c3.1-4.2,2.2-10.9,2.1-15.8
			c0-5.8-1.1-12.1-6.5-15.3c-6.7-4-13.2,4.6-16,9.3c-3.4,5.6-3.6,10-3.6,16.3c0,2.5-0.1,4.4,1.1,6.7c-0.5-0.9,0.6-4.7,0.7-5.7
			c0.3-2.6,0.5-5.1,0.8-7.7c1.3-14.7,1.3-29.7,0.6-44.5c0,3.3,0,6.5,0,9.8c1.5,1.3,2.1,2.4,2.5,4.3c0-2.8,0-5.7,0-8.5
			c0,0.4,0,0.9,0,1.3c0-0.5,0-1,0-1.5c-0.1,0.4-0.2,0.8-0.3,1.2C1291.1,629.8,1292.7,633.5,1291.9,636.6L1291.9,636.6z"/>
	</g>
</g>
<g>
	<g>
		<path fill="#E30613" d="M330.2,810.4c-0.9-6.5-7.4-9.8-13.5-8.8c-7.3,1.2-11.8,8.9-13.8,15.3c-1.6,5.1-1,11.2-0.8,16.4
			c0.3,7.5,5.3,14.2,13.1,14.2c8.3,0,12.7-9.2,14-16c1.4-7,0.9-14.6,0.9-21.7c-0.1-17.2-3.5-33.9-10.3-49.7c0,0.2,0,0.5,0,0.7
			c-0.3,19.3,0.8,38.3,5.2,57.2c1.9,8.3,5.4,18.9,14.7,21.2c8.2,2.1,7.4-12.3,9.4-16.6c1.3-2.7-1.3-7.3,0-10c-2.3,4.8-1,11-4.6,15.1
			c-5.3,6.2-13.5-4.3-15.7-8.4c-3.7-6.8-4.8-15.3-6.2-22.8c-0.8-4.4-1.4-8.9-1.8-13.4c-0.3-3.1-0.5-6.3-0.7-9.5
			c-0.1-1.3-0.1-2.6-0.2-3.9c0.4,1.2,0.8,2.3,1.3,3.5c6.5,15.6,10.7,34.6,7.7,49.8c-1.4,7.1-6.3,13.3-13.7,14.3
			c-7.9,1-12.6-7.5-13.1-14.1c0,2.8,0,5.7,0,8.5c0-0.6,0-1.1,0-1.7c0,0.5,0,1,0,1.5c0.7-8,4.6-15.7,11.9-19.4
			c6.4-3.2,15.1,0.7,16.1,7.9C329.7,817.2,330.6,813.7,330.2,810.4L330.2,810.4z"/>
	</g>
</g>
<g>
	<g>
		<path fill="#E30613" d="M364.5,826.8c-1.8-0.2-2-1.6-2-3.2c0,3.3,0,6.5,0,9.8c1.3-13.2,1.7-26.7-5.1-38.6c0,3.3,0,6.7,0,10
			c4,0.4,10.1-0.2,13.6,1.9c0.9,0.5,0.7,4.7,0.8,5.9c0.2,2.4,0.7,4.7,1.3,7c1.1,4.7,7.3,18.1,13.5,10.2c0.6-0.7,0-4.1,0-5
			c0-0.8-0.6-4.3,0-5c-6.3,8-12.2-5.6-13.5-10.2c-1.2-4.1-0.3-9.1-2-12.9c-0.9-2-11.5-1.7-13.6-1.9c0.4,0-0.5,9.1,0,10
			c2,3.5,3.5,7,4.5,10.9c0.8,3.1,0.6,5.4,0.6,8.4c0,2.4-1.5,12.3,2.1,12.7C364.2,836.8,365,826.9,364.5,826.8L364.5,826.8z"/>
	</g>
</g>
<g>
	<g>
		<path fill="#E30613" d="M407.2,813.4c0.5-4.7,1-10.6-0.6-15.1c-0.6-1.7-1.9-2.9-3.3-4c-1.8-1.4-3.3,1.3-4.5,2.5
			c-3.2,3.3-5.2,7.6-6.6,12c-1.6,5.2-1.4,11.6-0.9,16.9c0.3,3.3,1.1,6.2,3.6,8.5c3.4,3.2,7.3-1.8,9.5-4.3c4.8-5.5,6.7-12.7,6.7-19.8
			c0-2.8,0.1-5.6,0-8.4c0-1.2,0.7-4-1-2c-1.1,1.2-1.6,3.3-1.7,4.9c-0.2,5.9-0.7,12.1,1.5,17.7c2.8,7.3,10.9,14.9,18.9,10.1
			c1.5-0.9-1.4-9.2,0-10c-6.1,3.7-12.2,0-16-5.1c-2-2.6-3.3-5.8-4-9c1.3,5.5-0.8,6,0.7,2.4c0.4-0.8,0.9-1.5,1.5-2.1
			c0.2-4.8,0.2-5.8-0.1-2.9c-0.8,6.6-4.5,12.7-9.4,17.1c-2.7,2.5-4.5,3.1-7.3,0.5c-2-1.9-2.6-5.2-2.8-7.8c0,0.5,0,1,0,1.5
			c0.1,9.5,0.9,1.4,1.9-1.3c1-2.9,2.7-5.5,4.6-7.9c1.3-1.7,3.4-4.8,5.5-3.7c2.6,1.5,3.9,4.8,4,7.6c0-3.3,0-6.5,0-9.8
			c0,0.4-0.1,0.9-0.1,1.3C406.8,806.7,407.6,810.1,407.2,813.4L407.2,813.4z"/>
	</g>
</g>
<g>
	<g>
		<path fill="#E30613" d="M459.9,806.4c-3.7-3-5.6-7.5-9.1-10.7c-3.9-3.5-8.6-2.4-11.1,1.9c-3.2,5.7-3,14.8-2.3,21.2
			c0.4,4.2,2.6,7.5,7.2,7.2c5.2-0.4,7.9-7.1,8.6-11.3c1.4-7.8,0.8-17.9-2.4-25c1.2,2.7-1.2,7.2,0,10c6.3,15.1,13,30.2,18.4,45.7
			c2.6,7.5,4.6,15.3,5.7,23.2c0.3,2-0.2,7,0.4,0.5c-0.1,1.3-0.5,2.6-0.9,3.9c-1.1,3.2-3.7,5-6.8,5.9c-6,1.7-12.3-3.1-15.8-7.5
			c-1.7-2.2-2.8-4.8-3.8-7.4c-0.5-1.3-0.7-2.7-1-4.1c-0.3-2.2-0.3-1.8-0.1,1.1c0.1-1.1,0.3-2.2,0.6-3.3c1.4-7.2,5.1-13.8,8.7-20.1
			c3.1-5.2,7.9-12.2,14.9-10c-0.9-0.3,1-9.7,0-10c-9.2-2.8-14.8,9.6-18.2,16c-3.9,7.4-6.2,15.2-6.3,23.6c-0.1,6.7-0.2,13.1,2.4,19.4
			c3.1,7.4,10.3,13.2,18.6,12.2c7.7-0.9,8-10.3,8-16.1c0-7.9-0.6-15.3-2.4-23.1c-4.6-20.7-14.3-40.4-22.4-59.8c0,3.3,0,6.7,0,10
			c0.7,1.6,1.3,3.1,1.8,4.8c0.7,2.2,0,6.2,0.6,0.2c-0.4,3.4-2,6.4-4.3,8.9c-4.3,4.7-10.3,2.1-11.5-3.6c1.3,6.2-0.2,6.1,0.6,2.5
			c0.3-1.3,0.7-2.5,1.1-3.7c1.1-3.1,3.2-5.1,6.5-5.3c6.6-0.4,10,9.4,14.2,12.9C458.3,815.1,461.5,807.8,459.9,806.4L459.9,806.4z"/>
	</g>
</g>
<g>
	<g>
		<path fill="#E30613" d="M497.1,791.8c-0.8-3.3-4.2-3.9-7.1-2.8c-4.4,1.6-5,9.1-5.5,12.8c-0.9,6.2-1.8,16.7,3.2,21.2
			c9.1,8.3,12.4-11.4,12.5-16.6c0.1-3.6,0.1-7.3,0-10.9c-0.1-1.6-0.8-12.2-4.2-7.7c-0.8,1.1-0.6,8.7,0,10c5.5,13,11,26,15.1,39.4
			c2,6.4,3.5,12.9,4.6,19.5c0.7,4.1,1.1,8.3,1.3,12.5c0.4,7,0.9-9.5-0.2-0.4c-0.2,1.4-0.6,2.8-1.1,4.1c-1.8,5.2-7,7.1-12.1,6.2
			c-6-1-9.4-6.4-11-11.8c-0.4-1.6-0.1-5.4-0.5-0.5c0.1-1.7,0.5-3.3,0.8-5c0.7-3.3,1.9-6.5,3.1-9.6c2.6-6.3,6.2-12.2,9.8-17.9
			c1.5-2.4-1.5-7.6,0-10c-4.5,7.2-8.8,14.6-11.6,22.7c-2.4,6.8-2.5,13.7-2.5,20.8c0,6.3,0.6,12.2,4.7,17.3c5,6.1,14.5,5.6,18.5-0.9
			c3-4.8,2.1-12.1,2.1-17.5c0-7.9-0.7-15.7-2.2-23.5c-3.5-19.2-11.4-37.5-19.1-55.4c0,3.3,0,6.7,0,10c1.4-1.9,2.9-0.5,3.6,1.2
			c0.3,0.9,0,4.6,0.3,1.6c-0.2,1.8-0.6,3.5-1,5.2c-1.4,5.8-4.9,11.3-11.2,7.2c-1.1-0.7-1.8-1.9-2.4-3c-0.2-0.5-0.4-1-0.5-1.6
			c-0.4,4-0.4,4.5,0,1.7c0.4-3,1.1-5.9,2.5-8.5c2-3.8,8.7-4.6,9.8,0.2C496.4,798.7,497.9,795,497.1,791.8L497.1,791.8z"/>
	</g>
</g>
<g>
	<g>
		<path fill="#E30613" d="M512,817.1c2.5-1.9,4.4-4.3,5.6-7.2c0.1-0.3,0-1.2,0-1.5c0-1.2,0-2.4,0-3.5c0-1.2,0-2.4,0-3.5
			c0-0.2-0.1-1.2,0-1.5c-1.2,2.9-3.1,5.3-5.6,7.2c-0.1,0.1,0,1.5,0,1.5c0,1.2,0,2.4,0,3.5c0,1.2,0,2.4,0,3.5
			C512,815.5,512,817,512,817.1L512,817.1z"/>
	</g>
</g>
<g>
	<g>
		<path fill="#E30613" d="M543.2,800.9c1.4-3,0.9-6.7,0.9-9.9c0-3.6-0.1-6.5-3.1-9.1c-3.9-3.5-9.9-0.8-13.2,2
			c-4.3,3.6-7.1,10.6-7.5,16c-0.5,6.4-1.6,18.2,7.4,18.7c4.9,0.3,8.8-6.2,10.9-9.7c3.2-5.3,4.9-11.4,5.7-17.5c0.4-3.3-0.6-6.8,0-10
			c-2.5,14.1-0.4,30.3,12.3,38.7c-1.5-1,1.6-8.9,0-10c-3.7-2.5-6.6-5.5-8.9-9.2c-1.3-2-2.1-4.3-2.8-6.6c-0.3-0.9-0.5-1.9-0.7-2.8
			c-1-4.7-0.7,4.7,0.1,0c0-3.3,0-6.7,0-10c-1,8-3.8,15.2-8.5,21.7c-2,2.8-4.7,5-8.1,5.5c-4.7,0.8-7.2-4.8-7.4-8.5c0,3.3,0,6.5,0,9.8
			c0.5-6.8,4.2-14.1,9.9-17.9c5.4-3.6,12.6-1.2,13.7,5.3c0-3.1,0-6.2,0-9.3c0,1.1-0.3,2-0.8,2.9
			C541.9,793.7,544.5,798.3,543.2,800.9L543.2,800.9z"/>
	</g>
</g>
<g>
	<g>
		<path fill="#E30613" d="M564.4,735.5c-3.1,2.3-2.1,7.8-2.1,11.2c0,6,1.4,11.7,2.5,17.6c3,17.4,5.1,34.9,6.3,52.4c0,0.2,0,0.2,0,0
			c0.2-5.6,2.5-28.6,11.9-26.6c0.9,0.2,2.3,5.2,2.6,6.1c0.3,1.1,0.6,2.1,0.9,3.2c0.7,2.9-0.2,6.7,0.6-1.3c-0.4,4-2.5,7.8-6.7,8.6
			c-0.7,0.1,0.5,9.9,0,10c8.6-1.6,7-14,6.9-20.4c-0.1-5.1-1.4-10-3.5-14.6c-3.2-7.1-9.1,7.2-9.9,9.4c-1,2.8-1.6,5.8-2.1,8.7
			c-0.2,1.2-0.4,2.5-0.4,3.7c0-0.1-0.2,2.7-0.3,1.4c-0.5-7.2-1.2-14.3-2-21.5c-0.8-7.2-1.8-14.3-2.9-21.4c-1.1-7.2-3-14.5-3.7-21.7
			c0,2.8,0,5.7,0,8.5c0-0.4,0-0.8,0-1.2c0,0.5,0,1,0,1.5c0.2-1.7,0.6-2.6,2-3.6C566.1,744.3,562.9,736.6,564.4,735.5L564.4,735.5z"
			/>
	</g>
</g>
<g>
	<g>
		<path fill="#E30613" d="M596.7,755.5c1.6-0.6,1.3-10.6-0.3-11.9c-1.8-1.5-1.8,4.8-1.8,5.2c0,2.5-0.2,5.1,0,7.5
			c1.1,10,2.9,19.8,3.9,29.8c1.1,11.7,1.7,23.4,1.9,35.2c0,1.7,0.1,1.7,0.1,0c0-2.4,0-4.7,0-7.1c-0.1-10.8-0.6-21.6-1.4-32.3
			c-0.9-11.9-3-23.7-4.4-35.6c0,3.3,0,6.5,0,9.8c0.1-1.9,1.5-3.8,2.6-1.4c0-3.3,0-6.7,0-10c0.1,0.5-0.1,0.8-0.6,0.8
			C595.6,745.9,597.7,755.1,596.7,755.5L596.7,755.5z"/>
	</g>
</g>
<g>
	<g>
		<path fill="#E30613" d="M608.6,807c10.2-2.9,13.5-11.3,13.5-21c0-3,0.8-8.5-4-6.8c-4.2,1.5-4.9,11.5-5.1,15.1
			c-0.6,8.6-0.9,19.4,4.1,26.7c7.5,10.9,24-6.4,28.4-12.5c1.6-2.2-1.6-7.9,0-10c-5.1,7.1-19.6,22.2-28.4,12.5
			c-1.7-1.8-2.4-4.5-3-6.8c-0.5-1.6-0.7-3.3-0.9-5c0.5,3.8,0.7-0.9,0.8-1.8c0.6-2.6,1.6-5.1,3-7.3c1.5-2.2,4.5-1.5,5.1,0.9
			c0-3.3,0-6.5,0-9.8c-0.4,7.7-6.3,13.8-13.5,15.8C607.6,797.3,609.4,806.8,608.6,807L608.6,807z"/>
	</g>
</g>
</svg>
