<?xml version="1.0" encoding="utf-8"?>
<!-- Generator: Adobe Illustrator 18.0.0, SVG Export Plug-In . SVG Version: 6.00 Build 0)  -->
<!DOCTYPE svg PUBLIC "-//W3C//DTD SVG 1.1//EN" "http://www.w3.org/Graphics/SVG/1.1/DTD/svg11.dtd">
<svg version="1.1" id="Camada_1" xmlns="http://www.w3.org/2000/svg" xmlns:xlink="http://www.w3.org/1999/xlink" x="0px" y="0px"
	 viewBox="0 0 1600 900" enable-background="new 0 0 1600 900" xml:space="preserve">
<g>
	<g>
		<path fill="#F18700" d="M787,39.1c0.3-0.7,0.2-1.6,0.2-2.4c0-2.8,0.1-5.7,0-8.5c-0.1-1-0.7-1.9-1.7-2.2c0,0,0,1.6,0,1.5
			c0,1.2,0,2.4,0,3.5c0,1.2,0,2.4,0,3.5c0-0.1,0,1.4,0,1.5c0.9,0.3,1.5,1.1,1.6,2c0-0.1,0-0.1,0-0.2c0,0.1,0,0.1,0,0.2
			c0-2.8,0-5.6,0-8.4c0,0.1,0,0.1,0,0.2c0-0.5,0-1,0-1.5c0,0.3-0.1,0.5-0.2,0.7c-0.1,0.3,0,1.2,0,1.5c0,1.2,0,2.4,0,3.5s0,2.4,0,3.5
			C786.9,37.8,787.1,38.9,787,39.1L787,39.1z"/>
	</g>
</g>
<g>
	<g>
		<path fill="#F18700" d="M91.9,96.2c7.3,5.5,16.9-1.9,21-8.1c2.9-4.2,2.2-12.8,1.2-17.6c-1.8-8.4-12.4-10.6-19.2-7.7
			c-7.8,3.3-12.3,12.6-13.6,20.5c-2,11.7-0.5,32.8,16.6,28c15.9-4.5,14.1-27,13-39.8c0,3.3,0,6.7,0,10c5.5,17.9,11.2,35.7,16.2,53.6
			c2.4,8.5,4.3,17.1,5.7,25.9c0.3,1.9,0.5,3.7,0.7,5.6c0.2,1.7,0.3,3.4,0.4,5.2c0.1-5.2,0-6.2-0.4-2.9c-0.6,3.8-3,6.9-6.1,9
			c-6.6,4.3-14.3-2.7-18-7.6c-2.2-2.8-3.6-6.1-4.7-9.5c-1.5-4.5-1.6-6.8-1-10.4c1.4-8.8,5.4-17.1,9.7-24.8
			c3.5-6.3,8.3-12.7,15.9-13.4c0.4,0-0.3-10,0-10c-9.6,1-14.5,10.5-18.4,18.2c-4.7,9.1-7.8,18.8-8,29.1c-0.1,7.2-0.2,14.4,1.8,21.4
			c2.5,8.6,10.2,19.3,20.2,18c8.5-1.1,9.1-12.3,9.1-18.7c0-9.6-1.1-18.9-3-28.3c-4.8-23.8-13.1-47-20.2-70.2c0.9,2.9-0.3,6.9,0,10
			c0.3,3.6,0.3,4,0.1,1c-0.1,1-0.3,2.1-0.5,3.1c-0.4,2.6-1.4,5-2.6,7.3c-2.1,4.1-5.9,6.8-10.1,8.4c-4.1,1.5-8.5,0.7-12-1.8
			c-1.6-1.2-2.7-3.1-3.6-4.9c-1.4-3.1-0.5-9-1.2,0c0.7-8.7,6-17.7,13.8-21.8c7.9-4.2,18.8,1,19.5,10.1c0-3.3,0-6.5,0-9.8
			C113.9,82,100,92.4,91.9,86.2C93.4,87.4,90.2,95,91.9,96.2L91.9,96.2z"/>
	</g>
</g>
<g>
	<g>
		<path fill="#F18700" d="M145.2,89c-6.4,3-5.3,10-5.2,15.9c0.1,6.1,4.3,11,10.8,8.6c6.3-2.3,5.6-11.7,5.6-16.9
			c0-6.9-1.1-13-7.2-17.2c0.4,0.3,0,4.5,0,5c0,0.5-0.4,4.7,0,5c2.8,1.9,4.7,4.4,6,7.5c1.4,3.4-0.2,6.7,0.9-1.6
			c-0.2,1.7-0.9,3.2-1.7,4.7c-3.4,6.5-14.2,4.7-14.4-3c0,3.1,0,6.2,0,9.3c0.4-3.4,2.1-5.9,5.2-7.3C146.6,98.3,144,89.5,145.2,89
			L145.2,89z"/>
	</g>
</g>
<g>
	<g>
		<path fill="#F18700" d="M185,82.9c-6.3-3.1-13.6-2.2-18.4,3c-3.5,3.9-2.6,10.5-2.6,15.2c0,5.5,1.3,10.4,6.7,12.9
			c7.8,3.6,12.1-9.3,13.7-14.3c1.8-5.8,1.7-11.8,1.6-17.8c0-1.8-0.5-5.2-3-4.2c-1.8,0.7-2,6.5-2.1,8.1c-0.4,10.8,0.1,23.1,12.2,27.2
			c-0.9-0.3,1.1-9.6,0-10c-5.5-1.9-9.2-6.1-11.2-11.5c-0.4-1.1-0.6-2.3-0.8-3.5c1.2,7.6-0.4,5.6,0.9,1.8c1.4-4.1,3.7-1.9,4,1.4
			c0-3.3,0-6.7,0-10c-0.7,6.6-2.5,13.1-6,18.8c-3.6,5.8-10.1,5.4-13.9,0.2c-0.7-0.9-1.1-2.1-1.5-3.2c-1.6-4.5-1.1,7.7-0.1,3
			c0.5-2.5,2.2-4.4,4-6.1c4.5-3.9,11.4-3.6,16.5-1.2C183.7,92.3,186.4,83.5,185,82.9L185,82.9z"/>
	</g>
</g>
<g>
	<g>
		<path fill="#F18700" d="M202.4,55c0.4,23.4,2.8,46.8,7.3,69.8c-0.6-3.2,0.6-6.8,0-10c-4.4-22.6-6.9-45.4-7.3-68.4
			c0-1.8-0.1,1.5-0.1,1.8C202.3,50.5,202.3,52.7,202.4,55L202.4,55z"/>
	</g>
</g>
<g>
	<g>
		<path fill="#F18700" d="M272.4,43.1C255.9,50.5,253.2,70,253.1,86c-0.1,13.9,0.2,37.4,19.6,37.1c0.1,0,0-10,0-10
			c-14.3,0.2-20.1-15.3-19.1-27.3c1.1-13.1,6-27,18.8-32.6C273.7,52.6,271.2,43.7,272.4,43.1L272.4,43.1z"/>
	</g>
</g>
<g>
	<g>
		<path fill="#F18700" d="M296.9,70.2c2.6,14.2,5.8,28.3,9.6,42.2c-0.8-3.1,0.8-6.9,0-10c-3.8-13.9-7-28-9.6-42.2
			C297.5,63.4,296.3,67,296.9,70.2L296.9,70.2z"/>
	</g>
</g>
<g>
	<g>
		<path fill="#F18700" d="M283.1,98.4c13.2-2.8,37.9-8,38-25.4c0-2.8,0.1-5.6,0-8.4c-0.2-4.4-3.4-7.4-6.7-9.9
			c-7.2-5.3-17.1-6.1-25.4-3.2c-1.1,0.4,1,9.7,0,10c10.3-3.6,30.5-0.8,32.1,12.9c0-3.3,0-6.7,0-10c-1.3,16.4-25.3,21.3-38,24
			C282.3,88.6,283.7,98.3,283.1,98.4L283.1,98.4z"/>
	</g>
</g>
<g>
	<g>
		<path fill="#F18700" d="M333.9,115.9c2.4-3.1,5.2-6.8,5.4-10.9c0.2-3.2,0.1-6.5,0.1-9.7c0-3.4-0.6-6.2-3.1-8.7
			c-2.7-2.7-7.4-1.6-9.4,1.2c-0.6,0.8-0.6,9.2,0,10c3.7,4.5,9.3,3.6,13.9,1.1c1.4-0.7,2.6-1.7,3.8-2.6c1.6-1.2,1.4,3.7,1.4,4
			c0.2,2.9,0.7,5.7,1.7,8.4c1.2,3.5,6.5,10.7,10.7,8.1c4.6-2.9,6.8-8.4,6.9-13.6c0.1-1.6,0-3.2,0-4.8c0-0.8-0.6-4.4-0.1-5
			c-2.1,2.6-1.6,6-1.6,9.2c0,3.7-0.5,7.4,2.8,9.8c-1.5-1.2,1.6-8.8,0-10c-1.7-1.3-2.4-2.7-2.7-4.8c0,3.3,0,6.5,0,9.8
			c0.1-1.8,0.5-2.7,1.6-4c0-3.3,0-6.5,0-9.8c-0.1,4-1.4,7.2-3.8,10.4c-0.9,1.1-2,2-3.1,2.9c-1.7,1.3-3.2,0.2-4.9-0.7
			c-7-3.9-7.4-13.7-7.6-20.6c0-0.1,0-0.1,0-0.2c-5.3,4.1-13.4,9.1-19,2.5c0,3.3,0,6.7,0,10c2.7-3.7,7.3-3.3,10.4-0.3
			c0.6,0.7,1,1.4,1.4,2.3c2,4.2,1.4-6.8,0-1.8c-0.8,2.9-2.9,5.5-4.8,7.9c-0.6,0.7-0.1,4.1-0.1,5
			C333.8,111.7,334.4,115.2,333.9,115.9L333.9,115.9z"/>
	</g>
</g>
<g>
	<g>
		<path fill="#F18700" d="M364.4,71.5c-0.7-0.3-1.4-0.7-2.1-1c0,0,0,1.6,0,1.5c0,1.2,0,2.4,0,3.5s0,2.4,0,3.5c0-0.1,0,1.4,0,1.5
			c0.7,0.3,1.4,0.7,2.1,1c0,0,0-1.6,0-1.5c0-1.2,0-2.4,0-3.5s0-2.4,0-3.5C364.4,73,364.5,71.5,364.4,71.5L364.4,71.5z"/>
	</g>
</g>
<g>
	<g>
		<path fill="#F18700" d="M381.7,78.2c-3.4,9.6-3.5,19.1-3.4,29.1c0,1.7,0.1,3.3,0.2,5c0.1,1.2,0.2,2.3,0.4,3.5
			c0.6,4.6,0.6-1.5,0.7-2.2c0.7-7.2,1.4-14.5,2.1-21.7c-0.2,1.9,3.2,6.6,4.1,8.4c1.2,2.4,2.2,4.8,4.1,6.8c4.9,5.4,7-6,7.6-8.5
			c0.3-1.1,0.5-2.2,0.8-3.3c0.5-2.2,0.7-1.8,2.6-1c1.8,0.7,2.9,2.9,3.6,4.5c2.3,4.8,0.8,10.3,4.3,14.8c-1.6-2.1,1.6-7.9,0-10
			c-4.4-5.8-1.3-14.9-7.9-19.3c-2.6-1.7-2.5,0.7-3,2.7c-0.5,2.2-1.1,4.4-1.6,6.6c-1,4.3-4,6.2-7.3,2.5c-2.9-3.2-4.5-8.6-6.4-12.5
			c-0.8-2.3-1.1-2.2-1,0.3c-0.1,1.3-0.3,2.6-0.4,3.9c-0.3,3.3-0.6,6.6-0.9,9.9c-0.3,2.6-0.5,5.3-0.8,7.9c-0.5,5.6-1-4.5-1-4.8
			c0.2,2.9,0.8-3.4,1-4.1c0.5-2.9,1.4-5.7,2.4-8.4C382.8,85.2,380.7,81.2,381.7,78.2L381.7,78.2z"/>
	</g>
</g>
<g>
	<g>
		<path fill="#F18700" d="M431.6,78.4c-5.7-1.8-11.1,1.3-13.6,6.5c-1.8,3.8-0.9,9.8-0.8,13.8c0.1,3,4.5,15.7,8.2,11.8
			c4.8-5.1,7.1-12,7.4-18.9c0.1-1.6,0-3.2,0-4.8c0-0.7-0.5-4.4,0-5c-2.6,2.9-1.5,8.8-1.4,12.5c0.1,5,4.8,11.5,10.1,11.5
			c5.3-0.1,6.4-10.8,6.4-14.4c0-5,0.4-10.1-0.9-14.9c0,3.3,0,6.7,0,10c2.7-0.4,4.8-1.2,6.9-2.9c0.8-0.7,1.4-1.4,2-2.3
			c0.2-0.2,1.2,4.3,1.2,4.5c0-3.1,0-6.2,0-9.3c-0.1,7.5-2,14.9-0.6,22.4c0.4,2,1.5,3.5,3,4.7c2.4,1.9,3.8-1.1,5.1-2.8
			c3.2-4.1,4.9-9.1,5.7-14.1c0.5-3-1.1-7.3,0-10c-2.1,5.5-2,14.3-0.2,19.9c0.9,2.7,6,10,8.7,6.8c3.3-4,5.2-9,6.2-14.1
			c1.4-6.9,1.1-15.4-0.2-22.3c-0.8-3.9-1.1,2.8-1.1,3.9c-0.1,1.7,0,3.5,0,5.3c0,4.6,0.1,8.9,1,13.5c2.3,12.2,6.3,23.8,8,36.1
			c0.4,3.1,0.7,6.2,1,9.3c0.2,1.8,0.3,3.6,0.4,5.4c0.4,6.1,0.5-4.3-0.2,0.4c-0.7,4.7-3.4,8.7-8.3,9.2c-4.9,0.5-8.6-4.4-10-8.4
			c-0.5-2.7-0.6-2.1-0.4,1.7c0.2-1.7,0.6-3.4,1-5c0.6-2.9,1.5-5.7,2.4-8.5c1.8-5.6,4.2-11,6.9-16.2c2.3-4.5,5.3-11.4,11.1-11.6
			c0.2,0,0-10,0-10c-4.9,0.2-7.2,4.8-9.4,8.6c-2.7,4.6-4.9,9.4-6.8,14.3c-3.5,8.7-5.4,17.5-5.4,26.8c0,7.6,0.4,16.1,9.3,18.3
			c8.8,2.1,10-10.1,10.1-15.8c0.2-20.2-3-39.7-8.4-59.2c-0.6-2.3-1.2-4.7-1.6-7.1c-0.3-2.2-0.3-2.4-0.2-0.6c0.6-4.2,0.9,0.3,1.1,1.3
			c0.3,2.3,0.3,2,0.2-0.7c-0.1,1-0.3,2-0.5,3.1c-0.5,2.5-1.5,5-2.6,7.3c-0.9,1.9-2.1,3.6-3.3,5.3c-1.6,2.2-3.6-0.1-5.2-1.5
			c-1.6-1.4-2.6-3.4-3.4-5.3c-0.3-0.8-0.5-1.6-0.7-2.5c1.3,5.8-0.6,6.2,0.8,2.6c0-3.3,0-6.7,0-10c-1,6.3-3.5,11.7-7.7,16.5
			c-2,2.3-4.1-0.2-5.3-2.1c-0.6-1-0.8-2.3-1.1-3.5c0.1,1.6,0.1,3.1,0.2,4.7c0.2-1.1,0.3-2.2,0.5-3.3c0.6-4.1,0.3-8.5,0.2-12.6
			c0-1.7-0.2-6.6-2.2-4c-1.9,2.5-5.1,3.5-8,4c-0.2,0-0.2,9.1,0,10c0.4,1.6,0.7,3.1,0.8,4.8c0-0.5,0-1,0-1.5c-0.1-7.8-1.2,0-2.4,2.4
			c-1.1,2.4-2.8,3.6-5.4,3.7c-4.3,0.1-8.1-7.3-8.6-10.8c0,3.3,0,6.7,0,10c0.2-1.4,0.4-2.1,1.4-3.2c0-3.3,0-6.5,0-9.8
			c-0.3,6.5-2.4,12.2-6.3,17.3c-1.2,1.5-1.5,2.8-3.2,1.5c-1.1-0.8-2-1.9-2.9-3c-2-2.5-2.9-5.7-3-8.8c0,3.3,0,6.5,0,9.8
			c0.6-7.2,7.1-12.7,14.4-10.4C430.7,88.1,432.6,78.7,431.6,78.4L431.6,78.4z"/>
	</g>
</g>
<g>
	<g>
		<path fill="#F18700" d="M511.6,46.5c2.4,6.3,7.8,10.5,11.9,15.7c3.9,4.9,6.4,10.7,8.1,16.6c0.8,2.8,1.2,5.6,1.6,8.5
			c1,8.3,0.4-3.7-0.1,1.5c-0.2,1.9-0.6,3.8-1,5.6c-1.4,6.6-4.4,12.7-8.4,18c-1.6,2.2,1.6,7.9,0,10c9.3-12.6,10.2-27,9.7-42.1
			c-0.3-7.7-2.4-15.3-6-22.1c-4.2-8-12.5-13.2-15.8-21.6C512.7,39.4,510.4,43.6,511.6,46.5L511.6,46.5z"/>
	</g>
</g>
<g>
	<g>
		<path fill="#F18700" d="M217,252.5c13.8,0.5,27.6-0.2,41.3-2.2c-0.1,0,0.6-9.7,0-10c-4-2.3-8.1-4.2-12.4-5.7c0,3.3,0,6.7,0,10
			c5.1,0.7,10.5,3.2,10.7,9c0-3.3,0-6.5,0-9.8c-0.4,3-1.7,5.1-4.7,6c-0.9,0.2,0.8,9.8,0,10c5.9-1.6,4.7-8.8,4.7-13.5
			c0-2.7,0-4.8-1.5-7.1c-1.9-3-6-4.1-9.3-4.5c0.6,0.1-0.8,9.7,0,10c4.4,1.5,8.5,3.4,12.4,5.7c0-3.3,0-6.7,0-10
			c-13.7,2-27.4,2.7-41.3,2.2C217,242.5,216.8,252.5,217,252.5L217,252.5z"/>
	</g>
</g>
<g>
	<g>
		<path fill="#F18700" d="M288.5,262.1c11.6-10.1,13.8-28,10.1-42.3c0,3.3,0,6.7,0,10c10.1,2.7,15.6,13.6,16.5,23.3
			c0-2.8,0-5.7,0-8.5c0,0.6,0,1.2,0,1.8c0-0.5,0-1,0-1.5c-0.4,3.1-1.3,5.5-3.4,7.9c-1.9,2.2-5.8,3.7-6.8,0.1c0,3.3,0,6.5,0,9.8
			c0.1-4.4,7.6-6.7,10.7-8.9c3.9-2.9,6.9-6.7,8.8-11.1c1.4-3.3,1.2-7,1.2-10.5c0-2.8,0.8-6.8-1.6-8.8c-3.8-3-5.4,4.4-5.5,6.6
			c0,3.4-0.1,6.8,0.2,10.2c0.9,8.9,7.5,21.1,18.1,17.9c1-0.3-0.9-9.7,0-10c-11.7,3.6-17.4-10.4-18.3-19.6c0,3.3,0,6.7,0,10
			c0.2-2.6,0.8-4.2,3.3-5.2c2.2-0.9,3.6,1.3,3.7,3.2c0-3.1,0-6.2,0-9.3c-0.8,10.2-8.8,16.7-17.3,21.1c-3.7,1.9-3.4,4.6-3.4,8.2
			c0,3.2-1.3,8.9,3.4,8.3c4.3-0.5,6.7-6.7,6.9-10.3c0.1-3.8,0.2-7.7,0-11.5c-0.4-9.8-6.7-20.9-16.5-23.5c0.5,0.1-0.3,8.9,0,10
			c0.3,0.9,0.5,1.9,0.6,2.8c0.9,4.7,0.7-4.8,0.1,0c-0.3,2.4-1,4.7-1.8,6.9c-1.8,5-5.1,9.2-9,12.7c-0.5,0.5-0.1,4.3-0.1,5
			C288.4,257.7,288.9,261.7,288.5,262.1L288.5,262.1z"/>
	</g>
</g>
<g>
	<g>
		<path fill="#F18700" d="M338.7,198.9c1.4,20.2,4.4,40.2,9,59.9c-0.7-3.1,0.7-6.8,0-10c-4.6-19.6-7.6-39.5-9-59.6
			C338.9,191.6,338.5,195.9,338.7,198.9L338.7,198.9z"/>
	</g>
</g>
<g>
	<g>
		<path fill="#F18700" d="M328.3,217.7c9.4,3.9,19.7,2.8,28-3.1c1.6-1.2-1.5-8.9,0-10c-8.3,5.9-18.6,7.1-28,3.1
			C329.4,208.2,327,217.2,328.3,217.7L328.3,217.7z"/>
	</g>
</g>
<g>
	<g>
		<path fill="#F18700" d="M390.3,237c3.8-5.3,7.3-10.6,7.7-17.2c0.2-4.1,0.4-8.5-0.3-12.5c-1-5.9-7-10.3-12.8-8.3
			c-6,2.1-7.6,11.7-8,17c-0.8,11.4-1,24.5,5.2,34.5c8.3,13.6,26.9-18.1,29.7-23.7c0.6-1.1,0-3.8,0-5c0-0.6-0.5-4.5,0-5
			c-4.6,4.5-7.4,9.8-7.5,16.3c0,5-1.5,12.5,4.5,14.5c7.4,2.5,10.9-6.9,11.1-12.3c0.2-5.4,0.1-11-0.5-16.4c0.4,3.2-0.2,6.6,0,9.8
			c0.3,5.7,1.9,10.9,4.8,15.8c1.4,2.4,3.1,5.2,5.6,2.5c1.8-2,2.5-5.5,3.1-8.1c0.8-3.2,5.5-16.3,9.5-8.5c3.1,6,4.3,13.4,4.9,20.1
			c-0.2-2.5,0.1-5.1,0-7.5c0,6.1,0.7-1.1,0.9-2.4c0.4-2.2,1.2-4.3,2-6.3c1.2-3.3,3.2-8.3,6.7-9.7c4.6-1.9,8.3,21.1,9,24
			c-0.8-3.1,0.8-6.8,0-10c-1.6-6.4-3.1-12.8-4.7-19.2c-0.5-2-1.3-3.7-3.2-4.7c-2.5-1.4-4.8,3.7-5.6,5.1c-5.1,8.8-5.2,18.5-5.1,28.2
			c0-2.5,0-5,0-7.5c-0.5-6.4-1.9-12.5-4.2-18.5c-3.1-8.1-7.9-0.8-9.4,4.1c-0.8,2.6-2.4,13.8-6.8,11.9c-2.2-1-4.1-5.7-5-7.8
			c-1.6-3.5-2.3-7.3-2.5-11.1c0,3.3,0,6.5,0,9.8c0.2,2.2,0.3,2.2,0.2-0.2c-0.2,1.6-0.8,3.1-1.5,4.5c-0.9,1.9-2.8,3.1-4.6,3.9
			c-4.6,2.1-9-1-9.1-5.8c0,3.1,0,6.2,0,9.3c0.6-5.5,3.6-10.1,7.4-13.8c0-3.3,0-6.7,0-10c-4.4,8.8-10.3,18.3-18.3,24.3
			c-11.2,8.4-15.4-8.6-16.5-16.6c-0.3,3.9-0.2,3.8,0.1-0.5c0.2-1.2,0.4-2.3,0.6-3.5c0.5-2.4,1.3-4.7,2.5-6.9c2.2-4.3,6.5-6.3,11-4.7
			c1.7,0.6,3,2,4.1,3.3c0.6,0.7,1,1.5,1.4,2.4c1.5,2.8-0.1,4.8,0.9-1.6c-0.8,5.2-4.4,9.8-7.3,14C388.7,229.2,391.9,234.8,390.3,237
			L390.3,237z"/>
	</g>
</g>
<g>
	<g>
		<path fill="#F18700" d="M479,230.9c1.2,6.2,2.9,12.2,5,18.1c0.4,1.2,0.9,2.3,1.3,3.5c0.6,1.5,1.1,5.6,1.8,1.6
			c0.6-3.2,1.2-6.3,1.8-9.5c2.5-12.6,5.6-25.1,9.2-37.5c0.9-3.1-0.9-6.9,0-10c-3.6,12.4-6.6,24.9-9.2,37.5c-0.6,3.2-1.2,6.3-1.8,9.5
			c-0.1,2.5-0.4,2.5-1.1,0.2c-0.7-1.7-1.4-3.5-2.1-5.3c-2.2-5.9-3.8-12-5-18.1C479.6,224.1,478.4,227.7,479,230.9L479,230.9z"/>
	</g>
</g>
<g>
	<g>
		<path fill="#F18700" d="M517.8,223.8c-1.6-3.5-5.1-4.4-8.7-3.4c-4.3,1.1-6,6.4-6.5,10.2c-0.9,6-0.7,13.7,1.1,19.5
			c1,3.2,4.7,9.8,8.3,5.6c2.9-3.4,3.8-9.3,4.2-13.5c0.7-6.9,0.6-14.7-1.3-21.4c0.8,2.8-0.1,6.9,0,9.8c0.2,6.9,2.3,13.1,6.3,18.7
			c0.9,1.2,2,2.3,3.1,3.4c2.1,2.1,2.2-2.5,2.7-4.3c1.2-4.2,2.4-8.3,3.6-12.5c0.9-3.2,1.6-6.3,4.7-8c3.2-1.6,6.5,2.5,7.9,4.7
			c0.9,1.3,1.4,2.7,1.9,4.1c0.3,1,0.6,2,0.8,3c0.3-4.4,0.3-5.2-0.1-2.4c-0.6,3.4-3.7,6.9-7.3,5.6c1,0.3-1.1,9.6,0,10
			c8,2.8,7.7-10.5,7.7-15.1c0-7.2-0.6-16.5-8.3-19.8c-4-1.7-6,3.4-6.9,6.2c-1.6,5.3-3.1,10.7-4.6,16.1c-0.3,1.2-0.7,2.4-1,3.6
			c-0.8-0.7-1.5-1.4-2.2-2.1c-1.8-1.8-3.2-4-4.5-6.2c-2.6-4.4-3.7-9.5-3.8-14.5c0,3.3,0,6.5,0,9.8c0.5,1.6,0.8,3.2,1.1,4.8
			c-0.6-3.8-0.2,0.1-0.5,1.5c-0.6,3-1.9,6-3.4,8.6c-1.8,3-4.7,0.7-6.2-1.3c-2.2-2.9-3-7-3.3-10.6c0,0.8,0,1.7,0,2.5
			c0,6.1,0.9,0.4,1.7-1.3c1-2.1,2.8-3.7,4.9-4.6c3.3-1.5,7.2,0.3,8.7,3.4C516.6,231.1,519.2,226.6,517.8,223.8L517.8,223.8z"/>
	</g>
</g>
<g>
	<g>
		<path fill="#F18700" d="M219.7,463.8c11.8-4.1,23.7-7.9,35.7-11.2c0.6-0.2-0.3-10,0-10c-4.6,0.1-8.9-0.7-13.2-2.4
			c0,3.3,0,6.7,0,10c4.5-0.1,8,1.9,10.2,5.8c0-3.3,0-6.7,0-10c-1,2.4-2.1,4.7-3.1,7.1c-1.2,2.8,1.2,7.2,0,10c1-2.3,3.1-5.3,3.1-7.8
			c0-2.3,0-4.6,0-6.8c0-5.5-5-8.4-10.2-8.3c0.3,0-0.6,9.8,0,10c4.3,1.7,8.5,2.5,13.2,2.4c0-3.3,0-6.7,0-10
			c-12,3.3-23.9,7.1-35.7,11.2C218.6,454.2,220.7,463.5,219.7,463.8L219.7,463.8z"/>
	</g>
</g>
<g>
	<g>
		<path fill="#F18700" d="M302.4,453.2c-0.2-0.9-0.4-1.8-0.4-2.7c0,3.3,0,6.5,0,9.8c0.2-5.9,4.4-12.6,11.1-11.6
			c2.6,0.4,4.5,4.2,5.8,6.1c2.1,3.2,3.5,6.9,4.5,10.6c0-3.3,0-6.7,0-10c-2.1-2.1-3-4.3-3.4-7.2c0,2.1,0,4.2,0,6.3c0-0.5,0-0.9,0-1.4
			c0,1.2,0,2.4,0,3.7c0.4-3.1,1.5-5.2,3.9-7.2c3.1-2.5,6.2,0.1,8.4,2.3c4.7,4.7,7.3,11.3,8,17.8c0-3.3,0-6.7,0-10
			c-1.8-3.3-3.4-6.5-3.7-10.3c0,3.3,0,6.5,0,9.8c0.2-5.7,3.9-9.2,9.6-8.3c5.2,0.8,8,6.2,9.9,10.5c0.4,1,0.8,2,1.1,2.9
			c-0.3-0.7,1.3-3.4,1.6-4.1c1-2.2,2.4-4.2,3.9-6.1c3-3.8,7.2-6.5,11.7-8.3c0-3.3,0-6.7,0-10c-5,2.4-9.7,4.8-12.7,9.7
			c-2,3.4-1.4,8.2-1.4,12c0,3.8,0.1,6.7,3.1,9.4c4.3,3.9,8.9-0.1,10.5-4.2c0.9-2.3,1.2-5,1.5-7.4c0.1-0.9,0.1-6.6,1.1-2.7
			c1.4,5.5,4.8,10.3,10.7,11c8.8,1.1,7.6-12.5,6.8-17.7c0.5,3.2-0.5,6.7,0,10c0.1,0.4,0.1,0.8,0.2,1.3c0-3.3,0-6.7,0-10
			c-0.5,5.3-5.2,7.2-9.9,5.8c-5.5-1.7-7.5-8.4-8.5-13.3c0,0.1,0,0.1,0,0.2c-0.3,5.6-0.4,12.6-4.4,17c-4.4,4.8-10.4-1.1-11.1-5.7
			c0,3.1,0,6.2,0,9.3c0.1-7.8,7.8-11.8,14-14.7c1.3-0.6-1.2-9.5,0-10c-6.9,2.8-12.2,7.8-15.6,14.4c-0.7,1.3-1.1,2.7-1.6,4.1
			c0.3-1.1-2-4.8-2.5-5.8c-1.8-3.7-4.6-6.4-8.6-7.6c-7.5-2.3-9.6,5.4-9.7,10.9c0,6.8,0.4,11.7,3.8,17.8c-0.5-1,0.1-3.9,0.1-5
			c0-1.6,0.1-3.4-0.1-5c-0.8-7-9.4-28.8-18.6-18c-2.5,2.9-1.8,8-1.8,11.5c0,4.6-0.1,8.7,3.4,12.2c-0.5-0.5,0.1-4.3,0.1-5
			c0-1.5,0.4-3.6-0.1-5c-2.3-8.3-9.8-24.1-19-12.5c-3.8,4.7-3.1,14.7-2,20.3C301.8,460,303.1,456.4,302.4,453.2L302.4,453.2z"/>
	</g>
</g>
<g>
	<g>
		<path fill="#F18700" d="M398.8,453.8c3.1-8.5,12.4-3.6,15.1,2.3c0.4,1,0.7,2,0.8,3.1c1.1-1.9,1-2.7-0.1-2.6
			c-0.3,3.9-0.3,4.5,0.1,1.7c0.2-1.1,0.5-2.2,0.9-3.2c1.2-3.7,3.5-8,7.9-7c7.2,1.7,5.9,14.4,15.1,12.3c7.5-1.8,6.5-12.6,6.6-18.3
			c0-1.5-0.7-5,0-6.3c-1.7,3.5-1,8-1,11.7c0,4.1,1.1,7.7,5.3,9.4c-1.1-0.4,1.2-9.5,0-10c-3.3-1.3-5.1-4.2-5.2-7.8c0,3.3,0,6.5,0,9.8
			c0.2-1.2,0.4-2.1,0.9-3.2c0-2.1,0-4.2,0-6.3c0,4.3-3.1,12.5-10.3,11.1c-6.1-1.3-5.8-11-12.5-12.6c-5.7-1.3-7.9,10.9-8,14.4
			c-0.1,5.3-0.4,10.7,0.7,15.9c0-0.1,0-0.1,0-0.2c0.3-6.7,0.9-14-0.7-20.6c-1.6-7-12.4-12.4-15.5-3.6
			C397.7,446.8,399.8,450.9,398.8,453.8L398.8,453.8z"/>
	</g>
</g>
<g>
	<g>
		<path fill="#F18700" d="M447.3,430.1c0.1,0,0.1-10,0-10S447.3,430.1,447.3,430.1L447.3,430.1z"/>
	</g>
</g>
<g>
	<g>
		<path fill="#F18700" d="M462.1,380.6c-1.4-1.3-2.8-2.5-4.2-3.8c0.3,0.3,0,3.3,0,3.7c0,2-0.1,4.1,0,6.2c1.4,19.6,4.9,39,7.2,58.5
			c1.4,11.5,2.5,23.1,1.6,34.7c-0.4,4.9-1.2,9.8-2.2,14.7c-0.3,1.4-0.6,7.8-1.8,3.8c-0.8-2.8-1.4-5.7-1.9-8.6
			c-1.9-10.5-1.4-17.6,1-28.7c1.6-7.5,3.8-17.7,10.4-22.6c7-5.2,12.6,4.5,14.1,9.9c0.2,0.9,0.4,1.8,0.5,2.7c0.4-4.7,0.3-5.7-0.3-3
			c-0.4,1.6-1.5,2.8-2.9,3.7c-2.6,1.7-6.4,0.6-7.4-2.2c0,3.3,0,6.7,0,10c8.1,5.7,20.3,1.2,20.7-9.4c0.1-3.5,0.1-7,0-10.5
			c-0.1-3.5-0.7-0.6-1.2,1.4c-0.5,2-0.3,4.1-0.3,6.1c0,3.6-0.2,7.2,0.4,10.8c1.1,5.9,6.7,7.4,11.1,4c3.5-2.7,3.3-7.7,3.3-11.7
			c0-4.4,0-8.7-0.6-13c0,3.3,0,6.7,0,10c2,7.8,7.1,20.3,17.6,15.8c7.5-3.2,8.8-17.2,9.5-24c0.7-7,0.6-14.4,0.1-21.4
			c-0.3-4.5-1.1-8.9-2.3-13.2c-0.7-2.7-1.7-5.3-2.7-7.8c-0.4-1-0.9-2-1.3-3c-0.7-1.4-1-4.5-2-1.5c-4.6,15-4.2,33.6-0.5,48.7
			c2.2,9.2,6.4,17.8,11.9,25.4c0,0,9.9-10.2,10.8-11.2c3.8-4.3,7.3-8.9,10.6-13.7c1.1-1.7-1.5-9.1,0-10c-3.9,2.5-9.9,6.3-10.1,11.6
			c-0.1,3.6-0.5,7.5,0,11c0.6,4.7,4.4,9.3,9.3,6.3c3.6-2.1,4.3-8.3,6.8-11.4c0-1.7,0-3.3,0-5c0,5.3-0.1,9.7,2.8,14.4
			c1.5,2.4,3.9,4.2,6.4,5.5c2.1,1.1,2.5,1.4,3.5-0.8c1.1-2.3,2.3-4.6,3.4-7c1.3-2.7-1.3-7.3,0-10c-1.1,2.3-2.3,4.6-3.4,7
			c-0.2,1.8-0.9,2.2-2.2,1.3c-1.4-0.4-2.6-1.2-3.8-2c-4-2.6-6.2-7.4-6.7-12c0,1.7,0,3.3,0,5c0-0.5,0-1,0-1.4c0-0.8-0.6-4.3-0.1-5
			c-2.7,3.5-3.3,8.5-6.8,11.4c-4.5,3.9-8.8-2.4-9.3-6.3c0,3.3,0,6.5,0,9.8c0.2-6,5.6-9.6,10.1-12.5c0-3.3,0-6.7,0-10
			c-4.6,6.6-9.7,12.9-15.2,18.8c-1.2,1.3-2.4,2.5-3.6,3.7c-0.8,0.8-1.7,1.6-2.5,2.4c-0.6-0.8-1.2-1.7-1.8-2.6
			c-2.1-3-3.8-6.2-5.4-9.5c-3.2-6.6-5.1-13.7-6.3-21c-0.3-2-0.5-4-0.6-6.1c-0.1-2.7-0.1-2.1-0.1,1.8c0.1-1.5,0.2-3,0.3-4.5
			c0.4-3.6,1.1-7.2,2-10.8c0.4-1.6,0.2-4.4,1.6-1.5c1,2,1.9,4,2.7,6c1.4,3.6,2.4,7.3,3.2,11.1c0.3,1.6,0.6,3.3,0.8,4.9
			c0.2,1.6,0.3,3.2,0.4,4.8c0.1-4.1,0-4-0.2,0.1c-0.3,3.8-1.1,7.6-2.1,11.4c-1.6,6.1-4.3,13.1-11.4,13.6
			c-8.6,0.5-11.9-10.4-13.6-16.7c0.8,3.1-0.4,6.8,0,10c0.2,1.4,0.4,2.8,0.5,4.2c0-2.5,0-5,0-7.5c-0.4,4.6-2.1,8.3-6.6,9.9
			c-5.6,2-7.8-5.1-8.1-9.1c0,3.3,0,6.5,0,9.8c0,0,1-9.7,1.4-5.5c0-3.1,0-6.2,0-9.3c-0.2,10.8-12.2,15.9-20.7,9.9
			c1.3,0.9-0.6,8.3,0,10c1.5,4,6.4,3.5,9,0.9c2.7-2.7,1.9-8.1,1.9-11.6c0-7.7-1-21.3-11.3-21.7c-10.7-0.4-13.9,21.8-15.2,29
			c-1.8,10.1-1.7,20.7-1.3,31c0.2,6,1.1,11.9,2.4,17.7c0.3,1.1,0.6,2.3,0.9,3.4c1,3.9,1.1-0.7,1.4-1.9c0.9-3.6,1.4-7.3,2-11
			c1.5-11,1.4-22.3,1.2-33.4c-0.6-28.6-7.3-56.6-9.3-85c0,3.3,0,6.5,0,9.8c1.4,1.3,2.8,2.5,4.2,3.8c-0.5-0.4,0-4.4,0-5
			C462.1,384.9,462.6,381.1,462.1,380.6L462.1,380.6z"/>
	</g>
</g>
<g>
	<g>
		<path fill="#F18700" d="M576.2,403.6c-1,3.1-2.1,6.2-3.1,9.3c-0.1,0.4,0,1.1,0,1.5c0,1.2,0,2.4,0,3.5s0,2.4,0,3.5
			c0,0.3,0.1,1.2,0,1.5c1-3.1,2.1-6.2,3.1-9.3c0.1-0.4,0-1.1,0-1.5c0-1.2,0-2.4,0-3.5s0-2.4,0-3.5
			C576.2,404.8,576.1,403.9,576.2,403.6L576.2,403.6z"/>
	</g>
</g>
<g>
	<g>
		<path fill="#F18700" d="M570,437.8c7.6-0.7,15.2-1.4,22.8-2.1c0.4,0-0.2-10,0-10c-7.6,0.7-15.2,1.4-22.8,2.1
			C569.6,427.8,570.2,437.7,570,437.8L570,437.8z"/>
	</g>
</g>
<g>
	<g>
		<path fill="#F18700" d="M599.9,443.9c-1.5-0.8-2.4-1.1-4.1-1.1c0,0.2,0,0.5,0,0.7c0,1.2,0,2.4-0.1,3.6c0,0.8-0.2,9.3,0,9.3
			c9.1,0.6,17.1-5.8,18.7-14.8c0.2-1,0.3-9.9,0-10c-7.1-1.4-5.8,17.1-5.8,21.4c0,4.2,0.9,7.9,4.2,10.8c3.1,2.8,8.1,1.3,9.9-2.1
			c1.4-2.7-1.3-7.4,0-10c-2.7,5.2-8.7,3.9-11.9,0c-0.9-1.1-1.4-2.7-1.8-4c-0.1,1.1-0.1,2.3-0.2,3.4c0.2-1.1,0.4-2.3,0.6-3.4
			c0.5-2.6,1.5-6.8,4.9-6.1c0-3.3,0-6.7,0-10c-1.6,9-9.6,15.3-18.7,14.8c0,3.1,0,6.2,0,9.3c0.1-3.2,1.7-3.2,4.1-1.9
			C598.5,453.1,601.3,444.7,599.9,443.9L599.9,443.9z"/>
	</g>
</g>
<g>
	<g>
		<path fill="#F18700" d="M703.1,402.5c-7.5-3.9-19.5,3-21.6,10.8c-0.7,2.7-0.2,6.3-0.1,9c0,4.2,1.2,7.2,4.3,10.2
			c3.2,3.2,7.6,5,10.8,8.3c1.3,1.3,2,3,2.6,4.7c0.6,2.8,0.8,1.7,0.4-3.3c-0.2,1.3-0.8,2.5-1.4,3.7c-3.5,6.9-14.4,5.6-17.1-1.2
			c1.1,2.9-1.2,7.1,0,10c2,5.2,7.7,6.7,12.7,5c5.9-2,6-8.8,6.1-13.9c0-5.5,0.3-10.5-3.3-15c-4.8-6-13.8-7.3-15-16c0,3.3,0,6.5,0,9.8
			c0.5-8.7,14.1-16,21.7-12.1C701.8,411.8,704.6,403.2,703.1,402.5L703.1,402.5z"/>
	</g>
</g>
<g>
	<g>
		<path fill="#F18700" d="M733,431.4c-2.3-10.1-14.6-4.2-15.5,3.5c-0.6,4.8-1.4,13.7,3.1,16.8c4.2,2.9,8.5-2.3,10-5.5
			c0.2-0.6,1.4-4.7,1.4-4c0.1,3.3,0.2,6.6,0.3,9.9c0.4,12.6,0.8,25.2,1.2,37.8c-0.1-2.4,0.1-6.6,0-9.6c-0.5-16.6-1-33.2-1.5-49.7
			c0-0.1,0-0.1,0-0.2c-0.8,4.6-1.9,8.8-6.1,11.3c-4.4,2.6-7.9-1.6-8.3-5.6c0,2.1,0,4.2,0,6.3c0-0.4,0-0.8,0-1.2c0,1.2,0,2.4,0,3.7
			c1-7.8,13.3-13.7,15.5-3.5C732.3,438.2,733.7,434.6,733,431.4L733,431.4z"/>
	</g>
</g>
<g>
	<g>
		<path fill="#F18700" d="M721.6,466.2c5.2,0.4,10.3,0,15.4-1.1c0.8-0.2-0.6-9.9,0-10c-5.1,1.1-10.2,1.5-15.4,1.1
			C721.7,456.2,721.2,466.2,721.6,466.2L721.6,466.2z"/>
	</g>
</g>
<g>
	<g>
		<path fill="#F18700" d="M749.4,446.9c0.1-3.2,0.1-6.4,0-9.6c0-1.1-0.5-1.4-1.5-1.9c-1.5-0.7-1.2,3.5-1.2,4.1
			c-0.1,7.8-0.7,15.9,3.6,22.8c2.3,3.7,6.3,5,9.9,2.4c3.5-2.5,4.6-8.4,5.4-12.3c1.4-6.9,1-15.1,0.2-22c0.4,3.3-0.4,6.7,0,10
			c0.6,5.1,0.6-3-0.2,2c-0.3,2.3-1,4.5-1.8,6.7c-1.2,3.4-3.4,6.4-7,7.1c-3.7,0.7-6.5-3.6-7.8-6.3c-1-1.9-1.4-4.1-1.9-6.2
			c-0.7,1.7-0.4,2.3,0.9,1.7c0.7,0.1,1.2,0.5,1.5,1.2c0-3.1,0-6.2,0-9.3c0,0.3,0,0.6,0,0.9c-0.1,2.3,0,4.6,0,6.8
			C749.3,445.3,749.4,448.7,749.4,446.9L749.4,446.9z"/>
	</g>
</g>
<g>
	<g>
		<path fill="#F18700" d="M784.6,432.4c-6.2-3.3-10.9,3.4-11.1,9c-0.2,5-0.2,10.1,0.4,15.1c0.5,3.9,2,6.7,5.9,4
			c2.9-2,3.8-6.8,4.4-10c0.8-4.7,0.4-10,0.2-14.8c0,3.3,0,6.5,0,9.8c0.8,2.9,2,5.2,3.9,7.5c0.9,1.1,2.1,1.9,3.2,2.8
			c2.5,1.8,2.8,1.1,4.5-1.3c3.6-5.1,5.1-11.4,5.2-17.6c0-2.3,0-4.6,0-6.8c0-1.4,0.4-6-1-5.4c-1.4,0.6-0.8,10.3-0.4,11.6
			c0.8,2.8,3.1,2.8,5.7,3.1c3.3,0.4,4.4,3.3,4.9,6.1c-1.4-8,0.1-7.1-0.1-3.5c0,0.8,0,1.5,0,2.3c0,2.7,0,5.4,0,8
			c0,1.8,0.3,3.5,0.8,5.3c0.3,1,1,1.8,1.8,2.6c1.7,1.7,2.8,0.2,4.2-1.1c5.3-4.8,8.2-11.7,9-18.7c0.1-1,0.1-10,0-10
			c-3.4,0-3.5,0-4.4,3.3c-0.6,1.9-0.6,4-0.7,5.9c-0.1,3-0.1,6.1,0,9.1c0.2,4.3,0.9,8.6,4.5,11.3c4.1,3,9.9-1.8,12.8-4.3
			c0.5-0.5,0-4.3,0-5c0-0.6-0.5-4.6,0-5c-3.9,3.4-9,7.1-13.9,3.5c-2-1.5-2.6-4.5-3-6.7c0,1,0,2,0,3c0.2-1.2,0.5-2.3,0.9-3.4
			c0.7-2.4,1.8-1.6,3.9-1.6c0-3.3,0-6.7,0-10c-0.7,6.7-3.4,12.6-7.9,17.6c-2.1,2.3-3.5,3.9-5.9,1.4c-0.8-0.8-1.1-1.9-1.4-2.9
			c-1.3-4.2-0.5,8.4-0.2,1.4c0.1-4.1,0.2-8.3-0.1-12.4c-0.2-2.5-1.3-4.5-3.6-5.8c-2.7-1.5-6,0.3-7-3.5c0,3.3,0,6.5,0,9.8
			c0.1-0.5,0.3-0.9,0.4-1.4c1.6-0.5,1.8-1.7,0.8-3.8c-0.1,1.6-0.5,3.2-0.9,4.8c-0.8,3.2-2.3,6.1-4,8.9c-1.1,1.7-1.3,2.9-3.2,2
			c-1.3-0.6-2.4-1.6-3.5-2.5c-2.5-2.2-4-5.3-4.9-8.5c0.8,2.9-0.1,6.8,0,9.8c-0.4-9.4-0.4-3-1.4-0.1c-0.7,2-1.7,3.7-3.2,5.2
			c-4.1,4.2-6.2-2.3-6.2-5.6c0,2.1,0,4.2,0,6.3c0.5-5.5,4.8-12.2,11.1-8.8C783.2,441.6,786,433.1,784.6,432.4L784.6,432.4z"/>
	</g>
</g>
<g>
	<g>
		<path fill="#F18700" d="M911.6,450.4c2.8-5.6,2.4-13.4,1.6-19.5c-0.6-4.7-4.5-7.7-8.9-8.6c-5.1-0.9-8.5,2.9-9.9,7.3
			c-1,3.3-0.5,7.2-0.5,10.6c0,3.4,0.1,6.5,1.7,9.6c2.6,4.9,7.4,3,10.7,0.1c3.9-3.4,5.8-8.5,6.4-13.5c0.4-3.2-0.6-6.8,0-10
			c-1,5.2-1.7,14.2,3,17.7c4.2,3.2,8.8-1,10.3-4.7c1.7-3.9,3.4-10.6,9.1-8.1c2.1,0.9,3.5,4.6,4.6,6.4c1.5,2.6,2.8,5.4,4.1,8.2
			c0.6,2.3,1,2.2,1.1-0.1c0.4-1.8,0.8-3.6,1.2-5.3c0.6-2.6,1.2-5.2,1.9-7.8c1.3-4.7,5-6.8,9.6-4.8c4.6,2,5.5,8.1,6.1,12.3
			c-0.5-3.2,0.5-6.7,0-10c-0.9-5.9-5.2-17.7-13.2-11.8c-2.8,2-3.2,7.3-4,10.3c-0.6,2.4-1.1,4.7-1.7,7.1c-0.2,2.3-0.6,2.4-1.1,0.1
			c-0.5-1.1-1-2.2-1.5-3.3c-1.8-3.8-3.8-8.5-7.1-11.3c-3.6-3.1-7.1,2.7-8.1,5.4c-1.4,3.7-2.3,6.8-6.4,8.1c-4.2,1.3-7.4-2.3-8.1-6
			c0,1.2,0,2.4,0,3.7c0-0.4,0-0.8,0-1.3c0,2.1,0,4.2,0,6.3c0.1-0.4,0.2-0.8,0.2-1.2c0-3.3,0-6.7,0-10c-0.7,6.3-3.6,11.7-8.8,15.5
			c-5.8,4.3-9.6-3.3-10-8c0,3.1,0,6.2,0,9.3c0.1-6.9,4.5-12,11.6-10.7c2.7,0.5,4.7,2.3,6.2,4.5c0.8,1.1,1.1,2.5,1.5,3.9
			c0.3-4.8,0.2-5.9-0.5-3.1c-0.3,0.9-0.7,1.8-1.1,2.6C910.3,443.1,912.9,447.7,911.6,450.4L911.6,450.4z"/>
	</g>
</g>
<g>
	<g>
		<path fill="#F18700" d="M984.5,423.3c-3,2.4-5.3,5.1-6.7,8.7c-0.9,2.1-0.3,5.3-0.3,7.5c0,2.3-0.4,4.8,1.4,6.4
			c3.2,2.8,6.8-2.1,8.2-4.3c7.9-13.3,9-28.9,8.5-44c-0.1-1.8-0.2-3.5-0.3-5.3c-0.4-4.2-1.4,2.3-1.6,3.3c-1,4-1.4,8.1-1.6,12.3
			c-0.2,6.1-0.2,12.4,0.4,18.5c0.7,7.1,2.8,19.2,9.7,22.9c7.6,4.1,11.2-11.6,14.3-15.1c0.6-0.7,0-4.2,0-5c0-0.7-0.6-4.4,0-5
			c-4,4.6-7.4,21.3-16.4,13.6c-3.4-2.8-4.7-8.9-5.9-12.9c-0.6-2.2-1.1-4.5-1.4-6.8c-0.2-1.2-0.3-2.3-0.4-3.5c0.4,3.6,0.2-3,0.4-3.9
			c0.3-2.3,0.8-4.6,1.4-6.8c0.3-1.1,0.6-2.2,1-3.3c-0.3,1.1,0.1,9.4,0.4,2c-0.2,5.6-1.4,11.1-3,16.5c-1.5,4.8-3.6,9.5-6.2,13.8
			c-1.9,3.3-8.1,5.8-8.7,0.3c0,3.3,0,6.7,0,10c0.8-4.1,3.8-7.4,7-9.9C986.2,432,982.9,424.5,984.5,423.3L984.5,423.3z"/>
	</g>
</g>
<g>
	<g>
		<path fill="#F18700" d="M273.9,529c-0.9,2.1-0.4,4.9-0.4,7.1c0,3.6,0,5.2,4.1,6c8.4,1.6,16.2-1.2,16.8-10.6
			c0.4-5.8,0.9-13-2.8-17.9c-5.3-6.9-15.8-5.3-21.8-0.7c-6.4,4.9-8.6,13.5-8.8,21.1c-0.1,7.9,0,15.5,1.8,23.3
			c1.9,8.2,7.2,16,16.6,13.9c9.4-2.1,12.6-13.1,14.9-21.1c0.4-1.5,0.1-3.5,0.1-5c0-0.9-0.6-4.2-0.1-5c-3.2,4.8-2.3,12.2-1.9,17.7
			c0.6,7.8,7.9,12,15,10.2c7.8-1.9,9.3-9,9.3-15.9c0-7.5-0.3-14.6-7.7-18.7c1.4,0.8-1.5,8.9,0,10c2.5,1.9,5,2.9,8.2,3.2
			c1.5,0.2,3-0.1,4.4-0.4c2.3-0.5,2.3-2.1,3.5,0.5c1.5,3.2,2.4,6.7,3,10.2c1,5.5,0.3-2.9,0.3-0.4c0,1.4,0,2.9,0,4.3
			c0,0.6-0.4,4.6,0,5c2.9,2.1,5.7,0.5,8.2-1.5c2.6-2.1,4.7-5.2,6.8-7.8c2.8-3.4,5.6-6.7,8.4-10.1c1.1-1.3-1.2-9.4,0-10
			c-11.2,5-12.5,18.5-10.4,29.3c0.7,3.4,3.1,5.8,6.4,6.6c4,1,8.2-3,10.8-5.4c5.9-5.6,10-12.9,12.5-20.5c1-3-1-7,0-10
			c-2.7,8.3-7.3,15.6-13.6,21.6c-3.1,2.9-6.8,5-11.1,4c-3.7-0.9-5-5.8-5.3-9c0,3.1,0,6.2,0,9.3c0.1-7,4.5-13,10.8-15.8
			c0-3.3,0-6.7,0-10c-4,4.8-8,9.6-12,14.4c-2.7,3.2-7,8.2-11.4,5c0,3.3,0,6.5,0,9.8c0.4-6.8,0.5-13.8-0.6-20.5
			c-0.4-2.3-1.2-4.6-2-6.8c-0.4-1.1-0.9-2.2-1.4-3.3c-0.9,0.5-1.8,0.8-2.8,1.1c-4.4,1.4-9.1-0.2-12.6-2.8c0,3.3,0,6.7,0,10
			c3.9,2.2,6.3,5.5,7.4,9.8c0.4-5.4,0.4-6.6-0.2-3.7c-0.3,1.2-1,2.4-1.6,3.4c-1.4,2.2-3.7,3.6-5.9,4.6c-4.3,2-9.3,0.9-12.7-2.2
			c-1.5-1.3-2.3-3.2-3-5.1c-1.6-4.5-1.2,7.6-0.1,3c0.3-1.2,0.9-2.2,1.6-3.2c0-3.3,0-6.7,0-10c-2.8,10-9.5,26.1-22.9,20.4
			c-5-2.1-7.2-8.4-8.5-13.3c-2-7.4-2.1-10.5,1.7-17.8c5.1-10,18.8-14.6,27.2-5.9c0.9,0.9,1.4,2.1,1.9,3.2c1.4,3-0.6,4.8,0.6-2.7
			c-0.4,2.5-1.8,4.5-3.7,6.1c-3.3,3-14.5,4-16.9-0.5c0,3.3,0,6.7,0,10c0.1-0.3,0.2-0.5,0.3-0.8C275.1,536.2,272.7,531.8,273.9,529
			L273.9,529z"/>
	</g>
</g>
<g>
	<g>
		<path fill="#F18700" d="M366.7,508.4c-2.5-1.9-2,3.9-2,5c0,3.3-0.1,6.1,0.8,9.2c1.7,5.9,2.6,12,3,18.2c0.1,2.6,0.1,2.5,0.1-0.3
			c-0.1,1.8-0.2,3.6-0.4,5.4c-0.3,3.1-0.8,6.2-1.4,9.2c-0.6,3.2,0.6,6.8,0,10c3.7-18.5,2.1-37.1-2-55.3c0,3.3,0,6.7,0,10
			c0.2-1.2,0.7-2.3,2-1.3C365.2,517.3,368.3,509.6,366.7,508.4L366.7,508.4z"/>
	</g>
</g>
<g>
	<g>
		<path fill="#F18700" d="M368.7,564.5c6.4,3.9,11.6-2.4,14.7-7.3c3.1-4.8,2.7-9.2,2.6-14.8c0-1.8-0.1-3.1-0.9-4.7
			c-1.9-3.5-4.8-0.4-6.1,1.6c-2.5,3.8-1.9,9.4-1.9,13.7c0,4.7,0,9.3,1.7,13.8c2.3,5.8,8.2,7.2,13.1,3.8c9.2-6.4,7.9-22.3,7.3-32.1
			c0,3.3,0,6.5,0,9.8c7.1,0.3,15.9,1.4,17.5,9.8c0-2.1,0-4.2,0-6.3c0,0.4,0,0.8,0,1.2c0-1.2,0-2.4,0-3.7c-1,5.2-6.4,8.4-11.3,6.2
			c1.2,0.5-1.3,9.4,0,10c3.9,1.7,7.6,0.2,10.1-3.1c1.9-2.4,1.2-6.5,1.2-9.3c0-3.8,0.2-6.7-2.3-9.9c-3.4-4.5-10.2-4.7-15.3-4.9
			c0,0-0.1,8.9,0,9.8c0-3.2-0.1-3.4-0.4-0.8c-0.3,1.8-0.8,3.5-1.4,5.3c-0.9,2.7-2.5,5-4.5,7c-3.5,3.7-8.7,3.8-12.2,0.2
			c-1.5-1.5-2.2-3.6-2.8-5.6c-0.4-1.2-0.5-2.6-0.7-3.8c0.7,5.7,0,3.5,0.7,1c0.6-2,1.8-3.6,3.3-5c2.6-2.2,4.5,2.2,4.6,4.2
			c0-3.3,0-6.5,0-9.8c-1.2,6.9-9.3,18.5-17.3,13.6C370.1,555.3,367.2,563.5,368.7,564.5L368.7,564.5z"/>
	</g>
</g>
<g>
	<g>
		<path fill="#F18700" d="M224.1,347.8c12.1,3.4,24.5,4.3,37,2.9c-0.1,0,0.6-9.5,0-10c-3.6-3.2-7.6-5.6-12.2-7.2c0,3.3,0,6.7,0,10
			c3.4,0.7,12.8,0.9,13.4,5.1c0-3.3,0-6.7,0-10c-1.5,4.4-5.2,8.5-7.8,12.4c-1.6,2.3,1.5,7.7,0,10c2.5-3.7,5.1-7.3,7.3-11.1
			c1.1-1.9,0.5-5.5,0.5-7.6c0-2,0.4-4.2-0.9-5.8c-1-1.2-4.3-1.3-5.6-1.6c-2.3-0.5-4.5-1-6.8-1.5c0.7,0.2-0.9,9.7,0,10
			c4.6,1.6,8.6,3.9,12.2,7.2c0-3.3,0-6.7,0-10c-12.5,1.4-24.9,0.4-37-2.9C224.9,338,223.2,347.6,224.1,347.8L224.1,347.8z"/>
	</g>
</g>
<g>
	<g>
		<path fill="#F18700" d="M317,301.4c-0.3-1.7-0.6-3.5-0.9-5.2c0,3.3,0,6.7,0,10c1,4.1,0.9-1.4,0.2,2.8c-0.3,1.8-0.7,3.7-1.1,5.5
			c-0.9,4.5-1.9,9-2.9,13.5c-1.4,6.6-4.1,14-4.2,20.8c-0.1,4.2-0.9,9.3,0.7,13.3c0.8,2,2.8,0.2,4.1-0.3c1.7-0.6,3.4-1.1,5.1-1.7
			c4-1.2,8.1-1.9,12.3-2.5c0.5-0.1-0.3-10,0-10c-4.2,0.5-8.2,1.3-12.3,2.5c-2.3,0.6-4.5,1.5-6.8,2.3c-2.6,1-2.8-0.5-3.1-2.9
			c0,3.1,0,6.2,0,9.3c0.1-6.2,2.4-12.9,3.7-18.9c1.4-6.3,2.8-12.7,4-19c1.5-7.7,1.9-17,0.1-24.6c0.7,3.1-0.5,6.8,0,10
			c0.3,1.7,0.6,3.5,0.9,5.2C316.4,308.1,317.5,304.6,317,301.4L317,301.4z"/>
	</g>
</g>
<g>
	<g>
		<path fill="#F18700" d="M350,322.9c-14.3-6-16.6,22.6-12.9,30.8c1.4,3.1,6.3,6,8.5,2.7c2.2-3.2,3.8-6.5,4-10.4
			c0.3-5.3,1.2-12.6-2.9-16.7c0.5,0.5-0.1,4.3-0.1,5c0,0.7-0.5,4.4,0.1,5c0.7,0.5,1.2,1.2,1.6,1.9c1.9,2.7-0.4,5.2,0.9-2.5
			c-0.5,2.8-2.2,5.3-3.7,7.7c-1.5,2.4-3.7,1.6-5.9,0.3c-2.7-1.5-3.5-4.8-3.8-7.6c0,3.1,0,6.2,0,9.3c0.2-7,4.9-19.3,14-15.5
			C348.9,332.4,351.3,323.4,350,322.9L350,322.9z"/>
	</g>
</g>
<g>
	<g>
		<path fill="#F18700" d="M368.6,336.8c0-2.7,0-5.4,0-8.2c0-0.1,0.1-2.4,0-2.5c-6.8-2.2-12.2,3-15.4,8.5c-2.7,4.7-2.2,10-2.2,15.2
			c0,4.9,2.1,10.6,8.1,8.8c6.1-1.7,6-11.8,8.4-16.4c0-3.3,0-6.7,0-10c-1.5,5.6-2,13.9-0.1,19.5c3.8,10.8,21.6-11,24.6-14
			c0.6-0.6,0-4.3,0-5c0-0.5-0.5-4.7,0-5c-2.8,2.2-7.6,4.5-8.8,8.1c-0.7,2.1-0.1,5.4,0,7.5c0,7.3,6.9,8.9,12.7,5.6
			c7.2-4,8.6-16.5,9.6-23.7c0.8-6.1,0.6-12.6,0.3-18.8c-0.1-1.8-0.4-3.7-0.7-5.5c-0.2-1.2-0.6-2.3-0.9-3.5c-0.4,1.1-0.7,2.2-1,3.3
			c-1,3.5-1.4,7.3-1.5,11c-0.2,6.6-0.3,13.2,0.7,19.7c1.2,7.8,4.2,16.7,13.1,17.9c8.3,1.1,14.3-6.7,17.3-13.3c1.3-2.8-1.3-7.3,0-10
			c-3.7,8-10.6,15.2-20.1,12.8c-8.9-2.3-11.4-17.2-10.2-24.6c0.4-2.3,1-4.5,1.7-6.7c0.4,1.1,0.7,2.3,0.9,3.5c0.3,1.3,0.6,7,0.8,0.9
			c-0.2,6.3-1.7,12.7-3.8,18.6c-1.5,4.3-4.2,7.9-8.4,9.6c-3.9,1.6-9.5,0.2-10.3-4.3c0,3.3,0,6.7,0,10c1.2-3.5,6-5.9,8.8-8.1
			c0-3.3,0-6.7,0-10c-5,4.9-9.8,10.3-15.1,14.8c-4.8,4.1-9.7,1.6-10.2-4.2c0,1.2,0,2.4,0,3.7c0,5.4,0.4,1.5,0.8,0.2
			c0.4-1.5,0.1-3.5,0.1-5c0-1.1-0.6-4-0.1-5c-2.6,4.9-2.3,10.7-6.2,15c-4.7,5.1-10.1-0.7-10.3-5.7c0,3.3,0,6.5,0,9.8
			c1.1-8,8.5-18.1,17.5-15.2c0-0.8,0-1.7,0-2.5c0,2.7,0,5.4,0,8.2c0,0.3,0,3.6,0.1,1.8C368.6,341.4,368.6,339.1,368.6,336.8
			L368.6,336.8z"/>
	</g>
</g>
<g>
	<g>
		<path fill="#F18700" d="M489.5,295.9c-0.3,17.9-0.7,35.8-1,53.6c0,2.3,0,4.6,0,6.8c0,0.3,0,3.6,0.1,1.8c0.3-17.9,0.7-35.8,1-53.6
			c0-2.3,0-4.6,0-6.8C489.5,297.4,489.5,294,489.5,295.9L489.5,295.9z"/>
	</g>
</g>
<g>
	<g>
		<path fill="#F18700" d="M485.5,327.8c1-7.6,4.5-14.1,10.2-19.2c2.5-2.2,5.3-3.8,8.6-4.4c1.7-0.3,3.2,0.2,4.6,1.1
			c0.6,0.6,1.1,1.2,1.4,2.1c0.3-5.1,0.4-6.2,0-3.2c-0.9,7.4-4.1,14.3-8.4,20.3c-2,2.8-4.5,5.2-7.1,7.5c-1.5,1.3-3.2,2.4-4.8,3.4
			c-2.1,1.3-2.6-1.4-3.6-3.2c0,3.3,0,6.5,0,9.8c0.2-4.2,4.7-4.8,7.7-3.5c3.6,1.5,5.4,6.6,7.3,9.6c6.6,10.5,13-3.4,13.6-10
			c0.2-2.8-1-7.4,0-10c-2.8,6.9-3.3,27.5,9.2,22c6.7-3,7.2-14.1,8.5-20.2c0.4-1.9-0.2-5.3,1.7-1.9c1.3,2.3,2.5,4.6,3.7,6.9
			c2.3,4.4,5,8.8,5.7,13.8c0-3.3,0-6.5,0-9.8c-0.2,3.7-2.6,6.9-6.6,5.9c0,3.3,0,6.7,0,10c5.3-7.2,11.1-14,17.4-20.4
			c0.5-0.5,0-10,0-10c-7.8-1.7-6.7,12.6-6.7,17.1c0,3.2,0,6.1,1.7,9c2.5,4.4,8.5,3.7,12.2,1.7c7.7-4.1,7.2-13.7,7.1-21
			c0-3.5-0.9-6.1-4.2-7.9c-4.6-2.5-10.1,0.9-13.7,3.6c-1.6,1.2,1.5,8.9,0,10c5.6-4.1,16.9-7.6,17.9,2.9c0-3.3,0-6.5,0-9.8
			c-0.5,7.7-6.8,15.2-14.9,13.6c-1.8-0.4-3.2-1.6-4.3-3c-2.3-2.7-0.2-7-1.3,0.6c0.5-3.3,2.4-7.6,6.3-6.7c0-3.3,0-6.7,0-10
			c-6.3,6.4-12.1,13.2-17.4,20.4c-0.5,0.7-0.2,10,0,10c7.5,1.9,6.7-8,6.6-12.4c0-7.8-4-14.1-7.6-20.9c-0.9-1.7-1.9-3.4-2.8-5.1
			c0.6,1-1.2,6-1.5,7.2c-0.9,4.3-1.6,8.6-3.6,12.6c-3.8,7.3-13.5,6.1-14.4-2.1c0,1.7,0,3.3,0,5c0-0.4,0-0.8,0-1.2c0,1.7,0,3.3,0,5
			c0.2-1.7,0.5-3.1,1.1-4.6c0-3.3,0-6.7,0-10c-0.5,6.2-5.5,19-12.7,11.2c-3.8-4.1-7.3-16-14.8-10c-1.5,1.2-1.1,3.7-1.1,5.4
			c0,1.7-0.8,6,0,7.5c0.8,1.3,1.5,2.6,2.3,3.9c0.1,0.2,4.6-3,4.9-3.3c3.2-2.4,5.9-5.3,8.3-8.4c8-10.3,9.5-23.1,8.7-35.7
			c-0.6-8.7-11.5-3-14.9-0.2c-5.8,4.7-9.2,11.9-10.2,19.2C485.1,321.1,485.9,324.5,485.5,327.8L485.5,327.8z"/>
	</g>
</g>
<g>
	<g>
		<path fill="#F18700" d="M573.4,333.8c1.7-1.6,3.4-3.3,5.1-4.9c0-3.3,0-6.5,0-9.8c-0.5,7.2-1.8,17.2,2.4,23.5
			c2.9,4.4,8.2,3.8,11.9,1.1c4.4-3.2,5-9.8,5.5-14.7c0.3-3.3-0.5-6.8,0-10c-0.8,5.6-2.3,33.6,9.1,26.3c5.1-3.3,5.3-11.9,5.3-17.2
			c0.1-5.7,0.2-11.3-1.2-16.9c0.8,3.1-0.6,6.8,0,10c0.3,1.6,0.9,2.4,2.3,3.4c2.3,1.5,3.5-1.1,4.8,1.4c2.5,4.7,1.3,10,5,14.3
			c6.8,8,18-11.4,21-15.7c0.6-0.8,0-4,0-5c0-0.7-0.5-4.5,0-5c-2.9,3-5.7,7-5.8,11.3c-0.1,3.3-0.9,7.8,0,10.9
			c1.4,4.9,6.2,4.5,10.1,2.6c4.8-2.3,7.5-7.7,7.9-12.8c0.1-1.5-0.9-9.4,0-10c-3.7,2.5-3.2,6.7-3.2,10.7c0,4.7-0.2,9,3,12.8
			c4.8,5.6,9.6-8.4,10.4-11.4c1.2-4.8,0.7-10.3,0.6-15.2c0,2.8,0,5.7,0,8.5c3,2.3,5.8,4.7,8.5,7.5c2.6,2.7,6.7,6.8,7,10.7
			c0-3.3,0-6.5,0-9.8c-1.4,2.4-4.6,3.2-7,4.2c-3.7,1.5-7.7,2.4-11.7,3c-0.6,0.1,0.4,9.9,0,10c5.8-0.9,11.2-2.6,16.4-5.1
			c3.4-1.6,2.3-5.3,2.3-8.5c0-4.8-0.9-7-3.9-10.8c-3.3-4.3-7.3-7.9-11.6-11.1c0.7,0.6,0,7.4,0,8.5c-0.1-7.7-1.2,0.8-2.1,2.9
			c-1,2.5-2.5,4.9-4.3,6.9c-4.1,4.6-7.4-5.3-7.5-7.9c0,3.3,0,6.5,0,9.8c0.2-2.5,1-4.2,3.1-5.7c0-3.3,0-6.7,0-10c-0.4,5-2.7,9-6.7,12
			c-3.7,2.8-9.8,3.3-11.3-1.9c0,3.1,0,6.2,0,9.3c0.1-4.5,2.8-8.5,5.7-11.6c0-3.3,0-6.7,0-10c-3,4.4-6.2,8.6-9.7,12.6
			c-3.2,3.7-6.8,7-11.3,3.1c-3.5-3-3.3-8.8-4.4-12.9c-0.3-1-0.7-2-1.3-2.9c0.3,0.6-3,0.4-3.1,0.4c-1.9-0.3-3-2.1-3.3-3.8
			c0,3.3,0,6.7,0,10c0.4,1.7,0.7,3.3,1,5c-0.5-3.8-0.6,0.8-0.8,1.8c-0.7,2.9-2,5.4-4.3,7.4c-2.2,2-4.9,1.2-6.8-0.6
			c-0.9-0.9-1.4-2.5-1.8-3.7c-0.3-1.1-0.6-2.2-0.7-3.4c-0.2,3.7-0.2,4.1,0.2,1.4c0-3.3,0-6.7,0-10c-0.7,6.8-2,14-9.1,16.7
			c-2.7,1-5.4-0.2-7.5-1.9c-1.1-0.9-1.7-2.3-2.4-3.6c-0.4-1-0.7-1.9-0.8-3c-0.2,3.8-0.2,4.3-0.1,1.5c0.1-1.6,0-3.2,0-4.8
			c0-0.6-0.5-4.5,0-5c-1.7,1.6-3.4,3.3-5.1,4.9c-0.6,0.5,0,4.3,0,5C573.4,329.4,573.9,333.3,573.4,333.8L573.4,333.8z"/>
	</g>
</g>
<g>
	<g>
		<path fill="#F18700" d="M732.2,285.7c-8.4,13.2-15.2,27.3-16.8,43c-1.2,11.6-0.8,24.4,3.5,35.4c-1.1-2.9,1.1-7.1,0-10
			c-2.1-5.4-3.3-10.8-3.7-16.6c0.2,3.2,0.7-3.3,0.8-4c0.4-2.8,1.2-5.6,2-8.4c3-10.5,8.4-20.3,14.2-29.5
			C733.8,293.3,730.7,288,732.2,285.7L732.2,285.7z"/>
	</g>
</g>
<g>
	<g>
		<path fill="#F18700" d="M747.1,340.7c7.5-4.3,12.7-11,15.1-19.3c0.4-1.4,0-3.5,0-5c0-0.7-0.5-4.5,0-5c-3.8,3.9-4.7,8.5-4.7,13.7
			c0,5-0.4,10.1,1.6,14.8c0.5,1.2,1.2,2.2,2,3.2c2,2.7,2.4,1,4.2-1.1c2.9-3.4,5.8-6.7,8.7-10.1c2-2.3,4.9-7.8,8.5-5.7
			c3,1.8,3.8,8,4,11c0-1.7,0-3.3,0-5c0,0.5,0,1,0,1.5c0-1.7,0-3.3,0-5c-0.1,1.5-0.3,3-0.7,4.5c-0.8,3.2,0.8,6.9,0,10
			c1.6-6.1,4-11.8,7.3-17.2c4.9-7.9,7.3,2.4,8.2,6.9c0.9,4.8,1.2,0.7,2.1-1.7c1.1-2.8,3-5.3,5.3-7.2c2.1-1.8,4,1.7,4.7,3
			c0.8,1.4,1.3,2.9,1.8,4.4c0.6,1.8,0,5.1,0.6,0.9c-0.5,3.3,0.5,6.7,0,10c1.2-8.8,1.5-20.2-3.9-27.6c-3.9-5.3-9.3,8.7-9.8,11
			c-1,4.4-0.4,9.5-0.3,14c0,1.9,0.1-2.6,0.1-3c0-7.4,0.2-15-2.9-21.9c-2.4-5.4-6.4,2.3-7.5,4.3c-2.6,4.5-4.3,9.3-5.6,14.3
			c0,3.3,0,6.7,0,10c1.2-5,0.8-10.3,0.7-15.3c0-2.8-0.7-5.4-1.8-8c-0.7-1.8-1.7-3.3-3.4-4.3c-1.7-1-4.2,2.5-5,3.4
			c-2.9,3.4-5.8,6.7-8.7,10.1c-1.2,1.4-2.5,2.9-3.7,4.3c-1.9,2.2-2.3,0.6-3.7-1.4c-0.7-1-1.2-2.2-1.7-3.3c-1.3-3.3,0.2-7-0.8,1.3
			c0.4-3.4,2.1-6.4,4.5-8.7c0-3.3,0-6.7,0-10c-2.4,8.3-7.6,14.9-15.1,19.3C745.6,331.5,748.5,339.9,747.1,340.7L747.1,340.7z"/>
	</g>
</g>
<g>
	<g>
		<path fill="#F18700" d="M831.4,312.8c-4.4,2.6-7.5,6.2-9.4,11c-1.5,3.7-0.9,8.3-0.7,12.2c0.2,4.4,6.6,3.3,8.8,1.7
			c4.2-3,5.9-10.5,7.7-15c0.5-1.2,0-3.7,0-5c0-0.6-0.5-4.6,0-5c-4.9,4.3-4.1,10.2-4.1,16.2c0,6.2,2.5,11.3,9,12.8
			c-0.6-0.1,0.8-9.8,0-10c-3.4-0.8-5.9-2.6-7.7-5.6c-0.4-0.7-0.7-1.5-0.9-2.3c-0.5,5.5-0.4,6.8,0.3,3.9c0.6-2,2-3.6,3.5-5
			c0-3.3,0-6.7,0-10c-2,4.7-3.6,10.2-6.9,14.2c-2.5,3-8,3.3-9.6-0.7c0,3.3,0,6.7,0,10c1.5-5.7,5-10.3,10.1-13.3c0.4-0.3,0-4.5,0-5
			C831.5,317.3,831.1,313,831.4,312.8L831.4,312.8z"/>
	</g>
</g>
<g>
	<g>
		<path fill="#F18700" d="M867.3,308.9c-4.9-1.9-8.7,2.1-10.9,6.1c-1.6,3.1-1.1,7.2-1.1,10.6c0,3.1-0.3,6.1,3,7.7
			c3.7,1.8,7.5-1.1,9.2-4.1c1.2-2,1.4-4.5,1.7-6.7c0.4-3.9,1.3,1.4,1.5,2.5c1.4,6,2.3,12.1,2.9,18.2c0.6,5.9,1.6,12.2-1.3,18
			c-1,2-3.3,2.6-5.3,2.2c-3.1-0.5-3.1-8.7-3.2-0.2c0,0.5,0,1,0,1.5c1.5-18.9,17.2-33.5,30-45.8c0.5-0.5,0.5-9.6,0-10
			c-4.6-3.9-9.9,1-10,6.1c-0.1,3.7-0.4,7.5,0,11.2c0.6,5.2,4.1,10.3,9.8,10.1c5.3-0.2,8.1-7.9,12-10.5c1.6-1.1-1.5-9,0-10
			c-4.2,2.9-6,8.1-10.7,10.2c-5.9,2.7-10.6-5-11.1-9.8c0,3.3,0,6.5,0,9.8c0.2-5.1,4.8-11.6,10.1-7.1c0-3.3,0-6.7,0-10
			c-9.5,9.1-18.9,18.3-25.2,30c-4.9,9.1-6.2,20.3-4.6,30.5c0.5,2.8,2.4,4.5,5.3,4.1c3-0.5,3.8-4.3,4.2-6.7
			c0.9-5.6,0.6-11.5,0.6-17.1c0-13.6-1.3-26.9-4.9-40.1c0,0.1,0,0.1,0,0.2c-0.3,4.7-0.7,10.1-5,12.9c-3.6,2.3-8.2,0.6-9-3.5
			c0,3.3,0,6.7,0,10c0.4-5.6,5.6-12.8,11.9-10.4C866.3,318.5,868.5,309.4,867.3,308.9L867.3,308.9z"/>
	</g>
</g>
<g>
	<g>
		<path fill="#F18700" d="M951.1,287.5c0.1-1.5,0.1-2.9,0.1-4.4c0-0.9,0.6-5.7,0-6.3c-2.5-2.3-3.7,3.5-4.3,5
			c-1.6,4.3-3.2,8.5-4.8,12.8c-5.9,15.9-11.4,31.9-16.7,48c-1,3,1,7,0,10c3.9-11.8,7.9-23.5,12-35.2c2.2-6.1,4.4-12.3,6.7-18.4
			c0.8-2,4.2-15,7.1-12.3c0-3.3,0-6.7,0-10c0,0.2,0,0.5-0.1,0.7C950.8,280.8,951.3,284.2,951.1,287.5L951.1,287.5z"/>
	</g>
</g>
<g>
	<g>
		<path fill="#F18700" d="M972.6,325.6c5.8-1.9,10.8-5,15.1-9.3c3.8-3.9,5.7-7.6,5.7-12.9c0-4.7,0.8-9.1-4.5-11.1
			c-6.3-2.4-12,4.1-14.3,9c-4.4,9.1-5,20.3-4.4,30.2c0.2,3.9,1.6,12.5,7,11.8c2.4-0.3,5.7-4.1,7.4-5.7c2.7-2.5,5-5.4,7.1-8.4
			c0-3.3,0-6.7,0-10c-2.1,3.8-1.3,9-1.3,13.2c0.1,5.1,2.5,9.1,7.6,10.3c6.4,1.6,11.8-3.9,13.5-9.5c1.3-4.3,0.6-9.9,0.4-14.3
			c-0.2-5.2-4.1-13.3-9.8-7.8c-3.5,3.4-2.7,9.4-2.7,13.7c0,1.7,0,3.2,0.4,4.8c1.1,3.7,6.1,1.8,8.1,0.5c3-2,4.4-5.4,8-6.7
			c3.3-1.1,5.4,1.2,5.6,4.2c0-3.1,0-6.2,0-9.3c-0.1,4-0.1,7.9,0,11.9c0,2.1,0.3,4.2,0.7,6.3c0.2,1.2,0.6,2.5,0.9,3.7
			c-0.2-0.7,2.1-3.9,2.5-4.6c2.7-4.8,5.9-9.9,9.8-13.8c2.1-2.1,3.9,3.2,4.3,4.3c0.6,1.5,0.9,3.1,1.2,4.7c-0.7-3.6-0.2-0.4-0.6,1.3
			c-0.8,3.2,0.8,6.9,0,10c1.7-6.7,1.5-14.5,0.6-21.3c-0.4-2.8-2.5-12.1-6.5-8.1c-4,4-7,9.6-9.7,14.5c-0.6,1-1.1,2.1-1.6,3.1
			c-0.4-1.2-0.7-2.4-0.9-3.7c-0.3-2.6-0.5-2.5-0.6,0.4c0-1,0-2,0-3c0-3,0.7-7.3-1.3-9.8c-3-3.6-8.3,1.7-10,3.6
			c-2.8,3.2-10.5,7-10.8-0.3c0,3.3,0,6.5,0,9.8c0.5-3.7,2.3-7.4,6.2-8.2c4.5-0.9,6,6.8,6.2,9.6c0-1.7,0-3.3,0-5c0,0.5,0,1,0,1.5
			c0-1.7,0-3.3,0-5c-0.6,6.1-3.8,10.8-9.9,12.4c-6,1.6-11-3.1-11.6-8.8c0,3.3,0,6.5,0,9.8c0.1-1.8,0.4-2.9,1.3-4.4c0.6-1,0-3.9,0-5
			c0-0.9-0.6-4.3,0-5c-3.9,5.5-8.7,10.7-14.6,14c-2.7,1.5-4.8-3.1-5.6-4.8c-0.6-1.3-0.9-2.7-1.1-4c-0.2,3.3-0.1,3.7,0.1,1.3
			c0.1-1,0.3-2,0.5-2.9c1.2-6.3,3.1-13.1,7.7-17.7c4-4,13.2-5,14.6,1.9c0-3.3,0-6.7,0-10c-1.9,9.2-12.5,16-20.8,18.6
			C971.6,315.9,973.5,325.3,972.6,325.6L972.6,325.6z"/>
	</g>
</g>
<g>
	<g>
		<path fill="#F18700" d="M1066.5,298c0.1,0,0.1-10,0-10S1066.4,298,1066.5,298L1066.5,298z"/>
	</g>
</g>
<g>
	<g>
		<path fill="#F18700" d="M1056.2,311.4c0.1,0,0.1-10,0-10C1056.1,301.4,1056.1,311.4,1056.2,311.4L1056.2,311.4z"/>
	</g>
</g>
<g>
	<g>
		<path fill="#F18700" d="M1057,269.3c-4.8,10.8-4.3,23.9-5.3,35.5c-1.1,13-2.2,25.9-3.3,38.9c-0.3,3.3,0.3,6.7,0,10
			c1.1-13,2.2-25.9,3.3-38.9c1-11.6,0.5-24.7,5.3-35.5C1058.2,276.5,1055.7,272,1057,269.3L1057,269.3z"/>
	</g>
</g>
<g>
	<g>
		<path fill="#F18700" d="M1035.5,302c11.7-0.7,23.4-1.3,35.1-2c0.3,0-0.1-10,0-10c-11.7,0.7-23.4,1.3-35.1,2
			C1035.3,292,1035.7,302,1035.5,302L1035.5,302z"/>
	</g>
</g>
<g>
	<g>
		<path fill="#F18700" d="M1057.1,324.2c-0.1,0.1-0.3,0.2-0.4,0.2c-0.6,0.3-0.4,9.2,0,10c1.6,3.2,7.2-1.8,8.6-3.2
			c3.2-3.1,5.4-7.9,6.5-12.2c0.8-3.2,1.7-15.4-2.9-15.7c0.5,0-0.7,9.3,0,10c1.5,1.6,3.4,1,5.3,0.6c1-0.2,2-0.3,3-0.2
			c3.3,0.2,1.5,6.6,2.3-2.7c-0.4,5-0.9,9.7-0.9,14.8c0,1.7,0,3.4,0.3,5.1c0.8,4.7,4,2.7,6.7,0.8c4.9-3.5,7.5-9.8,9.8-15.2
			c0-3.3,0-6.7,0-10c-1.9,6.4-1.6,13.4-1.3,20c0.1,4,1.2,7.9,3,11.4c2.7,5.3,7.6-0.9,9.3-3.5c3.4-5.3,2.7-12.3,2.4-18.3
			c-0.3-7-9-12.8-13.6-5.6c-1.5,2.4,1.5,7.7,0,10c4.7-7.4,12.8-1.2,13.6,5.5c0-2.5,0-5,0-7.5c0,0.4,0,0.9,0,1.3c0-0.8,0-1.7,0-2.5
			c-0.6,4.6-4,13.4-9.8,12.4c-2.6-0.4-3.7-6-4.2-7.9c-0.6-2.1,0.1-6.4-0.5-0.3c0.2-1.7,0.6-3.4,1.1-5c0.9-3-1.2-7.2,0-10
			c-2.4,5.6-5.1,11.1-9.8,15.2c-1,0.9-2.3,1.5-3.5,2c-1.8,0.9-2-0.2-2.8-1.7c-2.2-4-0.9,6.9-0.2,1.8c0.2-1.5,0.5-3.1,0.5-4.6
			c0.1-4,0.8-8.8-0.1-12.7c-1.3-6.2-7.5,0-10.7-3.3c0,3.3,0,6.7,0,10c2.5,0.2,2.9,2.1,3,4.3c0-3.3,0-6.5,0-9.8
			c-0.4,4.5-2.9,8.9-5.6,12.3c-1.3,1.7-7.8,7.7-9.6,4.2c0,3.3,0,6.7,0,10c0.1-0.1,0.3-0.2,0.4-0.2
			C1058.6,333.3,1055.7,325,1057.1,324.2L1057.1,324.2z"/>
	</g>
</g>
<g>
	<g>
		<path fill="#F18700" d="M1118.7,281.5c-2,4.1-2,8.8-2.5,13.2c-0.5,5.2-1,10.4-1.6,15.7c-1.1,11.1-2.2,22.2-3.3,33.3
			c-0.3,3.3,0.3,6.7,0,10c1-10.4,2.1-20.9,3.1-31.3c0.5-5.2,1-10.4,1.6-15.7c0.5-5,0.4-10.6,2.7-15.2
			C1120.1,288.8,1117.4,284.1,1118.7,281.5L1118.7,281.5z"/>
	</g>
</g>
<g>
	<g>
		<path fill="#F18700" d="M1159,281.2c-6.1-1.8-11.3,1.8-14.4,6.9c-2.9,4.8-2,11.9-2,17.3c0,6.6,1.7,12.8,3.3,19.1
			c1.1,4.5,2.3,8.9,3.4,13.4c1.1,4.4,2.9,9.1,3.1,13.7c0-3.3,0-6.5,0-9.8c-0.3,2.6-1.5,4.6-4.3,4.7c-0.2,0,0,10,0,10
			c6.6-0.2,4.8-13.2,4-17.6c-1.1-6.3-3.2-12.5-4.8-18.7c-0.8-3.2-1.6-6.4-2.5-9.6c-0.5-1.8-0.9-3.6-1.3-5.4c0,0.2-0.9-5.8-0.9-2.9
			c0,1.2,0,2.4,0,3.7c0.6-8.3,6.8-17.7,16.3-14.9C1158.2,291,1160,281.5,1159,281.2L1159,281.2z"/>
	</g>
</g>
<g>
	<g>
		<path fill="#F18700" d="M1129.3,330.9c6.2-1.7,12.4-3.4,18.6-5.1c0.9-0.3-0.8-9.8,0-10c-6.2,1.7-12.4,3.4-18.6,5.1
			C1128.4,321.1,1130.1,330.7,1129.3,330.9L1129.3,330.9z"/>
	</g>
</g>
<g>
	<g>
		<path fill="#F18700" d="M1166.7,326.9c7.9-12.3,15.5-24.9,15.5-39.9c0-4.7,0.6-10-2.3-14c-5.1-7.1-12.7,6-14.6,9.6
			c-5.5,10.2-5.8,22.9-4.6,34.2c0.4,3.4,1.4,6.6,2.7,9.7c0.8,1.8,1.8,3.5,3,5c1.5,1.9,3.9-0.6,5.1-1.5c6.3-5.3,11.5-11.8,15.8-18.7
			c0.8-1.3-1.1-9.6,0-10c-5.8,2.4-6.4,9.3-6.4,14.8c0,4.7-1.9,13.8,4.6,14.5c6.3,0.7,11.4-10.1,11.5-15.1c0.1-5.2,1.6-13.7-4.7-15.9
			c1,0.3-1.1,9.6,0,10c2.9,1,4.2,3.2,4.7,6.2c0-1.7,0-3.3,0-5c0,0.4,0,0.8,0,1.2c0-1.7,0-3.3,0.1-5c-0.7,4.6-3.5,8.5-6.8,11.7
			c-3.5,3.3-8.6,2.1-9.2-2.7c0,2.5,0,5,0,7.5c0-4.8,1.6-10.3,6.3-12.3c0-3.3,0-6.7,0-10c-2.9,4.7-6.2,9-9.9,13.1
			c-1.8,2-3.9,3.9-5.9,5.7c-3,2.7-4.6,2.6-6.7-0.9c-1.3-2.1-2.1-4.3-2.9-6.6c-0.4-1.4-0.7-2.8-1-4.2c-0.5-2.6,0.4-8.1-0.3-0.1
			c0.5-5.4,2.3-10.6,4.6-15.5c2.1-4.2,5.1-9.2,9.6-11.2c1.9-0.8,3.8,0.3,5.1,1.6c0.8,0.8,1.2,1.9,1.5,2.9c1.1,2.8-0.5,5.1,0.4-2.5
			c-1.5,12.3-8.7,23.3-15.2,33.4C1165.1,319.3,1168.2,324.6,1166.7,326.9L1166.7,326.9z"/>
	</g>
</g>
<g>
	<g>
		<path fill="#F18700" d="M1196.6,298.3c-0.7,6.6-1.2,13.1-1.4,19.7c-0.1,1.6,0,3.2,0,4.8c0,1.2,0.5,3.9,0.1,5
			c1.5-3.5,3-6.9,4.5-10.4c-0.4,1,1.2,4.8,1.5,5.9c0.5,2,1,4,1.5,5.9c0.1,0.3,3.3-2.2,3.5-2.4c1-1,1.7-2.4,2.4-3.6
			c1.4-2.7,1.9-5.9,2.4-8.8c0.6-3.2-0.6-6.8,0-10c-0.9,5.4-2.2,11.3-7.3,14.4c-1.8,1.1-1.8-2.6-2.1-4c-0.5-2-1-4-1.5-5.9
			c-0.2-2-0.5-2-1,0c-0.4,1-0.9,2-1.3,3c-0.9,2-1.7,4-2.6,5.9c0,3.3,0,6.5,0,9.8c0.2-6.5,0.7-12.9,1.4-19.4
			C1197,305,1196.3,301.6,1196.6,298.3L1196.6,298.3z"/>
	</g>
</g>
<g>
	<g>
		<path fill="#F18700" d="M1194.4,268.7c12.6,14.3,16,32.1,18.8,50.4c0.4,2.5,0.7,5,0.9,7.4c0.2,4.3,0.3,4.7,0.3,1.3
			c-0.1,1.8-0.2,3.6-0.5,5.4c-0.5,4-1.7,8-3.3,11.7c-3,7.2-8.5,13.2-15.5,16.6c-1.4,0.6,1.2,9.4,0,10c18.8-9,19.8-30.6,19.4-48.7
			c-0.3-11.3-2.5-22.9-5-34c-2.5-11.3-7.4-21.5-15.1-30.1c0.5,0.6,0,4.3,0,5C1194.3,264.5,1193.8,268.1,1194.4,268.7L1194.4,268.7z"
			/>
	</g>
</g>
<g>
	<g>
		<path fill="#F18700" d="M215,655.2c15.9,1.5,31.8,2,47.7,1.5c-0.3,0,0.7-9.5,0-10c-4.1-2.9-8.2-5.9-12.3-8.8c0,3.3,0,6.7,0,10
			c3.4,0.2,5.3,2.8,5.4,6.1c0-3.3,0-6.5,0-9.8c-1.1,6.7-7.6,9.6-11.3,14.7c-1.6,2.2,1.6,7.9,0,10c4.4-6,11.3-8.9,11.3-17.2
			c0-4.7,1.4-13.5-5.5-13.8c0.5,0-0.8,9.4,0,10c4.1,2.9,8.2,5.9,12.3,8.8c0-3.3,0-6.7,0-10c-15.9,0.4-31.8-0.1-47.7-1.5
			C215.2,645.2,214.6,655.1,215,655.2L215,655.2z"/>
	</g>
</g>
<g>
	<g>
		<path fill="#F18700" d="M356.7,625c-0.3-0.2-0.4-0.1-0.4,0.4c-0.3,1.2-0.8,9.5,0,10c1.2,0.8,0.9-7.3,0.9-8.1
			c0-3.8-1.4-6.1-4.7-8.1c-8.9-5.4-19.1,3.7-19.6,12.8c-0.4,7-1.7,16.8,4.6,21.5c9.2,6.9,19.4-11.5,21.1-18.3c0.8-3-1.1-7.2,0-10
			c-4.4,11.2-4.2,27.2,0.7,38.1c-1.2-2.7,1.3-7.2,0-10c-1.4-3.2-2.4-6.3-3-9.7c-0.8-4.8-0.5,2.9,0.3-1.9c0.4-2.2,1.2-4.4,2-6.5
			c0-3.3,0-6.7,0-10c-1.7,6.8-6.4,12.5-11.2,17.5c-5.1,5.2-11.9,0.7-13.9-4.9c-1.8-4.7-1.1,5.9,0,1.2c0.3-1.4,1-2.7,1.6-4
			c1.5-3,4.2-5.1,7.2-6.5c5.2-2.4,13.6,0.4,14.9,6.3c0-3.3,0-6.7,0-10c-0.2,0.8-0.5,1-0.9,0.6c0,3.3,0,6.7,0,10
			c-0.1-0.5,0.1-0.6,0.4-0.4C355.8,634.7,357.8,625.4,356.7,625L356.7,625z"/>
	</g>
</g>
<g>
	<g>
		<path fill="#F18700" d="M380.6,606.4c-4.1,12.5-7,25.3-8.6,38.3c-0.4,3.3,0.4,6.7,0,10c1.6-13,4.5-25.8,8.6-38.3
			C381.6,613.4,379.6,609.4,380.6,606.4L380.6,606.4z"/>
	</g>
</g>
<g>
	<g>
		<path fill="#F18700" d="M388.3,597.9c-0.2,17.1-2.2,34.1-5.6,50.8c-0.7,3.2,0.7,6.8,0,10c3.6-17.2,5.4-34.6,5.7-52.2
			c0-2.3,0-4.6,0-6.8C388.4,599.5,388.3,596.1,388.3,597.9L388.3,597.9z"/>
	</g>
</g>
<g>
	<g>
		<path fill="#F18700" d="M425.5,639.3c1.2-3.6,3.4-22.3-4.3-18.5c-1.9,0.9-3.2,4.2-4.1,5.9c-1.6,2.9-2.7,6.1-3.3,9.3
			c-0.7,3.5-0.2,7.4-0.2,11c0.1,4.5,2.5,9.5,7.8,7.9c4.7-1.4,7.4-8.3,7.6-12.6c0.2-3.2,0.4-6.7,0-9.8c-0.6-4.9-5.1-9.2-10.1-6.5
			c-1.5,0.8,1.3,9.3,0,10c5-2.7,9.5,1.6,10.1,6.5c0-3.3,0-6.5,0-9.8c-0.2,4.8-2.9,8.7-6.5,11.6c-4.7,3.7-8.6-2.3-8.8-6.4
			c0,3.3,0,6.5,0,9.8c0.5-5,2.5-9.5,5.2-13.8c1.2-1.9,2.3-3.5,4.6-3.6c2.3-0.1,3.1,3.1,3.2,4.7c0-3.3,0-6.7,0-10
			c-0.2,1.5-0.5,2.9-1,4.3C424.4,632.3,426.5,636.3,425.5,639.3L425.5,639.3z"/>
	</g>
</g>
<g>
	<g>
		<path fill="#F18700" d="M438.2,599.4c1.1,0.3,0.6-7,0.6-7.9c0-1,0-2-0.1-3c-0.2-1.2-1.6,0.9-1.6,0.9c-0.7,1.2-0.6,3.5-0.8,4.8
			c-2,13.7-4,27.4-6.1,41.2c-0.4,2.9,1.1,7.3,0,10c1.6-4,3.3-7.8,7-10.1c1.8-1.1,4.1-1,6.1-0.5c3.4,0.8,3.6,7.4,3.7-0.5
			c0-0.5,0-1,0-1.5c-0.2,2.9-0.8,5.4-1.9,8.1c-0.4,1-1,2-1.5,3c-0.4,0.8-1.7-2.6-1.7-2.6c0,3.3,0,6.5,0,9.8c0.1-2.9,2.3-4.4,4.4-6.1
			c2.5-2,4.5-4.4,6.4-7c1.5-2.2,2.6-4.6,3.5-7c0.6-1.5,0.9-3,1.2-4.6c-0.2,0.8,1.7,3.9,2,4.7c2.4,6.2,3.7,12.9,4.2,19.6
			c0.1-4,0.1-3.9-0.1,0.3c-0.1,1.7-0.4,3.4-0.6,5c-0.5,3.3-1.4,6.6-2.4,9.8c-1.4,4.5-5,10.6-10,6.1c-1.7-1.6-2.4-4.4-2.9-6.6
			c0,1.4,0,2.9,0,4.3c0.1-1,0.3-1.9,0.6-2.9c0.4-1.5,1-2.9,1.6-4.2c5-11.5,17.6-17.5,25.9-26.3c0.6-0.6,0-4.2,0-5c0-0.6-0.5-4.6,0-5
			c-3,2.5-7,6.8-7.1,11c-0.1,3.3-0.9,7.7,0.8,10.6c0.5,0.8,1,1.7,1.5,2.5c0.1,0.2,3.9-1.2,4.2-1.4c2.8-1,5.4-2.5,7.9-4.1
			c4.6-3,8.3-7.1,11.2-11.7c0.6-0.9,0-4,0-5c0-0.7-0.5-4.5,0-5c-3.1,3.1-6.5,6.9-6.7,11.6c-0.1,3.5-0.1,6.9,0,10.4
			c0.1,3.7,1.7,6.8,5.1,8.3c5,2.1,10.1-3.6,12.9-6.9c0.6-0.7,0.1-4.2,0.1-5c0-0.8-0.6-4.4-0.1-5c-3,3.6-6.4,7.1-11.4,7.2
			c-4.1,0.1-6.2-4.5-6.6-7.9c0,2.5,0,5,0,7.5c0-0.4,0-0.8,0-1.2c0,0.8,0,1.7,0,2.5c0.6-4.7,3.4-8.1,6.7-11.4c0-3.3,0-6.7,0-10
			c-3,4.7-6.7,8.5-11.2,11.7c-2.4,1.7-5.1,3-7.9,4.1c-1.4,0.6-2.8,1-4.2,1.4c-0.1,0-2-3.5-2.2-3.8c0,3.3,0,6.7,0,10
			c1.4-4.2,3.7-7.5,7.1-10.3c0-3.3,0-6.7,0-10c-8.2,8.6-19.3,14.3-25.2,24.9c-3.9,6.9-3.8,16.4-2.8,24.2c0.6,4.9,4.8,11,9.7,6.7
			c3.9-3.4,4.8-11.2,5.6-16c1.5-8.6,1.5-18.2,0.6-26.8c-0.6-6.2-1.9-12.2-4.1-18c-0.4-1.1-0.8-2.1-1.3-3.1c-1.3-3.2-1,0.1-1.4,1.5
			c-0.8,3.1-2.3,5.9-4,8.5c-1.4,2.2-3.2,4.1-5.2,5.9c-2.1,2-4.6,3.2-5.5,6.1c-1,2.9-0.1,7.4-0.1,10.5c0,1.5,0.5,2.4,1.7,3.3
			c0.6,0.4,3.2-8.6,3.3-9.4c0.6-3.8,0.2-8,0.2-11.9c0-4.4-1.2-7.9-6.2-8.2c-6-0.4-8.9,6.5-10.7,11c0,3.3,0,6.7,0,10
			c1.3-9.1,2.7-18.3,4-27.4c0.7-4.6,1.3-9.1,2-13.7c0.2-1.6,0.4-3.2,0.8-4.8c0.2-1,1.5-1.7,1.7-0.3c0-3.3,0-6.7,0-10
			c0,0.5-0.2,0.6-0.6,0.4C438.9,589.5,437.5,599.2,438.2,599.4L438.2,599.4z"/>
	</g>
</g>
<g>
	<g>
		<path fill="#F18700" d="M516,633c0.1,0,0.1-10,0-10C515.9,623,515.9,633,516,633L516,633z"/>
	</g>
</g>
<g>
	<g>
		<path fill="#F18700" d="M498.3,617.9c-0.1-0.2-0.3-0.3-0.4-0.5c0,3.3,0,6.7,0,10c1.3-3.3,8.1-1,10.6-0.8
			c5.2,0.6,10.4,1.2,15.6,1.8c-0.3,0,0.4-9.9,0-10c-5.2-0.6-10.4-1.2-15.6-1.8c-2.5-0.3-9.3-2.5-10.6,0.8c-0.5,1.3-0.8,9,0,10
			c0.1,0.2,0.3,0.3,0.4,0.5c-0.5-0.6,0.1-4.2,0.1-5C498.4,622,498.9,618.6,498.3,617.9L498.3,617.9z"/>
	</g>
</g>
<g>
	<g>
		<path fill="#F18700" d="M517.3,585c-5.7,21.4-10.3,43-13.9,64.8c-0.5,3.3,0.5,6.8,0,10c3.6-21.8,8.3-43.5,13.9-64.8
			C518.1,591.8,516.4,588,517.3,585L517.3,585z"/>
	</g>
</g>
<g>
	<g>
		<path fill="#F18700" d="M512.6,650.6c2.7,4.3,8.3,0.4,11-1.9c4.1-3.4,6.5-8.5,7.4-13.7c0.5-2.9-1.2-7.5,0-10
			c-2.9,6.1-3.4,12.5-2.8,19.2c0.3,3.1,2.6,8.6,6.5,6.6c4.3-2.3,6.7-7.6,8.9-11.7c3.5-6.7,12.8-17,19.9-8c1.1,1.4,1.5,3.2,1.9,4.9
			c0.2,0.9,0.3,1.7,0.4,2.6c-0.7-5.7,0.1-3.8-0.5-1.2c-0.5,1.9-1.6,3.5-3,4.9c-2.2,2.1-4.7,0.1-7.1-0.8c1,0.4-1.2,9.5,0,10
			c1.9,0.7,4.3,2.4,6.2,1.4c1.8-0.9,2.8-2.7,3.5-4.4c1.2-2.6,1.1-5.8,1.1-8.6c0-6.4,1-14.5-3.3-19.8c-2.7-3.4-7.6-2.5-11-0.9
			c-3.9,1.8-6.2,6.3-8.2,9.9c-2.2,4-4.2,7.8-7.7,10.8c-4.2,3.7-7.4-1.7-7.7-5.7c0,3.3,0,6.5,0,9.8c0.2-3.3,1.4-6.1,2.8-9
			c0-3.3,0-6.7,0-10c-1,5.4-3.5,9.9-7.4,13.7c-2.6,2.5-8.4,6.1-11,1.9C514,643,511,648.2,512.6,650.6L512.6,650.6z"/>
	</g>
</g>
<g>
	<g>
		<path fill="#F18700" d="M575.8,605.2c1.1,1.4,1.9,2.8,2.6,4.4c1.5,3.3,1.1,10.6,1.4-1.2c0-0.2,0-0.5,0-0.7
			c-0.1,1.4-0.3,2.7-0.7,4.1c-0.8,3.1,0.8,6.9,0,10c1.1-4.4,0.8-9.1,0.7-13.6c0-4.8-1.1-9.1-4-12.9c0.5,0.7,0,4.2,0,5
			C575.7,601.1,575.2,604.4,575.8,605.2L575.8,605.2z"/>
	</g>
</g>
<g>
	<g>
		<path fill="#F18700" d="M591.8,651.3c7.6-12.7,8.4-26.4,7.9-40.8c0,3.3,0,6.5,0,9.8c3.8,3.6,6.6,7.9,9.3,12.3
			c2.5,4.2,5.4,8.7,5.6,13.8c0-3.1,0-6.2,0-9.3c-0.5,6.4-5.4,11-11.9,8.5c1,0.4-1.2,9.6,0,10c5.2,2,9.7-0.6,11.5-5.7
			c1.1-3.4,0.5-7.9,0.4-11.3c-0.1-10.3-7.7-21.4-14.9-28.3c0.3,0.3,0,3.3,0,3.7c0,2,0,4.1,0,6.2c-0.4-10.2-0.3-0.5-0.7,2.1
			c-0.3,2.3-0.9,4.5-1.6,6.7c-1.3,4.4-3.3,8.5-5.6,12.4C590.3,643.8,593.3,648.9,591.8,651.3L591.8,651.3z"/>
	</g>
</g>
<g>
	<g>
		<path fill="#F18700" d="M675,608.2c-7-5.9-17,3-21.4,8.3c-5.5,6.7-6.6,14.6-6.5,22.9c0,3.4-0.1,6.4,1.3,9.5
			c1.9,4.2,7.5,5.2,11.6,5.1c8.8-0.3,16-7.8,17.9-15.9c0.7-3.2-0.7-6.9,0-10c-1.7,7.3-6.9,12.8-13.9,15.2
			c-7.4,2.5-16.6-0.9-16.8-9.6c0,3.1,0,6.2,0,9.3c0.6-7.7,4.1-14.5,9.5-19.9c4.3-4.3,12.7-9.7,18.3-4.9
			C673.4,616.9,676.7,609.7,675,608.2L675,608.2z"/>
	</g>
</g>
<g>
	<g>
		<path fill="#F18700" d="M684.8,647.8c5.4-9.9,5.8-22.8,4-33.8c0,3.3,0,6.7,0,10c4.2,0,9.2-1.6,9.9,3.6c0-3.1,0-6.2,0-9.3
			c-0.2,7.8-3.1,15.5-1,23.4c0.5,2,1.9,3.5,3.7,4.4c2.1,1.1,4.4-1.1,5.9-2.3c3.9-3.1,6-8,6.7-12.8c0.2-1.6,0-3.4,0-5
			c0-1-0.6-4.1,0-5c-2.3,4.2-1.8,8.9-1.8,13.5c0,5.4,1,10,5.8,13.2c-1.5-1,1.6-8.9,0-10c-2.2-1.5-3.7-3.3-4.8-5.7
			c-1.4-3.1,0.6-4.7-0.6,2.5c0.2-1.3,0.8-2.4,1.5-3.5c0-3.3,0-6.7,0-10c-0.8,5.6-3.4,10.2-7.8,13.8c-4.8,3.8-8.3-0.7-8.9-5.5
			c0,1.7,0,3.3,0,5c0-0.4,0-0.8,0-1.2c0,1.7,0,3.3,0,5c0.7-5.7,1.6-10.9,1.6-16.7c0-1.8,0-3.6-0.3-5.4c-0.4-3.2-7.4-1.9-9.6-1.9
			c0,0-0.2,9,0,10c0.3,2.7,0.5,2.2,0.6-1.6c-0.1,2.1-0.5,4.2-0.9,6.3c-0.7,3.2-2.1,6.3-3.6,9.1C683.4,640.4,686.2,645.3,684.8,647.8
			L684.8,647.8z"/>
	</g>
</g>
<g>
	<g>
		<path fill="#F18700" d="M737.6,616.8c-1.1-1.1-2.1-2.2-3.2-3.3c-0.4-0.5-4.9,2.4-5.4,2.7c-3,1.9-5.5,4.5-7.5,7.4
			c-3.8,5.3-3.3,10.8-3.3,16.9c0,7.6,6,8.5,11.3,3.8c5.6-4.9,8-13.6,8.5-20.8c0.1-1.6,0-3.2,0-4.8c0-1.1-0.6-4-0.1-5
			c-2.9,5.4-2.2,12.2-2,18.2c0.1,3.5,1.3,6.6,3.2,9.5c1.2,1.7,2.8,3,4.6,4.1c0.1,0.1,5.6-6.9,6.1-7.5c0.6-0.7,0-4.1,0-5
			c0-0.8-0.6-4.4,0-5c-1.6,2-3.2,4-4.9,6c-0.5,1.7-1.3,1.9-2.3,0.8c-1.1-0.7-1.9-1.6-2.7-2.5c-2.6-2.8-3.7-6.6-4-10.3
			c0,0.8,0,1.7,0,2.5c0,7.5,0.7,1.5,2-0.8c0-3.3,0-6.5,0-9.8c-0.4,7.3-3,13.7-7.5,19.4c-3.3,4.2-10.9,6.7-12.2-0.3
			c0,1.2,0,2.4,0,3.7c0-0.5,0-0.9,0-1.4c0,2.1,0,4.2,0,6.3c0.7-5,3.7-9.2,7.2-12.6c1.8-1.8,4-3.1,6.2-4.3c3.2-1.7,3.7-0.3,6,2.1
			c-0.5-0.5,0-4.3,0-5C737.7,621.1,738.2,617.4,737.6,616.8L737.6,616.8z"/>
	</g>
</g>
<g>
	<g>
		<path fill="#F18700" d="M753.9,576.6c-0.5-1.6-0.9-1.9-2.6-2c0,0.2,0,0.5,0,0.7c-0.5,24.5,0.2,48.9,2.6,73.3
			c-0.3-3.3,0.3-6.7,0-10c-0.8-8.3-1.5-16.6-1.9-25c-0.2-3.9-0.4-7.8-0.5-11.6c-0.1-2.4-0.1-4.8-0.2-7.3c-2.1-4.4-1.7-7.8,1.2-10
			c0.8,0.4,1.3,1,1.4,1.9C753,583.6,754.9,579.6,753.9,576.6L753.9,576.6z"/>
	</g>
</g>
<g>
	<g>
		<path fill="#F18700" d="M745,605.3c-0.5,0.1-0.8-0.1-0.9-0.6c0,3.3,0,6.7,0,10c0.4-2.3,6.5-1.9,8.4-2.1c4.3-0.4,8.6-0.9,12.9-1.3
			c0.4,0-0.3-10,0-10c-3.8,0.4-7.5,0.8-11.3,1.2c-2.9,0.3-7.5-0.1-9.9,1.6c-0.7,0.5-0.2,5-0.2,5.7c0,1.2-0.8,5.4,0.9,5.6
			C744.6,615.2,745.5,605.3,745,605.3L745,605.3z"/>
	</g>
</g>
<g>
	<g>
		<path fill="#F18700" d="M763.5,641.3c3.6-5.4,5.6-11.2,6.1-17.6c0.3-3.1-0.8-7,0-10c-1.8,7.1-2.2,14.1-2.2,21.4
			c0,4.5-0.7,12.7,5.3,13.6c-0.4-0.1,0.5-9.9,0-10c-2.9-0.4-4-2.5-4.8-5.1c-0.4-2.4-0.5-1.5-0.3,2.7c0.1-1.8,0.3-3.6,0.5-5.3
			c0.3-2.4,0.9-4.8,1.5-7.2c0-3.3,0-6.7,0-10c-0.5,6.4-2.5,12.2-6.1,17.6C761.9,633.7,765,639.1,763.5,641.3L763.5,641.3z"/>
	</g>
</g>
<g>
	<g>
		<path fill="#F18700" d="M778.8,600.3c-0.3,0.3-0.7,0.7-1,1c-0.1,0.1,0,1.4,0,1.5c0,1.2,0,2.4,0,3.5c0,1.2,0,2.4,0,3.5
			c0,0,0.1,1.4,0,1.5c0.3-0.3,0.7-0.7,1-1c0.1-0.1,0-1.4,0-1.5c0-1.2,0-2.4,0-3.5s0-2.4,0-3.5C778.9,601.8,778.8,600.4,778.8,600.3
			L778.8,600.3z"/>
	</g>
</g>
<g>
	<g>
		<path fill="#F18700" d="M808.8,621.9c-1.9-2.4-1.6-5.6-3.8-7.8c-3-2.8-7.9,2.4-9.5,4.4c-4.8,5.6-4.5,12.8-4.5,19.7
			c0,4.5,1.7,13.5,8.2,9.6c2.9-1.7,4.6-6.9,6-9.7c1.5-3.3,1.8-6.5,1.8-10.1c0-5.9,0.8-12.5-4.3-16.7c-3.2-2.6-6,4.9-6.2,7.1
			c-0.2,2.8-0.1,5.7,0,8.5c0,3,0.7,5.4,2.8,7.7c2.3,2.5,3.1,0.7,4.9-1.3c1.7-1.9,3.4-3.8,5.1-5.7c2-2.2,5.6-8.5,8.9-6.4
			c1.4,0.9,2.1,4.4,2.6,5.9c0.7,1.9,1.5,10.5,1.7,3.5c-0.1,3,0.8,7,0,9.8c2.2-7.6,5.6-14.6,10.3-20.9c1.9-2.5,1.6,0.2,2.1,1.9
			c0.7,2.2,1.1,4.5,1.4,6.7c0.2,2.7,0.3,2.3,0.3-1.2c-0.1,1.7-0.3,3.3-0.5,4.9c-0.3,2.3-1,4.5-1.6,6.7c-0.9,3.1,0.9,7,0,10
			c2.6-8.5,2.9-18.1,2.2-26.9c-0.2-2.9-0.7-5.7-1.3-8.5c-0.4-1.7-1-3.3-1.6-4.9c0.1,0.3-2.7,3.6-3,4c-3.8,5.5-6.5,11.8-8.3,18.2
			c0,3.3,0,6.5,0,9.8c0.3-9.6,0.5-19-3.7-27.9c-2.6-5.6-10.3,6-12.2,8.1c-0.9,1-1.7,1.9-2.5,2.9c-1.4,1.5-1.7,3.3-3.8,2.2
			c-2.5-1.4-3.6-4.4-3.9-7.1c0,3.3,0,6.7,0,10c0.3-3.6,1.9-6.1,5.1-7.8c0.9-0.5,3.3,2.9,3.7,3.5c2,3,0.2,6.6,1.3-0.7
			c-0.7,4.7-5.3,16.8-11.7,15c-1-0.3-1.8-1.3-2.4-2.1c-2.1-2.8-0.2-6.6-1.3,1.4c0.5-3.9,2.6-7.4,5.1-10.3c2.2-2.5,5.3-4.7,8.6-3.3
			c2.3,1,2.3,5.9,3.8,7.8c-0.5-0.6,0.1-4.2,0.1-5C808.8,626.1,809.4,622.6,808.8,621.9L808.8,621.9z"/>
	</g>
</g>
<g>
	<g>
		<path fill="#F18700" d="M865.3,609c-0.6,0.3-0.6-0.2-0.7-0.8c0,3.3,0,6.7,0,10c0.3-0.4,0.7-0.5,1.1-0.1c1.5,0.5,0.2,6.5,0.8-1.8
			c-0.2,2.7-0.7,5.5-1,8.2c-0.4,3.5-0.2,7.2-0.2,10.7c0,1.3-0.1,2.7,0.1,4c0.1,1,0.3,2.1,0.7,3.1c0.9,3.4,1.6-0.7,2.1-1.9
			c1.3-2.8,2.5-5.6,3.8-8.5c0.5-1.1,1-2.3,1.5-3.4c0.7-1.6,0.6-4,2.5-2.7c7.5,5.1,4.7,17.5,12.4,22.4c4.2,2.7,5.7-11.1,6-12.9
			c1.1-6.2,1.7-12.5,2-18.8c0.1-3-0.1-7.3,0-9.6c-0.4,7.5-1.3,14.8-2.7,22.1c-0.6,2.9-0.9,6.4-2.8,8.7c-2.2,2.8-5.4-2.3-6.2-3.8
			c-2.3-4.2-3-9.1-5-13.4c-1-2.3-2.7-4-4.7-5.5c0.2,0.2-4.1,9.3-4.5,10.1c-1.3,2.8-2.5,5.6-3.8,8.5c-0.3,0.6-0.5-7-1.1-0.9
			c0.2-1.6,0.4-3.3,0.7-4.9c0.6-4.4,0.4-9,0.4-13.5c0-1.9,0-3.8-0.6-5.6c-0.7-2.3-1.7-0.3-1.7,0.8c0,1-0.2,9.8,0.7,9.3
			C866.7,618.2,863.9,609.8,865.3,609L865.3,609z"/>
	</g>
</g>
<g>
	<g>
		<path fill="#F18700" d="M901.6,644.4c0.7-4.4,2-8.5,4.2-12.4c0-3.3,0-6.7,0-10c-0.5,5.1-0.4,10.2-0.3,15.3
			c0.1,4.7,1.7,9.4,6.4,11.3c-0.2-0.1,0-4.7,0-5c0-0.4,0.3-4.9,0-5c-2.2-0.9-3.7-2.3-4.9-4.4c-0.5-0.8-0.8-1.8-1-2.7
			c-0.5-2.8-0.6-1.5-0.4,3.9c0.1-1.1,0.2-2.3,0.3-3.4c0.2-1.6,0-3.4,0-5c0-1.1-0.6-4,0-5c-2.1,3.9-3.5,8-4.2,12.4
			C901.1,637.6,902.1,641.1,901.6,644.4L901.6,644.4z"/>
	</g>
</g>
<g>
	<g>
		<path fill="#F18700" d="M927.2,595.2c-4.3-3.3-4.6,5.6-4.7,7.7c-0.3,5.3-0.4,10.7-0.4,16c0,11,0.7,21.9,2.7,32.8
			c-0.6-3.2,0.6-6.8,0-10c-1.3-7.3-2.2-14.6-2.5-22.1c-0.1-2.1-0.5-18.6,4.9-14.4C925.6,604,928.9,596.5,927.2,595.2L927.2,595.2z"
			/>
	</g>
</g>
<g>
	<g>
		<path fill="#F18700" d="M930.6,600.7c0.1,18.6,0.2,37.1,0.3,55.7c0,0.3,0,3.6,0.1,1.8c0-2.3,0-4.6,0-6.8
			c-0.1-18.6-0.2-37.1-0.3-55.7c0-0.3,0-3.6-0.1-1.8C930.6,596.1,930.6,598.4,930.6,600.7L930.6,600.7z"/>
	</g>
</g>
<g>
	<g>
		<path fill="#F18700" d="M982,605.7c-0.2-2.3,0.2-3.4-2-4.6c-2-1.1-4.4,0.5-5.7,1.8c-3.2,3.3-3.2,10.4-3.5,14.7
			c-0.3,4-0.1,8-0.1,12c0,4-0.2,9,3.7,11.4c3.4,2.1,9.1-10.2,10.5-12.3c1.4-2.1,2.7-4.5,4.7-1.6c1.8,2.6,2,6.6,3.3,9.5
			c2,4.7,7.6,6,10.7,1.8c1.4-1.9,1.9-4.6,2.7-6.8c1.2-3.4,2.4-6.7,3.5-10.1c0-3.3,0-6.7,0-10c-2.1,6.5-2.1,15.9,0,22.5
			c2.2,6.9,7.6,0.5,9.7-2.6c3.1-4.5,7.3-8.2,11.8-11.2c0-3.3,0-6.7,0-10c-4.8,3.8-7.6,7.9-7.6,14c0,5.3-1.1,11.8,3.8,15.2
			c1.6,1.1,9.5-16.1,9.4-17.2c0.5,3.9,1.7,7.3,3.6,10.7c1.3,2.2,5.8,6.6,7.1,1.9c0.8-3.1-0.8-6.9,0-10c-1,3.8-4.6,1.4-6.2-0.6
			c-3-3.7-4.3-8.8-4.6-13.5c0-0.1,0-0.1,0-0.2c-0.9,4.9-2.6,9.4-5.2,13.7c-1.1,1.7-3.1,5.8-5.1,4.4c-2.1-1.4-2.7-4.4-2.7-6.7
			c0,3.3,0,6.5,0,9.8c0.5-5,3.8-8.5,7.5-11.6c1.6-1.3-1.5-9,0-10c-5.6,3.7-9.8,8.3-13.6,13.7c-1.7,2.4-4.2,4.1-6.8,2.1
			c-0.9-0.7-1.3-2.6-1.6-3.6c-0.5-2.8-0.6-2.1-0.3,2.1c0.2-1,0.5-2.1,0.8-3.1c1-3-1-7.1,0-10c-1.6,4.5-3.2,9-4.7,13.5
			c-1.2,3.4-2.8,6.3-6.8,6.1c-4.3-0.2-6.1-5.9-7-9.2c-0.6-2.1-1.1-4-2.3-5.8c-1.4-2.1-3.6,2-4,2.6c-2.5,3.9-4.8,9.3-8.4,12.2
			c-3.8,3.1-5.6-6.4-5.7-7.9c0.6,9.6,0.5-0.5,0.9-3c0.4-2.1,0.9-4.1,1.8-6c0.8-1.8,2.3-2.7,4.1-3.2c3.2-0.9,4.2,1.9,4.4,4.4
			C981.8,613,982.2,608.7,982,605.7L982,605.7z"/>
	</g>
</g>
<g>
	<g>
		<path fill="#F18700" d="M1058.2,577.7c-1.4,3.4-2.7,6.9-4.1,10.3c-0.1,0.3,0,1.2,0,1.5c0,1.2,0,2.4,0,3.5c0,1.2,0,2.4,0,3.5
			c0,0.2,0.1,1.2,0,1.5c1.4-3.4,2.7-6.9,4.1-10.3c0.1-0.3,0-1.2,0-1.5c0-1.2,0-2.4,0-3.5s0-2.4,0-3.5
			C1058.3,578.9,1058.1,577.9,1058.2,577.7L1058.2,577.7z"/>
	</g>
</g>
<g>
	<g>
		<path fill="#F18700" d="M1052,611.4c4.1,1.2,8.3,1.1,12.3-0.2c0.3-0.1,0-4.7,0-5c0-0.3-0.2-4.9,0-5c-4.1,1.4-8.2,1.4-12.3,0.2
			c0.2,0-0.1,4.7-0.1,5C1052,606.7,1051.8,611.3,1052,611.4L1052,611.4z"/>
	</g>
</g>
<g>
	<g>
		<path fill="#F18700" d="M1059,562.3c-2.3,27.5-5.5,55-9.6,82.3c-0.5,3.3,0.5,6.8,0,10c4.2-27.3,7.4-54.8,9.6-82.3
			C1059.2,568.9,1058.7,565.6,1059,562.3L1059,562.3z"/>
	</g>
</g>
<g>
	<g>
		<path fill="#F18700" d="M1042.8,606.4c10.3,0.8,20.5,2.1,30.7,3.8c-0.5-0.1,0.6-9.9,0-10c-10.2-1.8-20.4-3-30.7-3.8
			C1043,596.5,1042.5,606.4,1042.8,606.4L1042.8,606.4z"/>
	</g>
</g>
<g>
	<g>
		<path fill="#F18700" d="M1068.4,634c5.3-2.4,10.5-4.9,15.8-7.3c0.6-0.3,0.3-9,0-10c-1.9-6.8-11.9,1.3-14.2,3.6
			c-4.6,4.6-4,10.8-4,16.8c0,7.1,2.8,11.5,10.3,12.6c7.5,1.1,15-3.2,19.5-8.9c0.6-0.7,0.1-4.1,0.1-5c0-0.8-0.6-4.3-0.1-5
			c-6.1,7.7-21.3,14-28.4,4c-0.5-0.8-0.8-1.6-1-2.5c1.5,4.7-0.7,5.8,0.9,1.8c1.2-2.9,3.8-5.1,6.2-6.9c2.5-1.9,9.2-5.4,10.6-0.5
			c0-3.3,0-6.7,0-10c-5.3,2.4-10.5,4.9-15.8,7.3C1067.1,624.6,1069.6,633.4,1068.4,634L1068.4,634z"/>
	</g>
</g>
<g>
	<g>
		<path fill="#F18700" d="M292.1,750.5c2.5-4.2,6.4-9.4,6.8-14.3c0.3-3.2,0.1-6.6,0-9.8c-0.2-4.5-5.5-5.5-9-5.1
			c-5.6,0.7-8.9,6.1-10.3,11c-0.9,3.3-0.6,7-0.6,10.4c0,3.8-0.2,7.4,1.9,10.7c3,4.5,8.9,1.7,12.1-0.7c4.7-3.5,8.1-9.2,10.8-14.3
			c0-3.3,0-6.7,0-10c-0.7,6-0.6,12-0.4,18c0.2,6.7,6.4,15,13.7,10.7c1.5-0.9-1.4-9.2,0-10c-3.1,1.8-6,1.2-8.9-0.6
			c-1.4-0.9-2.4-2.3-3.2-3.7c-0.5-1-0.8-2-1.1-3c-1.3-4.4-0.6,3.3,0-1.4c0.2-1.6,0-3.4,0-5c0-1.1-0.6-4,0-5
			c-3.2,6.1-7.3,12.3-13.3,16c-6,3.7-10.9-0.6-11.5-6.7c0,0.5,0,1,0,1.5c0.1,9.1,0.8,1.9,2-0.9c1.3-2.7,3.5-4.6,6-6
			c4.2-2.3,10.6-1.1,11.7,4c0-3.3,0-6.7,0-10c-0.5,5-4.3,10.1-6.8,14.3C290.7,743,293.6,748.1,292.1,750.5L292.1,750.5z"/>
	</g>
</g>
<g>
	<g>
		<path fill="#F18700" d="M374.9,688.9c-1.5,17.3-2.7,34.6-3.8,51.9c-0.1,1.8-1,12.3-0.1,7.1c0.3-1.8,1-3.5,1.8-5.1
			c1.3-2.9,3.5-5.3,5.9-7.4c2.4-2.1,5.4-3.3,8.5-4c1.3-0.3,3.2,11,3.3,12.1c0-1.7,0-3.3,0-5c0,0.6,0,1.2,0,1.8c0-1.7,0-3.3,0.1-5
			c-0.3,3.5-1.2,6.4-3.2,9.3c-0.8,1.1-1.8,2-2.8,2.8c-1.4,1.2-3.5,2.8-3.7,0.3c0,3.3,0,6.7,0,10c0.8-4.9,4.9-7.9,8.5-11
			c4.2-3.7,8.5-7.4,12.7-11.1c0-3.3,0-6.7,0-10c-3.1,4.1-5.7,8.1-5.8,13.4c-0.1,3.5-0.2,7.1,0.2,10.6c0.6,5.7,6.1,8.1,10.8,5.6
			c4.2-2.2,6.2-7.5,6.2-11.9c0.1-7.4,0.9-19.2-10.1-18.1c-4.6,0.5-5.1,3.9-5.1,7.5c0,1.9,0,3.8,0,5.6c0,2.4,2.4,2.8,4.3,3.8
			c-1.3-0.7,1.4-9.3,0-10c-1.6-0.8-3.9-1.3-4.3-3.1c0,3.3,0,6.7,0,10c0.9-3.4,5.5-4.3,8.6-3.7c4.2,0.8,6.2,4.7,6.5,8.6
			c0-3.3,0-6.5,0-9.8c-0.3,5.5-3.6,10.5-9,12.2c-4.8,1.5-7.8-4.3-8.2-8c0,3.3,0,6.5,0,9.8c0.1-4.9,2.9-8.8,5.7-12.6
			c0.6-0.8,0-4.1,0-5c0-0.6-0.5-4.6,0-5c-5.6,4.9-11.2,9.7-16.7,14.6c-4.2,3.8-4.5,7.3-4.5,12.5c0,1.7-0.1,3.3,0,5
			c0.2,2.3,1,1.2,2.6,0.4c1.2-0.6,2.2-1.6,3.1-2.5c3.7-3.7,4.1-9.1,4.1-14c0-5.2,0.1-10.1-1.4-15.2c-0.5-1.7-1.3-3.4-2-5.1
			c-0.1-0.3-3.6,1.1-3.9,1.2c-3,1.2-5.4,3.3-7.5,5.7c-6.2,6.8-6,17.8-4.9,26.4c0-0.1,0-0.1,0-0.2c1.1-18.5,2.5-37,4-55.5
			C375.1,695.6,374.6,692.2,374.9,688.9L374.9,688.9z"/>
	</g>
</g>
<g>
	<g>
		<path fill="#F18700" d="M438.1,713.5c-5.9,10.2-11.7,20.3-17.6,30.5c-1.5,2.5,1.4,7.5,0,10c5.9-10.2,11.7-20.3,17.6-30.5
			C439.6,720.9,436.7,715.9,438.1,713.5L438.1,713.5z"/>
	</g>
</g>
<g>
	<g>
		<path fill="#F18700" d="M418.8,727.6c0.1-0.1,0.1-0.2,0.2-0.3c0.5-0.9,0.7-9.3,0-10c-1.5-1.4-1,3.6-1,4.3c0,2.2-0.6,5.2,0.6,7.2
			c2.5,4.3,6.4,8.1,9.4,12c3.1,4,6.3,8,9.4,12c-0.5-0.7,0.1-4.2,0.1-5c0-0.9,0.5-4.3-0.1-5c-3.1-4-6.3-8-9.4-12
			c-3.3-4.2-7.3-8.3-9.9-12.9c0,3.3,0,6.7,0,10c0.1-0.9,0.2-1.4,1-0.6c0-3.3,0-6.7,0-10c-0.1,0.1-0.1,0.2-0.2,0.3
			C417.3,720.1,420.2,725.1,418.8,727.6L418.8,727.6z"/>
	</g>
</g>
<g>
	<g>
		<path fill="#F18700" d="M475.1,739.3c11.6-7.8,18.7-20.3,20.2-34.2c0.5-4.7,0.3-9.5,0.2-14.2c0-1.7,0.6-7.2-2.1-5.9
			c-2.8,1.3-2.2,10.1-2.4,12.6c-2.9,32.7-1.5,66.2,4.7,98.3c-0.6-3.2,0.5-6.8,0-10c-2.2-15.3-4.8-31.4-15.8-43.2c0,3.3,0,6.7,0,10
			c12.6,2.1,22.7-7.2,30.9-15.5c0-3.3,0-6.7,0-10c-3.4,6-3.5,10.8-3.5,17.5c0,5.1,3.8,12.7,9.6,7.7c3.6-3.1,2.4-11.2,2.4-15.4
			c0-5.5-1-13.1-7.6-14c0,0,0,1.6,0,1.5c0,3.2-0.7,7.3,0.3,10.4c1.7,5.2,10.4,0.6,13.1-0.4c7.1-2.7,6.8,7.5,8.5,11.8
			c1.6,4.2,8.5,5.6,8.8,0.1c0.2-3-0.2-7.3,0-9.6c-0.2,4.1-5,3.7-7.3,1.8c-3.1-2.5-2.8-8.6-4.2-12.1c-3.1-8.1-16,7-19.2-2.5
			c0,2.8,0,5.7,0,8.5c0-0.3,0-0.6,0-1c0,0.5,0,1,0,1.5c2.7,0.4,4.2,1.8,5.6,4.1c0.7,1.1,1,2.5,1.4,3.7c0.5,3,0.6,1.7,0.4-3.7
			c-0.1,0.8-0.3,1.6-0.5,2.4c-2.1,7.6-10.4,4-11.2-2.3c0,3.3,0,6.5,0,9.8c0.1-3.7,1.7-6.7,3.4-9.8c0.6-1,0-3.9,0-5
			c0-0.7-0.5-4.5,0-5c-8.2,8.3-18.3,17.6-30.9,15.5c0.7,0.1-0.8,9.1,0,10c11,11.7,13.6,27.9,15.8,43.2c0-3.3,0-6.7,0-10
			c-5.2-27.2-7-54.6-4.3-82.2c0.2-2.3,0.4-4.6,0.9-6.9c0.5-2,2.6-3.3,3-0.5c0.3,4.5,0.4,3.7,0.2-2.5c-0.1,1.9-0.4,3.8-0.7,5.6
			c-0.4,2.4-1.1,4.8-1.9,7.1c-3.2,9.3-9.6,17.3-17.7,22.8C473.5,730.3,476.6,738.2,475.1,739.3L475.1,739.3z"/>
	</g>
</g>
<g>
	<g>
		<path fill="#F18700" d="M573.5,741.3c1,2.9,0.8,3.5,3.9,3.5c1.9,0,3.7-0.6,5.4-1.3c4-1.5,7.1-4.8,9.3-8.4c3.2-5.3,2.4-13.3,2-19.3
			c0-0.1,0-0.1,0-0.2c-4.4,1.5-3,11.8-2.7,15.4c0.4,4.2,1.1,8.4,4.4,11.3c4,3.5,7.9,0.1,9.5-3.7c1.5-3.6,2.4-7.5,6.9-8.2
			c4.6-0.8,4.4,11.5,4.7,14c0.5,4.2,1.4-1.4,2-2.8c1-2.6,2.3-5.1,3.6-7.5c1.1-2,2-4.2,4.2-5c2.8-0.9,3.9,3.8,4,5.3
			c0-3.3,0-6.5,0-9.8c-0.4,4.4-3.3,19.7,3.7,20c0,0,0.2-10,0-10c-2.7-0.1-3.8-2.2-4.2-4.7c0,3.3,0,6.5,0,9.8
			c0.2-5.5,2.8-15.7-1.5-19.9c-3.5-3.5-6.8,5.2-7.8,7.2c-1,2-1.9,4-2.7,6.1c-0.4,1-0.8,2.1-1.1,3.1c0.4-1.2-0.6-4.3-0.7-5.6
			c-0.5-3.5,0-11-5.4-10.1c-4,0.7-5,6.2-6.2,9.2c-1.7,4-5.5,4.7-9,2.5c-3.5-2.2-4-7.7-4.4-11.3c0,2.5,0,5,0,7.5c0-0.4,0-0.8,0-1.2
			c0,0.8,0,1.7,0,2.5c0.2-1.2,0.4-2.1,1-3.2c1-1.9,2.3-10.1,1.3-5.4c-0.7,3.2-2.8,6-5,8.4c-2,2.1-4.5,3.4-7.1,4.4
			c-1.3,0.5-2.7,0.6-4.1,0.8c-3.1,0.3-3-0.8-3.9-3.5C574.5,734.3,572.5,738.3,573.5,741.3L573.5,741.3z"/>
	</g>
</g>
<g>
	<g>
		<path fill="#F18700" d="M660.4,705.6c-5.7,7.5-7.5,16.5-8.6,25.7c-1.2,10.3-2,20.6-3,31c-0.3,3.3,0.3,6.7,0,10
			c1-10.3,1.9-20.6,3-31c1-9.2,2.9-18.3,8.6-25.7C662.1,713.5,658.9,707.7,660.4,705.6L660.4,705.6z"/>
	</g>
</g>
<g>
	<g>
		<path fill="#F18700" d="M633.4,733.2c8.2,1.9,16.4,2.5,24.8,1.7c0.4,0-0.2-10,0-10c-8.4,0.8-16.6,0.2-24.8-1.7
			C634.1,723.4,632.6,733,633.4,733.2L633.4,733.2z"/>
	</g>
</g>
<g>
	<g>
		<path fill="#F18700" d="M682.4,727.1c-0.7-4-3.9-5.8-7.7-6c-4.7-0.2-7.4,5-8.2,8.9c-0.6,2.8-0.2,6-0.2,8.9c0,3.5-0.3,7.4,3.4,9.2
			c7.6,3.7,12.7-14.7,12.7-19c0.1-6.2,0.9-19.8-9.4-17.3c-0.8,0.2,0.7,9.8,0,10c5.5-1.3,9.1,3.5,9.4,8.6c0-3.3,0-6.5,0-9.8
			c-0.4,5.2-2.9,10.2-5.8,14.5c-3.6,5.4-10.1,3.4-10.2-3c0,3.1,0,6.2,0,9.3c0.4-4.6,2.5-8.6,7.1-10.1c4-1.3,8.2,2,8.9,5.8
			C681.8,733.9,683,730.3,682.4,727.1L682.4,727.1z"/>
	</g>
</g>
<g>
	<g>
		<path fill="#F18700" d="M700.8,732.6c3.6-2,6.8-4.2,8.8-7.8c1.2-2.2,0.8-5.1,0.8-7.5c0-5,0.5-13.5-6.8-13.1c0.2,0-0.6,9.8,0,10
			c3.1,1.3,6.1,1.9,9.5,1.9c1.6,0,3.3-0.4,4.8-0.8c3-0.7,3.3-1.8,3.9,1.8c0-2.8,0-5.7,0-8.5c0,0.5,0,1.1,0,1.6c0-0.5,0-1,0-1.5
			c-0.7,4.8-2.4,9.1-2.4,14c0,4.2-1,9.8,2.5,12.8c5.1,4.3,11.8-5.3,14.2-8.4c1.8-2.3,3.3-5.1,6.3-5.9c4-1.1,5.8,4.6,5.9,7.2
			c0-3.3,0-6.5,0-9.8c-0.2,1.8-0.5,3.4-0.9,5.1c-0.7,3.1,0.9,6.9,0,10c1.5-5.2,4.9-13.8,10.6-15.4c2.1-0.6,4.6,4.6,5.3,5.9
			c0.6,1.2,1,2.6,1.3,4c0.4,2.8,0.4,1.8,0.1-3.1c-0.2,0.9-0.4,1.8-0.7,2.7c-0.2,0.4-0.4,0.9-0.5,1.3c-0.4-2.8-0.5-1.9-0.2,2.6
			c0.2-1.5,0.7-2.9,1.2-4.3c1-2.8,2.9-5.2,5-7.3c0.4-0.4,4.8,7.2,5.1,7.8c1.8,3.7,2.5,7.9,2.6,12c-0.1-2.4,0.1-6.6,0-9.6
			c-0.1-4.9-1.2-9.4-3.4-13.8c-1.1-2.4-2.7-4.5-4.5-6.4c-0.3-0.4-4.1,5.4-4.4,5.9c-3.3,6.2-2.8,16.2-1.6,23
			c-0.2-1.2,1.4-4.1,1.5-5.5c0.1-1.6,0.1-3.3,0.1-4.9c0-3.5,0.2-7-0.4-10.5c-0.6-3.5-3.6-10.7-7.9-9.5c-2,0.6-4.2,4.4-5.3,6
			c-1.9,2.7-3,5.9-3.9,9c0,3.3,0,6.7,0,10c1.4-5.8,3.8-22.1-5-22.5c-2.2-0.1-4,3-5.1,4.4c-2.1,2.7-4.1,5.5-6.6,7.9
			c-4.5,4.2-10.6,3.4-11.2-3.2c0,3.3,0,6.5,0,9.8c0.1-4,2.2-7.6,2.4-11.6c0.1-3,0.1-6,0-8.9c0-0.8,0.1-1.7,0-2.5
			c-0.6-3.4-1-2.8-3.9-1.8c-4.7,1.6-9.9,0.8-14.4-1.1c0,3.3,0,6.7,0,10c4.1-0.2,6.3,3,6.8,6.7c0-3.1,0-6.2,0-9.3
			c-0.1,5.3-5.5,8.7-9.6,11C699.3,723.4,702.1,731.9,700.8,732.6L700.8,732.6z"/>
	</g>
</g>
<g>
	<g>
		<path fill="#F18700" d="M804.5,700.6c-8.7-3.9-17.8-1.3-24.1,5.6c-5.4,6-5.4,13.3-5.3,20.9c0,7.8,4.5,12.3,12.5,10.5
			c8.6-1.9,14.1-11,15.9-19c0.7-3.1-1-7.1,0-10c-2.3,6.2-2.3,12.3-2.2,18.8c0,4-0.4,12.1,5.4,11.8c0.2,0-0.1-10,0-10
			c-2.7,0.1-3.8-1.7-4.8-4c-1.2-3-0.8,2.9,0-1.4c0.3-1.8,0.9-3.5,1.6-5.2c0-3.3,0-6.7,0-10c-1.7,7.6-6.2,14.8-13.5,18.2
			c-6.7,3.1-14.2,0.7-14.9-7.2c0,3.3,0,6.5,0,9.8c0.4-14.6,16-24.8,29.3-18.8C803.3,710,805.8,701.2,804.5,700.6L804.5,700.6z"/>
	</g>
</g>
<g>
	<g>
		<path fill="#F18700" d="M823.4,668.1c-7.5,23.9-9.2,49.2-7.1,74.1c-0.3-3.3,0.3-6.7,0-10c-1.5-18.3,1.6-36.7,7.1-54.1
			C824.4,675.1,822.4,671.1,823.4,668.1L823.4,668.1z"/>
	</g>
</g>
<g>
	<g>
		<path fill="#F18700" d="M805.7,711.6c6.5-3.3,13.4-5.9,20.5-7.7c0.9-0.2-0.7-9.8,0-10c-7.1,1.8-13.9,4.4-20.5,7.7
			C804.3,702.3,807,710.9,805.7,711.6L805.7,711.6z"/>
	</g>
</g>
<g>
	<g>
		<path fill="#F18700" d="M831.1,729.7c1.3-8.3,3.2-16.4,5.7-24.5c0.9-2.9-1.2-7.2,0-10c-2.2,5.2-3.7,9.9-3.7,15.5
			c0,4.8-0.5,9.7,1.7,14.2c1.1,2.3,3.8,5.1,6.2,3.5c2.6-1.8,4.9-3.9,7.1-6.2c4.8-4.9,8.3-10.8,10.7-17.1c0.5-1.3,0-3.7,0-5
			c0-1-0.6-4.1,0-5c-2.7,4.4-5.1,8.7-5.8,13.8c-0.4,3-0.1,6.2-0.1,9.2c0,7.3,6.1,16.8,14,10.7c6-4.6,5.8-15,5.8-21.8
			c0-3.3,0.1-6.5-1.3-9.5c-2-4.2-7.2-4.9-10.5-1.9c-4.3,4-3.7,15.1-2.3,20.3c1.1,4.2,6.2,4.5,9.1,2.3c4.3-3.3,7.7-9.1,11.2-13.2
			c0.7,0.6,1.2,1.4,1.5,2.2c0.7,2.6,0.9,1.7,0.6-2.8c-0.1,1.7-0.1,3.3-0.1,5c0,3.4-0.2,6.8,0.3,10.1c0.2,1.7,1,3.1,2.1,4.3
			c2.6,2.9,3.5-2.1,4.4-3.9c2.6-5.6,5.2-11.2,7.8-16.8c0-3.3,0-6.7,0-10c-0.6,5.3-0.5,10.7-0.4,16.1c0,2.4,0.2,4.8,0.5,7.1
			c0.2,1.9,0.7,3.7,1.2,5.6c0,0,3-3.8,3.3-4.3c3-5.4,3.1-11.7,8.1-15.9c6.1-5.2,6.6,5.5,6.7,9c0.1,1.9,0.2,3.6,0.6,5.5
			c0.2,0.9,0.7,1.7,1.3,2.5c1.6,2.2,1.7,0.4,2.3-1.2c0.9-2.4,2.3-4.4,4.8-5.1c2.5-0.8,3.4,6.7,3.7,8.4c-0.9-6.4,0.1-4.4-0.7-1.4
			c-0.4,1.4-1.1,2.7-1.8,3.9c-1.5,2.6-4,4.3-6.7,5.5c-4.9,2.2-10.8,1.1-14.4-2.9c0.5,0.5,0,4.3,0,5c0,0.8-0.5,4.4,0,5
			c3.5,3.9,8.3,4.6,13.2,3.3c5.9-1.5,9.3-6.9,10.3-12.6c0.8-4.4,0.3-9.3,0.2-13.7c0-2.2-0.5-4.4-1-6.5c-0.4-1.4-1-2.8-1.6-4.1
			c-0.5-1.2-3.7,1.5-4,1.8c-0.9,0.9-1.4,2.2-1.9,3.4c-0.5,1.2-0.1,3-1.6,1.9c-2.2-1.5-2.4-4.9-2.5-7.2c-0.2-4.2,0.4-8.9-3.1-12
			c-1.5-1.3-5.8,3.6-6.4,4.5c-1.9,2.6-2.8,6-3.8,9.1c-0.9,2.7-2,5.1-3.8,7.2c-1.9,2.3-1.6-1.5-1.8-2.8c-0.2-1.2-0.4-2.5-0.5-3.8
			c-0.3,3.4-0.2,3,0.2-1.4c0.2-1.6,0-3.4,0-5c0-1.2-0.6-3.9,0-5c-1.8,3.9-3.7,7.8-5.5,11.7c-0.8,1.7-1.6,3.4-2.4,5
			c-0.8,1.7-1.4,5.4-3.5,4.6c-1.1-0.4-1.8-1.6-2.3-2.6c-0.4-0.8-0.6-1.6-0.8-2.4c-0.2,5-0.2,6-0.1,3.1c0.1-2.9,0.1-5.9,0-8.8
			c0-2.3-0.1-4.4-0.8-6.6c-0.7-2.2-1.2-2.6-2.7-0.8c-1.6,1.9-3.1,3.7-4.7,5.6c-2.3,2.7-4.3,6-7.6,7.6c-4.3,2-7.2-3.7-7.3-6.8
			c0,3.3,0,6.5,0,9.8c0.6-4.6,3.1-9.6,8.4-8.9c2.1,0.3,3.7,2.1,4.9,3.8c1.6,2.3,0.1,5.2,0.9-0.9c-0.2,1.5-0.7,3-1.1,4.4
			c-1.3,4.6-3.8,9-8.9,9.7c-5.4,0.8-8.9-5.8-9.4-10.2c0,3.1,0,6.2,0,9.3c0.1-5.5,3-10.2,5.8-14.8c0-3.3,0-6.7,0-10
			c-3.3,8.4-8.4,15.6-15.3,21.4c-1.6,1.3-3,3.1-5,2.2c-2.1-0.9-3.4-3.1-4.3-5c-0.4-0.9-0.6-1.7-0.8-2.6c-0.2,4.4-0.1,5.1,0.4,2.2
			c0.6-2.8,1.9-5.4,3-8c0-3.3,0-6.7,0-10c-2.5,8-4.4,16.2-5.7,24.5C830.6,723,831.6,726.5,831.1,729.7L831.1,729.7z"/>
	</g>
</g>
<g>
	<g>
		<path fill="#E30613" d="M72.3,167.9c23.3-10.7,48-17.8,73.4-21.1c12.7-1.7,25.5-2.3,38.2-2c12.2,0.3,25,1.1,35.3,8.1
			c-0.7-0.5,0.8-4.5,0-5c-9.9-6.8-21.8-7.7-33.5-8.1c-12.8-0.5-25.6,0.2-38.2,1.7c-26,3.1-51.4,10.5-75.2,21.4
			C71.7,163.2,72.9,167.6,72.3,167.9L72.3,167.9z"/>
	</g>
</g>
</svg>
