<?xml version="1.0" encoding="utf-8"?>
<!-- Generator: Adobe Illustrator 18.0.0, SVG Export Plug-In . SVG Version: 6.00 Build 0)  -->
<!DOCTYPE svg PUBLIC "-//W3C//DTD SVG 1.1//EN" "http://www.w3.org/Graphics/SVG/1.1/DTD/svg11.dtd">
<svg version="1.1" id="Camada_1" xmlns="http://www.w3.org/2000/svg" xmlns:xlink="http://www.w3.org/1999/xlink" x="0px" y="0px"
	 viewBox="0 0 1600 900" enable-background="new 0 0 1600 900" xml:space="preserve">
<g>
	<g>
		<path d="M1417.1,409c0,0,0-5,0-5S1417,409,1417.1,409L1417.1,409z"/>
	</g>
</g>
<g>
	<g>
		<path d="M1314.8,706.7c0,0,0-5,0-5C1314.7,701.7,1314.7,706.7,1314.8,706.7L1314.8,706.7z"/>
	</g>
</g>
<g>
	<g>
		<path d="M373.9,482.1c0,0,0-5,0-5S373.9,482.1,373.9,482.1L373.9,482.1z"/>
	</g>
</g>
<g>
	<g>
		<path fill="#009640" d="M301,192.9c-9.5-9.1-16.3,18.6-16.4,24c-0.2,9.6,1.8,18.4,10.6,23.7c4.9,3,11,4,16.4,5.5
			c6.4,1.8,11.8,4.9,16.3,9.8c6.7,7.3,12.2,28.9,25.7,18.2c7.5-6,10-14.7,9.7-23.8c-0.4-9.8-12.3-15.6-17-23.2
			c-2.9-4.7-2.3-10.5-2.4-15.8c-0.1-5.9-1.4-11.1-4.8-16c-7.4-10.6-21.2-13-32.7-8.5c-3.8,1.4-7.1,3.8-10,6.6c-0.9,0.8,0.8,4.2,0,5
			c7.5-7,17.4-10.3,27.5-8.2c9.9,2.1,17.6,10.7,19.5,20.5c1.7,8.8-1.1,16.6,4.9,24.4c5.3,6.9,14.7,11.6,14.9,21.4c0-1.6,0-3.1,0-4.7
			c-1,10.4-12.6,26.3-23.6,17.1c-4.7-3.9-6.5-10.8-9.9-15.6c-3.8-5.4-9.2-9-15.4-11.2c-11.4-4.1-23.7-4.8-28.6-17.7
			c-2.4-6.5,0.1-13.1,2.9-19c2-4.2,6.9-12.5,12.2-7.4C300.2,197.1,301.9,193.7,301,192.9L301,192.9z"/>
	</g>
</g>
<g>
	<g>
		<path fill="#E30613" d="M325.2,210.4c16.5-25.4,50.5-37.8,79.2-42.3c0,0,0.3-4.8,0-5c-2.8-1.9-5.4-2.5-8.7-2.1c0,0-0.2,5,0,5
			c3,0.8,5.9,1.5,8.9,2.3c0-1.7,0-3.3,0-5c-1.5,2-3.1,3.8-5,5.5c-0.8,0.7,0.8,4.3,0,5c1.9-1.7,3.5-3.4,5-5.5c0.2-0.3,0.1-5,0-5
			c-3-0.8-5.9-1.5-8.9-2.3c0,1.7,0,3.3,0,5c3.3-0.4,6,0.2,8.7,2.1c0-1.7,0-3.3,0-5c-28.6,4.5-62.7,16.9-79.2,42.3
			C324.4,206.6,325.9,209.3,325.2,210.4L325.2,210.4z"/>
	</g>
</g>
<g>
	<g>
		<path fill="#E30613" d="M354.5,257.6c8,15.1,28.6,16.2,43.6,15.9c20-0.4,39.6-5.9,59-10c31.1-6.6,69-9.9,93.9,14.1
			c0-1.7,0-3.3,0-5c-6,3.1-12.6,3-18.5-0.1c0,1.7,0,3.3,0,5c5.8,1.7,11.6,3.4,17.3,5.2c0,0,0-0.1,0-0.1c0.3-5.6,0.5-11.1,0.8-16.7
			c0.1-1.5-0.1-3.6,0-4.8c-0.1,2.5-0.2,4.9-0.3,7.4c-0.1,1.2,0.5,9.4-2.2,8.7c-5.2-1.6-10.4-3.1-15.6-4.7c0.5,0.2-0.6,4.7,0,5
			c6,3.1,12.5,3.2,18.5,0.1c0.2-0.1,0.2-4.8,0-5c-24.4-23.6-61.4-20.8-92.1-14.5c-19.6,4-38.9,9.3-59,10.3
			c-15.4,0.8-37.2-0.3-45.4-15.8C355.1,253.9,353.8,256.3,354.5,257.6L354.5,257.6z"/>
	</g>
</g>
<g>
	<g>
		<path fill="#E30613" d="M536.3,314.5c-0.5-0.6-1-1.3-1.6-1.9c0,1.7,0,3.3,0,5c1.7-7.6,13.1-3.1,11.6,4.1
			c-0.9,4.4-3.3,8.5-6.2,11.9c-2.9,3.5-7.1,4-8.2-1.1c0,1.7,0,3.3,0,5c0.8-8.4,10.4-4.5,13.9-0.5c-0.8-0.9,0.8-4,0-5
			c-3.3-3.8-8.2-6.4-12.6-2.7c-1.8,1.5-1.3,4.9-1.3,7c0,3.6,2.5,6.5,6.1,4.5c4.8-2.6,7.6-10.5,8.5-15.4c1.1-5.4,1-14.6-5.1-16.5
			c-2.8-0.9-6.8,0.9-6.8,4.1c-0.1,2.9-0.3,4.3,1.6,6.6C535.5,318.5,537.1,315.5,536.3,314.5L536.3,314.5z"/>
	</g>
</g>
<g>
	<g>
		<path fill="#E30613" d="M564.5,327.2c0,0,0-5,0-5S564.4,327.2,564.5,327.2L564.5,327.2z"/>
	</g>
</g>
<g>
	<g>
		<path fill="#009640" d="M624.6,279.1c0,7.4,0,14.9,0,22.3c0,2.8,0,2.8,0,0C624.7,294,624.7,286.5,624.6,279.1
			C624.7,276.3,624.6,276.3,624.6,279.1L624.6,279.1z"/>
	</g>
</g>
<g>
	<g>
		<path fill="#009640" d="M622.7,280.6c3.1-0.9,6.2-1.8,9.3-2.8c1.6-0.5,6.4-2.9,7.4-0.3c0-1.7,0-3.3,0-5c-0.1,0.1-0.2,0.3-0.3,0.4
			c-0.7,1.2,0.7,3.8,0,5c0.7-1.2,0.8-5.3-0.4-6.2c-1.6-1.3-5.1,0.6-6.8,1.1c-3.1,0.9-6.2,1.8-9.3,2.8
			C622.3,275.8,623.2,280.5,622.7,280.6L622.7,280.6z"/>
	</g>
</g>
<g>
	<g>
		<path fill="#009640" d="M622.7,296.1c4.7,0.4,9.2-0.2,13.6-1.9c0.6-0.2-0.5-4.8,0-5c-4.4,1.7-8.9,2.3-13.6,1.9
			C622.8,291.1,622.5,296.1,622.7,296.1L622.7,296.1z"/>
	</g>
</g>
<g>
	<g>
		<path fill="#009640" d="M610.1,268.1c5.8-1.3,11.6-2.6,17.4-3.9c0,0,0.3-4.8,0-5c-1.5-1.3-2.7-1.8-4.7-1.8c0,1.7,0,3.3,0,5
			c3.3-1.2,6.4-1.3,9.8-0.3c0-1.7,0-3.3,0-5c-0.7,1.7-1.3,3.3-2,5c-0.6,1.4,0.6,3.6,0,5c0.7-1.7,1.3-3.3,2-5c0.2-0.4,0.2-4.9,0-5
			c-3.4-1.1-6.4-1-9.8,0.3c-0.3,0.1,0.2,5,0,5c2,0,3.2,0.4,4.7,1.8c0-1.7,0-3.3,0-5c-5.8,1.3-11.6,2.6-17.4,3.9
			C609.7,263.2,610.4,268,610.1,268.1L610.1,268.1z"/>
	</g>
</g>
<g>
	<g>
		<path fill="#009640" d="M642,307.8c-0.5-1-0.7-1.8-0.9-2.9c0,1.6,0,3.1,0,4.7c0.1-3.8,0.6-0.4,0.9,0.5c0.4,1.4,0.8,2.9,1.1,4.4
			c0.6,3,1,6,1.2,9c-0.1-1.7,0.1-3.3,0-5c-0.2-2.6-0.5-5.3-1-7.9c-0.3-1.5-0.6-3-1-4.4c-0.2-0.8-0.7-4.7-1.1-2.2
			c-0.5,2.7-0.3,6.5,0.9,9C641.3,311.4,642.6,309.1,642,307.8L642,307.8z"/>
	</g>
</g>
<g>
	<g>
		<path fill="#009640" d="M659.6,291.7c2.4,0.3,4.7-0.3,6.7-1.6c0.2-0.2,0-2.2,0-2.5c0-0.2-0.2-2.4,0-2.5c-2,1.4-4.3,1.9-6.7,1.6
			C659.7,286.7,659.3,291.7,659.6,291.7L659.6,291.7z"/>
	</g>
</g>
<g>
	<g>
		<path fill="#009640" d="M660.5,301.3c2.9,0.8,5.9,0.6,8.7-0.6c0.6-0.3-0.6-4.8,0-5c-2.8,1.2-5.8,1.4-8.7,0.6
			C660.9,296.4,660.1,301.2,660.5,301.3L660.5,301.3z"/>
	</g>
</g>
<g>
	<g>
		<path fill="#009640" d="M630.3,351.5c0.7,7.8,1.4,15.5,2.1,23.3c-0.2-1.6,0.2-3.3,0-5c-0.7-7.8-1.4-15.5-2.1-23.3
			C630.5,348.2,630.2,349.9,630.3,351.5L630.3,351.5z"/>
	</g>
</g>
<g>
	<g>
		<path fill="#009640" d="M625.5,348.3c4.2-1.9,8.4-3.8,12.7-5.7c0.7-0.3-0.6-4.7,0-5c-4.2,1.9-8.4,3.8-12.7,5.7
			C624.9,343.6,626.1,348.1,625.5,348.3L625.5,348.3z"/>
	</g>
</g>
<g>
	<g>
		<path fill="#009640" d="M626.8,361.1c3.8-0.9,7.7-1.8,11.5-2.7c0.4-0.1-0.3-4.9,0-5c-3.8,0.9-7.7,1.8-11.5,2.7
			C626.4,356.2,627.2,361.1,626.8,361.1L626.8,361.1z"/>
	</g>
</g>
<g>
	<g>
		<path fill="#009640" d="M645.3,367c0.2,0.5,0.3,1.1,0.4,1.6c0.5,2.4,0.4-1.7,0.1,0.7c-0.2,1.6-0.8,3.2-1.5,4.7
			c-1.3,2.8-3.8-2.4-4.1-3.5c0,1.7,0,3.3,0,5c3.4-1.5,6.9-2.1,10.7-1.8c-0.1,0,0.2-5,0-5c-3.7-0.3-7.2,0.3-10.7,1.8
			c-0.3,0.1-0.1,4.5,0,5c0.5,1.8,1.2,3.7,3.1,4.2c1.7,0.5,2.6-5.9,2.7-7c0.3-3.5,0.3-7.3-0.6-10.7
			C645.7,363.5,644.9,365.4,645.3,367L645.3,367z"/>
	</g>
</g>
<g>
	<g>
		<path fill="#009640" d="M617.8,338.4c4.3-0.3,8.5-1.1,12.7-2.2c0.2-0.1,0-5,0-5c-1-0.1-2-0.2-3-0.2c0,1.7,0,3.3,0,5
			c1.7-4.5,7.5-3.8,8,1c-0.2-1.6,0.2-3.4,0-5c-0.6-4.8-6.3-5.5-8-1c-0.2,0.4,0,5,0,5c1,0.1,2,0.2,3,0.2c0-1.7,0-3.3,0-5
			c-4.2,1.2-8.4,1.9-12.7,2.2C617.7,333.4,617.9,338.4,617.8,338.4L617.8,338.4z"/>
	</g>
</g>
<g>
	<g>
		<path fill="#009640" d="M667.4,347.7c1.9-0.4,3.9-0.8,5.8-1.1c0.4-0.1-0.3-4.9,0-5c-1.9,0.4-3.9,0.8-5.8,1.1
			C667,342.8,667.7,347.6,667.4,347.7L667.4,347.7z"/>
	</g>
</g>
<g>
	<g>
		<path fill="#009640" d="M669.3,350.9c-1.3-0.4-0.8,4.8-0.7,5.6c0.2,1.6,2.5,0.3,3.3,0c1.7-0.7,3.5-1.5,5.2-2.2
			c0.2-0.1,0-2.3,0-2.5c0-0.2-0.1-2.4,0-2.5c-1.5,0.7-3.1,1.3-4.6,2c-0.8,0.3-3.7,2-3.8,0.3c0,1.7,0,3.3,0,5
			c0.1-0.4,0.3-0.7,0.7-0.6C668.8,355.8,669.8,351.1,669.3,350.9L669.3,350.9z"/>
	</g>
</g>
<g>
	<g>
		<path fill="#009640" d="M698.5,344.7c0,0,0-5,0-5S698.4,344.7,698.5,344.7L698.5,344.7z"/>
	</g>
</g>
<g>
	<g>
		<path fill="#009640" d="M710.1,343.7c0,0,0-5,0-5C710.1,338.7,710.1,343.7,710.1,343.7L710.1,343.7z"/>
	</g>
</g>
<g>
	<g>
		<path fill="#009640" d="M720.8,341.8c0,0,0-5,0-5C720.7,336.8,720.7,341.8,720.8,341.8L720.8,341.8z"/>
	</g>
</g>
<g>
	<g>
		<path fill="#009640" d="M730.5,338.9c0,0,0-5,0-5C730.5,333.9,730.5,338.9,730.5,338.9L730.5,338.9z"/>
	</g>
</g>
<g>
	<g>
		<path fill="#009640" d="M697.5,288.4c0,0,0-5,0-5C697.4,283.4,697.4,288.4,697.5,288.4L697.5,288.4z"/>
	</g>
</g>
<g>
	<g>
		<path fill="#009640" d="M709.1,286.4c0,0,0-5,0-5C709.1,281.4,709.1,286.4,709.1,286.4L709.1,286.4z"/>
	</g>
</g>
<g>
	<g>
		<path fill="#F18700" d="M670.3,414.6c1.9-0.6,3.9-1.3,5.8-1.9c0.1,0,0-2.3,0-2.5c0-0.2-0.1-2.5,0-2.5c-1.9,0.6-3.9,1.3-5.8,1.9
			c-0.1,0,0,2.3,0,2.5C670.3,412.3,670.4,414.6,670.3,414.6L670.3,414.6z"/>
	</g>
</g>
<g>
	<g>
		<path fill="#F18700" d="M670.8,425c2.3-1.1,5-1.7,7.4-2.4c0.1,0,0-2.3,0-2.5c0-0.2-0.1-2.5,0-2.5c-2.4,0.8-5.1,1.4-7.4,2.4
			c-0.2,0.1,0,2.3,0,2.5C670.7,422.7,670.9,424.9,670.8,425L670.8,425z"/>
	</g>
</g>
<g>
	<g>
		<path fill="#F18700" d="M718.5,405.7c-0.9-6.7-8.8-9.8-14.1-5.9c-3.8,2.8-3.6,7.9-3.6,12c0,2.2,0.3,4,1.3,6
			c2.2,4.2,6.8,2.4,8.8-0.7c2.1-3.2,1.1-9.6,0.9-13.2c0,1.6,0,3.3,0,4.9c0.8,5.1,4,10.5,9.9,8.7c4-1.2,3.3-5.4,3.3-8.6
			c0-3.1,0,1.8,0,2.5c0,0.4,0,0.7,0,1.1c0-1.3,0-2.5,0-3.8c-0.9,3.4-4.3,4.8-7.6,3.9c-3.6-1-5.1-5.6-5.6-8.8c0.3,1.6-0.1,3.3,0,4.9
			c0.2,1.6,0.2,1.9,0,0.7c-0.2,1.4-0.8,2.5-1.5,3.7c-1.2,1.8-3.3,2.3-5.3,2.1c-2-0.2-3.2-2.8-3.8-4.4c-0.3-1.3-0.3-1.4-0.2-0.5
			c0.2-1.1,0.7-2.1,1.2-3.1c3.9-7.5,15.2-4.3,16.2,3.4C718.3,409.1,718.8,407.4,718.5,405.7L718.5,405.7z"/>
	</g>
</g>
<g>
	<g>
		<path fill="#F18700" d="M736.2,412.5c3.2-3,4.2-6.7,4.2-11c0-1.6,0-3.3-0.1-4.9c-0.1-1.6-0.3-2-0.7-0.3c-0.2,0.8-0.2,1.7-0.2,2.5
			c-0.1,3.3-0.2,6.5,1.2,9.6c0.9,2,2.5,3.7,4.3,4.9c0.8,0.5,1.7,0.9,2.7,1.2c0.5,0.1,1,0.2,1.4,0.3c0.1,0,0.9-2.9,1-3.1
			c0.5-1.5-0.5-3.5,0-5c-0.3,1-0.7,2.1-1,3.1c-0.1,0.3-2.6-0.7-2.8-0.8c-1.8-0.7-3.3-2.2-4.5-3.7c-1.1-1.4-1.7-3-2.1-4.7
			c-0.2-1.4-0.3-1-0.1,1.4c0.1-0.5,0.2-1,0.3-1.4c0.5-1.9,0.6,1.4,0.6,1.8c0-0.2,0-0.5,0-0.7c0-3.8-0.7,0.5-1.1,1.6
			c-0.7,1.6-1.8,2.9-3,4.1C735.3,408.3,737,411.7,736.2,412.5L736.2,412.5z"/>
	</g>
</g>
<g>
	<g>
		<path fill="#F18700" d="M736.3,381.4c-0.3,0.3-0.7,0.7-1,1c-0.3,0.3-0.9,1.4-1.1,0.6c0,0.6,0,1.2,0,1.8c0-0.1,0-0.2,0-0.4
			c0,1.1,0,2.1,0,3.2c0.4-2.1,2.8-2.9,4.7-2.4c2.5,0.7,3.6,4,4.3,6.1c-0.5-1.5,0.5-3.5,0-5c-1.1-3.2-3.3-7.8-7.4-5.8
			c-1.6,0.8-1.5,2.3-1.5,3.9c0,1.1,0,2.1,0,3.2c0,0.3,0,0.4,0.1,0.7c0-0.3,1.8-1.7,2-2c0.3-0.3,0-2.1,0-2.5
			C736.3,383.6,736.1,381.7,736.3,381.4L736.3,381.4z"/>
	</g>
</g>
<g>
	<g>
		<path fill="#F18700" d="M771.2,394.2c1,4.5,2,9,3,13.6c-0.4-1.6,0.4-3.4,0-5c-1-4.5-2-9-3-13.6
			C771.6,390.8,770.9,392.6,771.2,394.2L771.2,394.2z"/>
	</g>
</g>
<g>
	<g>
		<path fill="#F18700" d="M767.3,404.7c4.1-1.4,8.4-2.2,12.7-2.5c0.1,0,0-5,0-5c-4.4,0.2-8.6,1-12.7,2.5
			C766.8,399.9,767.8,404.5,767.3,404.7L767.3,404.7z"/>
	</g>
</g>
<g>
	<g>
		<path fill="#F18700" d="M786.2,373.9c1.2,7,1.9,14,1.4,21.2c-0.1,1.4,0.5,3.6,0,4.9c1-2.8,2.5-5.1,4.5-7.2c1-1,2.2-1.8,3.4-2.6
			c0.3-0.2,2.3,2.7,2.4,2.9c1.2,1.8,2,4,1.5,6.1c-0.3,1.3-0.9,2.4-1.5,3.5c-1.3,2.5-2.1,2.1-2.7-0.5c0,1.7,0,3.3,0,5
			c0.1-0.5,0.2-0.9,0.2-1.4c0.3-1.6-0.3-3.4,0-5c-0.3,1.9-0.7,4.5-0.2,6.4c1,4.6,2.8,0.5,3.7-1.8c0.8-1.8,0.8-3.8,0.9-5.8
			c0-3.2,0.1-6.2-0.9-9.3c-0.4-1.2-1.1-2.3-1.8-3.4c-1.5-2.3-2.1-1.8-4.1-0.2c-2.7,2-4.4,5.1-5.6,8.2c0,1.6,0,3.3,0,4.9
			c0.7-10.3,0.4-20.8-1.4-31C786.5,370.5,785.9,372.3,786.2,373.9L786.2,373.9z"/>
	</g>
</g>
<g>
	<g>
		<path fill="#F18700" d="M810.8,401.9c1-5.7,1-11.8,0.1-17.5c0,1.7,0,3.3,0,5c3.3,7.3,6.3,14.7,9,22.3c2.5,6.8,5.6,14,6.2,21.3
			c0-0.6,0-1.2,0-1.8c0,0.5,0,1,0,1.5c0-1.1,0-2.1,0-3.2c-0.1,1.5-0.4,2.8-0.9,4.3c-0.7,2.1-1.6,1.2-3.3,0.7c-3-0.9-5.3-3.4-7.1-5.9
			c-5-7-2.2-15.2,0-22.7c0.5-1.5-0.4-3.5,0-5c-2.1,7.1-3.4,13.9-3.1,21.3c0.2,4.7,1.3,8.7,4,12.6c1.3,1.8,3.1,3.2,5.1,4.3
			c0.8,0.4,1.6,0.7,2.5,0.9c2,0.6,1.9-0.9,2.5-2.5c1.7-5,0.3-12.3-1.1-17c-3.5-12.3-8.5-24.3-13.7-36c0.6,1.3-0.2,3.6,0,5
			c0.4,2.5,0.4,5-0.1,7.5C810.5,398.5,811.1,400.3,810.8,401.9L810.8,401.9z"/>
	</g>
</g>
<g>
	<g>
		<path fill="#F18700" d="M804.2,367.6c-2.1,1-3.4,2.8-3.6,5.1c-0.1,1.5,0.4,3.5,0,5c0.8-2.9,2.4-5.3,4.6-7.3
			c0.8-0.7,0.9-1.1,1.6-0.1c0.5,0.7,1,1.5,1.5,2.2c1.2,1.7,2.4,3.5,3.6,5.2c-0.3-0.4,0-2,0-2.5c0-0.5,0.3-2.1,0-2.5
			c-1-1.5-2.1-3-3.1-4.4c-0.5-0.7-1-1.5-1.5-2.2c-0.3-0.5-0.7-1-1-1.5c-0.4,0.3-0.7,0.5-1.1,0.8c-2.3,1.8-3.8,4.5-4.6,7.3
			c0,1.7,0,3.3,0,5c0.2-2.3,1.5-4.1,3.6-5.1C804.9,372.4,803.6,367.9,804.2,367.6L804.2,367.6z"/>
	</g>
</g>
<g>
	<g>
		<path fill="#009CB4" d="M1246.9,163.9c-0.9-2-1,2.4-1,2.7c0,2.5,0.5,4.3,1.3,6.8c1.7,5.4,3.5,10.9,5.2,16.3
			c1.2,3.7,2.2,12.6,6.4,14c3.4,1.1,4.3-24.2,9.9-23.7c3.3,0.3,5.3,7,6.4,9.4c1.8,4.1,3.6,7.8,7.5,10.3c0-0.1,0-0.2,0-0.3
			c0.1-5.3,0.2-10.5,0.4-15.8c0.1-2.7-1.3-12.9,2.7-12.6c-0.1,0,0.2-5,0-5c-3.6-0.3-2.6,7.3-2.6,9.3c-0.1,3.3-0.1,6.6-0.2,9.9
			c0,0.7,0,9.6-1.3,8.8c-3.2-2.1-4.9-6.2-6.4-9.6c-1.5-3.4-3.1-9.2-7.4-9.5c-2.5-0.2-4.3,11.2-4.8,13.1c-0.7,2.4-1.7,13.3-5.8,9.7
			c-1.8-1.6-2.2-5.4-2.9-7.5c-1-3-1.9-6-2.9-9.1c-1.8-5.6-4.2-11.3-5.4-17c0,1.7,0,3.3,0,5c0.2-0.7,0.6-1.1,1-0.2
			C1246.3,167.5,1247.5,165.3,1246.9,163.9L1246.9,163.9z"/>
	</g>
</g>
<g>
	<g>
		<path fill="#009CB4" d="M1304.4,179.5c-1.1-2.9-4.9-5.5-7.5-2.8c-2.5,2.6-3.4,6.3-3.7,9.9c-0.3,4.8-0.1,9.7,2.6,13.8
			c2.2,3.4,5.8,3.4,7.6-0.2c1.1-2.2,0.9-5.2,0.9-7.6c0-2.3,0-4.5-0.3-6.8c-0.3-2.4-1.3-4.6-2.3-6.8c-0.2-0.5-2.4-4.4-3-2.5
			c-0.5,1.5,0.5,3.5,0,5c0.6-1.9,2.8,2.1,3,2.5c1.4,2.5,2.7,6.1,2.4,9c-0.6,5.3-5,6.4-8.2,2.4c-3-3.7-2.7-6.9-0.9-10.8
			c1-2.2,2.3-4,4.9-4c2.3,0,3.9,2,4.6,3.9C1303.8,183,1304.9,181,1304.4,179.5L1304.4,179.5z"/>
	</g>
</g>
<g>
	<g>
		<path fill="#009CB4" d="M1315.3,190.6c0-2.7,0-5.5,0.1-8.2c0-1.4,0-2.7,0-4.1c0-0.7,2.9-0.5,3.3-0.6c1.8-0.2,4.2-2,3.9,1.4
			c-0.2,1.6-0.4,3.3-0.4,4.9c0,2.3-0.1,4.6,0.1,6.8c0.4,3.9,4.9,7.6,8.4,4.4c0.9-0.8-0.8-4.2,0-5c-2.4,2.2-5.6,1-7.4-1.4
			c-0.4-0.6-0.6-1.3-0.8-2c-0.7-2.2-0.3,0.7-0.1-1.6c0.2-1.4,0.3-2.7,0.3-4.1c0-1.9,0-3.9,0-5.8c-0.1-1.5-0.1-4-1.9-3.2
			c-1.7,0.7-3.6,0.7-5.4,0.5c0,0,0,0.8,0,0.7c0,4.5-0.1,9.1-0.1,13.6C1315.3,188.2,1315.3,189.4,1315.3,190.6
			C1315.3,191.4,1315.3,191.4,1315.3,190.6L1315.3,190.6z"/>
	</g>
</g>
<g>
	<g>
		<path fill="#009CB4" d="M1346.5,180.6c-0.2-4.2-5.9-5.2-7.3-1.1c-0.2,0.7,0,1.8,0,2.5c0,0.7,0.2,1.9,0,2.5
			c1.3-3.9,7.1-3.3,7.3,0.9C1346.4,184.2,1346.6,182.1,1346.5,180.6L1346.5,180.6z"/>
	</g>
</g>
<g>
	<g>
		<path fill="#009CB4" d="M1338.8,150.2c-1.1,6.2-0.5,12.6,1,18.7c3.2,13.1,5.5,26,5.7,39.5c0,0.9,0-0.8,0-0.9c0-1.1,0-2.3,0-3.4
			c-0.1-7.5-0.7-15-1.9-22.4c-0.6-4.3-1.5-8.5-2.5-12.7c-1-4.2-2.8-8.6-2.8-13c0,0.8,0,1.7,0,2.5c0-1.1,0.2-2.3,0.5-3.4
			C1339.1,153.6,1338.5,151.8,1338.8,150.2L1338.8,150.2z"/>
	</g>
</g>
<g>
	<g>
		<path fill="#009CB4" d="M1367.8,180.4c-4.3-5.5-10,1.2-10.2,5.9c-0.2,3.5-0.2,7,0.1,10.5c0.2,3,2.2,5.3,5.1,3.6
			c3.1-1.8,3.9-9.2,4.7-12.3c1.6-6.6,2-13.3,2-20c0-0.9-0.3-2.3,0-3.2c-3.4,12.9-1.1,27.7,8,37.7c-0.8-0.9,0.8-4.1,0-5
			c-6.8-7.6-10.6-17.6-8-27.7c0-1.1,0-2.1,0-3.2c0,6.1-0.9,12.2-2.4,18.1c-0.9,3.6-1.9,10.8-6.5,11.2c-4.6,0.4-2.2-8.5-1.2-10.2
			c1.8-3,6.4-3.1,8.4-0.5C1367,184.4,1368.6,181.4,1367.8,180.4L1367.8,180.4z"/>
	</g>
</g>
<g>
	<g>
		<path fill="#009CB4" d="M1236.4,258.9c-1.9-1.4-4.5-4.5-7-3.3c-2.3,1.1-2,5.8-2.2,7.8c-0.5,6.8-0.8,13.5-1.4,20.3
			c-1.1,13.3-3.5,26.5-10.4,38.2c-0.3,0.5-0.3,4.6,0,5c14.6,16,13.3,37.4,10.4,57.4c-1.2,8.5-7.9,36.3,8.2,35.9c0.1,0,0-5,0-5
			c-6.9,0.2-10-6.1-10.5-12.2c0,1.1,0,2.1,0,3.2c0-9.4,2.6-19.1,3.7-28.4c0.7-5.7,0.9-11.5,0.8-17.2c-0.1-14-3-28.1-12.7-38.7
			c0,1.7,0,3.3,0,5c6.9-11.7,9.2-24.8,10.4-38.2c0.5-6.2,0.8-12.5,1.2-18.7c0.2-3.3,0-6.8,2.3-9.4c1.6-1.9,5.7,2.3,7,3.3
			C1235.7,263.4,1237.3,259.5,1236.4,258.9L1236.4,258.9z"/>
	</g>
</g>
<g>
	<g>
		<path fill="#009CB4" d="M1281.1,277.8c2.2-4.5,2.9-9.2,2.1-14.1c-0.8-5.1-5.9-4.6-9.1-2.4c-2.7,1.9-4,5.1-4,8.3
			c0,1.6-0.3,3.5,0,5.1c0.8,4.7,4.7,8.3,9.6,6.5c4.3-1.6,4.1-8.3,3.3-12c0,1.7,0,3.3,0,5c3.3,8.8,5.9,17.7,7.8,26.9
			c1,4.9,1.7,9.8,2.2,14.8c0.4,4.2-1.1,7.1-5.7,6.7c-9.3-0.8-7-16.5-5.7-21.9c1.9-8.1,6.4-15.4,12.2-21.2c0.9-0.9-0.8-4.2,0-5
			c-8.2,8.3-12.8,18.9-13.6,30.4c-0.5,7-1.3,18.7,5.8,22.3c8.7,4.4,7.5-10.1,7.2-14.5c-1.2-14.9-4.8-29.6-10.1-43.6
			c0.5,1.4-0.3,3.5,0,5c0.1,0.4,0.2,0.8,0.3,1.2c0-1.6,0-3.3,0-4.9c-0.1,3.6-2.5,5.9-5.9,6.3c-4,0.5-6.6-3.8-7.2-7.1
			c0,1.3,0,2.5,0,3.8c0-0.5,0-0.9,0-1.4c0,0.4,0,0.8,0,1.2c1.2-7,11.7-13.7,13.3-3.3c0-1.6,0-3.3,0-4.9c-0.1,2.9-1.1,5.1-2.3,7.7
			C1280.4,274.2,1281.7,276.5,1281.1,277.8L1281.1,277.8z"/>
	</g>
</g>
<g>
	<g>
		<path fill="#009CB4" d="M1318.8,274.5c4.5-0.6,9.1-1.2,13.6-1.8c0.3,0-0.2-5,0-5c-4.5,0.6-9.1,1.2-13.6,1.8
			C1318.5,269.5,1319,274.5,1318.8,274.5L1318.8,274.5z"/>
	</g>
</g>
<g>
	<g>
		<path fill="#009CB4" d="M1320.8,289.4c4.4,0,8.6-1,12.6-3c0.7-0.4-0.6-4.7,0-5c-4,2-8.2,3-12.6,3
			C1320.8,284.4,1320.7,289.4,1320.8,289.4L1320.8,289.4z"/>
	</g>
</g>
<g>
	<g>
		<path fill="#009CB4" d="M1360.5,255.2c0-0.3,0-0.7-0.1-1c0,1.6,0,3.3,0,4.9c2-4.2,5.7-1.2,6.2,2.1c0-1.6,0-3.3,0-4.9
			c-0.4,6.4-4.8,13.4-7.2,19.2c-0.6,1.4,0.6,3.6,0,5c2.3-5.5,4.9-11,6.8-16.6c0.8-2.2,0.4-5,0.4-7.3c-0.1-3.6-4.3-6.7-6.2-2.5
			c-0.6,1.4,0,4.4,0.1,5.9C1360.4,258.8,1360.6,256.7,1360.5,255.2L1360.5,255.2z"/>
	</g>
</g>
<g>
	<g>
		<path fill="#009CB4" d="M1363.5,303c0,0,0-5,0-5S1363.5,303,1363.5,303L1363.5,303z"/>
	</g>
</g>
<g>
	<g>
		<path fill="#009CB4" d="M1287.5,361c0-0.5,0-0.9-0.1-1.4c0,1.6,0,3.3,0,4.9c1-3,4-5,4-8.3c0-1.9,0-3.7,0-5.6
			c-0.1-4.7-6.1,0.8-7.3,1.9c-3.5,3.3-5.5,7.8-7,12.3c-5.7,17.9,3.7,37.4-5.4,54.6c-0.7,1.3,0.7,3.7,0,5c5.4-10.2,4.8-22.2,4.3-33.4
			c-0.5-9.2-0.7-18,3.3-26.5c1.2-2.5,12-16,12.2-8c0-1.6,0-3.3,0-4.9c-0.5,3.1-4,5.2-4,8.3c0,2,0,4,0.1,5.9
			C1287.4,364.6,1287.5,362.5,1287.5,361L1287.5,361z"/>
	</g>
</g>
<g>
	<g>
		<path fill="#009CB4" d="M1259.6,392.2c6.1,0.6,11.9-0.3,17.5-2.8c0.7-0.3-0.6-4.7,0-5c-5.6,2.5-11.4,3.4-17.5,2.8
			C1259.8,387.2,1259.4,392.2,1259.6,392.2L1259.6,392.2z"/>
	</g>
</g>
<g>
	<g>
		<path fill="#009CB4" d="M1287.1,406.3c5-6.9,5.7-14.8,5.2-23c0,1.6,0,3.3,0,4.9c3.2-2.9,6.1,1,6.3,4.1c0-1.6,0-3.3,0-4.9
			c-0.4,4.4-1.7,8.4-1.6,12.9c0,2.9,0.5,4.4,3.8,3.5c3.6-0.9,4.4-5.7,5-8.7c0-1.7,0-3.3,0-5c-0.7,4-0.8,9.1,2.4,11.8
			c-0.8-0.7,0.8-4.3,0-5c-1.5-1.3-2.3-2.7-2.6-4.6c0,0.6,0,1.2,0,1.8c0-0.4,0-0.7,0-1.1c0,1.1,0,2.1,0,3.2c0.1-0.4,0.1-0.7,0.2-1.1
			c0.3-1.6-0.3-3.4,0-5c-0.5,2.8-1.1,5.3-3,7.4c-0.8,0.9-2,1.3-3.1,1.5c-2.3,0.6-2.6-0.9-2.7-3c0,1.6,0,3.3,0,4.9
			c0.5-4.4,5.2-17.5-2.5-18.7c-3.1-0.5-2.3,3.5-2.2,5.2c0,4.9-2.3,9.9-5.1,13.8C1286.3,402.4,1287.9,405.2,1287.1,406.3
			L1287.1,406.3z"/>
	</g>
</g>
<g>
	<g>
		<path fill="#009CB4" d="M1309.1,378.5c-0.6,0-1.3,0-1.9,0c0,0,0,5,0,5c0.6,0,1.3,0,1.9,0C1309.2,383.5,1309.2,378.5,1309.1,378.5
			L1309.1,378.5z"/>
	</g>
</g>
<g>
	<g>
		<path fill="#009CB4" d="M1328.6,375.5c-9.5,0.2-12.5,10.2-12.5,18.1c0,3.5,0.3,6.8,3.2,9.3c3,2.5,8.4,0.9,9.2-2.9
			c0.4-1.6-0.4-3.4,0-5c-1.6,6.7-9.8,4-11.9-0.8c-1.1-2.7,1.2-6.2,2.6-8.4c2.1-3.2,5.5-5.2,9.3-5.3
			C1328.7,380.5,1328.6,375.5,1328.6,375.5L1328.6,375.5z"/>
	</g>
</g>
<g>
	<g>
		<path fill="#009CB4" d="M1334.3,361.2c-3-1.1-2.1,7.6-2.1,9c0.3,10,1.7,19.9,3.2,29.9c-0.2-1.6,0.2-3.4,0-5
			c-1.6-10.3-3.1-20.5-3.2-30.9c0,1.4,0,2.8,0,4.3c0.2-1.2,0.6-2.7,2.1-2.2C1333.8,366,1334.9,361.4,1334.3,361.2L1334.3,361.2z"/>
	</g>
</g>
<g>
	<g>
		<path fill="#009CB4" d="M1325.6,383.2c4.5-0.9,9.1-1.8,13.6-2.7c0.4-0.1-0.3-4.9,0-5c-4.5,0.9-9.1,1.8-13.6,2.7
			C1325.2,378.3,1325.9,383.2,1325.6,383.2L1325.6,383.2z"/>
	</g>
</g>
<g>
	<g>
		<path fill="#009CB4" d="M1343.9,399.9c2.2-2.8,3.6-5.7,4.5-9.2c0.4-1.5-0.6-3.7,0-5c-1.2,2.7-1.2,7-0.2,9.8
			c1.3,3.8,6.2,2.9,8.3,0.8c2.4-2.2,2.8-6.1,4.9-8.7c0-1.7,0-3.3,0-5c-1.8,4.7-1.8,11.1-0.3,15.9c0.3,0.9,0.7,1.7,1.2,2.5
			c0.9,1.7,1.2,2.6,2.8,1.2c1.9-1.7,3.6-3.6,5-5.7c2-2.8,2.6-6.1,2.6-9.5c0-6.2-1.6-13.7-9.3-13.7c-3.2,0-4.6,5.2-4.7,7.6
			c0,1.8,0,3.7,0.1,5.5c-0.2-1.6,0.2-3.3,0-5c0-0.4-0.1-0.8-0.1-1.2c0,1.7,0,3.3,0,5c0.4-3.9,2.9-7.4,7.1-6.6
			c4.3,0.8,6.5,5.9,6.9,9.7c0-1.6,0-3.3,0-4.9c-0.2,5.7-3.6,10.1-7.6,13.9c-2.1,2-3.2-1.8-4-3.7c-1-2.3-0.6-3.7,0.3-5.9
			c0.5-1.2-0.8-4.1,0-5c-2.4,2.9-3,6.9-5.8,9.5c-3.4,3.2-7.7-0.5-8-4.1c0,1.7,0,3.3,0,5c0-0.9,0.3-1.6,0.7-2.4c0-1.7,0-3.3,0-5
			c-0.9,3.5-2.3,6.4-4.5,9.2C1343,395.9,1344.7,398.8,1343.9,399.9L1343.9,399.9z"/>
	</g>
</g>
<g>
	<g>
		<path fill="#009CB4" d="M1373.2,384.5c0.8-2.6,2.9-1.8,4.3-0.2c1.9,2.2,2.3,6.2,2.5,8.8c0-0.3,0-1.8,0-2.4c0-2.8,0.6-5.7,1.2-8.5
			c0.6-2.7,0.8-3.9,3.5-4.7c2.3-0.6,2.5,4,3,5.6c0.7,2.5,1.4,4.9,2.1,7.4c1,3.4,1.7,7.4,6,7.6c2.8,0.1,4.8-2.5,4.9-5
			c0.1-1.5-0.1-3.6,0-4.8c-0.2,2.9-2.2,4.4-4.9,4.8c-2.8,0.5-4.3-2.4-5-4.5c-1.3-3.4-2-7.1-3-10.6c-0.5-1.8-1-3.7-1.6-5.5
			c-0.3-1-3.6,0.9-3.9,1.1c-1.8,1.1-2,8.9-2.1,10.8c-0.1,1.2-0.1,2.5-0.1,3.7c0,1.9,0.1-0.7-0.1-1.6c-0.2-1.7-0.6-3.1-1.1-4.7
			c-0.7-2.1-4.2-6.6-5.6-2.4C1372.7,381,1373.7,383,1373.2,384.5L1373.2,384.5z"/>
	</g>
</g>
<g>
	<g>
		<path fill="#009CB4" d="M1415.1,383.6c1.7-2.4,4.9-3.2,7.6-1.9c-0.1-0.1,0-2.3,0-2.5c0-0.2,0.2-2.4,0-2.5
			c-2.7-1.3-5.9-0.5-7.6,1.9c-0.3,0.4,0,2,0,2.5C1415,381.5,1415.3,383.2,1415.1,383.6L1415.1,383.6z"/>
	</g>
</g>
<g>
	<g>
		<path fill="#009CB4" d="M1422.8,395.3c1.6-0.7,3.2-1.3,4.8-2c0.2-0.1,0-2.3,0-2.5c0-0.2-0.1-2.5,0-2.5c-1.6,0.7-3.2,1.3-4.8,2
			c-0.2,0.1,0,2.3,0,2.5C1422.7,393,1422.9,395.2,1422.8,395.3L1422.8,395.3z"/>
	</g>
</g>
<g>
	<g>
		<path fill="#009CB4" d="M1453.7,366.7c4.3-1.2,16.9-7.1,17.7,0.8c0-1.7,0-3.3,0-5c-0.4,2.9-1.9,5.2-3.3,7.7
			c-1.7,3.2-3.2,6.5-4.6,9.8c-0.6,1.4,0.6,3.6,0,5c2.9-6.8,7.9-13.2,7.9-20.7c0-2.7-0.3-4.9-3.2-5.8c-1.7-0.5-3.8,0.1-5.5,0.5
			c-3,0.8-6,1.7-9,2.6C1453.2,361.8,1454.1,366.5,1453.7,366.7L1453.7,366.7z"/>
	</g>
</g>
<g>
	<g>
		<path fill="#E30613" d="M439.2,173.9c5.2-2.6,12.8-9.8,10.3-16.6c-1.6-4.4-6.6-5.1-10.3-3.1c-4.7,2.4-5.9,9.6-6.3,14.3
			c-0.5,7.3-0.9,15.6,3.1,22c8.2,13.3,19.7-8.3,23.5-14.1c0.5-0.7-0.6-4.7,0-5c-6.7,3.4-7.6,8.8-7.5,15.4c0,3.1,1.9,5,5,5.1
			c5.6,0.2,6.8-7.2,7.4-11.2c0-1.7,0-3.3,0-5c-0.4,3.4-0.5,7.2,0.3,10.6c1.4,6.3,10.9,6.7,11-0.1c0-1.1,0-2.3,0-3.4
			c0-0.1,0-1.8,0-0.9c-0.1,3.2-3.1,4.4-5.8,4.4c-3.9,0-5.3-4.7-5.7-7.7c0,1.4,0,2.8,0,4.3c0.1-0.7,0.1-1.4,0.2-2.1
			c0.2-1.6-0.2-3.4,0-5c-0.5,4.1-1.2,8-4.9,10.4c-3.4,2.2-6.8-0.1-7.5-3.5c0,0.4,0,0.8,0,1.2c0-0.4,0-0.8,0-1.2c0,1.3,0,2.5,0,3.8
			c0.7-4.6,3.5-7.8,7.5-9.9c0-1.7,0-3.3,0-5c-3.7,5.6-7.1,12.8-12.6,16.8c-5.5,4-10.6-1.4-12.6-6.2c-2.6-6.2-1.4-14.3,2.1-20
			c3-4.8,11.1-5.8,13.3,0.2c0-1.7,0-3.3,0-5c-1.9,5.2-5.3,9.1-10.3,11.6C438.5,169.2,439.9,173.5,439.2,173.9L439.2,173.9z"/>
	</g>
</g>
<g>
	<g>
		<path fill="#E30613" d="M477.9,174.7c0.9,13,1.8,25.9,2.6,38.9c-0.1-1.2,0.1-3.3,0-4.8c-0.9-13-1.8-25.9-2.6-38.9
			C478,171.1,477.8,173.2,477.9,174.7L477.9,174.7z"/>
	</g>
</g>
<g>
	<g>
		<path fill="#E30613" d="M478.1,183.4c-1.3-2.4-1.6-3-0.7-5.4c0.7-1.9,1.3-0.4,2.3,0.5c0.8,0.8,1.6,1.8,2.3,2.7
			c2.9,3.7,4.5,8.3,5.2,12.9c0-1.7,0-3.3,0-5c-2.2,1.2-3,2-5.5,1.1c-2.2-0.8-4-2.2-5.6-3.8c0.8,0.8-0.9,4.2,0,5
			c1.4,1.4,2.9,2.4,4.6,3.4c1,0.5,2.1,0.9,3.2,1.2c0.5,0.1,2.8-1.5,3.3-1.8c0.4-0.2,0.1-4.4,0-5c-0.5-3.6-1.6-6.8-3.3-10
			c-0.9-1.7-2.1-3.3-3.4-4.8c-0.5-0.6-1.1-1.1-1.6-1.7c-1.4-1.4-1.4,0.1-1.8,1.4c-1.5,4-0.8,10.7,1.1,14.3
			C477.4,187.1,478.8,184.7,478.1,183.4L478.1,183.4z"/>
	</g>
</g>
<g>
	<g>
		<path fill="#E30613" d="M497,147.4c-0.4-2.4-1.5,1.3-1.5,2.1c0,2.1,0.1,3.9,0.6,6c2.5,11.6,5,23.1,7.5,34.7c-0.3-1.6,0.3-3.4,0-5
			c-2.7-12.4-6.6-25-8.1-37.6c0,1.7,0,3.3,0,5c0.3-0.8,1.2-1.6,1.4-0.3C496.7,150.8,497.2,149,497,147.4L497,147.4z"/>
	</g>
</g>
<g>
	<g>
		<path fill="#E30613" d="M489.7,174.8c4.9-2.5,10.1-4,15.6-4.7c0.2,0-0.2-5,0-5c-5.5,0.6-10.6,2.2-15.6,4.7
			C489,170.1,490.3,174.4,489.7,174.8L489.7,174.8z"/>
	</g>
</g>
<g>
	<g>
		<path fill="#E30613" d="M504.6,187.8c4-4.4,6.7-9.4,8.2-15.1c0.4-1.4-0.6-3.7,0-5c-2.2,4.4-2.8,10.3-1.4,15.1
			c1.1,3.5,5.6,4.8,8.6,3.3c3.4-1.7,3.1-8.1,4.5-11.2c0.5-1,0-3.2,0-4.3c0-1.3-1-2.2-1.6-3.2c-0.2-0.2-1.3,2.7-1.3,3.1
			c-0.1,5.1,0.2,11.8,7.2,11.2c4.2-0.4,6.5-5.3,6.9-8.9c0.6,0.5,1,1,1.2,1.7c0.7,1.3,0.5,3,0.6,4.4c0.1,1.6,0.4,3,1.3,4.3
			c2.2,3.4,7,0.2,8.5-2.1c1.4-2.2,0.9-5.6,0.9-8.1c0-0.6,0-1.2,0-1.7c0-1.3,0.1-7.3-1.4-3.8c-1.2,2.9-1.2,5.8-1.2,8.8
			c0,2.9,0.2,5.5,2,7.9c2.4,3.2,7.5,3.2,9.9,0.3c0.8-1-0.8-4,0-5c-4.7,5.7-11.3-0.1-11.9-5.7c0,1.6,0,3.1,0,4.7c0-2.2,0.4-3.9,1.1-6
			c1.3-3.8,1.3,2.6,1.4,3.7c0-1.6,0-3.1,0-4.7c-0.1,4.5-2.5,8.6-7.5,7.9c-4-0.6-2.9-7.1-3.7-9.9c-1.1-3.8-1.7,0.8-2.3,2.2
			c-0.9,2.1-2.7,3.6-4.6,4.6c-4.2,2.2-8.3-2-8.5-6c0,1.6,0,3.3,0,4.9c0-0.7,0.2-1.3,0.6-1.9c0.9-2,1.8,0.9,2.3,1.7c0-1.7,0-3.3,0-5
			c-1.7,3.7-1.3,8.3-4.5,11.2c-4.2,3.7-8.8-2.7-9.2-6.2c0,1.6,0,3.3,0,4.9c0.1-2.7,0.8-4.8,2-7.1c0-1.7,0-3.3,0-5
			c-1.5,5.7-4.2,10.7-8.2,15.1C503.8,183.7,505.5,186.9,504.6,187.8L504.6,187.8z"/>
	</g>
</g>
<g>
	<g>
		<path fill="#E30613" d="M598.5,165.8c-11.2-6.3-21.5,8.8-15.7,18.4c2.3,3.9,7.1,2,9.5-0.5c2.7-2.8,2.9-8.1,3.2-11.8
			c0.3-4.4,0.2-8.9-0.3-13.2c-0.5-4.4-1.9-8.6-3.6-12.6c-0.9-2-2-3.9-3.2-5.8c0.3,0.6-1.1,5.1-1.2,6c-0.6,4-0.6,8.6-0.2,12.7
			c0.7,8.3,3.6,16,8.8,22.6c3.3,4.2,6,2,8.4-1.5c3.2-4.6,6-9.4,8.8-14.2c0.3-0.6-0.4-4.9,0-5c-5.8,1.7-11.4,14.7-5,18.8
			c5.3,3.5,9-4.8,9-8.7c0.1-3.2,0-6.3-0.2-9.5c0,1.7,0,3.3,0,5c1.6,6.3,4.9,14.7,13,12.7c0.4-0.1-0.3-4.9,0-5
			c-8.1,2-11.4-6.4-13-12.7c0.4,1.5-0.1,3.4,0,5c0.1,0.6,0.1,1.1,0.2,1.7c0-0.6,0-1.2,0-1.8c-0.3,3.6-1.3,6.4-4.4,8.4
			c-2.9,1.9-6.5-0.5-7.1-3.5c0,1.7,0,3.3,0,5c0.7-4.2,3.2-9.1,7.5-10.3c0-1.7,0-3.3,0-5c-2.4,4.3-5,8.5-7.7,12.7
			c-2.7,4.1-5.2,7.7-9.4,3.1c-6.2-6.8-9.6-17.8-8.3-26.8c0.2-1.7,0.1-5.9,1.9-3.1c1.2,1.9,2.1,3.9,2.9,5.9c2.1,4.8,3.5,10.7,3.1,16
			c-0.3,4.6-1.4,9.3-5.3,12.1c-4.1,2.9-8-1.1-8.6-5c0,1.6,0,3.3,0,4.9c0.3-8.3,9.7-13.9,17-9.8C597.8,170.5,599.3,166.3,598.5,165.8
			L598.5,165.8z"/>
	</g>
</g>
<g>
	<g>
		<path fill="#E30613" d="M630.4,156.4c1.6,8.7,3.3,17.5,4.9,26.2c-0.3-1.6,0.3-3.4,0-5c-1.6-8.7-3.3-17.5-4.9-26.2
			C630.7,153,630.1,154.8,630.4,156.4L630.4,156.4z"/>
	</g>
</g>
<g>
	<g>
		<path fill="#E30613" d="M622.7,158.3c4.9,0,9.7,0,14.6,0c0,0,0-5,0-5c-4.9,0-9.7,0-14.6,0C622.7,153.3,622.7,158.3,622.7,158.3
			L622.7,158.3z"/>
	</g>
</g>
<g>
	<g>
		<path fill="#E30613" d="M656.8,157c-10.9-7.6-18.7,10-11.3,17c2.8,2.6,6.1-1.1,7.3-3.3c0.5-1,0.9-6.5,1.3-3.4
			c0.2,1.7,1.2,3.2,2.3,4.5c5.2,6.8,15,2.5,16.7-4.8c0.4-1.6-0.4-3.4,0-5c-2,8.7-12.1,10.8-17.5,3.8c-1.1-1.4-1.4-3.1-1.6-4.8
			c0.3,2.3-1.3,5.3-2.7,7c-3.8,4.6-8-0.8-8.2-4.8c0,1.6,0,3.3,0,4.9c0.8-7,7.9-10.3,13.7-6.2C656.1,161.5,657.6,157.6,656.8,157
			L656.8,157z"/>
	</g>
</g>
<g>
	<g>
		<path fill="#E30613" d="M581.9,248.9c32.4,4.3,64.9,0.1,97.2-3.3c32.8-3.4,65.7-4.3,98.7-3.8c16.5,0.3,33.1,0.8,49.6,1.3
			c6.3,0.2,11.8,0.5,13.9,7.3c2.4,7.6,3.2,16.2,4,24.1c1.9,18.6,1.5,37.4,1.5,56.1c0,16.6,0.1,33.2,0.1,49.8
			c0,26.6,0.1,53.1,0.1,79.7c0,3.5,0.1,0.2,0-1.3c-0.1-33.2-0.1-66.4-0.2-99.6c0-29.8,1.2-60-1.6-89.7c-0.7-7.6-1.9-15.2-3.6-22.6
			c-1.8-7.8-7.2-8.6-14.3-8.8c-16.5-0.5-33.1-1.1-49.6-1.3c-33-0.5-65.9,0.4-98.7,3.8c-32.3,3.3-64.7,7.5-97.2,3.3
			C582.1,243.9,581.6,248.9,581.9,248.9L581.9,248.9z"/>
	</g>
</g>
<g>
	<g>
		<path fill="#E30613" d="M249.6,499.2c-0.9,21-1.4,42-1.5,63c0,9.5,0.1,19,0.2,28.5c0.1,5.4,0.2,10.7,0.4,16.1
			c0.1,2.6,0.2,5.3,0.3,7.9c0,0.8-2.8,1.4-3.2-0.3c0,1.7,0,3.3,0,5c0.2-0.7,0.6-1,1.3-0.8c0.1,0,0-5,0-5c-3.6,0-0.5,12.1,1.9,4.7
			c0.5-1.5,0.1-4.2,0-5.8c-0.1-5.5-0.4-11-0.5-16.4c-0.8-30.7-0.3-61.3,1-92C249.7,502.6,249.5,500.4,249.6,499.2L249.6,499.2z"/>
	</g>
</g>
<g>
	<g>
		<path fill="#E30613" d="M225.5,599.8c26.6-5.7,53.5-9.2,80.6-10.7c0.1,0,0-5,0-5c-27.1,1.4-54.1,5-80.6,10.7
			C225.2,594.9,225.9,599.7,225.5,599.8L225.5,599.8z"/>
	</g>
</g>
<g>
	<g>
		<path fill="#009CB4" d="M223.7,615.4c-4.7,0.1-3.7,7.6-3.6,10.7c0.1,4.8,3.8,12.9,9.8,10.1c3.5-1.7,3.1-7.7,2.8-10.9
			c-0.3-3.5-2.6-5.9-5.5-7.7c-1.4-0.9-2.9-1.5-4.4-2.1c-1.4-0.6-3,4-3.1,4.8c-0.3,1.6,0.3,3.4,0,5c0.4-1.7,1-3,2.3-4.2
			c1.3-1.2,3.9,0.8,5.2,1.6c2.9,1.7,5.2,4.3,5.5,7.7c0-1.6,0-3.1,0-4.7c-0.1,5.7-5.8,8-9.6,3.7c-1.7-1.9-2.5-4.7-2.9-7.2
			c0.5,3.1,0.1,1.2,0.8-0.3c0.5-1.1,1.6-1.5,2.7-1.5C223.8,620.4,223.7,615.4,223.7,615.4L223.7,615.4z"/>
	</g>
</g>
<g>
	<g>
		<path fill="#009640" d="M281.4,678.1c5.6-9.1,6.7-18.8,6.5-29.1c-0.1-5.9-1.5-11.6-3.7-17c-1.3-3.1-3.1-5.9-5-8.6
			c-1.1-1.5-1.5-3.4-2.2-0.5c-0.6,2.2-1.7,4.3-2.8,6.3c0,0.8,0,1.7,0,2.5c0-3.7,1.2-7.7,4-10.3c2.3-2,3,0,4.5,1.8
			c2,2.4,4,4.7,6.1,7.1c-0.8-0.9,0.8-4,0-5c-2.4-2.8-4.9-5.7-7.3-8.5c-1.5-1.8-1.5-1.5-3.3-0.3c-1.3,0.8-2.1,2.4-2.7,3.8
			c-1.6,3.5-1.3,7.7-1.3,11.4c0,0.5,0.3,2.1,0,2.5c1.2-2,2.1-4,2.8-6.3c0-2,0.5-2.2,1.3-0.6c0.9,1.1,1.7,2.3,2.5,3.4
			c2.7,3.9,4.4,8.4,5.7,13c2.8,10.1,0.3,20.6-5.1,29.4C280.7,674.3,282.1,676.9,281.4,678.1L281.4,678.1z"/>
	</g>
</g>
<g>
	<g>
		<path fill="#009640" d="M285,714.5c-0.7-1-1.3-1.9-2-2.9c0,0.1,0,0.2,0,0.3c-0.1,6.4-0.8,12.8-2.1,19.1c-0.3,1.6,0.3,3.4,0,5
			c0.8-3.9,1.4-7.9,1.8-11.9c0.1-1.5,0.2-3.1,0.3-4.6c0.1-2.8,0.8-1.9,2-0.1C284.2,718.4,285.8,715.6,285,714.5L285,714.5z"/>
	</g>
</g>
<g>
	<g>
		<path fill="#009640" d="M280,724.3c-0.9-1.7-1.3-2.8-1.3-4.8c0,1.6,0,3.1,0,4.7c0.5-4,8.9-17.6,11.4-9c0.9,3-4.9,16.5-8.8,13.1
			c0,1.7,0,3.3,0,5c0.6-1.4,1.2-2.2,2.3-3.1c2.3-1.9,2.6-0.3,3.5,1.6c1.4,2.9,4.4,4.8,7.4,5.8c-0.5-0.2,0.5-4.8,0-5
			c-3.2-1.1-5.5-2.9-7.4-5.8c-1-1.6-0.2-2.7-2.3-2.2c-1.8,0.4-2.8,2.2-3.5,3.7c-0.2,0.5-0.4,4.7,0,5c4.5,4,8.8-11.1,9.1-13.6
			c0.3-3.1,0.1-6.4-0.3-9.4c-0.7-5-4.4-2.2-6.6-0.1c-2.5,2.4-4.6,5.7-4.8,9.2c-0.1,3.4-0.4,7,1.4,10.1
			C279.3,728,280.7,725.6,280,724.3L280,724.3z"/>
	</g>
</g>
<g>
	<g>
		<path fill="#009640" d="M303.3,730.9c1.1-2.7,2.1-5.5,3.2-8.2c0.2-0.6,0.4-4.6,0-5c-3.5-3.8-6.7,4.7-7.1,6.9
			c-0.5,2.2-0.4,5-0.2,7.2c0.4,4.1,3.5,8.3,7.9,6.2c3-1.4,2.2-5.4,2.2-8c0-0.8,0-0.8,0,0c0,1.2,0,2.4,0,3.5c0,0.3,0,0.5,0,0.8
			c0-1.4,0-2.8,0-4.3c-0.6,2.5-2.7,3.8-5.2,3.6c-3.2-0.3-4.7-4.1-4.9-6.8c0,1.6,0,3.3,0,4.9c0.1-2.2,3.2-13.5,7.3-9.1
			c0-1.7,0-3.3,0-5c-1.1,2.7-2.1,5.5-3.2,8.2C302.8,727.3,303.9,729.5,303.3,730.9L303.3,730.9z"/>
	</g>
</g>
<g>
	<g>
		<path fill="#009640" d="M327.6,712.4c0.3-2.8,0.8-6.1-1.2-8.3c-2.6-2.9-6,1.2-6.9,3.4c-0.7,1.7-0.3,3.9-0.3,5.7
			c0,6.3,1.7,12.5,2.6,18.7c0.8,5.2,0.9,10-0.3,15.1c-0.8,3.5-2.1-0.1-3.1-1.7c-1-1.6-1.4-3.5-1.8-5.4c0.3,1.6-0.3,3.4,0,5
			c0.4,2.4,1.2,4.5,2.5,6.6c0.5,0.8,1.1,1.5,1.8,2.2c-0.1-0.2,1.2-4.9,1.3-5.3c0.5-2.8,0.5-5.7,0.5-8.6c0-9.9-2.6-19.3-3.5-29.1
			c0,1.6,0,3.1,0,4.7c0.1-3.1,0.9-5.2,3.5-6.8c2.2-1.3,4.3,0.8,4.9,2.6c0-1.7,0-3.3,0-5c0,0.4-0.1,0.8-0.1,1.2
			C327.5,709.1,327.8,710.8,327.6,712.4L327.6,712.4z"/>
	</g>
</g>
<g>
	<g>
		<path fill="#009640" d="M311,731.8c4.2-0.5,8.5-1,12.7-1.4c0.2,0-0.1-5,0-5c-4.2,0.5-8.5,1-12.7,1.4
			C310.8,726.8,311.2,731.8,311,731.8L311,731.8z"/>
	</g>
</g>
<g>
	<g>
		<path fill="#009640" d="M327.9,735.1c3.9-3,6.1-7.3,6.2-12.2c0-1.5,0-3,0-4.6c0-1,0.3-1.9-0.9-2c-1.3-0.1-2.3,1.4-2.8,2.4
			c-1.1,2.4-0.4,7.3,0.9,9.4c2.2,3.7,10.4,9.5,12.9,3.1c0.6-1.5-0.6-3.6,0-5c-3,7.7-13.1-1.3-14-6c0,1.6,0,3.3,0,4.9
			c0.1-1.7,0.8-2.9,2.3-3.7c0.5-0.2,1-0.2,1.5-0.1c0-0.4,0-0.9,0-1.3c-0.1,0.6-0.2,1.2-0.4,1.8c-0.8,3.3-3,6.2-5.7,8.2
			C327.1,730.8,328.7,734.6,327.9,735.1L327.9,735.1z"/>
	</g>
</g>
<g>
	<g>
		<path fill="#009640" d="M351,723.3c-1.1,0.3-1.3,0-1.7-1.1c0,1.7,0,3.3,0,5c0.9-2.3,2.5-3.8,2.6-6.4c0-1,0-2.1,0-3.1
			c0-4.2-2-8.2-6.9-6.8c-0.1,0-0.2,4.8,0,5c2,1.3,3.9,1.8,6.3,1.8c0.9-0.1,1.8-0.3,2.6-0.6c0.4-0.2,0.8-0.4,1.2-0.6
			c0.4,1.6,0.6,3.3,0.5,5c0.2,3.7,2,9,6.7,7.4c4.5-1.5,3.4-12.7,1.9-15.9c0.1,0.2-1.7,4-1.7,4.7c0,1,0,2,0,3c0,2.4,0,4.5,0.9,6.8
			c0.9,2.4,6,5.7,6.1,1.2c0-1.7,0.4-3.8-0.4-5.4c0.6,1.3-0.7,3.6,0,5c0.1,0.2,0.2,0.5,0.4,0.7c0-1.7,0-3.3,0-5
			c-0.4,2.2-2,2.2-3.7,1.3c-2.2-1.1-3-4.3-3.2-6.5c0,1.6,0,3.1,0,4.7c0-1.8,0.4-2.9,1-4.5c1.2-2.7,1.6,1.8,1.7,2.7
			c0-1.6,0-3.3,0-4.9c-0.1,2.9-1.1,6.4-4.1,7.3c-2.4,0.8-4.5-2.6-5.1-4.3c-0.5-1.3-0.4-4.1-0.5-5.1c-0.1-1.7,0.5-3.9-1.6-2.8
			c-2.9,1.5-6.4,0.5-8.9-1.1c0,1.7,0,3.3,0,5c3.8-1.1,6.4,1.2,6.9,4.9c0-1.7,0-3.3,0-5c-0.3,3.1-2.6,5-2.6,8.2c0,1.3-0.6,5,1.7,4.2
			C351.5,728.1,350.6,723.4,351,723.3L351,723.3z"/>
	</g>
</g>
<g>
	<g>
		<path fill="#009640" d="M372.4,723.7c-0.4-0.9-0.5-1.9-0.5-2.9c0,1.6,0,3.3,0,4.9c0.2-1.9,1.6-6.8,4.1-5.7
			c2.4,1.1,3.6,3.9,3.8,6.4c0-1.6,0-3.3,0-4.9c-0.1,0.6-0.2,1.2-0.2,1.8c0,1.7,0,3.3,0,5c0.3-3.5,0.5-8.8,4.6-9.9
			c1.9-0.5,3.8,1,5,2.2c0.8,0.8,1.1,2,1.4,3.1c1,3.3,0.4-2.3,0.2,1.2c-0.1,1.5,0.1,3.6,0,4.8c0.2-4.3,0.7-9.3-1.1-13.3
			c-1.2-2.7-4.7-3.7-7.2-2.3c-2.6,1.5-2.8,6.7-2.9,9.2c-0.1,1.6,0.3,3.4,0,5c0.9-4.6,0.7-10.5-3.6-13.3c-2.6-1.6-4.1,4.7-4.1,6.4
			c0,2.4-0.2,4.9,0.5,7.3C372,727.2,372.9,725.2,372.4,723.7L372.4,723.7z"/>
	</g>
</g>
<g>
	<g>
		<path fill="#009640" d="M396.1,690.3c3.8,13.9,5.8,28.1,6.2,42.5c0,0.9,0-0.8,0-0.9c0-1.1,0-2.3,0-3.4
			c-0.3-14.6-2.4-29.1-6.2-43.2C396.6,686.8,395.7,688.7,396.1,690.3L396.1,690.3z"/>
	</g>
</g>
<g>
	<g>
		<path fill="#009640" d="M389.7,714.3c5.9-0.7,11.7-1.4,17.6-2.1c0.2,0-0.2-5,0-5c-5.9,0.7-11.7,1.4-17.6,2.1
			C389.4,709.4,389.8,714.3,389.7,714.3L389.7,714.3z"/>
	</g>
</g>
<g>
	<g>
		<path fill="#009640" d="M411,729.1c3.7-3.1,4.5-7,4.5-11.6c0-1.2,0.1-2.6-0.1-3.8c-0.7-3.4-1-2.1-1.9,0.5
			c-0.4,1.1-0.4,2.4-0.4,3.6c-0.1,4.1-0.3,7.8,3.3,10.6c2.9,2.3,6.5-0.3,8.7-2.3c3.7-3.3,7-7.1,10.5-10.6c0.5-0.6-0.6-4.8,0-5
			c-8.1,3-9.5,12.4-7.9,19.9c0.4,1.7,0.5,2.5,2.2,1.8c1.7-0.7,3.1-1.9,4.5-3.2c2.4-2.2,3.6-5.4,4.2-8.5c-0.9,5.1,6.3,14.5,10.5,7.8
			c0.8-1.2-0.7-3.8,0-5c-1.6,2.5-4.2,2.5-6.7,1.2c-1.7-0.8-2.4-3-3-4.6c-0.4-1-0.4-6.4-1-3.1c-0.6,3.2-2.7,5.9-5,8.1
			c-1.4,1.3-3,2.1-4.7,2.8c-0.5,0.2-1.3-4.3-1.3-4.7c0,0.8,0,1.7,0,2.5c0-0.4,0-0.8,0-1.2c0,0.8,0,1.7,0,2.5
			c0.5-5.2,3.3-9.4,8.3-11.3c0-1.7,0-3.3,0-5c-4.1,4.2-8.1,9-12.8,12.5c-4.7,3.5-9.1-0.9-9.7-5.6c0,1.6,0,3.3,0,4.9
			c0-1.6,0.3-3.2,0.9-4.7c0.7-2,1.4-1.7,1.2,0c-0.4,2.6-2.2,4.8-4.2,6.5C410.1,724.8,411.8,728.5,411,729.1L411,729.1z"/>
	</g>
</g>
<g>
	<g>
		<path fill="#009640" d="M445.1,686.6c1.3,15.5,2.7,31,4.3,46.5c-0.2-1.6,0.2-3.3,0-5c-1.6-15.5-3-31-4.3-46.5
			C445.3,683.3,445,685,445.1,686.6L445.1,686.6z"/>
	</g>
</g>
<g>
	<g>
		<path fill="#E30613" d="M1187.9,191.6c2.3-2.4,4.3-5,6.1-7.8c0.9-1.4,1.6-2.9,2.4-4.3c0.7-1.5,1.7-6.9,2.1-2.6
			c0.7,8.4,1.4,16.8,2.2,25.2c-0.1-1.7,0.1-3.3,0-5c-0.7-8.4-1.4-16.8-2.2-25.2c-0.4-4.1-0.8-0.2-1.4,1.1c-0.6,1.5-1.4,3-2.2,4.4
			c-1.9,3.4-4.3,6.4-6.9,9.2C1187,187.5,1188.7,190.7,1187.9,191.6L1187.9,191.6z"/>
	</g>
</g>
<g>
	<g>
		<path fill="#E30613" d="M1207.6,157c-4.4-6.6-13-5.8-18.7-1.5c-7.1,5.3-10.1,16.3-11.2,24.6c-1.6,12.9,1.9,28.1,16.3,31.5
			c8.9,2.1,17-5.5,21.4-12.2c3.8-5.7,4.9-12.2,4.9-18.8c0-14-8.2-26.8-22.9-28.7c0.2,0-0.3,5,0,5c11.3,1.5,23.9,12.6,22.6,25
			c-1.3,12.3-12.6,26.7-26.1,24.8c-6.3-0.9-11.4-6.1-14.2-11.5c-3.7-7.1-1.8-14.8,0.8-21.9c2.2-6.1,5.9-12,11.8-14.9
			c5.2-2.5,11.9-1,15.1,3.8C1206.8,160.8,1208.4,158.1,1207.6,157L1207.6,157z"/>
	</g>
</g>
<g>
	<g>
		<path fill="#E30613" d="M152.8,591.3c-0.1-0.3-0.3-0.7-0.4-1c0,1.7,0,3.3,0,5c0.4-4.8,5.1-3.8,7.3-0.8c2.3,3.1,0.5,8.4-0.6,12.3
			c-1,4-2.8,8.3-5.4,11.5c-3,3.6-6.9-1-7.4-3.9c0,1.6,0,3.3,0,4.9c0.1-2.4,0.6-3.8,1.6-5.8c-0.1,0.1,5.5,3.7,6,4
			c2,1.3,6.3,4.3,6.9,0.1c0.2-1.6-0.2-3.4,0-5c-0.8,5.7-9.4-1.8-11.4-3.1c-1.2-1.5-1.9-1.4-2.2,0.4c-0.4,0.7-0.8,2.3-0.9,3.1
			c0,1.3-0.1,2.6-0.1,3.9c0,3.3,0.4,6,4,7.4c5,1.9,8-9.6,8.9-12.5c1.9-6.2,2.6-14.6,1.1-21c-1-4.5-7.8-5.6-7.9-0.2
			c0,1.9-0.3,3.9,0.4,5.7C152.2,594.8,153.4,592.7,152.8,591.3L152.8,591.3z"/>
	</g>
</g>
<g>
	<g>
		<path fill="#E30613" d="M165.4,570.8c-8.3-5.1-18-2.5-24.6,4c-6.5,6.3-9,16-9.5,24.8c-0.8,14.2,2.6,32.1,17.2,38.3
			c20.3,8.6,25.5-20.6,25.6-34.1c0-7.6-1-14.9-3.7-22.1c-2.9-7.8-10.8-16.8-19.6-11c-0.8,0.5,0.7,4.5,0,5c6-3.9,12.4-0.7,16.3,4.5
			c4.9,6.4,6.5,15.8,6.9,23.6c0.5,7.5-2.5,16.4-6.2,22.8c-3.8,6.5-10.8,8.6-17.8,6.9c-16.4-3.9-20.6-27.2-16.6-40.5
			c3.9-13.2,18.3-25.5,32.1-17C164.7,575.4,166.2,571.3,165.4,570.8L165.4,570.8z"/>
	</g>
</g>
<g>
	<g>
		<path fill="#E30613" d="M205.1,182.1c0.1-3.2,3.1-4.5,5.8-4c2.6,0.4,3.6,3.7,3.9,5.9c0-1.6,0-3.3,0-4.9c-0.2,3.6-2.1,6.1-4.6,8.5
			c-0.6,0.6,0.6,4.7,0,5c4.8-2.1,9.2,1.5,9.5,6.5c0-1.6,0-3.3,0-4.9c-0.9,7.5-7.6,10.2-14.4,10.6c-0.1,0,0,5,0,5
			c7.7-0.4,14.4-4,14.4-12.4c0-2,0.1-3.9-0.4-5.9c-0.9-3.9-5.8-5.3-9.1-3.8c0,1.7,0,3.3,0,5c4.3-4,4.7-7.8,4.7-13.2
			c-0.1-6.8-9.6-8.9-9.8-1.5c0,1.1,0,2.3,0,3.4C205.1,181.4,205.1,183,205.1,182.1L205.1,182.1z"/>
	</g>
</g>
<g>
	<g>
		<path fill="#E30613" d="M213.1,160.1c-9.4-4.8-18.4,1.2-23.9,8.8c-4.7,6.4-6,13.5-5.9,21.2c0.1,17.5,18,35.2,35.8,30.6
			c15.1-4,20.2-20.9,18.9-34.7c-0.9-9.6-5.3-17.7-13-23.5c-4.3-3.3-19.9-10.7-22.7-2.3c-0.5,1.5,0.5,3.5,0,5
			c2.1-6.3,11.9-3,16.2-1.3c7.1,2.8,12.7,8.4,16.2,15c7.6,14.3-0.8,31.9-15.7,36.9c-15.4,5.2-30.2-9.5-34.7-23
			c-2.7-7.9,2.7-16.7,7.8-22.5c5.3-6,13.6-8.9,21-5.1C212.4,164.7,213.8,160.4,213.1,160.1L213.1,160.1z"/>
	</g>
</g>
<g>
	<g>
		<path fill="#F18700" d="M327.9,241c-1.4-4.5-4.2,6.1-4.4,6.9c-1.3,5-2.5,10-3.8,15c-2.5,9.9-5,19.9-7.4,29.8
			c-2.4,9.9-4.6,19.9-6.4,30c-0.5,2.5-0.9,5-1.3,7.6c-0.2,1.3-0.4,2.5-0.6,3.8c0.1,2.4-0.3,2.5-1.3,0.4c-2.6-4.1-4.6-8.6-6.2-13.1
			c0,1.7,0,3.3,0,5c2.3,4.7,4.3,9.5,6,14.5c0.4,1.1,0.7,2.2,1,3.3c1,3.2,1.4,0.2,2.4-1.4c1.6-2.6,3.2-5.2,4.8-7.8
			c0.8-1.2-0.7-3.8,0-5c-1.3,2.1-2.6,4.1-3.8,6.2c-0.6,1-1.3,2.1-1.9,3.1c-1.8,2.9-1.4,0.1-1.9-1.8c-1.7-5.6-4-10.9-6.5-16.1
			c0.7,1.3-0.5,3.6,0,5c1.6,4.6,3.7,8.9,6.2,13.1c0.9,2.2,1.3,2,1.3-0.4c0.2-1.3,0.4-2.5,0.6-3.8c0.4-2.5,0.8-5,1.3-7.6
			c1.8-10.1,4-20.1,6.4-30c2.4-10,4.9-19.9,7.4-29.8c1.3-5,2.5-10,3.8-15c0.2-0.7,2.9-11.4,4.4-6.9
			C327.4,244.5,328.4,242.5,327.9,241L327.9,241z"/>
	</g>
</g>
<g>
	<g>
		<path fill="#F18700" d="M332.8,329.9c0.1,8.7,0.1,17.5,0.2,26.2c0,3.1,0-1.8,0-2.5c-0.1-8.7-0.1-17.5-0.2-26.2
			C332.8,324.3,332.8,329.1,332.8,329.9L332.8,329.9z"/>
	</g>
</g>
<g>
	<g>
		<path fill="#F18700" d="M330.4,333.8c4.2-0.9,8.4-1.8,12.7-2.7c0.4-0.1-0.3-4.9,0-5c-4.2,0.9-8.4,1.8-12.7,2.7
			C330.1,328.8,330.7,333.7,330.4,333.8L330.4,333.8z"/>
	</g>
</g>
<g>
	<g>
		<path fill="#F18700" d="M332.4,350.8c2.7,0.2,5.3-0.3,7.7-1.5c0.2-0.1,0-2.3,0-2.5c0-0.2-0.2-2.4,0-2.5c-2.4,1.2-5,1.7-7.7,1.5
			C332.5,345.8,332.2,350.8,332.4,350.8L332.4,350.8z"/>
	</g>
</g>
<g>
	<g>
		<path fill="#F18700" d="M349,360c-1.2-1-1.8-2.1-1.9-3.7c0,1.6,0,3.3,0,4.9c0.2-2.6,0.3,0,0.4,0.5c0.2,1.1,0.4,2.2,0.6,3.3
			c0.3,1.9,0.7,3.8,1,5.8c-0.3-1.6,0.3-3.4,0-5c-0.4-2.2-0.8-4.4-1.1-6.6c-0.2-1.1-0.4-2.2-0.6-3.3c-0.3-1.9-0.3,0.3-0.3,0.7
			c0,2.9-0.6,6.3,1.9,8.3c-0.2-0.2,0-2.2,0-2.5C349,362.2,349.2,360.2,349,360L349,360z"/>
	</g>
</g>
<g>
	<g>
		<path fill="#F18700" d="M322.8,316.1c5.1-0.8,10.3-1.5,15.4-2.3c0.1,0,0.1-5,0-5c-1.6-0.2-3.2-0.5-4.8-0.7c0,1.7,0,3.3,0,5
			c3-0.8,7.1-1.2,7.7,2.8c0-1.7,0-3.3,0-5c-0.1,0.8-0.2,1.2-0.8,1.8c-0.9,0.9,0.8,4.1,0,5c1.4-1.4,0.9-4.2,0.8-6.1
			c0-4.5-4.3-4.4-7.7-3.5c-0.2,0,0,5,0,5c1.6,0.2,3.2,0.5,4.8,0.7c0-1.7,0-3.3,0-5c-5.1,0.8-10.3,1.5-15.4,2.3
			C322.5,311.1,323,316,322.8,316.1L322.8,316.1z"/>
	</g>
</g>
<g>
	<g>
		<path fill="#F18700" d="M349.7,260.6c22.7,27.7,41.3,58.4,55.2,91.4c0-1.7,0-3.3,0-5c-5.1-0.1-9.2-2.3-12.2-6.4c0,1.7,0,3.3,0,5
			c1.8,2,12.3,10.9,12.5,4.2c0.2-5,0-10.1,0-15.1c0-3.5-0.1-0.2,0,1.3c0,4,0,8,0,12c0-1.1,0-2.1,0-3.2c-0.6,6.4-10.6-2.2-12.5-4.3
			c0.8,0.9-0.8,4,0,5c3,4.1,7.1,6.3,12.2,6.4c-0.1,0,0.2-4.5,0-5c-13.9-33-32.5-63.8-55.2-91.4C350.5,256.6,348.8,259.6,349.7,260.6
			L349.7,260.6z"/>
	</g>
</g>
<g>
	<g>
		<path fill="#F18700" d="M418.2,367.1c1.1,11.3,2.2,22.6,3.4,33.9c-0.2-1.6,0.2-3.3,0-5c-1.1-11.3-2.2-22.6-3.4-33.9
			C418.3,363.7,418,365.4,418.2,367.1L418.2,367.1z"/>
	</g>
</g>
<g>
	<g>
		<path fill="#F18700" d="M416.9,369c4.7-3,10.2-3.8,15.5-2.1c-0.4-0.1,0.5-4.8,0-5c-5.3-1.6-10.8-0.9-15.5,2.1
			C416.1,364.5,417.7,368.6,416.9,369L416.9,369z"/>
	</g>
</g>
<g>
	<g>
		<path fill="#F18700" d="M418.7,391.1c4.7-2.2,9.6-3.7,14.7-4.6c0.3-0.1-0.2-5,0-5c-5.1,0.9-10,2.4-14.7,4.6
			C418.1,386.4,419.3,390.8,418.7,391.1L418.7,391.1z"/>
	</g>
</g>
<g>
	<g>
		<path fill="#F18700" d="M413,355.4c3.2,0,6.2-0.4,9.3-1.1c2.6-0.6,6.4-1.4,7.8-3.9c0.6-1.1,0.7-5.8-0.5-6.3c0,1.7,0,3.3,0,5
			c1.5,0.5,2.1,1.4,2.3,2.9c0-1.7,0-3.3,0-5c0,0.5-0.1,1-0.4,1.5c-0.6,1.4,0.6,3.7,0,5c1.2-2.5,1.2-8.4-1.9-9.4c0.5,0.2-0.6,4.7,0,5
			c0.4,0.1,0.6,0.3,0.7,0.7c0-1.7,0-3.3,0-5c-0.6,2.8-4.3,3.4-6.6,4.2c-3.4,1.1-7,1.4-10.6,1.5C412.9,350.4,413,355.4,413,355.4
			L413,355.4z"/>
	</g>
</g>
<g>
	<g>
		<path fill="#F18700" d="M437.2,401.9c1.9-1.4,9-6,10.1-2.1c0-0.4,0-0.8,0-1.2c0,0.3,0,0.6,0,0.8c0-1.3,0-2.5,0-3.8
			c-0.8,5.1-3.3,9.8-6.4,13.8c-0.3,0.4,0.1,5,0,5c3.8,0,7.3-0.6,10.8-2.1c0.6-0.3-0.6-4.8,0-5c-3.5,1.5-7.1,2.1-10.8,2.1
			c0,1.7,0,3.3,0,5c3.5-4.4,6.4-9.9,6.5-15.6c0-1.7,0.5-4-0.8-5.3c-1.7-1.9-8,2.3-9.4,3.4C436.4,397.5,438,401.4,437.2,401.9
			L437.2,401.9z"/>
	</g>
</g>
<g>
	<g>
		<path fill="#009CB4" d="M341.2,234.1c8.9-3.3,17.8-6.7,26.7-10c8.5-3.2,17.2-7.4,26.5-7.4c-0.1,0,0.2-4.9,0-5
			c-3.9-1-7.8-1.9-11.6-2.9c0.4,0.1-0.5,4.8,0,5c3.6,1.2,7.1,2.5,10.7,3.7c0-1.7,0-3.3,0-5c-2,3.2-4,6.4-6,9.6c-0.8,1.2,0.7,3.8,0,5
			c2-3.2,4-6.4,6-9.6c0.2-0.4,0.1-4.9,0-5c-3.6-1.2-7.1-2.5-10.7-3.7c0,1.7,0,3.3,0,5c3.9,1,7.8,1.9,11.6,2.9c0-1.7,0-3.3,0-5
			c-9.3,0-18,4.2-26.5,7.4c-8.9,3.3-17.8,6.7-26.7,10C340.7,229.3,341.8,233.9,341.2,234.1L341.2,234.1z"/>
	</g>
</g>
<g>
	<g>
		<path fill="#009CB4" d="M400.4,226.8c1,2.4,2,4.9,2.9,7.3c0.6,1.5,1.2,2.9,1.8,4.4c-0.2-0.4,1.7-3.6,1.9-4.1
			c2.5-5.5,4.3-11.2,5.8-17c0.4-1.6-0.4-3.4,0-5c-1.4,5.3-3.1,10.5-5.2,15.6c-0.6,1.4-1.2,2.7-1.8,4.1c-1.2,2.7-1.2-0.1-1.8-1.6
			c-1.2-2.9-2.3-5.9-3.5-8.8C400.9,223.2,399.8,225.3,400.4,226.8L400.4,226.8z"/>
	</g>
</g>
<g>
	<g>
		<path fill="#009CB4" d="M398.5,208.9c3.2-0.6,6.5-1.2,9.7-1.8c0.1,0,0.1-5,0-5c-3-0.6-5.3-2.4-6.8-5.1c0,1.7,0,3.3,0,5
			c2.9,2,5.8,4,8.7,6c0-1.7,0-3.3,0-5c-1.4,2.8-2.9,5.6-4.3,8.4c-0.7,1.3,0.7,3.7,0,5c1.4-2.8,2.9-5.6,4.3-8.4c0.2-0.4,0.3-4.8,0-5
			c-2.9-2-5.8-4-8.7-6c0.7,0.5-0.5,4.1,0,5c1.4,2.7,3.7,4.5,6.8,5.1c0-1.7,0-3.3,0-5c-3.2,0.6-6.5,1.2-9.7,1.8
			C398.1,203.9,398.7,208.8,398.5,208.9L398.5,208.9z"/>
	</g>
</g>
<g>
	<g>
		<path fill="#009CB4" d="M265.4,591.3c0,0,0-5,0-5S265.4,591.3,265.4,591.3L265.4,591.3z"/>
	</g>
</g>
<g>
	<g>
		<path fill="#009CB4" d="M250.5,592.4c10.6-53.5,24.1-106.3,38-159c14-53.2,28-106.4,42-159.5c0.2-0.7-0.4-4.8,0-5
			c-5.5,2.7-10.3,6.2-14.6,10.6c-0.8,0.8,0.8,4.4,0,5c4.2-3.2,8.5-6.5,12.7-9.7c0.8-0.6,4.5,10.7,4.7,11.7c-0.3-1.6,0.3-3.4,0-5
			c-0.8-4.2-2.4-8-4.7-11.7c0.1,0.1-11.7,8.9-12.7,9.7c0,1.7,0,3.3,0,5c4.2-4.5,9-8,14.6-10.6c0-1.7,0-3.3,0-5
			c-14,53.2-28.1,106.4-42,159.5c-13.9,52.7-27.4,105.5-38,159C250.1,589,250.8,590.8,250.5,592.4L250.5,592.4z"/>
	</g>
</g>
<g>
	<g>
		<path fill="#009CB4" d="M310.9,463.9c2.2,6.9,4,14.5,3.9,21.8c0,1.1,0,2.3,0,3.4c0,0.1,0,1.8,0,0.9c0.1-10.6-0.7-20.9-3.9-31.1
			C311.3,460.4,310.4,462.3,310.9,463.9L310.9,463.9z"/>
	</g>
</g>
<g>
	<g>
		<path fill="#009CB4" d="M308.1,467.9c0.5-3.3,1.7-5.9,3.8-8.5c1.2-1.4,2.7-2.4,4.3-3.2c0.9-0.5,1.8,6.7,1.8,6.6c0-1.6,0-3.3,0-4.9
			c-0.2,3-1.1,5.3-3,7.7c-0.3,0.4-0.3,4.7,0,5c2.7,3.1,5.5,6,8.3,9c1.2,1.3,2.5,2.5,3.7,3.7c-0.2-0.2,2.4-4.9,2.6-5.4
			c0.7-1.4-0.7-3.7,0-5c-0.7,1.3-1.3,2.7-2,4c-0.3,1.8-1,1.8-1.9,0.1c-0.8-0.8-1.6-1.7-2.5-2.5c-2.9-2.9-5.6-5.9-8.3-9
			c0,1.7,0,3.3,0,5c3-3.8,3.1-8,3-12.6c0-1.5-0.2-2.8-0.6-4.2c-0.8-2.8-1.4-2.5-3.5-1.1c-3.4,2.3-5.2,6.4-5.8,10.3
			C307.9,464.6,308.4,466.3,308.1,467.9L308.1,467.9z"/>
	</g>
</g>
<g>
	<g>
		<path fill="#009CB4" d="M304.2,447.2c5.3-1.6,10.5-3.3,15.8-4.9c0.1,0,0.1-5,0-5c-3.3-1.1-6.7-2.3-10-3.4c0,1.7,0,3.3,0,5
			c3.5-1.8,7.8-0.6,9.6,3c0-1.7,0-3.3,0-5c-0.4,2.5-1.2,4.7-2.5,6.9c-0.8,1.2,0.7,3.8,0,5c2.3-3.8,2.6-7.3,2.5-11.5
			c0-1.5-2-2.8-3.1-3.4c-2-1.1-4.5-0.9-6.5,0.1c-0.2,0.1-0.1,5,0,5c3.3,1.1,6.7,2.3,10,3.4c0-1.7,0-3.3,0-5
			c-5.3,1.6-10.5,3.3-15.8,4.9C303.6,442.4,304.6,447.1,304.2,447.2L304.2,447.2z"/>
	</g>
</g>
<g>
	<g>
		<path fill="#E30613" d="M246,497.9c-2,3.2-4,6.4-6,9.6c0,1.7,0,3.3,0,5c2-3.3,4-6.6,6.1-9.9c0.7-1.2,0.6-2.4,1.8-1
			c0.7,0.8,1.4,1.7,2.1,2.5c1.4,1.7,2.8,3.4,4.2,5c-0.8-1,0.8-4,0-5c-1.2-1.4-2.4-2.8-3.5-4.2c-0.7-0.8-1.4-1.7-2.1-2.5
			c-0.9-1-1-2.3-2-0.8c-2.2,3.6-4.4,7.2-6.6,10.8c-0.7,1.2,0.7,3.8,0,5c2-3.2,4-6.4,6-9.6C246.8,501.7,245.3,499.1,246,497.9
			L246,497.9z"/>
	</g>
</g>
<g>
	<g>
		<path fill="#E30613" d="M308.6,578.7c1.9,1.4,3.9,2.8,5.8,4.2c2,1.4,4.9,2.7,5.2,5.3c0-1.7,0-3.3,0-5c-1.1,3.7-4,7.1-6.4,10
			c-0.8,1,0.8,4,0,5c3.4-4.1,6.5-7.8,6.5-13.2c0-2,0-3.2-1.7-4.6c-3-2.4-6.2-4.4-9.3-6.7C309.3,574.2,307.7,578.1,308.6,578.7
			L308.6,578.7z"/>
	</g>
</g>
<g>
	<g>
		<path fill="#009640" d="M900.1,761.8c-11.8,2.7-21.5,10.3-27.2,20.9c-4.5,8.3-4.9,18-4.3,27.2c1.4,23.8,23.6,43.7,47.3,42.3
			c11.7-0.7,22.7-7.1,30.1-15.9c6.7-7.9,8.7-17.6,8.7-27.6c-0.1-25.3-20.1-46.2-45.3-48.7c-6-0.6-12,0.8-16.9,4.2
			c-0.8,0.6,0.8,4.5,0,5c9.5-6.7,21.6-4.6,31.7-0.4c10.7,4.4,19.7,12.5,25.3,22.6c6.3,11.4,6.2,24.1-0.3,35.3
			c-5.4,9.3-14.9,15.8-25.1,18.9c-20.6,6.3-41.8-6.3-51.2-24.6c-11.6-22.8,3.2-48.8,27.1-54.3C900.5,766.7,899.8,761.9,900.1,761.8
			L900.1,761.8z"/>
	</g>
</g>
<g>
	<g>
		<path fill="#009640" d="M896.1,791.7c-0.7,6.2-1.5,12.4-2.2,18.5c-0.1,1.2-0.3,2.5-0.4,3.7c-0.5,4.3-0.7-0.3-0.9-1.4
			c-0.7-3.8,0.3-7.6,1.5-11.2c0.4-1,0.8-2,1.3-3c0.1-0.2,4.2,1.1,4.5,1.2c2.5,0.7,4.8,1.8,7.1,2.9c5.1,2.5,9.6,6.2,13.4,10.4
			c0-1.7,0-3.3,0-5c-8.8,5.1-17.5,10.3-26.3,15.4c-0.8,0.4,0.7,4.6,0,5c8.8-5.1,17.5-10.3,26.3-15.4c0.2-0.1,0.2-4.7,0-5
			c-5-5.4-10.8-9.5-17.6-12.3c-1.4-0.6-2.9-1-4.4-1.5c-3.1-0.9-3.1-0.7-4.3,2.3c-1.2,3.1-1.8,6.6-1.9,10c-0.1,3.8-0.1,7.5,0.4,11.2
			c0.1,1,0.4,5.7,0.9,1.4c0.3-2.5,0.6-4.9,0.9-7.4c0.6-4.9,1.2-9.9,1.8-14.8C896.3,795.1,895.9,793.3,896.1,791.7L896.1,791.7z"/>
	</g>
</g>
<g>
	<g>
		<path fill="#009640" d="M897,814.2c0.7-3.5,2.3-6.4,4.8-8.9c0-1.7,0-3.3,0-5c-1.2,2.6-2.3,5.3-3.5,7.9c-0.4,1,0.7,4.4,0,5
			c2.3-1.9,4.2-4,5.9-6.4c0.5-3.4,0.5-4.2,0.1-2.3c-0.2,0.8-0.6,1.7-1,2.4c-0.8,1.6-1.9,3.1-3,4.5c-0.3,0.4,0.3,5,0,5
			c2.2-0.3,3.6-1.6,4.9-3.3c0.3-0.4,0.6-0.9,0.9-1.4c0.4-3.4,0.4-4.2,0-2.4c-0.3,1.1-0.9,2.1-1.6,3c-0.6,0.8,0.7,4.6,0,5
			c2.4-1.4,4.4-3.1,6.2-5.2c0-0.4,0-0.8,0-1.2c0,1.4,0,2.8,0,4.1c0,0.1,0,1.8,0,0.9c0-1.1,0-2.3,0-3.4c0-1.4,0-2.8,0-4.1
			c0-0.1-0.1-1.1,0-1.2c-1.8,2.1-3.8,3.8-6.2,5.2c0,1.7,0,3.3,0,5c2.4-3.3,2.1-7.3,1.9-11.2c0,0,0-0.1,0-0.1c-1.4,2.5-3.1,5-6.1,5.4
			c0,1.7,0,3.3,0,5c1.9-2.5,4.1-5.5,4.3-8.7c0.1-2.2,0.1-4.4,0-6.6c0,0,0-0.1,0-0.1c-1.7,2.7-3.8,5.1-6.3,7.1c0,1.7,0,3.3,0,5
			c1.2-2.6,2.3-5.3,3.5-7.9c0.3-0.6,0-1.9,0-2.5c0-0.3-0.3-2.3,0-2.5c-2.5,2.5-4.1,5.4-4.8,8.9C896.7,810.8,897.3,812.6,897,814.2
			L897,814.2z"/>
	</g>
</g>
<g>
	<g>
		<path fill="#E30613" d="M1026.8,769.5c-10.8,3.2-19.6,10.1-25.6,19.6c-4.9,7.7-6,16.3-5.9,25.2c0.2,24.6,26.5,35.6,47.7,30.3
			c11.1-2.8,20.6-10.4,25.4-20.8c3.2-6.8,3.3-14.4,2.9-21.8c-1.1-22.1-25.6-34.9-44.9-25.3c-0.7,0.3,0.6,4.7,0,5
			c15.9-7.9,35.8-0.9,42.7,15.5c8.1,19.1-8.7,37.4-26.1,42.4c-18,5.1-40.3-2.7-46.5-21.4c-3.3-10,1.9-21.1,7.9-28.9
			c5.6-7.2,13.6-12.3,22.3-14.9C1027.3,774.3,1026.4,769.6,1026.8,769.5L1026.8,769.5z"/>
	</g>
</g>
<g>
	<g>
		<path fill="#E30613" d="M1029.8,800.8c0.5,5.1,0.5,10.1,0.5,15.3c0-3.2,0.1-6.4,0.1-9.6c0-1.8-0.2-7.4,0.5-2.3
			c0.6,4.5,0.6,8.8,0.2,13.3c-0.1,1.6,0.3,3.4,0,5c0.7-3.7,1.3-7.5,2-11.2c0.4-2.1,0.8-4.3,1.1-6.4c0.2-1.1,0.4-2.1,0.6-3.2
			c0.1,1.1,0.3,2.2,0.4,3.3c0.3,3.3,0.5,6.6,0.4,9.9c-0.2,5.9,0-1.7,0-2.8c0-4.6,0-9.2,0-13.7c0-0.3,0-3,0-2.2
			c-0.2,8.2,0.2,16.2,1.9,24.3c0-1.7,0-3.3,0-5c-0.7-2.5-1.2-4.9-1.5-7.4c-0.6-4.5,0,3.3,0,2.8c-0.1,2.2-0.3,4.4-0.6,6.6
			c-0.2,1.6,0.2,3.4,0,5c0.9-7.8,0.9-15.7,0.3-23.5c0,0,0,0.1,0,0.1c-0.3,7.2-0.1,14.4,1.8,21.5c-0.4-1.5,0.3-3.4,0-5
			c-0.5-2.2-0.9-4.3-1.2-6.5c-0.2-1.1-0.3-2.2-0.4-3.3c0,0.4-0.3-9.5-0.3-3.9c0,5.7,0,11.5,0,17.2c0,0.6,0,2.1,0,2.4
			c0.3-6,0.3-12,0-18c-0.1-1.7-0.3-3.4-0.4-5c-0.1-2.2-0.2-2.2-0.5,0c-0.3,1.6-0.6,3.2-0.8,4.8c-0.8,4.8-1.7,9.6-2.5,14.4
			c0,1.7,0,3.3,0,5c0.8-8.8,0.6-17.9-0.7-26.6c0,0.2,0,0.5,0,0.7c-0.1,5.8-0.1,11.7-0.2,17.5c0,1.3,0.1,3.2,0,4.2
			c0.3-7.5,0.2-15-0.5-22.5C1030,797.4,1029.7,799.1,1029.8,800.8L1029.8,800.8z"/>
	</g>
</g>
<g>
	<g>
		<path fill="#E30613" d="M959.3,492.1c-2,55-4,110-6,165c0-0.3,2.9-0.5,2.9-0.8c2-55,4-110,6-165
			C962.2,491.6,959.3,491.8,959.3,492.1L959.3,492.1z"/>
	</g>
</g>
<g>
	<g>
		<path fill="#E30613" d="M933,632.2c63.9-2.4,127.9-4.9,191.8-7.3c0.4,0,2.8-1,2.9-0.8c-2.1-2.8-4.4-5-7.3-7
			c-0.5-0.3-2.5,1.1-2.9,0.8c3,3,6,6,9,9c2.1,2,0.4,2.1-1.5,3.7c-1.8,1.6-3.7,3.2-5.5,4.8c0.7-0.6,2.2-0.2,2.9-0.8
			c1.4-1.2,2.8-2.4,4.1-3.6c0.9-0.8,1.8-1.6,2.8-2.4c1.8-0.8,1.8-1.6,0.1-2.5c-3-3-6-6-9-9c-1,0.3-1.9,0.5-2.9,0.8
			c2.9,2,5.2,4.2,7.3,7c1-0.3,1.9-0.5,2.9-0.8c-63.9,2.4-127.9,4.9-191.8,7.3C934.9,631.5,934,632.2,933,632.2L933,632.2z"/>
	</g>
</g>
<g>
	<g>
		<path fill="#E30613" d="M956,489.2c-2.9,4.4-5.7,8.7-8.6,13.1c1-0.3,1.9-0.5,2.9-0.8c1.4-5.6,3.8-10.7,7.1-15.4
			c-1,0.3-1.9,0.5-2.9,0.8c2.8,4.1,5.6,8.2,8.5,12.3c0.2,0.3,2.7-1,2.9-0.8c-2.8-4.1-5.6-8.2-8.5-12.3c0-0.1-2.8,0.6-2.9,0.8
			c-3.3,4.7-5.7,9.8-7.1,15.4c0.1-0.5,2.6-0.3,2.9-0.8c2.9-4.4,5.7-8.7,8.6-13.1C958.5,489.1,956.4,488.6,956,489.2L956,489.2z"/>
	</g>
</g>
<g>
	<g>
		<path fill="#F18700" d="M989.3,574.1c4.6-13.6,11.4-26.2,20.3-37.5c4.1-5.1,8.5-10.1,14-13.7c6.1-4.1,13.1-3.3,19.4-0.3
			c27,12.7,17.1,51.9,24.8,74.8c1.9,5.8,5.4,11.2,12.1,11.5c1.8,0.1,3.8-0.6,5.5-1.1c14-4.2,13.4-20.4,14.9-32.2
			c3.5-27.2,15.7-54.2,40.6-67.9c9.2-5.1,19.5-7,29.9-5.7c0.9,0.1,2-0.9,2.9-0.8c-20.8-2.5-41.6,7.5-55.1,22.9
			c-9.2,10.5-14.9,23.9-18.4,37.3c-1.7,6.6-2.7,13.3-3.5,20c-0.8,7.3-1.2,14.7-5.3,21c-3.5,5.3-9.6,7.3-15,3.6
			c-5.6-3.8-7.2-13.4-8.3-19.5c-2.6-14-1.3-28.5-5.1-42.3c-3.4-12.1-12.3-22.9-25.3-24.9c-7.4-1.1-15.5,2.7-21,7.2
			c-14.5,11.9-24.6,30.9-30.4,48.4C986.6,574.4,989.1,574.7,989.3,574.1L989.3,574.1z"/>
	</g>
</g>
<g>
	<g>
		<path fill="#F18700" d="M909,472.6c-0.8,5-1.7,10.1-2.5,15.1c-0.4,2.5-0.8,5-1.3,7.6c-0.2,1.3-0.4,2.5-0.6,3.8
			c-0.5,2.9,0.5,2,2.8,1.7c3.5-0.4,7.2-2.1,9.7-4.5c-0.6,0.6-2.2,0.2-2.9,0.8c-1.6,1.5-3.2,2.5-5.3,3.3c0.9-0.2,1.8-0.5,2.7-0.7
			c-1.5,0.5-2.9,0.6-4.5,0.5c0.2-1.3,0.4-2.5,0.6-3.8c0.4-2.5,0.8-5,1.3-7.6c0.9-5.7,1.9-11.3,2.8-17
			C911.8,472.2,909,472.1,909,472.6L909,472.6z"/>
	</g>
</g>
<g>
	<g>
		<path fill="#F18700" d="M913.1,472.6c2.8-0.9,5.6-1.8,8.4-2.6c-0.7,0.2-1.9,0.5-2.8,0.7c-2.8,0.9-5.6,1.8-8.4,2.6
			C911,473.1,912.2,472.9,913.1,472.6L913.1,472.6z"/>
	</g>
</g>
<g>
	<g>
		<path fill="#F18700" d="M906.2,484.9c4.2,0.4,8.2-0.5,12.1-1.8c-0.7,0.2-1.9,0.5-2.8,0.7c-0.9,0.3-0.8,0.3,0.2,0
			c-0.9,0.2-1.7,0.3-2.6,0.4c-1.3,0.1-2.7,0.1-4-0.1C908.1,484,907.1,485,906.2,484.9L906.2,484.9z"/>
	</g>
</g>
<g>
	<g>
		<path fill="#F18700" d="M1133.1,656.2c3.8,10.1-7.5,22.7,2.1,30.8c3.8,3.2,9.3-0.3,12.8-1.8c-0.9,0.3-1.9,0.5-2.8,0.8
			c2.1-0.5,6.4-0.8,4.1-3.9c-0.2-0.3-2.7,1-2.9,0.8c0.9,1.2,0.9,1.7,0,2.9c0.9-0.3,1.9-0.5,2.8-0.8c-3.2,0.7-5.8,2.1-8.9,3.2
			c1-0.3,1.9-0.5,2.9-0.8c-7.2,0.9-9.6-6.5-9-12.4c0.7-6.8,4.4-12.7,1.8-19.6C1135.9,655.3,1133.1,656.2,1133.1,656.2L1133.1,656.2z
			"/>
	</g>
</g>
<g>
	<g>
		<path fill="#F18700" d="M1122.7,671.6c6.9-0.4,13.8,0,20.6,1.1c0.9,0.2,2-0.9,2.9-0.8c-6.8-1.1-13.7-1.5-20.6-1.1
			C1124.6,670.9,1123.6,671.5,1122.7,671.6L1122.7,671.6z"/>
	</g>
</g>
<g>
	<g>
		<path fill="#009640" d="M1003,446.3c3.3-5.1-2.4-9.8-7.4-8.4c-4.6,1.2-7.6,3.4-9.3,8.2c-1.1,3.2-1.9,9.7,1.4,11.4
			c1.4,0.7,3.2,0.2,4.6-0.2c5.8-1.5,7.5-5.6,8.7-11.2c-1,0.3-1.9,0.5-2.9,0.8c2.8,8.3,4.7,16.8,6,25.5c0.6,4.3,0.9,8.7,1.1,13.1
			c0.1,3.5,1.3,9.6-3,10.9c0.9-0.3,1.9-0.5,2.8-0.8c-6.4-0.1-9.4-7.1-10.1-12.6c-0.8-6.2,2-12.6,6.9-16.4c-0.7,0.6-2.2,0.2-2.9,0.8
			c-5.8,4.6-7.9,11.7-6.5,18.8c1,5.1,5.3,11.3,11.2,9.8c1.3-0.4,2.4-0.6,3.5-1.5c2.9-2.3,0.9-12.3,0.7-15.5
			c-0.8-11.2-3.2-22.3-6.7-33c0,0.1-2.9,0.6-2.9,0.8c-1,4.5-2.2,9.1-6.9,10.7c1-0.3,1.9-0.5,2.9-0.8c-6,1-5.8-3.5-5.5-8.3
			c0.3-4.9,2.9-9.3,7.7-10.9c-0.9,0.3-1.9,0.5-2.8,0.8c4.9-0.7,9.7,3.9,6.7,8.6C1000.5,446.4,1002.6,446.9,1003,446.3L1003,446.3z"
			/>
	</g>
</g>
<g>
	<g>
		<path fill="#009640" d="M1013.6,461.8c4.7-4.7,6.8-10.8,5.8-17.4c-1,0.3-1.9,0.5-2.9,0.8c4.1-0.8,8.1-1.9,11.8-3.7
			c-1,0.3-1.9,0.5-2.9,0.8c-0.8,5.1-4.8,16.3,2.5,18.4c2,0.6,5.7-0.8,6.7-2.4c-0.4,0.6-2.5,0.1-2.9,0.8c-0.6,0.9-1,1.2-2,1.6
			c1-0.3,1.9-0.5,2.9-0.8c-9.4,1.1-5.1-13.6-4.3-18.3c0,0.2-2.5,0.6-2.9,0.8c-2,0.9-3.8,1.7-6,2.1c-0.3,0.1-2.9,0.7-2.9,0.8
			c0.9,6.5-1.2,12.7-5.8,17.4C1011.3,462,1012.9,462.4,1013.6,461.8L1013.6,461.8z"/>
	</g>
</g>
<g>
	<g>
		<path fill="#009640" d="M1053.4,446c-1.8-1.4-2.4-1.8-4.5-1.3c-0.8,0.2-1.5,0.4-2.3,0.6c-4.2,1.2-6.8,4.9-7.3,9.1
			c-0.3,2.3,0.2,4.5,2.9,3.9c0.7-0.2,1.4-0.4,2.1-0.6c5.2-1.4,6.5-6,7.3-10.9c-0.1,0.4-2.6,0.4-2.9,0.8c-4.5,5.5,1.2,11,7.1,10.5
			c2.9-0.3,6.1-1.5,7.7-3.9c-0.4,0.6-2.5,0.1-2.9,0.8c-4.4,6.6-14.1-1.9-9-8.1c-1,0.3-1.9,0.5-2.9,0.8c-0.7,4.5-1.7,9.1-6.5,10.7
			c0.9-0.3,1.9-0.5,2.8-0.8c-2,0.3-2.3,0-2.8-1.9c-0.4-1.6,0-3.4,0.6-5c0.6-1.6,1.7-3,2.9-4.1c2-1.9,2.8-1.3,4.7,0.3
			C1051,447.2,1053,445.6,1053.4,446L1053.4,446z"/>
	</g>
</g>
<g>
	<g>
		<path fill="#009640" d="M1091.8,430.5c-5.8-6.2-16.4-1.7-19.8,4.7c-3.4,6.5-1.2,14.6,0.5,21.2c2.4,9,3.5,18,3.4,27.3
			c0-0.3,2.9-0.5,2.9-0.8c0.2-11.2-2.1-21.4-4.6-32.2c-2-8.3-1.5-20,8.3-22.8c-0.9,0.2-1.8,0.5-2.7,0.7c3.6-0.6,6.6,0,9.1,2.7
			C1089.2,431.7,1091.4,430.2,1091.8,430.5L1091.8,430.5z"/>
	</g>
</g>
<g>
	<g>
		<path fill="#009640" d="M1067.1,459.4c3.4-0.7,6.9-1.4,10.3-2.2c0.9-0.2,2.1-0.6,2.8-0.8c-3.4,0.7-6.9,1.4-10.3,2.2
			C1069,458.8,1067.8,459.2,1067.1,459.4L1067.1,459.4z"/>
	</g>
</g>
<g>
	<g>
		<path fill="#009640" d="M1089.8,453.5c0.9,0.3,3.4-0.4,3.8-1.3c0.8-1.9-3.5-0.5-4-0.3c-5.2,1.7-2.3,9.7,2.2,10.1
			c0.9,0.1,2-0.9,2.9-0.8c-4.4-0.4-7.5-8.4-2.3-10.1c-0.9,0.3-1.9,0.5-2.8,0.8c1.1,0,1.8,1.2,0.6,1.7c1-0.3,1.9-0.5,2.9-0.8
			c-0.1,0-0.2-0.1-0.3-0.1C1091.8,452.5,1090.6,453.8,1089.8,453.5L1089.8,453.5z"/>
	</g>
</g>
<g>
	<g>
		<path fill="#009640" d="M1090.7,442.7c1,0,1.9-0.8,2.9-0.8C1092.6,441.9,1091.7,442.7,1090.7,442.7L1090.7,442.7z"/>
	</g>
</g>
<g>
	<g>
		<path fill="#009640" d="M1109,441c-4.4,2.4-8.5,5.6-10.5,10.4c-2,4.9,1.4,9.7,5.9,11.4c5.4,2,12.5-2.8,13.7-7.7
			c-0.1,0.4-2.8,0.3-2.9,0.8c-0.8,3.4-2.9,5.6-6.1,6.9c0.9-0.2,1.8-0.5,2.7-0.7c-6,1.5-11-3.1-10.9-9.1c0.1-5.8,6.4-10.2,10.9-12.7
			C1111,440.7,1109.8,440.6,1109,441L1109,441z"/>
	</g>
</g>
<g>
	<g>
		<path fill="#009640" d="M1038.9,490.3c29.4-15.4,61.9-22.8,95.1-21.7c1,0,1.9-0.8,2.9-0.8c-34.9-1.2-70,7-100.9,23.2
			C1036.9,490.6,1038.1,490.7,1038.9,490.3L1038.9,490.3z"/>
	</g>
</g>
<g>
	<g>
		<path fill="#009640" d="M416.7,774.3c-2.4,1.8,1.3,1.8,2.2,1.6c0.8-0.2,1.6-0.4,2.4-0.7c1.2-0.4,2.7-2.5,3.6-3.4
			c1.6-1.6,3.2-3.1,4.9-4.7c3.3-3.1,6.8-6,10.3-8.9c14.5-11.8,30.7-21.4,47.8-28.8c-0.9,0.4-2,0.4-2.9,0.8
			c-12.5,5.4-24.4,11.9-35.6,19.6c-11.3,7.7-20.6,17.2-30.9,26.1c0.8-0.2,1.6-0.4,2.5-0.7c-1.6,0.4-2.6-0.9-1.3-1.8
			C418.8,774.1,417.4,773.7,416.7,774.3L416.7,774.3z"/>
	</g>
</g>
<g>
	<g>
		<path fill="#E30613" d="M1029.8,365.5c-0.5-3.5,1.1-6.3,4.6-7.4c-0.9,0.3-1.9,0.5-2.8,0.8c1.2,5.7,0,10.7-2.5,15.9
			c-1.2,2.6-2.9,5-4.5,7.4c-1,1.4-2.1,2.8-3.1,4.1c-1.4,1.8-1,1.9,0.3,3.6c3.6,4.7,12,0.7,13.6-3.4c-1,0.3-1.9,0.5-2.9,0.8
			c3.5,4.8,5.1,10.2,4.8,16.1c0-0.3,2.9-0.5,2.9-0.8c0.2-6-1.4-11.3-4.8-16.1c0-0.1-2.8,0.6-2.9,0.8c-0.9,2.3-2.2,3.6-4.5,4.5
			c1-0.3,1.9-0.5,2.9-0.8c-3,0.4-5.1-0.5-6.9-2.9c-1.4-1.8,4.4-7.7,5.6-9.6c4-6.1,6.6-13,5-20.4c0,0-2.6,0.7-2.8,0.8
			c-3.4,1.1-5.2,3.9-4.7,7.4C1026.9,366.2,1029.8,365.7,1029.8,365.5L1029.8,365.5z"/>
	</g>
</g>
<g>
	<g>
		<path fill="#E30613" d="M1041.9,343.2c-6.9-4.2-14.3-4-21.8-1.9c-10.2,2.9-17,10.9-20.2,20.8c-3.9,12.2-0.3,25.4,5.5,36.3
			c6.1,11.5,15.4,19.3,29,16.9c19.6-3.5,28.7-21.3,28.7-40c0-5.7-0.9-11.3-3.3-16.4c-2.7-5.9-8.3-8.6-13.4-12
			c-3.3-2.3-6.1-9.1-10.9-8c-1.7,0.4-3.3,0.7-4.4,2c0.5-0.6,2.3-0.1,2.9-0.8c0.4-0.7,1-1.1,1.7-1.3c-1,0.3-1.9,0.5-2.9,0.8
			c4.2-0.4,5.8,3.4,8.3,6.1c3.1,3.3,7.8,5.1,11.3,8c7.1,5.9,8,16.9,7.7,25.5c-0.6,17.7-12.2,38.7-32.7,35.5c-9.2-1.4-15-9.5-19.2-17
			c-4.9-8.8-7.7-18.8-7-28.8c1.3-18.4,19.4-36,37.6-24.8C1039.6,344.4,1041.3,342.9,1041.9,343.2L1041.9,343.2z"/>
	</g>
</g>
<g>
	<g>
		<path fill="#E30613" d="M759.6,525.4c-0.3,0-0.7,0-1,0c-0.5,0-1,0.3-1.5,0.4c-0.3,0.1-0.7,0.2-1,0.3c-0.1,0-0.3,0.1-0.4,0.1
			c0.3,0,0.7,0,1,0c0.5,0,1-0.3,1.5-0.4c0.3-0.1,0.7-0.2,1-0.3C759.3,525.5,759.5,525.4,759.6,525.4L759.6,525.4z"/>
	</g>
</g>
<g>
	<g>
		<path fill="#F18700" d="M615.9,432.6c-0.2-3.8,0.6-8.9,2.6-12.2c2-3.3,6.8,0.2,8.2,2c2.3,2.8,3.3,6.2,5.9,8.9
			c1.3,1.4,3,2.3,4.6,3.1c2.5,1.3,2.8,0.9,4.1-1.4c1.9-3.3,1.5-7.7,1.4-11.4c-0.1-6.6-5.2-11.5-11.4-12.7c0,1.7,0,3.3,0,5
			c4.8-0.1,9.1-1.2,13.4-3.3c0.7-0.3-0.6-4.7,0-5c-4.3,2.1-8.6,3.2-13.4,3.3c0.1,0-0.2,5,0,5c6.4,1.3,10.7,5.9,11.4,12.4
			c0-0.8,0-1.7,0-2.5c0,0.5,0,0.9,0,1.4c0-0.8,0-1.7,0-2.5c-0.3,2.9-1.2,5.3-2.9,7.7c-0.7,1-6.6-3.6-7.2-4.1
			c-4.3-3.7-4.7-11.1-11.1-12c-7.1-1-5.8,18.2-5.6,23.1C615.8,436.3,615.9,434.2,615.9,432.6L615.9,432.6z"/>
	</g>
</g>
<g>
	<g>
		<path fill="#F18700" d="M607.6,405.3c9.3-1.9,18.6-3.8,27.9-5.7c0,0,0.2-4.9,0-5c-4-1.8-8-2.9-12.3-3.6c0.2,0-0.3,4.9,0,5
			c4.9,0.9,9.8,1.9,14.7,3.1c0-1.7,0-3.3,0-5c-3,3.4-6,6.9-9,10.3c-0.8,1,0.8,4.1,0,5c3-3.4,6-6.9,9-10.3c0.3-0.3,0-5,0-5
			c-4.9-1.2-9.8-2.2-14.7-3.1c0,1.7,0,3.3,0,5c4.3,0.6,8.3,1.8,12.3,3.6c0-1.7,0-3.3,0-5c-9.3,1.9-18.6,3.8-27.9,5.7
			C607.2,400.3,607.9,405.2,607.6,405.3L607.6,405.3z"/>
	</g>
</g>
<g>
	<g>
		<path fill="#009640" d="M609.5,532.7c-0.2,6.6-0.5,13.1-0.7,19.7c0.1-1.9-0.9-5.6-1.1-7.9c-0.4-4.1-0.7-8.2-0.8-12.3
			c0,1.4,0,2.8,0,4.3c0.6-5.6,7.5-4.6,11.9-5c3.2-0.3,6.4-0.6,9.6-1c2.9-0.3,4.7-0.6,5,2.7c0-0.4,0-0.8,0-1.2
			c0,7.2,1.5,15.9-0.5,22.8c-1.1,3.6-4,3-7,2.8c-4.1-0.2-8.1,0.8-11.8,2.3c-0.6,0.2,0.5,4.8,0,5c2.8-1.1,5.5-1.8,8.4-2.1
			c2.6-0.3,5.3,0.4,7.9,0c3.1-0.5,3.2-5.9,3.2-8.2c0.1-8.7,0.6-17.7-0.2-26.3c-0.3-3.4-2.2-3-5-2.7c-3.2,0.3-6.4,0.6-9.6,1
			c-4.3,0.4-11.8-0.6-11.9,5.3c-0.2,9.2,0.7,18.4,1.9,27.5c0,0,0-0.1,0-0.1c0.3-7.2,0.5-14.5,0.8-21.7
			C609.6,536,609.5,533.9,609.5,532.7L609.5,532.7z"/>
	</g>
</g>
<g>
	<g>
		<path fill="#009640" d="M670.3,528.6c-5.2-5.5-14.1,2-14.1,8.1c0,2.6-0.2,4.2,1.9,6.1c3.6,3.2,6.9,4,7.3,9.5c0-1.6,0-3.3,0-4.9
			c-0.3,3.9-2.2,6.3-5.7,7.7c-1.6,0.6-3.5,0.4-5.1,0c-2.5-0.5-2.4-1.7-2.6-3.8c0.2,1.6-0.2,3.3,0,5c0.3,3,0.9,3.5,3.9,4.1
			c2.2,0.5,4.4-0.4,6.2-1.4c2.8-1.6,3.4-4.9,3.4-7.9c0-2.1,0.1-4.2-0.4-6.3c-1.1-5-8.7-5.4-8.8-10.4c0,1.6,0,3.3,0,4.9
			c1.8-4.9,9.6-10.2,14.1-5.6C669.5,532.7,671.2,529.5,670.3,528.6L670.3,528.6z"/>
	</g>
</g>
<g>
	<g>
		<path fill="#009640" d="M677.7,529.3c0.5,8.6,1,17.2,1.5,25.7c-0.1-1.2,0.1-3.3,0-4.8c-0.5-8.6-1-17.2-1.5-25.7
			C677.8,525.6,677.7,527.8,677.7,529.3L677.7,529.3z"/>
	</g>
</g>
<g>
	<g>
		<path fill="#009640" d="M669.4,545.7c4.5-2.6,9.4-4.2,14.5-4.8c0.2,0-0.2-5,0-5c-5.2,0.6-10,2.2-14.5,4.8
			C668.6,541.1,670.1,545.3,669.4,545.7L669.4,545.7z"/>
	</g>
</g>
<g>
	<g>
		<path fill="#009640" d="M698.1,539.9c-3.8-6.3-10.5-0.5-13,3.7c-1.3,2.2-1.4,7.1-0.1,9.3c1.1,2,4.2,1.7,5.9,1.1
			c3-1.1,3.8-5.3,4.1-8c0.2-1.8,0.4-1.3,0.9,0.3c0.5,1.7,1.2,3.4,1.9,5c0.6,1.4,1.1,3.5,2.6,3.8c1.5,0.3,2.7-2.2,3.1-3.2
			c0.6-1.4-0.6-3.6,0-5c-0.9,2-3,4.8-4.6,1.9c-1.7-3.2-2.8-6.6-3.7-10c0,0,0,0.1,0,0.1c-0.2,3.7-0.6,8.1-4.2,10.1
			c-2.4,1.3-5.8,0.2-6.5-2.5c0,1.6,0,3.1,0,4.7c0.1-5.9,9.6-12.9,13.6-6.3C697.3,543.7,698.8,541.2,698.1,539.9L698.1,539.9z"/>
	</g>
</g>
<g>
	<g>
		<path fill="#009640" d="M702.9,521.2c1.9,12.8,4.6,25.5,8,38c-0.4-1.5,0.4-3.4,0-5c-3.4-12.5-6.1-25.2-8-38
			C703.2,517.8,702.7,519.6,702.9,521.2L702.9,521.2z"/>
	</g>
</g>
<g>
	<g>
		<path fill="#009640" d="M698.4,542.8c3.6-3.1,7.7-5.2,12.3-6.3c0.4-0.1-0.3-4.9,0-5c-4.6,1.1-8.7,3.2-12.3,6.3
			c-0.3,0.2,0,2.2,0,2.5C698.4,540.6,698.6,542.6,698.4,542.8L698.4,542.8z"/>
	</g>
</g>
<g>
	<g>
		<path fill="#009640" d="M716.9,550c1.8-3.7,3.1-7.4,4.1-11.3c0.3-1.4-0.7-3.8,0-5c-2.2,3.8-3.7,8.7-2.8,13.2
			c0.8,4.1,4.5,6.6,7.9,3.3c3.3-3.2,5.3-9.3,7.5-13.3c0.6-1.1-0.8-4.2,0-5c-4.5,4.4-5.3,14.2-0.1,18.3c3.9,3.1,9-0.5,9.1-4.9
			c0.1-2,0.1-4.1-0.2-6.1c0.3,1.6-0.3,3.4,0,5c0.1,0.4,0.1,0.8,0.2,1.2c0-1.7,0-3.3,0-5c-0.7,8.7-11.5,6.4-12.5-1.1
			c0,1.6,0,3.3,0,4.9c0.2-3.1,1.3-5.2,3.4-7.3c0-1.7,0-3.3,0-5c-2.4,4.4-4.6,9.2-7.5,13.3c-2.9,4.1-7.2,0.2-7.9-3.3
			c0,1.6,0,3.3,0,4.9c0.1-3.2,1.2-5.4,2.8-8.1c0-1.7,0-3.3,0-5c-1,3.9-2.3,7.6-4.1,11.3C716.3,546.3,717.6,548.6,716.9,550
			L716.9,550z"/>
	</g>
</g>
<g>
	<g>
		<path fill="#009640" d="M608.3,606.8c1.3,5.5,2.7,11,4,16.5c-0.4-1.5,0.2-3.4,0-5c-0.7-6.9-1.7-13.9-2.1-20.8c0,1.6,0,3.3,0,4.9
			c0.8-4.2,6.9-2.9,10-2.8c3.9,0,9-0.9,12.3,1.5c2.8,2,3,8.2,3.6,11.1c1.1,5.5,3.1,11.4,3.3,17.1c0-1.6,0-3.3,0-4.9
			c-0.7,3.4-3.3,3.2-6.3,3.3c-3.7,0.1-7.4,0.2-11.1,0.3c-0.1,0,0,5,0,5c4.7-0.1,12.3,1.1,16.4-1.4c1.5-0.9,1-4.6,0.9-6
			c0-3.8-1-7.5-1.8-11.2c-1.1-5.4-1.7-11.2-3.7-16.4c-1.9-5-9.5-3.5-13.6-3.5c-2.9,0-10-1.4-10.1,3.2c-0.1,8.6,1.2,17.1,2.1,25.6
			c0-1.7,0-3.3,0-5c-1.3-5.5-2.7-11-4-16.5C608.7,603.3,608,605.2,608.3,606.8L608.3,606.8z"/>
	</g>
</g>
<g>
	<g>
		<path fill="#009640" d="M669.1,594.5c-0.1-1.6-1.8-1.1-1.8,0.4c0,1.7,0,3.4,0,5.1c0.1,7,1.1,14.2,1.7,21.2c-0.1-1.7,0.1-3.3,0-5
			c-0.6-6.8-1.1-13.6-1.7-20.4c0,1.3,0,2.5,0,3.8c0-0.4,0-0.8,0-1.1c0,0.4,0,0.8,0,1.2c0.2-0.4,1.6-2.3,1.8-0.2
			C669,598.2,669.2,596,669.1,594.5L669.1,594.5z"/>
	</g>
</g>
<g>
	<g>
		<path fill="#009640" d="M661.3,622.8c6.5,1,12.4-1.7,16.2-6.9c2.5-3.3,2.5-7.3,2.5-11.2c0-5.1-1.3-9.4-4.9-13.3
			c-4-4.4-12.3-6.5-16.4-1.1c-0.8,1.1,0.8,4,0,5c7.7-10.3,21.1,3.5,21.2,12.4c0-1.4,0-2.8,0-4.3c-0.8,9.4-9.5,15.8-18.7,14.4
			C661.6,617.8,661.1,622.8,661.3,622.8L661.3,622.8z"/>
	</g>
</g>
<g>
	<g>
		<path fill="#009640" d="M690.6,599.5c-0.6,4.2-0.6,8.8,0.5,12.9c0.8,3,3.7,6.5,7,4.7c1.3-0.7,1.5-3.5,1.8-4.7
			c0.7-2.9,1.4-5.8,2.1-8.7c0-1.7,0-3.3,0-5c-2.4,13.5-5.5,26.8-9.3,40c-0.4,1.5,0.4,3.5,0,5c3.8-13.2,6.9-26.5,9.3-40
			c0.3-1.6-0.4-3.4,0-5c-1,4-1.2,10.1-3.8,13.4c-3.2,4-7.8-5.2-7.5-7.6C690.8,602.8,690.3,601.1,690.6,599.5L690.6,599.5z"/>
	</g>
</g>
<g>
	<g>
		<path fill="#009640" d="M701.9,623.7c1.8-2.3,4.4-7.7,7.3-7.8c3.1,0,3.9,4.6,4.5,7.2c0-1.7,0-3.3,0-5c-0.5-1.6-0.7-3.3-0.7-5
			c0,1.6,0,3.3,0,4.9c0.9-6.8,7.8-8.1,9.7-1.2c0.3,1.1,0.6,2,1.1,3c1.4,2.7,2.8-0.6,3.7-1.9c2.6-3.5,5.1-7,7.7-10.6
			c0.6-0.8-0.8-4.5,0-5c-5,3.4-5.9,7.7-5.8,13.3c0.1,4.5,4.5,1.1,5.3-1.1c0.3-0.9,0.6-1.9,1-2.7c1.1-2.6,1.5,0.4,2,1.4
			c1.1,2.1,3,3.6,4.9,4.8c-0.7-0.4,0.8-4.5,0-5c-1.7-1-2.9-2.1-4.2-3.6c-1.2-1.5-1.1-4.7-2.8-2.6c-1.1,1.4-1.2,3.5-2.3,5.1
			c-1.4,1.8-3.7,1.1-4.1-0.9c0,1.7,0,3.3,0,5c0.6-3.7,2.8-6.5,5.8-8.6c0-1.7,0-3.3,0-5c-1.8,2.5-3.7,5-5.5,7.5
			c-1.1,1.5-3.6,6.5-5.3,5.6c-3.8-2-0.6-8.7-6.8-8.4c-6.5,0.3-4.9,12.1-3.9,16.1c-0.4-1.6,0.4-3.4,0-5c-0.6-2.6-1.4-7.3-4.5-7.2
			c-3,0-5.6,5.4-7.3,7.8C701,619.8,702.6,622.7,701.9,623.7L701.9,623.7z"/>
	</g>
</g>
<g>
	<g>
		<path fill="#009640" d="M747.8,615c0.2-2.2,1.9-2.8,3.9-2.8c3.1,0.1,3.8,4.3,4.1,6.5c0.5,3.4,0.3-1.6,0.3-2.4c0-1.7-0.1-3.4-0.1-5
			c0,1.1,0,2.1,0,3.2c0.5-2.8,3.6-5.7,5.4-2.1c1.4,2.8,0.2,6.4,3,8.6c-0.6-0.5,0.2-4.1,0-5c-0.1-0.8-0.3-1.6-0.4-2.4
			c0,1.6,0,3.3,0,4.9c0.2-1.8,0.6-3.2,1.5-4.8c1.8-3.1,2.5-0.7,3.8,1.3c1.5,2.4,4,9,7.1,4.9c2.3-2.9,1.4-9.4,1.2-13
			c0.1,1.2,0,2.5,0,3.8c0,1.7,0,3.4,0,5.2c0,3.1,0-1.8,0-2.5c0-1.7,0-3.4,0-5.2c0,1.3,0,2.5,0,3.8c0,0.6,0.1,1.2,0.1,1.8
			c0-1.6,0-3.3,0-4.9c-0.1,2.4-1.7,11.2-5.4,6c-1.5-2-2.7-4.3-4-6.4c-1.6-2.6-2.3-0.6-3.4,1.3c-1.6,2.8-1.2,8.2-0.5,11.3
			c0-1.7,0-3.3,0-5c-2.7-2-1.9-13.1-7.1-9.5c-2.7,1.8-1.4,9-1.3,11.7c0-1.6,0-3.3,0-4.9c-0.5,4.2-0.4,0.2-0.5-0.8
			c-0.2-1.8-1-3.2-2.2-4.5c-1.9-2-5.4-0.4-5.7,2C747.6,611.6,747.9,613.3,747.8,615L747.8,615z"/>
	</g>
</g>
<g>
	<g>
		<path fill="#009640" d="M777.7,596.4c0,0,0-5,0-5C777.7,591.4,777.7,596.4,777.7,596.4L777.7,596.4z"/>
	</g>
</g>
<g>
	<g>
		<path fill="#009640" d="M802.5,601.1c-7.8,0.5-9.8,7.8-9,14.4c0.6,4.8,3.9,8.2,8.8,8.7c5.4,0.5,9.9-4.7,12.1-8.9
			c0.7-1.3-0.7-3.7,0-5c-2.3,4.4-5.8,8.1-10.9,8.9c-5.2,0.9-9.3-3.9-9.9-8.6c0,1.4,0,2.8,0,4.3c0.1-4.9,4.4-8.4,9-8.7
			C802.7,606.1,802.4,601.1,802.5,601.1L802.5,601.1z"/>
	</g>
</g>
<g>
	<g>
		<path fill="#E30613" d="M579.4,315.9c2,29.8,4.4,59.6,5.9,89.4c1.6,32.9-2.1,66.1-4.4,98.9c-4.1,60.4-8.2,120.7-12.3,181.1
			c0,0.7,0.4,4.7,0,4.9c17.5-11,41.4-7.4,61.1-7.3c24.5,0.2,49,0.4,73.5,0.6c48.3,0.4,96.7,0.8,145,1.2c0,0,0.1-4.5,0-5
			c-2.1-18,1.4-36.1,4.1-53.8c2.4-15.2,3.9-30.6,4.3-46c0.6-27.7-1.5-55.3-7.1-82.5c0.3,1.6-0.3,3.4,0,5c7.4,35.3,9,71.3,4.5,107.1
			c-3.2,25.1-8.8,49.8-5.8,75.2c0-1.7,0-3.3,0-5c-48.3-0.4-96.7-0.8-145-1.2c-23.8-0.2-47.7-0.4-71.5-0.6
			c-11.2-0.1-22.5-0.4-33.7-0.1c-10.3,0.3-20.5,1.9-29.4,7.4c0,1.6,0,3.3,0,4.9c4.5-65.7,8.9-131.3,13.4-197
			c1.9-27.5,4.3-55.1,3.7-82.7c-0.8-33.1-4.1-66.3-6.3-99.3C579.5,312.3,579.3,314.4,579.4,315.9L579.4,315.9z"/>
	</g>
</g>
<g>
	<g>
		<path fill="#E30613" d="M622.6,461.9c0.1-0.2,0.2-0.3,0.3-0.5c0.3-0.5,0.3-4.5,0-5c-1.7-2.7-2,2.6-2,3.3
			c-0.2,3.9-0.4,7.7-0.6,11.6c-0.1,1.9-0.2,3.9-0.3,5.8c-0.4,7.2-0.1,0.8,0-0.6c0-4.4,0-8.7,0.1-13.1c0,0.6,0,1.2,0,1.8
			c6.2-0.2,13.5,3.3,16.3-4.3c0.5-1.4,0.9-2.6,1.7-3.8c1.7-2.5,1.5,8.3,1.4,9.6c-0.2,5.8-0.6,11.6-1.2,17.4c-0.2,1.7,0.2,3.4,0,5
			c1.2-12.5,1.5-25.1,1.3-37.7c0-0.1,0-0.2,0-0.3c-3.4,1.6-3.1,6.2-5.6,8.7c-3,3-10.3,0.4-14,0.5c0,0,0,1.8,0,1.8
			c0,6.2,0,12.4-0.1,18.7c0,0.9,0.1,2.5,0,3.1c0.2-4.5,0.5-9,0.7-13.5c0.1-1.3,0.3-12.1,2.3-8.9c0-1.7,0-3.3,0-5
			c-0.1,0.2-0.2,0.3-0.3,0.5C621.9,458.1,623.4,460.7,622.6,461.9L622.6,461.9z"/>
	</g>
</g>
<g>
	<g>
		<path fill="#E30613" d="M655.1,472.7c5.9-0.6,11.3-2.4,16.4-5.4c0.8-0.4-0.7-4.6,0-5c-5.1,3-10.5,4.8-16.4,5.4
			C654.9,467.7,655.2,472.7,655.1,472.7L655.1,472.7z"/>
	</g>
</g>
<g>
	<g>
		<path fill="#E30613" d="M663.2,478.1c3.4,0.9,6.8,1,10.3,0.2c0.4-0.1-0.3-4.9,0-5c-3.4,0.8-6.9,0.7-10.3-0.2
			C663.6,473.2,662.7,477.9,663.2,478.1L663.2,478.1z"/>
	</g>
</g>
<g>
	<g>
		<path fill="#E30613" d="M699.5,452.9c1.6-8.3,11.5-10.3,16.2-3.3c0-1.7,0-3.3,0-5c-2,3.8-4,7.7-6.1,11.5
			c-1.9,3.6-5.5,8.2-5.8,12.3c-0.2,1.7-0.9,6.6,1.9,6c0.3-0.1-0.3-4.9,0-5c-1.1,0.2-1.4-0.1-1.9-1c0,1.7,0,3.3,0,5
			c0.3-3.6,3.3-7.4,5-10.7c2.3-4.4,4.6-8.7,6.9-13.1c0.3-0.6,0.4-4.4,0-5c-4.7-7-14.6-5-16.2,3.3
			C699.2,449.5,699.8,451.3,699.5,452.9L699.5,452.9z"/>
	</g>
</g>
<g>
	<g>
		<path fill="#E30613" d="M712.9,483.7c-0.8,0.6-1.5,1.1-2.5,1.1c-0.7,0-1.3-0.7-1.4-1.4c0,1.6,0,3.3,0,4.9c0-0.2,0-0.3,0.1-0.4
			c0.1-0.1,0-0.6,0-0.7c0-0.6,0-1.2,0-1.8c0-0.6,0-1.2,0-1.8c0-0.1-0.1-0.6,0-0.7c-0.1,0.2-0.1,0.4-0.1,0.6c0,0.8,0,1.6,0,2.4
			c0,0.9-0.2,2.2,0.2,3c0.8,1.6,2.8,0.5,3.8-0.2c0.1,0,0-0.7,0-0.7c0-0.6,0-1.2,0-1.8s0-1.2,0-1.8
			C712.9,484.5,712.9,483.7,712.9,483.7L712.9,483.7z"/>
	</g>
</g>
<g>
	<g>
		<path fill="#F18700" d="M537.2,49.8c0,0,0-5,0-5C537.1,44.8,537.1,49.8,537.2,49.8L537.2,49.8z"/>
	</g>
</g>
<g>
	<g>
		<path fill="#F18700" d="M537,34.5c-0.3-1.5-0.7-1.9-2.2-2.3c0.3,0.1-0.2,4.4,0,5c2.9,10,5.8,20,8.7,30c1.4,5,2.9,10,4.3,15
			c0.7,2.5,1.4,5,2.2,7.5c0.2,2.4,0.7,2.5,1.5,0.4c1-1.5,2-3,2.9-4.6c5.4-8.6,10.2-17.7,14.3-27.1c2-4.4,3.7-8.9,5.4-13.4
			c0.9-2.3,2.8-9.5,6.6-7c-0.7-0.5,0.8-4.5,0-5c-3.2-2.1-5.2,3-6,5.3c-1.6,4.5-3.4,9-5.3,13.4c-4,9.4-8.8,18.4-14.1,27.2
			c-1.2,2.1-2.6,4.1-3.9,6.1c-0.9,2.1-1.4,2-1.5-0.4c-0.4-1.3-0.7-2.5-1.1-3.8c-1.6-5.6-3.2-11.3-4.9-16.9
			c-3.1-10.6-6.1-21.3-9.2-31.9c0,1.7,0,3.3,0,5c1.5,0.4,1.8,0.8,2.2,2.3C536.6,37.9,537.3,36,537,34.5L537,34.5z"/>
	</g>
</g>
<g>
	<g>
		<path fill="#F18700" d="M567,93.1c-0.8-0.4-1.5-0.8-2.3-1.1c0,0,0,0.8,0,0.7c0,0.6,0,1.2,0,1.8c0,0.6,0,1.2,0,1.8c0,0,0,0.7,0,0.7
			c0.8,0.4,1.5,0.8,2.3,1.1c0,0,0-0.8,0-0.7c0-0.6,0-1.2,0-1.8c0-0.6,0-1.2,0-1.8C567.1,93.9,567.1,93.1,567,93.1L567,93.1z"/>
	</g>
</g>
<g>
	<g>
		<path fill="#F18700" d="M562.6,96.1c11.7-3.3,19.9-13.7,20.4-25.8c0-0.8-0.5-4.4,0-4.9c-5.4,5.2-6.6,11.3-6.6,18.4
			c0,5.7,4,16.6,11.3,10.8c0.8-0.7-0.8-4.4,0-5c-4.5,3.6-9-0.1-10.6-4.6c-1.9-5.1,2.4-11.2,5.9-14.5c0-1.6,0-3.3,0-4.9
			c-0.5,12-8.8,22.4-20.4,25.6C562.1,91.3,563,96,562.6,96.1L562.6,96.1z"/>
	</g>
</g>
<g>
	<g>
		<path fill="#F18700" d="M585.4,56.3c-0.8,0-1.5,0-2.3,0c0,0,0,5,0,5c0.8,0,1.5,0,2.3,0C585.5,61.3,585.5,56.3,585.4,56.3
			L585.4,56.3z"/>
	</g>
</g>
<g>
	<g>
		<path fill="#F18700" d="M603,88c4.2-5.7,9.7-10.8,9.7-18.2c0-2.2,0-4-1.4-5.9c-1.7-2.1-7.9,7.2-8.8,8.8c-2.1,3.7-2,8.8-1.4,12.9
			c0.5,3.6,3.1,6.6,6.4,7.8c4.2,1.4,7.9-2.9,10.1-5.8c0.8-1.1-0.8-4,0-5c-2.6,3.4-5.5,6.5-10.1,5.8c-4.3-0.6-6.5-6.1-6.6-9.9
			c0,1.6,0,3.1,0,4.7c0.5-4.1,2.5-7.3,5.1-10.5c1.3-1.6,2.8-3,4.3-4.5c1-0.9,2.4,3.7,2.4,4c0-1.6,0-3.3,0-4.9
			c-0.4,5.7-6.4,11.2-9.7,15.6C602.2,84.1,603.8,87,603,88L603,88z"/>
	</g>
</g>
<g>
	<g>
		<path fill="#F18700" d="M632.6,75c0-1.2,0-2.3,0-3.5c0,0.4,0,0.8,0,1.2c1,5.5,2.4,10.9,4.4,16.1c0-0.1,0-0.2,0-0.3
			c0.1-4.8,1-9.2,2.7-13.6c0.2-0.6,4.2,3.7,4.5,4.1c2.4,3.3,3.6,7.5,7,10.1c0.7,0.6,1.6,0.8,2.5,1c1.7,0.4,1.8-2.1,2.3-3.3
			c1.3-3.4,2.4-6.8,3.5-10.3c2.1-6.9,3.6-14,4.6-21.1c0.2-1.6-0.2-3.4,0-5c-1.3,8.9-3.4,17.7-6.3,26.3c-0.6,1.7-1.2,3.4-1.8,5.1
			c-0.8,2.2-0.7,3.7-3.2,3.1c-2.5-0.5-4.1-3.3-5.3-5.3c-1.3-2.2-2.4-4.4-3.9-6.5c-0.8-1.1-1.8-2-3-2.8c-1.7-1.2-2.2,3.4-2.5,4.6
			c-0.5,1.7-0.7,3.5-0.9,5.3c0.2-1.6,0,4-0.8,1.8c-1.8-4.7-2.9-9.5-3.8-14.4c0.1,0.4,0,0.9,0,1.2c0,1.2,0,2.3,0,3.5
			C632.5,73.2,632.6,78.1,632.6,75L632.6,75z"/>
	</g>
</g>
<g>
	<g>
		<path fill="#F18700" d="M717.7,48.6c0.4-2.3,2.3-1.2,3.1,0.2c1.5,2.8,1.8,6.9,2.3,10c1.7,8.7,2,17.5,1.2,26.3
			c-0.2,1.7,0.2,3.4,0,5c0.7-7.2,0.8-14.3,0.5-21.5c-0.2-5.6-1-11.1-2-16.6c-0.5-2.7-1.2-5.5-2-8.2c-0.5-1.7-2.8-2.3-3.1-0.2
			C717.5,45.2,718,46.9,717.7,48.6L717.7,48.6z"/>
	</g>
</g>
<g>
	<g>
		<path fill="#F18700" d="M700.1,71.6c-1.6-1.5-3.1-3-4.7-4.5c0,1.7,0,3.3,0,5c12.2-5.6,24.7-11.5,33.2-22.2
			c6.2-7.7,7.8-16.6,7.6-26.1c-0.1-5.3-1.8-10.3-5.5-14c-4.5-4.7-11.9-3.4-17.6-2.1c-12.2,2.8-26.5,6.9-31.2,19.9
			c-0.5,1.5,0.5,3.5,0,5c3.7-10.1,13.4-14.9,23.2-17.8c10.3-3.1,23-6.8,29.1,4.8c5.2,9.9-1.9,21.6-8.6,28.9
			c-8.1,8.7-19.6,13.8-30.1,18.6c-0.2,0.1-0.2,4.8,0,5c1.6,1.5,3.1,3,4.7,4.5C699.3,75.8,700.9,72.4,700.1,71.6L700.1,71.6z"/>
	</g>
</g>
<g>
	<g>
		<path fill="#F18700" d="M743.4,83.7c4.8-4.7,7.3-10.4,7.3-17.1c0-2.5,0-4.7-0.8-7c-1.2-3.7-6-4.8-8.9-2.5c-0.2,0.2-0.1,4.9,0,5
			c5.4,2.3,10.7,2.5,16.3,0.6c0-1.7,0-3.3,0-5c-0.8,7.2-1.7,15.6-0.2,22.8c1.3,6.5,7.3,4.8,10.6,1c4.1-4.8,6.5-11.7,8.2-17.8
			c0.4-1.5-0.5-3.5,0-5c-1.8,5.9-2.4,11.2-2.2,17.2c0.3,8.8,11.4,13.9,15.8,5.1c2.8-5.4,3.5-11,3.4-16.9c-0.1-3.5-1-6.3-3.7-8.6
			c-3-2.5-7.4-2.6-10,0.3c-0.8,0.9,0.8,4.1,0,5c3.1-3.5,7.7-2.3,10.9,0.4c4.7,3.9,1.4,10.3-0.6,14.8c-2.2,5-6.7,5.8-11.2,3.2
			c-6-3.5-4.1-10.2-2.5-15.6c0-1.7,0-3.3,0-5c-1.9,6.9-4.8,14.8-10.2,19.9c-2.5,2.4-5.7,1.8-7.6-0.8c-2.9-3.9-1.2-10.7-0.7-15.1
			c0.1-0.6-0.3-4.9,0-5c-5.5,1.9-10.9,1.7-16.3-0.6c0,1.7,0,3.3,0,5c5.1-4,9.5,1.8,9.6,6.7c0-1.6,0-3.1,0-4.7
			c-0.6,5.7-3.2,10.6-7.3,14.6C742.5,79.5,744.2,82.9,743.4,83.7L743.4,83.7z"/>
	</g>
</g>
<g>
	<g>
		<path fill="#F18700" d="M808.4,26.5c-0.9-1.2-1.9-2.3-2.8-3.5c0.5,0.6,0,3.8,0,4.7c0.5,20.7,0.9,41.4,1.4,62.1c0,0.9,0-0.8,0-0.9
			c0-1.1,0-2.3,0-3.4c-0.5-20.7-0.9-41.4-1.4-62.1c0,1.6,0,3.1,0,4.7c0.9,1.2,1.9,2.3,2.8,3.5C807.6,30.5,809.2,27.5,808.4,26.5
			L808.4,26.5z"/>
	</g>
</g>
<g>
	<g>
		<path fill="#F18700" d="M795.8,56.3c-2-2.4-4.2-4.2-6.9-5.8c0,1.7,0,3.3,0,5c8.3,0.5,16.5,0,24.8-1.4c6.5-1.1,13.3-2.6,19,1.5
			c0-1.7,0-3.3,0-5c-7.8,1.8-14.2,8.6-14.5,16.8c-0.2,4.6-0.5,9.4,2.7,13.2c6.2,7.3,16.9-8.6,18.6-13.2c1.5-4,1-10.8-1.3-14.3
			c0.8,1.1-0.8,3.8,0,5c1.1,1.7,1.6,3.2,1.8,5.1c0-1.4,0-2.8,0-4.3c-0.1,6.7-5.9,12.8-10.9,16.7c-5.8,4.6-10.4-1.3-10.9-6.9
			c0,1.4,0,2.8,0,4.3c0.1-8.4,6.4-15.5,14.5-17.4c0,0,0.3-4.8,0-5c-5.7-4.1-12.6-2.6-19-1.5c-8.2,1.5-16.5,1.8-24.8,1.4
			c0.3,0-0.4,4.8,0,5c2.6,1.6,4.8,3.5,6.9,5.8C795,60.4,796.6,57.3,795.8,56.3L795.8,56.3z"/>
	</g>
</g>
<g>
	<g>
		<path fill="#F18700" d="M862,29.7c0.2-0.1,0.3-0.1,0.5-0.2c0,0,0-0.8,0-0.7c0-1.4,0.8-5.3-1-5.6c-1.6-0.3-1.1,6.6-1.1,7.4
			c0.3,15.6,0.9,31.2,1.3,46.7c0-1.2,0.1-3.3,0-4.8c-0.2-8.4-0.5-16.8-0.7-25.2c-0.1-4.5-0.2-9-0.4-13.6c-0.1-1.9-0.1-3.9-0.2-5.8
			c0,1.7,1.1-0.6,2.1,1c0-1.4,0-2.8,0-4.3c-0.2,0-0.3,0-0.5,0.1C861.4,24.9,862.5,29.5,862,29.7L862,29.7z"/>
	</g>
</g>
<g>
	<g>
		<path fill="#F18700" d="M844.1,47.8c12.5-2.4,25.2-3,37.9-1.9c-0.1,0,0.2-5,0-5c-12.7-1.1-25.4-0.5-37.9,1.9
			C843.8,42.9,844.4,47.8,844.1,47.8L844.1,47.8z"/>
	</g>
</g>
<g>
	<g>
		<path fill="#F18700" d="M880.4,58.2c-6.9,5.9-3.2,21.9,7.8,17.8c8.7-3.2,11.2-22.5,6.5-30c0.7,1.1-0.4,3.7,0,5
			c6.1,20.2,9.8,41.8,9,63c-0.4,11.8-7.4,41.1-25.1,30.2c-8.2-5.1-7.5-16-5.5-24c2.2-9,6.9-17.3,11.7-25.1c4.1-6.7,9-12.9,15.1-17.9
			c4.4-3.7,13.9-10.3,19-4.4c-0.8-0.9,0.8-4,0-5c-6.1-7.1-17.8,3.1-22.4,7.5c-7.8,7.4-13.5,17.2-18.2,26.7
			c-6,12.1-13.4,38.7,1.6,47.9c10.2,6.2,18.4-6.2,21.3-14.3c2.8-8,2.8-17,2.8-25.4c0.1-21.8-2.8-43.3-9.2-64.3c0,1.7,0,3.3,0,5
			c3.5,5.6,0.4,14.1-4.1,18.4c-4.8,4.7-12.4,1.9-13.4-4.5c0,1.6,0,3.1,0,4.7c0.1-2.8,1.1-4.7,3.2-6.4
			C881.2,62.4,879.6,58.8,880.4,58.2L880.4,58.2z"/>
	</g>
</g>
<g>
	<g>
		<path fill="#F18700" d="M931.2,39.9c0.9,0.1,1.8-7.9-0.9-5.8c-1.9,1.5,0,13.9,0,15.1c1.2,23.6,1.9,47.3,2.2,70.9
			c0,1.9,0-2.9,0-3.5c-0.1-13.5-0.4-26.9-0.9-40.4c-0.2-7.3-0.5-14.6-0.9-21.9c-0.2-4-0.4-7.9-0.6-11.9c0-0.7-0.1-1.3-0.1-2
			c-0.3-2.2-0.3-2.6,0.1-1.3c0.5-1.5,1.4-0.3,1.6,0.3c0-1.7,0-3.3,0-5c0.1,0.6-0.2,0.7-0.6,0.5C931.3,34.9,931,39.9,931.2,39.9
			L931.2,39.9z"/>
	</g>
</g>
<g>
	<g>
		<path fill="#F18700" d="M925.1,69.2c1.5-7.6,3.2-15.4,10.1-20c6.3-4.2,13.5-1.2,16.1,5.4c2.5,6.2-1,13.6-5,18.3
			c-3.7,4.2-13.9,7.3-15.7-0.3c0,1.6,0,3.3,0,4.9c0.2-5.7,9.7-4.6,13.8-5.4c5.9-1.1,11.3-3.4,15.4-7.8c1.9-2.1,2-5,2-7.6
			c0-1.8-1-9.4-3-4.9c-3.1,7.1-4,15.4-2.7,23.1c1.8,10.5,15.9,18.7,23.3,8.2c0.8-1.1-0.8-3.9,0-5c-5,7.1-14.5,5.6-19.7-0.3
			c-3-3.4-4.2-8.2-3.5-12.6c0.5-2.9,1.5-5.6,2.6-8.3c1.4-3.5,2.9,0.5,2.9,2.3c0-1.6,0-3.3,0-4.9c-0.7,6.6-7.2,10-13,11.9
			c-3.3,1.1-6.9,1.5-10.4,2c-2.3,0.3-7.7-0.1-7.8,3.5c-0.1,2.7-0.5,5.8,0.8,8.3c1.6,2.9,6.2,2.6,8.8,2c3.3-0.7,5.8-3.4,7.7-5.9
			c5.1-6.8,5.9-18.2,3.4-26.3c-2.3-7.4-9.9-8.8-16.1-5.4c-7,3.7-8.7,12.9-10.1,20C924.8,65.8,925.4,67.6,925.1,69.2L925.1,69.2z"/>
	</g>
</g>
<g>
	<g>
		<path fill="#F18700" d="M955.6,127.4c-0.4-0.4-0.8-0.8-1.1-1.1c0.1,0.1,0,1.5,0,1.5c0,1.2,0,2.4,0,3.5c0,1.2,0,2.4,0,3.5
			c0,0-0.1,1.3,0,1.5c0.4,0.4,0.8,0.8,1.1,1.1c-0.1-0.1,0-1.5,0-1.5c0-1.2,0-2.4,0-3.5c0-1.2,0-2.4,0-3.5
			C955.6,128.8,955.7,127.5,955.6,127.4L955.6,127.4z"/>
	</g>
</g>
</svg>
