<?xml version="1.0" encoding="utf-8"?>
<!-- Generator: Adobe Illustrator 18.0.0, SVG Export Plug-In . SVG Version: 6.00 Build 0)  -->
<!DOCTYPE svg PUBLIC "-//W3C//DTD SVG 1.1//EN" "http://www.w3.org/Graphics/SVG/1.1/DTD/svg11.dtd">
<svg version="1.1" id="Camada_1" xmlns="http://www.w3.org/2000/svg" xmlns:xlink="http://www.w3.org/1999/xlink" x="0px" y="0px"
	 viewBox="0 0 1600 900" enable-background="new 0 0 1600 900" xml:space="preserve">
<g>
	<g>
		<path fill="#E30613" d="M123.5,93.4c17.2,0,34.3-0.3,51.5-0.9c-0.3,0,0.7-9.6,0-10c-5.1-3.1-10.2-6.2-15.3-9.3
			c1.3,0.8-0.8,8.4,0,10c2.9,5.7,9,7.8,9.5,14.9c0-3.3,0-6.5,0-9.8c-0.3,8.7-7,14-13.5,18.8c-1.6,1.2,1.5,8.9,0,10
			c4.5-3.3,8.9-6.7,11.7-11.6c1.9-3.4,1.8-7.3,1.8-11c0-3.6,0.3-7.2-1-10.7c-1.5-4.3-6.6-6.4-8.6-10.5c0,3.3,0,6.7,0,10
			c5.1,3.1,10.2,6.2,15.3,9.3c0-3.3,0-6.7,0-10c-17.2,0.6-34.3,0.9-51.5,0.9C123.5,83.4,123.5,93.4,123.5,93.4L123.5,93.4z"/>
	</g>
</g>
<g>
	<g>
		<path fill="#E30613" d="M209.3,65.1c-0.5-2-1.1-4-1.6-6c0.5,1.9-0.8,5.7-1,7.7c-0.7,5.2-1.4,10.3-2,15.5
			c-1.4,11-2.9,21.9-4.3,32.9c-0.4,3.2,0.7,6.8,0,10c2.3-11,4.6-22,6.8-33c1.1-5.2,2.1-10.4,3.2-15.5c0.8-4.1,1.1-9.1,4.3-12.1
			c7-6.6,10.4,16.6,10.9,19.2c2.3,11.8,3.4,23.8,3.8,35.7c-0.1-2.4,0.1-6.6,0-9.6c-0.3-10.2-1.2-20.4-2.8-30.5
			c-0.9-5.6-2.1-11.2-3.4-16.8c-0.9-3.6-2-8.4-6.4-8.8c-4-0.3-5,6.4-5.6,9c-1.2,5.8-2.4,11.6-3.6,17.5c-2.4,11.6-4.8,23.3-7.2,34.9
			c0,3.3,0,6.7,0,10c1.4-10.3,2.7-20.6,4.1-30.9c0.7-5.2,1.4-10.3,2-15.5c0.3-2.6,0.7-5.2,1-7.7c0.1-2.4,0.3-2.6,0.7-0.4
			c0.4,1.5,0.8,3,1.2,4.5C208.5,72,210.2,68.2,209.3,65.1L209.3,65.1z"/>
	</g>
</g>
<g>
	<g>
		<path fill="#E30613" d="M216.6,107.4c3.8,0.9,7.7,1.4,11.6,1.4c0,0,0.1-10,0-10c-3.9-0.1-7.8-0.6-11.6-1.4
			C217.2,97.6,215.8,107.2,216.6,107.4L216.6,107.4z"/>
	</g>
</g>
<g>
	<g>
		<path fill="#E30613" d="M250.3,50.1c-3.1,0.2-2.4,5-2.4,7.2c0,7,0,14.1,0,21.1c0,13.9,0,27.7,0,41.6c0,0.3,0,5,0,5
			c0.1,0,0.1-4.7,0.1-5c0-20.5,0-40.9,0-61.4c0,1.7,0,3.3,0,5c0.1-1.7,0.4-3.4,2.4-3.5C250.5,60.1,250.2,50.1,250.3,50.1L250.3,50.1
			z"/>
	</g>
</g>
<g>
	<g>
		<path fill="#E30613" d="M260,48.9c-1.3,25.8-0.2,51.8,4.5,77.3c-0.6-3.2,0.6-6.8,0-10c-3.5-19-5.4-38.3-4.4-57.6
			C260.2,55.6,259.9,51.3,260,48.9L260,48.9z"/>
	</g>
</g>
<g>
	<g>
		<path fill="#E30613" d="M341.2,85.9c-1.7-5-2.6-13.4-9.3-13.1c-5.7,0.2-9.7,6.7-11.8,11.1c-3.5,7.5-3.2,19-1.5,27
			c1.1,5.3,5,11.1,11,10.9c5.9-0.2,7.3-9.3,7.6-13.6c0.8-10.1,0.3-20.5-5.8-28.9c1.6,2.1-1.6,7.8,0,10c2.5,3.4,4.1,7.1,5.2,11.2
			c0.2,1,0.4,2,0.5,3.1c0.2-4.3,0.1-5.1-0.2-2.3c-0.3,1.9-0.9,3.8-1.6,5.6c-1.4,3.5-4.5,5.4-8.3,4.8c-4.2-0.7-6.8-5.7-8.1-9.3
			c-0.3-0.9-0.5-1.9-0.7-2.8c-0.3-2.4-0.4-1.9-0.1,1.4c0.2-1.9,0.8-3.8,1.4-5.6c1.2-3.6,3.5-6.9,6.2-9.5c2.6-2.5,6.3-3.7,9.7-2.3
			c3.5,1.5,4.7,9.3,5.8,12.5C340.2,93,342.2,88.9,341.2,85.9L341.2,85.9z"/>
	</g>
</g>
<g>
	<g>
		<path fill="#E30613" d="M356,41.7c-3.1-4.1-3.7,4.1-3.7,5.6c0,5.8,0.1,11.5,0.3,17.3c0.4,15.2,0.7,30.4,1.1,45.7
			c0,1.8,0,12.9,0.3,4.5c0.1-4.1,0.9-8.2,1.9-12.2c0.9-3.8,3.9-13.7,9.4-9.2c1.7,1.4,2.6,4.2,3.4,6.2c0.6,1.5,1,3,1.4,4.6
			c1.1,4.8,1.1-4.1,0,0.1c-1.1,4.4-7.4,6.9-9.9,2.3c1.4,2.5-1.4,7.4,0,10c1.7,3.1,5.3,2.9,7.9,1c2.5-1.9,2.6-5.9,2.7-8.8
			c0.1-7.8,0.1-14.9-3.3-22.1c-1.8-3.7-4.7-6.1-8.1-2.6c-3.1,3.2-3.9,9.6-4.6,13.8c-1.3,7.3-1,15-0.7,22.4c-0.1-2.4,0.1-6.6,0-9.6
			c-0.3-10.6-0.5-21.2-0.8-31.8c-0.1-5.3-0.3-10.6-0.4-15.9c-0.1-2.6-0.1-5.3-0.2-7.9c-0.1-2.6-0.1-14.6-0.2-2.8c0,0.5,0,1,0,1.5
			c0.3-1.8,1.9-4.2,3.6-2C354.4,49.7,357.6,43.9,356,41.7L356,41.7z"/>
	</g>
</g>
<g>
	<g>
		<path fill="#E30613" d="M379.2,111c6.7-10.2,10.6-21.6,11.6-33.8c0.3-3.2-0.8-7,0-10c-4.2,16.7,1.5,34.7,4.4,51.1
			c1.9,10.8,3.6,21.8,4.6,32.7c0,0.1,0.3,11.2,0.4,5.7c-0.1,3.6-0.4,7.3-1,10.9c-0.7,4.5-2.9,8.2-7.8,8.6c-9.7,0.8-12-13.7-13-20.4
			c-0.2-1.5-0.3-3-0.4-4.5c-0.1,3.9-0.1,4.5,0,1.8c0.1-3.1,0.6-6.1,1.1-9.2c0.8-4.7,2.2-9.2,3.8-13.7c3.1-8.5,7.6-16.4,13-23.7
			c5.9-8,14-14.1,18.9-22.8c0.4-0.8,0.5-9.7,0-10c-9.5-4.9-8.6,15.9-8.6,20.7c0,4.3,0,8.6,2.4,12.4c2.4,3.8,8,4.9,11.4,2.1
			c1.7-1.4-1.6-8.7,0-10c-5.4,4.4-11.5-0.6-13.2-6.1c-1.4-4.3-0.6,3.3-0.1-1.2c0.2-1.9,0.6-3.6,1.3-5.3c1.1-2.7,4.2-3.8,6.7-2.5
			c0-3.3,0-6.7,0-10c-5.1,9.1-13.6,15.8-19.8,24.1c-6.3,8.5-11,18.3-14,28.4c-2.5,8.3-3.1,16.8-3.1,25.4c0,9,0.3,18,3.5,26.5
			c1.7,4.5,5.2,7.6,10,8c5.6,0.5,7.4-5.8,8-10c1.4-8.9,1-18.2,0.8-27.2c-0.3-12.3-2.4-24.7-4.4-36.8c-1.1-6.4-2.3-12.8-3.5-19.2
			c-1.3-6.4-2.7-11.3-1.5-15.8c0-3.3,0-6.7,0-10c-1,12.2-4.9,23.6-11.6,33.8C377.7,103.4,380.7,108.7,379.2,111L379.2,111z"/>
	</g>
</g>
<g>
	<g>
		<path fill="#E30613" d="M439.7,67.6c-7.9-2.6-11.3,9.5-12.4,15.1c-1,4.9-1,11-0.4,15.9c1,8,6.9,12.5,14.9,11.6
			c8.2-0.9,13-9.2,14.7-16.4c0.7-3.2-0.7-6.9,0-10c-2.6,10.9-13.1,21.4-24.5,14.4c-2.4-1.5-3.7-4.1-4.6-6.7
			c-1.5-4.8-0.9,6.5-0.1,1.2c0.2-1.5,0.7-3,1.1-4.5c1.4-4.8,5.1-12.7,11.3-10.6C438.8,77.3,440.8,68,439.7,67.6L439.7,67.6z"/>
	</g>
</g>
<g>
	<g>
		<path fill="#E30613" d="M463.5,52.8c0.1,21.9,1.6,43.7,5.3,65.3c-0.5-3.2,0.5-6.7,0-10c-3.2-19.1-5.1-38.6-5.2-58
			c0-0.8-0.1-3.3-0.1-3.5C463.4,48.7,463.5,50.7,463.5,52.8L463.5,52.8z"/>
	</g>
</g>
<g>
	<g>
		<path fill="#E30613" d="M456,74.4c7.4,0.8,14.4-0.6,20.8-4.3c0.4-0.2,0.1-4.5,0.1-5c0-0.4-0.4-4.8-0.1-5
			c-6.4,3.6-13.5,5.1-20.8,4.3C456.3,64.4,455.6,74.3,456,74.4L456,74.4z"/>
	</g>
</g>
<g>
	<g>
		<path fill="#E30613" d="M483.1,101.4c2-5.6,4-11.2,6-16.7c0.4-1.2,0.9-2.5,1.3-3.7c0.7-1.9,0.3-4.6,2.5-2.6c2,1.8,3.8,3.9,5.5,5.9
			c3,3.7,5.7,7.9,7.3,12.4c0.6,2.8,0.8,2,0.4-2.5c-0.3,1.4-1.2,2.6-2.1,3.7c-1.5,1.9-3.8,2.5-6.1,2.5c0,0-0.2,10,0,10
			c11.3,0.3,9.8-18.1,7.2-25.1c-2.4-6.4-7.5-12.2-12.3-16.8c-2.2-2.1-1.9,0.8-2.5,2.6c-0.9,2.5-1.8,5-2.7,7.4
			c-1.6,4.3-3.1,8.7-4.7,13C482,94.4,484.1,98.5,483.1,101.4L483.1,101.4z"/>
	</g>
</g>
<g>
	<g>
		<path fill="#E30613" d="M565.1,55.6c-1.2,13.3-1.4,26.7-1.1,40.1c0.1,7.3,0.6,14.6,1.4,21.8c0.5,4.6,0.9-0.8,1.2-1.9
			c0.7-2.5,1.4-5,2-7.5c1.2-4.4,2.4-8.8,3.6-13.2c0.4-1.5,0.1-4.2,2-3.3c1,0.5,1.8,1.2,2.7,1.9c2,1.7,3.4,4,4.6,6.2
			c2.7,4.8,4.4,10,7.6,14.4c1.3,1.8,3,3.3,4.9,4.4c0.1,0,3.9-11.2,4.2-12.3c2-7.4,2.8-15.1,2.9-22.7c0-2.3,0-4.6,0-6.8
			c0-0.3,0-3.6-0.1-1.8c-0.1,7.2-1.1,14.3-2.9,21.3c-0.7,3-1.7,5.9-2.8,8.8c-0.4,1.2-0.9,2.3-1.4,3.4c0,0.1-2.5-1.8-2.7-2
			c-6.1-5.2-7.7-14.4-12.2-20.7c-1.1-1.5-2.4-2.7-3.9-3.8c-0.6-0.4-1.3-0.8-1.9-1.1c0.1,0.1-1.4,5.3-1.5,5.7
			c-1.7,6.3-3.4,12.6-5.1,18.8c-0.3,1.3-0.7,2.5-1,3.8c0.4-1.4-0.4-4.3-0.6-5.7c-0.3-3.8-0.6-7.6-0.8-11.3
			c-0.4-8.9,0.1-17.8,0.9-26.7C565.4,62.3,564.8,58.9,565.1,55.6L565.1,55.6z"/>
	</g>
</g>
<g>
	<g>
		<path fill="#E30613" d="M613.4,112.1c1.6-9.2,3.2-18.5,4.7-27.7c0-3.3,0-6.7,0-10c-0.7,7.4-0.8,15-0.6,22.4
			c0.1,3.6-0.7,23.2,6.8,18.9c1.5-0.8-1.4-9.2,0-10c-8.2,4.7-6.5-18.4-6.2-21.4c0.3-3.3-0.5-6.8,0-10c-1.6,9.2-3.2,18.5-4.7,27.7
			C612.8,105.4,613.9,108.9,613.4,112.1L613.4,112.1z"/>
	</g>
</g>
<g>
	<g>
		<path fill="#E30613" d="M645.5,40.3c-4.3,3.5-3.7,10.1-4,15.1c-0.4,7.4-0.7,14.7-0.8,22.1c-0.2,12.9-0.1,25.8,0.5,38.6
			c0,0.1,0,0.1,0,0.2c1.2-2.1,2.3-4.2,3.5-6.2c1.4-2.6-1.4-7.5,0-10c-0.9,1.6-1.7,3.1-2.6,4.7c-1.3,0-1.6-0.7-1-2.2
			c0-1.3-0.1-2.6-0.1-3.9c-0.3-7.9-0.1-15.8,0.1-23.8c0.2-4.6,0.4-9.2,0.7-13.7c0.3-4,0.4-8.1,3.8-10.8
			C647.1,48.9,643.9,41.5,645.5,40.3L645.5,40.3z"/>
	</g>
</g>
<g>
	<g>
		<path fill="#E30613" d="M654,51.6c0.7,23.3,1.3,46.5,2,69.8c-0.1-2.4,0.1-6.6,0-9.6c-0.7-23.3-1.3-46.5-2-69.8
			C654.1,44.3,653.9,48.6,654,51.6L654,51.6z"/>
	</g>
</g>
<g>
	<g>
		<path fill="#E30613" d="M708.2,39.4c-2.1-2-2.7,3.1-2.7,4c-0.3,4-0.6,8-0.8,12c-0.6,8.5-1.1,17.1-1.5,25.7
			c-0.5,8.6-0.8,17.1-1.2,25.7c-0.2,5.8-1.6-2.8-1.8-4.2c-0.3-1.9,1.3-6.7,2.2-9.2c1.8-5.6,5.3-12.8,11.3-14.7
			c5.8-1.8,9.1,5.6,10.4,9.7c1,3.2,1.6,6.5,2.1,9.8c-0.7-5-0.1-2.5-0.8-0.1c-0.6,1.9-1.8,3.4-3,4.9c-3.7,4.2-10.7,3.6-13.7-1
			c0,3.3,0,6.7,0,10c13.9-5.1,28.5-13.8,30.2-30.1c0.2-1.4-0.9-9.4,0-10c-9.3,6-8,20.9-7.4,30.7c0.3,5.5,2.6,10.8,8.2,12.5
			c7.7,2.4,13.6-6.3,16.4-11.9c1.3-2.7-1.3-7.4,0-10c-3.8,7.6-13.4,17.7-21.4,8.7c-1.3-1.5-2-3.5-2.5-5.4c-0.2-0.8-0.4-1.6-0.5-2.5
			c0.7,4.4,0.1,1.2,0.4-0.6c0.8-4.7,2.8-8.9,6.9-11.5c0-3.3,0-6.7,0-10c-1.7,16.2-16.3,24.9-30.2,30.1c-0.3,0.1-0.4,9.3,0,10
			c2.9,4.5,8.4,4.8,12.6,2c4.3-2.8,5.2-8.7,5.2-13.4c0.1-9.7,0.4-22-6.4-29.7c-4.1-4.6-9.7-1-12.6,2.8c-3.9,5-5.9,11.6-7,17.8
			c-1.6,9.2-1.2,20.4,1.5,29.3c0-0.1,0-0.1,0-0.2c0.5-12.5,1.1-25,1.8-37.5c0.4-6.6,0.8-13.2,1.2-19.7c0.1-1.8,0.6-16.5,3.4-13.7
			c-0.5-0.5,0-4.3,0-5C708.3,43.6,708.8,39.9,708.2,39.4L708.2,39.4z"/>
	</g>
</g>
<g>
	<g>
		<path fill="#E30613" d="M803.9,115.7c0-0.5,0-1.1,0-1.6c0,2.8,0,5.7,0,8.5c0.5-5,2.7-9.4,4.6-14.1c1.5-3.8,1.8-7.7,1.9-11.7
			c0.1-9.1-0.3-17.2-6.7-24.4c0,3.3,0,6.7,0,10c3.9,1.1,7.5,1.2,11.4,0.4c4.2-0.8,8-4.2,10.3,1.2c1.6,3.9,0.9-2.5,0.5,1.8
			c-0.2,1.8-0.3,3.5-0.3,5.3c-0.1,2.8,0,5.6,0,8.4c0.1,5.3,1.2,11.1,6.2,13.9c7,4,12.5-5.7,14.2-10.9c2.1-6.2,1.6-13.1,1.6-19.5
			c0-1-0.1-2.1-0.1-3.1c-0.2-4.5-0.8,0.1-1.2,1.3c-1.1,3.6-1.7,7.2-1.7,10.9c-0.1,5.4-0.5,11,1.3,16.1c2.4,6.8,11.2,10.1,16.6,4.7
			c0.6-0.6,0-4.3,0-5c0-0.7-0.5-4.5,0-5c-3.5,3.5-8.5,3.4-12.5,0.7c-1.9-1.3-3.1-3.4-4-5.4c-0.6-1.3-0.8-2.7-1.1-4
			c0,1.3,0,2.5,0,3.8c0.2-1.1,0.4-2.3,0.6-3.4c0.5-2.5,1.5-5,1.8-7.4c-0.4,3.4-1.4,6.7-2.9,9.7c-2.3,4.8-7.1,8.6-12.5,6.6
			c-1.8-0.7-3.1-2.4-4.1-4c-2-3.2-1.7-11.3-2-0.3c0.1-5.3,0.7-10.6,0.6-15.9c0-4.1,0.5-9.6-3.3-12.2c-1.9-1.3-7.5,1.8-9.5,2.2
			c-3.3,0.6-6.6,0.1-9.8-0.7c0.9,0.3-0.9,9,0,10c2.8,3.2,4.7,6.6,5.9,10.7c0.3,1,0.4,2,0.6,3c0.2-4.3,0.1-5.1-0.2-2.3
			c-0.4,2.7-1.6,5.3-2.7,7.8c-3.1,7.3-3.4,13.3-3.3,21.2c0,1.7,0.1,1.7,0.1,0C803.9,120.4,803.9,118,803.9,115.7L803.9,115.7z"/>
	</g>
</g>
<g>
	<g>
		<path fill="#E30613" d="M895.5,38.7c-10.5,3.4-14.5,15.1-15.3,25.2c-0.8,10.8-0.4,21.7,1.2,32.4c2.2,14.4,6.5,28.4,7.5,43
			c0.1,2.7,0.2,2.3,0.1-1.1c-0.1,2.2-0.3,4.4-0.6,6.6c-0.4,3.3-1.3,6.6-2.3,9.8c-0.5,1.6-1.2,3.2-1.9,4.7c-1.1,2.4-1.5,1.1-3.1-0.2
			c-2.3-1.8-4-4.3-5.2-7c1.3,2.7-1.3,7.3,0,10c1.1,2.3,2.4,4.2,4.1,6c1,1.1,2.3,1.9,3.5,2.7c0.1,0,2-4.3,2.1-4.6
			c2.4-5.8,3.2-12.1,3.5-18.3c0.5-10.2,0-20.4-1.6-30.5c-2.3-14.8-6.8-29.1-7.5-44.1c0.3,5.7,0.8-4.5,1.1-6.1c0.6-2.8,1.6-5.4,2.8-8
			c2.3-5,6.3-8.9,11.6-10.6C896.5,48.4,894.6,39,895.5,38.7L895.5,38.7z"/>
	</g>
</g>
<g>
	<g>
		<path fill="#E30613" d="M871,107.3c7.6-3.1,15.4-5.7,23.4-7.8c0.9-0.2-0.7-9.8,0-10c-8,2-15.8,4.6-23.4,7.8
			C869.8,97.8,872.1,106.8,871,107.3L871,107.3z"/>
	</g>
</g>
<g>
	<g>
		<path fill="#E30613" d="M901.7,115c8.2-7.1,7.9-17.5,7.3-27.4c-0.1-1-0.3-2-0.5-3c-0.6-3.1-1.3,0.5-1.7,1.5
			c-1,2.4-1.1,5.1-1.2,7.6c0,4.9-0.4,10,1,14.7c0.7,2.6,2.1,5,4.7,6c3.2,1.2,6.4-4.4,7.8-6.3c2.1-2.9,4-6,5.8-9.2
			c1-1.7,1-4.3,2.6-1.8c1.2,1.8,1.7,4,2.3,6c1.6,5.2,5.1,12.6,11.8,10.2c2.7-1,3.8-5,4.7-7.4c1.5-4,2.7-8.2,3.7-12.4
			c0.7-3-1.1-7.2,0-10c-1.8,4.6-1.3,10.1-1.2,14.9c0.1,2.8,0.8,5.2,2.2,7.7c0.9,1.5,2.2,2.7,3.7,3.7c0.6,0.4,6.5-2.6,7.4-2.9
			c1.2-0.5-1.1-9.6,0-10c-1.8,0.7-3.7,1.4-5.5,2.2c-2.5,1-3.1,0-4.7-1.9c-1.2-1.3-1.8-3-2.4-4.7c-0.6-2.8-0.6-1.7-0.2,3.5
			c0.2-0.9,0.5-1.7,0.8-2.5c0-3.3,0-6.7,0-10c-1.5,6.3-4.4,24.4-14.4,19.2c-4-2.1-5.2-7.2-6.4-11.2c-0.6-2.1-1.5-4-2.7-5.8
			c0.5,0.7-4,7-4.5,7.8c-2.3,3.8-5.1,9.2-9.4,10.8c-4.2,1.6-6.2-6.6-6.7-9.1c-0.2,4.2,0,5,0.4,2.2c0.3-1,0.6-2,1.1-2.9
			c0.6-1.9,0.9-1.9,1.1,0c1.4,5,1-6.7,0.2-1.6c-0.7,4.7-3.5,8.9-7,12c-0.5,0.5,0,4.4,0,5C901.7,110.6,902.2,114.6,901.7,115
			L901.7,115z"/>
	</g>
</g>
<g>
	<g>
		<path fill="#E30613" d="M964.9,93.5c-0.1-0.3-0.3-0.6-0.4-0.9c0,3.3,0,6.5,0,9.8c0.1-3.9,4.6-4.1,7-2.4c3,2.2,3,7.9,3.4,11.1
			c0.3,2.3,0.6,4.6,0.9,7c-0.2-1.9,0.9-4.7,1.4-6.6c1.1-4.4,2.6-8.6,4.4-12.7c1.7-3.9,7.9-19.6,13.4-12.6c2.5,3.1,3.1,8.5,4.3,12.3
			c1.7,5.4,3.4,10.9,5,16.3c-0.9-3,0.9-6.9,0-10c-1.7-5.4-3.4-10.9-5-16.3c-1.4-4.4-2.1-10.7-5.8-13.8c-5.6-4.6-14.4,20.3-15.4,23.6
			c-0.8,2.7-1.4,5.4-2,8.2c-0.2,2.2-0.4,2.2-0.5-0.1c-0.2-1.7-0.4-3.5-0.7-5.2c-0.6-4.3-0.7-10.5-5.5-12.3
			c-6.6-2.4-5.8,11.8-4.6,14.6C963.8,100.7,966.1,96.4,964.9,93.5L964.9,93.5z"/>
	</g>
</g>
<g>
	<g>
		<path fill="#E30613" d="M1016.9,42.4c0.9,26.7,1.7,53.5,2.6,80.2c-0.1-2.4,0.1-6.6,0-9.6c-0.9-26.7-1.7-53.5-2.6-80.2
			C1017,35.1,1016.8,39.3,1016.9,42.4L1016.9,42.4z"/>
	</g>
</g>
<g>
	<g>
		<path fill="#E30613" d="M1005.9,75.5c7.4,3.7,15.5,4.2,23.3,1.5c1.1-0.4-1-9.7,0-10c-7.8,2.7-15.9,2.2-23.3-1.5
			C1007.1,66.1,1004.5,74.8,1005.9,75.5L1005.9,75.5z"/>
	</g>
</g>
<g>
	<g>
		<path fill="#E30613" d="M1030.4,96.5c-1.7,2.2-1.2,5.3-1.2,7.9c0,1.4,0,2.9,0,4.3c0,2,0.5,1.8,2.4,1.3c7.7-2.2,9.4-12,10.3-18.6
			c0.5-3.3-0.5-6.8,0-10c-1.6,10.1-1.3,22.1,5.2,30.4c-0.5-0.7,0.1-4.2,0.1-5c0-0.9,0.5-4.2-0.1-5c-1.6-2.1-2.8-4.2-3.8-6.6
			c-0.5-1.2-0.8-2.4-1.1-3.7c-0.2-0.8-0.3-1.7-0.4-2.5c-0.2,4-0.1,4.8,0.2,2.4c0-3.3,0-6.7,0-10c-0.7,4.5-1.4,8.9-3.6,12.9
			c-0.9,1.7-8.4,8.7-9,5.1c0,3.3,0,6.7,0,10c0.1-1.3,0.4-1.9,1.2-2.9c0.6-0.8,0.1-4.1,0.1-5C1030.4,100.6,1029.9,97.1,1030.4,96.5
			L1030.4,96.5z"/>
	</g>
</g>
<g>
	<g>
		<path fill="#E30613" d="M1051.4,62.7c-0.8,0.4-1.6,0.8-2.3,1.2c-0.1,0,0,1.5,0,1.5c0,1.2,0,2.4,0,3.5s0,2.4,0,3.5
			c0-0.1,0.1,1.5,0,1.5c0.8-0.4,1.6-0.8,2.3-1.2c0.1,0,0-1.5,0-1.5c0-1.2,0-2.4,0-3.5s0-2.4,0-3.5
			C1051.5,64.3,1051.4,62.8,1051.4,62.7L1051.4,62.7z"/>
	</g>
</g>
<g>
	<g>
		<path fill="#E30613" d="M1079.5,68c-15.6-3.8-19.7,17.9-19.7,28.9c0,5.2,0.8,14.7,8.6,11.8c3-1.1,4.8-5.9,6.1-8.5
			c2-4.2,2.9-8.9,3.3-13.5c0-3.3,0-6.5,0-9.8c-0.5,7.6-0.7,15.6,1.2,23c1.1,4.4,3.3,8.9,6.4,12.3c2.7,3,8.1,3.2,9.5-1.1
			c1-3-1-7,0-10c-2,6.2-8.6,2.5-11.2-1c-1.9-2.5-3.2-5.7-4.2-8.6c-0.6-1.6-0.9-3.2-1.2-4.8c-1.1-5.5-0.8,5.5-0.4-0.1
			c0.2-3.3-0.3-6.6,0-9.8c-0.6,6.9-2.7,13.4-6.5,19.2c-4.3,6.5-11.3,1.8-11.4-4.7c0,3.1,0,6.2,0,9.3c1.1-9.9,6.9-25.6,19.6-22.5
			C1078.8,77.8,1080.4,68.2,1079.5,68L1079.5,68z"/>
	</g>
</g>
<g>
	<g>
		<path fill="#E30613" d="M1115.2,35c-4.2-1.4-3,11.6-3.1,13.5c-0.2,7.4-0.3,14.8-0.3,22.2c-0.1,13.6-0.1,27.3,0.1,40.9
			c0,1.8,0.1-1.5,0.1-1.8c0-2.3,0-4.6,0-6.8c-0.2-11.4-0.2-22.8,0-34.2c0.1-5,0.2-10,0.3-15.1c0-2-0.8-10,2.9-8.7
			C1114.3,44.7,1116.3,35.3,1115.2,35L1115.2,35z"/>
	</g>
</g>
<g>
	<g>
		<path fill="#E30613" d="M1116.3,78.2c5.1-1.1,8.2,4.2,10.2,8.1c1.1,2.1,1.7,4.5,2.2,6.8c0.3,2.4,0.4,1.9,0.3-1.4
			c-0.1,1.4-0.5,2.8-0.8,4.2c-0.6,2.3-1.6,4.5-2.8,6.5c-1.3,2.2-3.9,1-5.8,0.1c-4.6-2-7-7.4-7.5-12.1c0,3.3,0,6.7,0,10
			c4.1,6.2,12.1,6.2,18.1,2.8c7.8-4.5,11.9-15.1,15-23c3.4-8.8,5.3-18.2,5.7-27.6c0.3-6.1,0.9-13.3-0.6-19.3
			c-0.8-3.3-3.9-5.4-6.4-2.4c-2.5,3-3,9.4-3.6,13.1c-1.2,7-1.2,14.2-1.1,21.3c0.1,8.1,1,15.9,3.2,23.7c1.2,4.1,2.8,8.1,4.6,12
			c0.9,1.9,2,3.8,3,5.7c0.5,0.9,1.1,1.8,1.7,2.7c-0.1-0.2,3.1-3.8,3.3-4.1c0.6-0.7,0-4.1,0-5c0-0.8-0.6-4.4,0-5
			c-1.1,1.4-2.2,2.8-3.3,4.1c0.1-0.1-2.3-3.8-2.5-4.1c-1.6-2.8-2.9-5.7-4.2-8.7c-2.7-6.4-4.3-13.3-5.2-20.2
			c-0.3-2.1-0.4-4.1-0.5-6.2c0.4,7.7,0.2-0.2,0.3-1.4c0.3-3.2,0.9-6.4,1.6-9.5c0.8-3.8,4.2-15.2,8.7-7.2c0.9,1.5,0.9,3.6,1,5.3
			c-0.3-6.5-0.3,0.8-0.5,2.4c-0.4,3.5-1.1,6.9-1.9,10.3c-1.8,7.4-4.7,14.4-8.2,21.1c-3,5.8-7.3,11.4-13.7,13.6
			c-5.2,1.8-11.3,0.1-14.4-4.5c0.5,0.8,0,4.1,0,5c0,1.6-0.1,3.4,0,5c0.6,6.3,4.6,12.1,11.2,13.1c4.5,0.7,5.9-12.3,6-15.5
			c0.1-5,0.3-10.1-0.5-15c-0.9-5.5-5.3-16.4-12.4-14.8C1115.6,68.4,1117,78.1,1116.3,78.2L1116.3,78.2z"/>
	</g>
</g>
<g>
	<g>
		<path fill="#E30613" d="M1170.5,92.7c1.8-5.1,3.6-10.1,5.3-15.2c0.9-2.5,0.1-6.7,0-9.3c-0.1-4.1-4.5,0.4-5.4,1.6
			c-3.1,4.8-5.2,10.3-6.3,15.9c-0.6,3-0.4,6.2-0.4,9.2c0,3.6-0.2,6.9,1.5,10.2c1.9,3.7,6.6,4.3,10.2,3.8c5.1-0.7,9.2-5.1,12.7-8.6
			c0.6-0.6,0-4.3,0-5c0-0.7-0.5-4.5,0-5c-4,4.1-8.1,8-14,8.8c-6,0.8-9.9-3.6-10.3-9.2c0,2.5,0,5,0,7.5c0-0.5,0-0.9,0-1.4
			c0,0.8,0,1.7,0,2.5c0.4-5,2-9.6,4-14.1c0.6-1.3,5.8-11.3,7.9-6.9c0-3.3,0-6.7,0-10c-1.8,5.1-3.6,10.1-5.3,15.2
			C1169.4,85.7,1171.5,89.7,1170.5,92.7L1170.5,92.7z"/>
	</g>
</g>
<g>
	<g>
		<path fill="#E30613" d="M1212.9,64.8c-4.7-0.1-8.4,2-10.9,5.9c-1.9,3.1-1.3,7.9-1.3,11.4c0,3.6,0.1,6.6,1.9,9.9
			c2.6,4.6,8.6,4.6,9.5,10.5c0-3.3,0-6.5,0-9.8c-0.2,7-6.2,10-11.9,12.4c-1.3,0.5,1.1,9.5,0,10c4.9-2.1,11.7-5.1,11.9-11.4
			c0.1-4.2,0.4-8.5-0.2-12.6c-0.4-2.8-3.4-4.3-5.5-5.5c-2.8-1.6-4.4-4.1-5.3-7.2c1.5,5.1-0.8,6.2,0.9,2.4c0.5-1.2,1.5-2.1,2.4-3.1
			c2.2-2.2,5.4-3,8.5-2.9C1212.9,74.8,1213.1,64.8,1212.9,64.8L1212.9,64.8z"/>
	</g>
</g>
</svg>
